<svg width="131" height="131" viewBox="0 0 131 131" fill="none" xmlns="http://www.w3.org/2000/svg">
<g clip-path="url(#clip0_49_966)">
<path d="M65.5 131C101.675 131 131 101.675 131 65.5C131 29.3253 101.675 0 65.5 0C29.3253 0 0 29.3253 0 65.5C0 101.675 29.3253 131 65.5 131Z" fill="#D38734"/>
<path d="M80.2841 26.6515L80.2519 26.7612L80.2196 26.8709L80.2002 26.9419C80.1744 27.0387 80.1357 27.1097 80.0905 27.1549C80.0454 27.2388 79.9679 27.2839 79.8518 27.2839H79.6904L79.5291 27.2452C79.413 27.213 79.2774 27.0839 79.1355 26.8709C78.8967 26.4902 78.6708 26.1159 78.4514 25.7416C78.232 25.3673 77.9997 24.9608 77.7545 24.522L76.5671 22.4053C76.4703 22.2311 76.3799 22.0956 76.3025 22.0052C76.2251 21.9149 76.0637 21.831 75.825 21.7664C75.5927 21.7019 75.4249 21.7535 75.3281 21.9213C75.2313 22.0891 75.1603 22.2569 75.1151 22.4182L74.2698 25.4835C74.2504 25.548 74.1988 25.6061 74.1084 25.6577C74.0181 25.7094 73.9277 25.7223 73.8374 25.6964L73.6502 25.6448C73.5534 25.619 73.476 25.5609 73.4244 25.4706C73.3792 25.3738 73.3663 25.2963 73.3857 25.2318L74.9215 19.6563C74.9732 19.4627 75.0377 19.3271 75.1216 19.2432C75.2377 19.1142 75.3603 19.0497 75.4959 19.0561C75.6056 19.069 75.7411 19.0948 75.896 19.14C76.1476 19.211 76.3477 19.3788 76.5026 19.6627L78.8451 23.9734C78.9677 24.1993 79.1161 24.3348 79.2903 24.3864C79.3291 24.3994 79.3549 24.4058 79.3807 24.4058C79.4 24.4058 79.4388 24.4058 79.4839 24.4058C79.7292 24.3671 79.9163 24.2187 80.0389 23.9734L80.9036 20.934C80.923 20.8695 80.9746 20.8114 81.065 20.7533C81.1553 20.6952 81.2457 20.6823 81.3425 20.7081L81.5361 20.7597C81.6264 20.7856 81.6974 20.8436 81.749 20.9404C81.8006 21.0372 81.82 21.1147 81.8006 21.1792L80.2841 26.6773V26.6515Z" fill="#563118"/>
<path d="M80.8654 27.1356L83.4596 25.0641L86.0667 22.9927C86.1312 22.9346 86.228 22.9152 86.3635 22.9281C86.4991 22.941 86.6281 22.9798 86.7572 23.0443C86.8992 23.1153 87.0089 23.1927 87.0992 23.2895C87.1831 23.3799 87.2283 23.4767 87.2283 23.567C87.2154 24.6834 87.196 25.8063 87.1766 26.9485C87.1508 28.0713 87.1186 29.2071 87.0734 30.3493C87.0669 30.4074 87.054 30.459 87.0282 30.5042C87.0024 30.5558 86.9637 30.6074 86.9185 30.6526C86.8734 30.6978 86.7895 30.7042 86.6669 30.6784L86.512 30.6139L86.3571 30.5365L86.0409 30.3687C85.9893 30.3429 85.9505 30.2848 85.9247 30.188C85.9118 30.1557 85.9054 30.046 85.9118 29.8782L85.9312 29.5169L85.957 29.1103C85.957 28.8844 85.9441 28.7102 85.9054 28.5941C85.8666 28.4779 85.8215 28.3746 85.7699 28.3037C85.7376 28.2585 85.6924 28.2262 85.6472 28.2004L85.5892 28.1746L85.5375 28.1488L85.4859 28.1036L84.86 27.7745L84.3889 27.5357L83.7629 27.226L83.2789 27.0066L83.1499 26.942C83.0982 26.9162 83.0466 26.9033 83.0014 26.8904L82.8853 26.9162L82.7627 26.9549C82.6594 26.9872 82.5562 27.0388 82.4529 27.1098L82.2335 27.284L81.8592 27.5744C81.7366 27.6712 81.5753 27.7809 81.3752 27.9036C81.343 27.9294 81.2978 27.9423 81.2397 27.9487C81.1816 27.9487 81.1171 27.9229 81.0461 27.8907L81.0009 27.8713C80.8783 27.8068 80.8009 27.7616 80.7686 27.7293C80.6202 27.6583 80.5944 27.5357 80.6783 27.3615L80.7299 27.284L80.859 27.1485L80.8654 27.1356ZM84.2146 26.671L84.7696 26.9808L84.8341 27.013L84.8922 27.0453L84.9438 27.0711C85.0019 27.1034 85.06 27.1292 85.1181 27.1485C85.1762 27.1679 85.2342 27.1937 85.2923 27.2131C85.4472 27.2905 85.6085 27.2582 85.7763 27.1163C85.8602 27.0324 85.9312 26.9356 85.9893 26.813C86.0667 26.6581 86.1183 26.4774 86.157 26.2644C86.1958 26.0773 86.2151 25.8837 86.2022 25.6901C86.1829 25.4062 86.1054 25.2061 85.9764 25.09L85.7569 24.9415L85.6214 24.877C85.6214 24.877 85.5569 24.8576 85.5053 24.8576C85.3698 24.8447 85.1762 24.9093 84.9309 25.0706C84.7761 25.1739 84.6212 25.3094 84.4599 25.4772C84.2985 25.6449 84.1824 25.8063 84.1049 25.9547C84.0468 26.0644 84.0146 26.1741 84.0081 26.2709C83.9888 26.458 84.0598 26.5936 84.2211 26.6774L84.2146 26.671Z" fill="#563118"/>
<path d="M92.4876 28.4262C92.5973 28.252 92.6295 28.0584 92.5908 27.8455C92.5521 27.6325 92.4488 27.4647 92.281 27.3421L92.4682 27.4841L92.0036 27.1356L91.3582 26.6516L91.0291 26.387C90.9839 26.3483 90.9388 26.2644 90.8936 26.1289C90.8613 25.9998 90.8872 25.8901 90.9581 25.7869C91.0162 25.7094 91.1001 25.6578 91.2163 25.632C91.3324 25.6062 91.4421 25.6256 91.5389 25.6965L96.2885 29.2394C96.3917 29.3168 96.4498 29.4136 96.4498 29.5297C96.4498 29.6459 96.424 29.7427 96.3595 29.8266C96.2949 29.9169 96.1852 29.975 96.0433 29.9879C95.9077 29.9879 95.8174 29.975 95.7593 29.9363L95.1011 29.4459L94.4493 28.9619C94.3719 28.9038 94.288 28.8651 94.1912 28.8457C94.1009 28.8263 93.9976 28.8263 93.8943 28.8457C93.7007 28.8715 93.533 28.9554 93.4039 29.1038L90.4612 33.0209C90.3773 33.1371 90.2676 33.1758 90.1321 33.15C89.9966 33.1242 89.8869 33.0726 89.7901 33.0016C89.6933 32.9306 89.6094 32.8273 89.5384 32.7112C89.4674 32.5886 89.4739 32.4724 89.5642 32.3562L91.0227 30.4009L92.4876 28.4392V28.4262Z" fill="#563118"/>
<path d="M102.051 35.6086C102.096 35.5699 102.18 35.5505 102.296 35.557C102.406 35.5699 102.509 35.6215 102.586 35.7054L102.754 35.8861C102.831 35.97 102.87 36.0668 102.87 36.1894C102.87 36.312 102.851 36.3895 102.799 36.4346L102.173 37.009L101.631 37.5059L101.044 38.035L99.9727 39.0224L99.65 39.3192L99.5016 39.4612C99.379 39.5773 99.237 39.6677 99.0821 39.7387C98.9273 39.8097 98.7595 39.8613 98.5723 39.8871C98.2239 39.9452 97.8883 39.9387 97.5721 39.8677C97.2559 39.7968 96.9203 39.6161 96.5654 39.3321C96.2105 39.0482 95.9201 38.7836 95.7007 38.5513C95.4748 38.3061 95.2683 38.0608 95.0876 37.8156C94.9069 37.5704 94.7391 37.3187 94.5972 37.0606C94.4552 36.8025 94.3455 36.5443 94.281 36.2927C94.2164 36.041 94.2229 35.757 94.2939 35.4344C94.3777 34.9956 94.5843 34.6342 94.9069 34.3373L98.1464 31.3624C98.1916 31.3237 98.2755 31.3043 98.3916 31.3108C98.5078 31.3237 98.6046 31.3753 98.6885 31.4657L98.8563 31.6464C98.9337 31.7303 98.9724 31.8335 98.9789 31.9497C98.9853 32.0658 98.9595 32.1497 98.9079 32.1949L95.6813 35.1698C95.5393 35.3053 95.4361 35.4667 95.3909 35.6603C95.3457 35.8538 95.3264 36.0539 95.3393 36.2669C95.3586 36.4927 95.4038 36.7121 95.4942 36.9186L95.6361 37.1897L95.8233 37.4994L95.9652 37.6866L96.0814 37.8156L96.1201 37.8543L96.2621 38.0092C96.3202 38.0673 96.3718 38.1254 96.4299 38.1705C96.5008 38.248 96.5654 38.3061 96.6235 38.3448L96.9332 38.5577C97.1397 38.6933 97.3333 38.7836 97.5269 38.8159C97.7205 38.8481 97.9399 38.8546 98.1787 38.8288C98.2884 38.8159 98.3981 38.7901 98.5078 38.7513C98.6175 38.7062 98.7079 38.6545 98.7788 38.5836L102.031 35.6215L102.051 35.6086Z" fill="#563118"/>
<path d="M104.857 38.8417L105.967 40.6679L107.09 42.5135C107.264 42.7975 107.355 43.1201 107.374 43.4944C107.393 43.8042 107.297 44.0946 107.097 44.3721C106.993 44.5076 106.884 44.6302 106.768 44.7399C106.716 44.7915 106.658 44.8367 106.6 44.8883C106.542 44.9399 106.477 44.9787 106.406 45.0238C106.245 45.1206 106.096 45.1916 105.948 45.2368C105.8 45.282 105.651 45.2949 105.503 45.2884C105.212 45.269 104.915 45.2045 104.619 45.1077C104.47 45.0625 104.309 44.9851 104.135 44.8689C103.96 44.7528 103.812 44.656 103.689 44.5915L103.315 45.1787C103.167 45.4239 103.07 45.5982 103.025 45.7079L102.521 46.863L102.379 47.1469C102.341 47.2244 102.289 47.2889 102.231 47.3405C102.089 47.3792 101.934 47.2566 101.766 46.9856L101.611 46.721C101.566 46.6436 101.54 46.5597 101.547 46.4693C101.547 46.2435 101.618 45.9918 101.773 45.7079L102.283 44.8431L102.457 44.5463L102.618 44.243C102.715 44.0558 102.786 43.8623 102.838 43.6622L102.812 43.3783L102.773 43.1911L102.747 43.0814L102.121 42.0554C101.986 41.8359 101.831 41.7262 101.644 41.7198C101.463 41.7198 101.263 41.7521 101.044 41.823L100.308 42.2554L99.5593 42.7136C99.4883 42.7588 99.3979 42.7652 99.2882 42.7458C99.1785 42.7265 99.1076 42.6813 99.0688 42.6232L98.8301 42.1973C98.7526 42.0037 98.8107 41.8488 99.0043 41.7327L101.54 40.1904L104.089 38.6416C104.244 38.5513 104.386 38.519 104.515 38.5513C104.644 38.5835 104.761 38.6868 104.864 38.8546L104.857 38.8417ZM102.896 41.5907L103.515 42.6103L104.135 43.6299C104.238 43.7977 104.348 43.9268 104.457 44.03C104.573 44.1268 104.702 44.1978 104.838 44.2365C105.115 44.3075 105.412 44.2494 105.735 44.0494C105.961 43.9139 106.129 43.688 106.232 43.3783C106.335 43.0685 106.329 42.8039 106.2 42.591L105.483 41.41L104.767 40.2291C104.741 40.1839 104.702 40.1452 104.651 40.1129C104.599 40.0807 104.541 40.0613 104.464 40.0549C104.277 40.0355 104.096 40.0742 103.915 40.1581C103.825 40.2033 103.735 40.2485 103.657 40.2872C103.573 40.3323 103.496 40.3775 103.418 40.4227C103.276 40.5066 103.147 40.6098 103.025 40.7131C102.902 40.8163 102.831 40.9454 102.812 41.0938C102.792 41.1648 102.792 41.2487 102.805 41.3455C102.825 41.4358 102.857 41.5197 102.896 41.5907Z" fill="#563118"/>
<path d="M102.916 47.9473L106.226 48.1989L109.543 48.4571C109.627 48.4571 109.717 48.5087 109.801 48.6119C109.892 48.7152 109.963 48.8314 110.008 48.9604C110.06 49.1088 110.092 49.2444 110.092 49.367C110.092 49.4896 110.06 49.5864 109.995 49.6638C109.227 50.4705 108.446 51.2836 107.652 52.1031C106.865 52.9098 106.071 53.7164 105.258 54.5231C105.213 54.5618 105.168 54.5876 105.116 54.607C105.058 54.6263 105 54.6392 104.936 54.6392C104.871 54.6392 104.807 54.5941 104.736 54.4908L104.671 54.3359L104.613 54.1746L104.497 53.839C104.477 53.781 104.49 53.71 104.536 53.6261C104.548 53.5938 104.619 53.5099 104.742 53.3873L105 53.1356L105.297 52.8582C105.452 52.6968 105.562 52.5548 105.613 52.4451C105.665 52.3354 105.697 52.2322 105.71 52.1354C105.71 52.0773 105.71 52.0257 105.691 51.9741L105.665 51.9095L105.646 51.8579L105.633 51.7934L105.394 51.1222L105.207 50.6253L104.961 49.9736L104.755 49.4831L104.703 49.3476C104.684 49.296 104.658 49.2508 104.626 49.2121L104.523 49.1476L104.407 49.0959C104.303 49.0508 104.194 49.0185 104.077 48.9991L103.8 48.9733L103.329 48.9346C103.174 48.9217 102.98 48.8959 102.754 48.8507C102.709 48.8507 102.671 48.8249 102.625 48.7862C102.587 48.741 102.548 48.6829 102.522 48.6119L102.503 48.5668C102.451 48.4377 102.432 48.3474 102.432 48.3086C102.374 48.1538 102.432 48.0441 102.613 47.9795L102.709 47.9602L102.896 47.9473H102.916ZM105.678 49.8897L105.871 50.4898L105.897 50.5608L105.923 50.6253L105.942 50.677C105.968 50.7415 105.988 50.7996 106.013 50.8577C106.039 50.9157 106.065 50.9674 106.097 51.0254C106.155 51.1868 106.297 51.2707 106.517 51.2836C106.633 51.2836 106.755 51.2578 106.878 51.2061C107.039 51.1481 107.201 51.0513 107.375 50.9222C107.536 50.8125 107.678 50.6834 107.794 50.5285C107.975 50.3091 108.053 50.1091 108.04 49.9348L107.982 49.6703L107.924 49.5283C107.924 49.5283 107.891 49.4702 107.853 49.4315C107.762 49.3282 107.575 49.2508 107.291 49.1927C107.11 49.1605 106.904 49.154 106.672 49.1669C106.439 49.1798 106.246 49.2185 106.084 49.2766C105.968 49.3218 105.871 49.3734 105.8 49.438C105.658 49.5606 105.613 49.709 105.678 49.8768V49.8897Z" fill="#563118"/>
<path d="M109.595 56.0781L106.93 56.5491C106.698 56.5879 106.491 56.6782 106.311 56.8202C106.13 56.9557 106.052 57.117 106.085 57.3042L106.304 58.5367L106.582 60.1048L106.833 61.5181C106.859 61.6794 106.775 61.7827 106.575 61.8149L106.414 61.8408C106.207 61.8795 106.085 61.8149 106.059 61.6472L105.807 60.2146L105.414 57.9753L105.078 56.091C105.065 56.02 105.059 55.9619 105.065 55.9167C105.065 55.8715 105.084 55.8264 105.123 55.7877C105.181 55.7231 105.246 55.678 105.33 55.665L108.401 55.123L111.467 54.5809C111.525 54.568 111.602 54.6003 111.705 54.6713C111.796 54.7422 111.847 54.839 111.873 54.9616L111.918 55.2069C111.938 55.3166 111.918 55.4263 111.86 55.5295C111.802 55.6328 111.738 55.6909 111.673 55.6973L110.641 55.878L109.615 56.0716L109.595 56.0781Z" fill="#563118"/>
<path d="M109.259 67.4293L109.279 66.229L109.298 65.0351C109.298 64.7706 109.221 64.5899 109.059 64.4931C108.898 64.3898 108.705 64.3253 108.485 64.293H108.279L108.066 64.2866H107.859L107.659 64.2801C107.42 64.2801 107.24 64.3382 107.104 64.4737C106.969 64.6092 106.904 64.8028 106.898 65.061L106.865 67.1453L106.833 69.2168C106.833 69.3846 106.723 69.4685 106.517 69.462H106.343C106.136 69.462 106.033 69.3717 106.039 69.2039L106.085 66.3451L106.13 63.4928C106.13 63.396 106.162 63.3121 106.214 63.2347C106.272 63.1573 106.336 63.125 106.42 63.125L109.543 63.1766L112.673 63.2283C112.751 63.2283 112.822 63.2605 112.886 63.3121C112.957 63.3702 112.989 63.467 112.983 63.6025L112.938 66.3129L112.893 69.0232C112.893 69.191 112.783 69.2749 112.576 69.2749H112.402C112.196 69.2749 112.092 69.1846 112.092 69.0103L112.125 66.9711L112.157 64.9383C112.157 64.7577 112.054 64.6092 111.847 64.4931C111.654 64.3898 111.441 64.3318 111.195 64.3318C110.963 64.3318 110.724 64.3834 110.486 64.506C110.247 64.6286 110.124 64.8222 110.118 65.0932C110.118 65.1642 110.118 65.2804 110.105 65.4417C110.098 65.6095 110.092 65.6934 110.092 65.6998C110.092 65.7773 110.092 65.8612 110.092 65.958C110.092 66.0483 110.092 66.1516 110.092 66.2548L110.073 67.4293C110.073 67.468 110.073 67.5067 110.053 67.5325C110.04 67.5584 110.015 67.5906 109.976 67.6358L109.879 67.7068C109.847 67.7261 109.808 67.7326 109.763 67.7326H109.569C109.492 67.7326 109.421 67.6939 109.35 67.6229C109.292 67.5519 109.266 67.4874 109.266 67.4164L109.259 67.4293Z" fill="#563118"/>
<path d="M105.825 70.7335C105.844 70.6174 105.915 70.527 106.025 70.456C106.148 70.398 106.244 70.3786 106.322 70.3915C106.438 70.4109 106.535 70.4754 106.612 70.5787L106.709 70.7077L106.819 70.8303L108.322 72.5985L109.82 74.3731C109.865 74.4183 109.916 74.4635 109.974 74.5151C110.032 74.5667 110.091 74.6119 110.149 74.6506C110.207 74.6893 110.271 74.7152 110.323 74.741C110.381 74.7668 110.439 74.7797 110.51 74.7926C110.613 74.812 110.704 74.812 110.794 74.7991C110.884 74.7861 110.962 74.7539 111.039 74.7023C111.142 74.6184 111.207 74.5345 111.239 74.457L111.788 71.566C111.801 71.5144 111.846 71.4498 111.943 71.3789C112.039 71.3079 112.13 71.2756 112.22 71.295L112.356 71.3208C112.446 71.3401 112.523 71.3982 112.582 71.495C112.64 71.5918 112.665 71.6757 112.652 71.7338L111.659 76.9673C111.646 77.0254 111.594 77.0835 111.504 77.1609C111.407 77.2319 111.317 77.2577 111.226 77.2448L111.084 77.219C111 77.2061 110.929 77.148 110.865 77.0577C110.258 76.4253 109.671 75.767 109.09 75.0894L108.522 74.4183L107.948 73.7601L107.361 73.1019C107.238 72.9986 107.096 72.9341 106.948 72.9018L106.78 72.8825C106.477 72.8566 106.303 72.9599 106.251 73.2116L106.232 73.3213L105.683 76.1929C105.67 76.251 105.619 76.3156 105.528 76.3865C105.438 76.4575 105.341 76.4833 105.251 76.464L105.115 76.4382C105.031 76.4188 104.954 76.3607 104.883 76.2639C104.825 76.1671 104.799 76.0897 104.812 76.0316L105.831 70.7464L105.825 70.7335Z" fill="#563118"/>
<path d="M105.174 77.0704L107.49 79.4517L109.807 81.8458C109.872 81.9039 109.897 82.0007 109.897 82.1362C109.897 82.2717 109.872 82.4072 109.82 82.5363C109.762 82.6847 109.697 82.8009 109.614 82.8977C109.53 82.988 109.439 83.0461 109.349 83.0525C108.239 83.1493 107.116 83.2397 105.98 83.33C104.857 83.4139 103.728 83.4914 102.586 83.5623C102.528 83.5623 102.476 83.5494 102.425 83.5301C102.367 83.5107 102.315 83.4785 102.263 83.4397C102.212 83.401 102.199 83.3171 102.212 83.1945L102.263 83.0332L102.321 82.8718L102.457 82.5427C102.476 82.4847 102.534 82.4395 102.625 82.4072C102.657 82.3879 102.76 82.3749 102.934 82.362L103.296 82.3427L103.702 82.3298C103.928 82.3104 104.096 82.2782 104.212 82.2265C104.328 82.1749 104.419 82.1233 104.49 82.0652C104.528 82.0265 104.561 81.9813 104.58 81.9297L104.606 81.8651L104.625 81.8135L104.664 81.7554L104.928 81.0972L105.116 80.6003L105.367 79.9485L105.535 79.4452L105.587 79.3097C105.606 79.2581 105.619 79.2064 105.619 79.1548L105.58 79.0386L105.529 78.9225C105.483 78.8192 105.419 78.7224 105.348 78.6321L105.154 78.432L104.832 78.09C104.722 77.9803 104.599 77.8254 104.457 77.6448C104.432 77.6125 104.412 77.5673 104.399 77.5092C104.399 77.4512 104.412 77.3802 104.438 77.3092L104.457 77.264C104.509 77.135 104.548 77.0511 104.574 77.0188C104.632 76.8639 104.754 76.8252 104.928 76.8897L105.012 76.9349L105.161 77.0446L105.174 77.0704ZM105.967 80.3551L105.716 80.9359L105.69 81.0069L105.664 81.0714L105.645 81.123C105.619 81.1876 105.6 81.2456 105.58 81.3037C105.561 81.3618 105.548 81.4263 105.535 81.4844C105.471 81.6457 105.522 81.8006 105.677 81.9555C105.767 82.0329 105.877 82.091 106 82.1426C106.161 82.2007 106.348 82.2394 106.561 82.2588C106.755 82.2846 106.948 82.2782 107.135 82.2459C107.413 82.1943 107.607 82.1039 107.71 81.9619L107.839 81.7296L107.891 81.5877C107.891 81.5877 107.903 81.5167 107.897 81.4715C107.897 81.336 107.813 81.1488 107.632 80.923C107.516 80.781 107.361 80.639 107.181 80.4906C107 80.3486 106.826 80.2454 106.671 80.1873C106.555 80.1421 106.445 80.1228 106.348 80.1163C106.155 80.1163 106.032 80.2002 105.967 80.368V80.3551Z" fill="#563118"/>
<path d="M101.477 84.8529C101.735 84.627 101.994 84.5883 102.258 84.7302L102.348 84.7819C102.387 84.8012 102.413 84.827 102.445 84.8529C102.6 84.9368 102.69 85.1045 102.703 85.3627C102.71 85.524 102.684 85.666 102.613 85.7886C102.555 85.9047 102.452 86.008 102.316 86.1048C102.181 86.2016 102.026 86.2532 101.852 86.2597C101.671 86.2597 101.516 86.2209 101.368 86.1435C101.303 86.1112 101.232 86.0596 101.155 85.9951C101.084 85.9305 100.987 85.8273 100.864 85.6789C100.748 85.5304 100.651 85.4078 100.593 85.3046C100.445 85.0594 100.412 84.8722 100.49 84.7561C100.554 84.6722 100.664 84.6464 100.806 84.6915L100.929 84.7561L101.038 84.8206L101.103 84.8464C101.18 84.8851 101.297 84.8916 101.464 84.8529H101.477Z" fill="#563118"/>
<path d="M99.1663 93.3454C99.289 93.1776 99.3406 92.984 99.3083 92.771C99.2825 92.5581 99.1857 92.3774 99.0244 92.2354L99.0954 92.3L99.1922 92.3903L99.2309 92.429L99.1663 92.3709L98.6436 91.9063L97.9531 91.2933L97.5918 90.9706C97.5466 90.9319 97.5208 90.848 97.5143 90.7254C97.5143 90.6092 97.5595 90.5124 97.6434 90.4221L97.8047 90.2414C97.8757 90.1639 97.9725 90.1123 98.0951 90.0994C98.2177 90.093 98.3016 90.0994 98.3468 90.1317L102.987 94.2746C103.032 94.3134 103.058 94.3908 103.058 94.5134C103.058 94.6296 103.025 94.7328 102.948 94.8232L102.787 95.0039C102.709 95.0877 102.612 95.1394 102.496 95.1523C102.38 95.1652 102.296 95.1523 102.245 95.1071L101.58 94.5134L100.915 93.9197C100.741 93.7648 100.567 93.6939 100.386 93.7068C100.205 93.7197 100.031 93.7971 99.8504 93.952L99.4051 94.4553L98.5081 95.462L97.7531 96.3139L97.7273 96.3397C97.5853 96.501 97.5143 96.701 97.5337 96.9269C97.5466 97.1592 97.6434 97.3464 97.8176 97.5012L98.4565 98.0691L99.0954 98.637C99.1405 98.6757 99.1663 98.7532 99.1663 98.8758C99.1663 98.9919 99.1341 99.1016 99.0502 99.192L98.8889 99.3727C98.8114 99.4566 98.7146 99.5082 98.5985 99.5211C98.4823 99.534 98.3984 99.5211 98.3468 99.4759L96.0043 97.3915L93.7005 95.3394C93.6553 95.3007 93.6295 95.2168 93.623 95.0942C93.623 94.978 93.6682 94.8812 93.7457 94.7909L93.907 94.6102C93.9909 94.5134 94.0877 94.4618 94.1974 94.4489C94.3071 94.436 94.391 94.4489 94.4426 94.5005L95.2105 95.1845L95.9849 95.8686C96.3205 96.0751 96.6431 96.0622 96.9529 95.8105L98.0564 94.565L99.1599 93.326L99.1663 93.3454Z" fill="#563118"/>
<path d="M96.2243 101.25C96.263 101.296 96.2759 101.379 96.263 101.496C96.2501 101.612 96.1985 101.715 96.1081 101.792L95.921 101.954C95.8371 102.031 95.7339 102.064 95.6113 102.064C95.4886 102.064 95.4112 102.038 95.366 101.986L91.307 97.2688C91.2683 97.2236 91.2489 97.1333 91.2618 97.0171C91.2747 96.9074 91.3328 96.8106 91.4231 96.7332L91.6103 96.5718C91.7006 96.4944 91.8039 96.4492 91.92 96.4557C92.0362 96.4557 92.1136 96.488 92.1652 96.5396L96.2243 101.257V101.25Z" fill="#563118"/>
<path d="M88.5382 98.8886C88.6608 98.8047 88.919 98.6885 89.2997 98.5401C89.6482 98.3981 89.9708 98.3336 90.2612 98.353C90.4935 98.353 90.6613 98.424 90.7581 98.5659L90.8162 98.6756C90.8807 98.8628 90.8549 98.9918 90.7388 99.0757L90.6678 99.108C90.4806 99.179 90.3193 99.2242 90.1773 99.25C90.0612 99.2758 89.9257 99.308 89.7643 99.3661C89.603 99.4242 89.4094 99.4887 89.19 99.5726C88.9964 99.6436 88.7899 99.734 88.5769 99.8372C88.4737 99.8888 88.3834 99.9405 88.2995 99.9856C88.2156 100.037 88.1188 100.095 88.0155 100.16C87.9768 100.186 87.9187 100.224 87.8413 100.276C87.7638 100.328 87.7122 100.36 87.68 100.386C87.5832 100.45 87.4928 100.528 87.4089 100.612C87.2347 100.773 87.0992 100.947 87.0088 101.141C86.8346 101.496 86.8604 101.844 87.0927 102.193L87.1508 102.283L87.196 102.335C87.4025 102.58 87.7122 102.612 88.1317 102.444C88.4802 102.302 88.6931 102.212 88.777 102.173C89.0158 102.064 89.2352 101.941 89.4288 101.812C89.6675 101.676 89.8869 101.56 90.0805 101.463C90.2741 101.367 90.4806 101.27 90.6871 101.173C91.0743 100.992 91.4486 100.915 91.8035 100.928C92.2036 100.934 92.5392 101.089 92.8038 101.386L93.0103 101.651C93.1394 101.851 93.2362 102.057 93.2878 102.283C93.4039 102.728 93.3523 103.154 93.1523 103.567C92.9458 103.98 92.6876 104.348 92.3779 104.664C92.294 104.748 92.2295 104.806 92.1843 104.845C92.1391 104.884 92.081 104.929 92.0101 104.974L91.4873 105.335C91.3067 105.451 91.1195 105.561 90.9259 105.652C90.7323 105.748 90.5065 105.839 90.2612 105.929C89.816 106.103 89.4288 106.194 89.0932 106.2C88.8028 106.2 88.5963 106.11 88.4737 105.923L88.4285 105.858L88.3963 105.774C88.3382 105.606 88.3704 105.484 88.4931 105.406L88.5899 105.355C88.7318 105.297 88.8996 105.264 89.0868 105.264C89.2803 105.264 89.4094 105.258 89.4804 105.245C89.6869 105.206 89.9321 105.135 90.2161 105.032L90.6807 104.845C90.7517 104.813 90.8162 104.78 90.8743 104.748C90.9324 104.716 91.0034 104.677 91.0743 104.625C91.197 104.548 91.3002 104.471 91.397 104.406C91.4938 104.342 91.5841 104.271 91.6809 104.187C91.7777 104.109 91.881 104 91.9842 103.864C92.2295 103.541 92.3069 103.225 92.223 102.909C92.1907 102.78 92.1456 102.67 92.0875 102.586C91.9842 102.425 91.8294 102.341 91.6229 102.322C91.397 102.302 91.1066 102.367 90.7517 102.515L89.674 103.032L89.1126 103.303C89.0416 103.341 88.99 103.367 88.9641 103.374C88.9383 103.386 88.8673 103.412 88.7512 103.457C88.4414 103.593 88.1381 103.696 87.8413 103.754C87.5444 103.812 87.2605 103.819 87.0024 103.767C86.7442 103.716 86.499 103.574 86.2796 103.341L86.1376 103.161L86.0538 103.044C85.8989 102.819 85.8021 102.58 85.7504 102.328C85.6924 102.005 85.7246 101.689 85.8537 101.367C86.0731 100.799 86.4474 100.302 86.9766 99.863L87.2347 99.6694L87.5638 99.45L87.7703 99.3145L88.5253 98.8628L88.5382 98.8886Z" fill="#563118"/>
<path d="M83.8003 107.555C83.8971 107.736 84.0455 107.865 84.252 107.936C84.4585 108.007 84.6521 108.007 84.8457 107.923L84.6263 108.014L85.1619 107.788L85.9041 107.471L86.2977 107.323C86.3493 107.297 86.4461 107.304 86.5881 107.336C86.7107 107.375 86.8011 107.452 86.8462 107.568C86.885 107.652 86.885 107.755 86.8462 107.872C86.8075 107.988 86.7365 108.072 86.6268 108.117L81.1739 110.421C81.0513 110.472 80.9416 110.472 80.8383 110.421C80.735 110.362 80.6705 110.292 80.6253 110.195C80.5802 110.091 80.5866 109.969 80.6447 109.84C80.7092 109.724 80.7673 109.646 80.8319 109.62L81.5869 109.304L82.3354 108.988C82.4258 108.949 82.5032 108.898 82.5678 108.827C82.6323 108.756 82.6839 108.672 82.7162 108.569C82.7936 108.388 82.8001 108.201 82.742 108.014L80.8512 103.496C80.7996 103.367 80.8125 103.251 80.9093 103.148C81.0061 103.045 81.1029 102.974 81.2126 102.928C81.3223 102.883 81.4514 102.857 81.5933 102.857C81.7353 102.857 81.8321 102.922 81.8902 103.057L82.8388 105.303L83.7939 107.562L83.8003 107.555Z" fill="#563118"/>
<path d="M75.0246 112.092C73.863 112.331 72.8498 112.215 71.9851 111.75C71.5527 111.518 71.1978 111.201 70.9074 110.795C70.617 110.395 70.4105 109.872 70.2815 109.233C70.2492 109.091 70.2298 108.956 70.2234 108.84C70.2169 108.723 70.2234 108.594 70.2298 108.459C70.2492 108.214 70.3008 107.955 70.3976 107.697C70.5589 107.239 70.8106 106.82 71.1526 106.452C71.4624 106.129 71.8173 105.858 72.2239 105.639C72.6304 105.419 73.0821 105.258 73.5726 105.155C74.063 105.058 74.5212 105.026 74.9536 105.058C75.3859 105.097 75.8054 105.206 76.2055 105.394C76.6249 105.587 77.0121 105.871 77.3606 106.245C77.5284 106.439 77.6768 106.652 77.7994 106.891C77.8575 107.007 77.9091 107.123 77.9543 107.259C77.9995 107.394 78.0382 107.523 78.064 107.665C78.3092 108.852 78.0898 109.859 77.4252 110.698C76.8379 111.414 76.0313 111.879 75.0052 112.092H75.0246ZM76.9863 107.878C76.7734 107.213 76.4378 106.716 75.9667 106.4C75.3601 106 74.6309 105.884 73.7726 106.058C72.9789 106.22 72.3787 106.529 71.9722 106.981C71.5334 107.465 71.3398 108.123 71.4043 108.962C71.5011 109.44 71.6366 109.833 71.8109 110.15C71.9851 110.466 72.2045 110.717 72.482 110.905C72.8047 111.118 73.1789 111.26 73.6113 111.318C73.7984 111.343 74.005 111.35 74.2244 111.343C74.3147 111.343 74.418 111.331 74.5341 111.311C74.6503 111.298 74.7535 111.279 74.8568 111.26C75.2375 111.182 75.5731 111.053 75.8764 110.866C76.1732 110.679 76.4314 110.44 76.6379 110.15C77.0702 109.569 77.2186 108.917 77.0702 108.207L77.0444 108.065L76.9863 107.872V107.878Z" fill="#563118"/>
<path d="M67.6943 113.008L65.5583 112.976L63.3965 112.944C63.0674 112.944 62.7383 112.847 62.4156 112.66C62.1446 112.511 61.951 112.272 61.8219 111.956C61.7638 111.795 61.7122 111.64 61.6799 111.479C61.667 111.408 61.6541 111.337 61.6477 111.259C61.6412 111.182 61.6348 111.104 61.6348 111.027C61.6348 110.84 61.6606 110.672 61.6993 110.524C61.738 110.375 61.8025 110.24 61.8929 110.117C62.0671 109.885 62.2736 109.665 62.5189 109.472C62.635 109.368 62.7899 109.278 62.977 109.194C63.1706 109.11 63.3255 109.033 63.4546 108.968L63.1577 108.342C63.0287 108.084 62.9319 107.91 62.8673 107.813L62.1639 106.768L62.0026 106.497C61.9574 106.419 61.9316 106.342 61.9187 106.271C61.9639 106.129 62.1446 106.064 62.4672 106.064H62.777C62.8673 106.077 62.9512 106.103 63.0222 106.155C63.2093 106.271 63.39 106.471 63.5449 106.755L64.0031 107.645L64.158 107.949L64.3257 108.246C64.429 108.426 64.5581 108.594 64.7 108.736L64.9517 108.865L65.1324 108.93L65.2421 108.962L66.4424 108.981C66.7005 108.981 66.8812 108.91 66.978 108.755C67.0748 108.601 67.1523 108.413 67.2103 108.194L67.2361 107.342L67.249 106.465C67.249 106.381 67.2878 106.297 67.3717 106.213C67.4491 106.135 67.5265 106.09 67.5911 106.097L68.0751 106.116C68.2816 106.155 68.3784 106.284 68.3784 106.51L68.3332 109.478L68.2816 112.46C68.2816 112.64 68.2299 112.776 68.1331 112.866C68.0363 112.956 67.8879 113.002 67.6879 113.002L67.6943 113.008ZM66.4166 109.885L65.2227 109.865L64.0289 109.846C63.8353 109.846 63.6611 109.865 63.5191 109.911C63.3771 109.956 63.2481 110.027 63.1448 110.124C62.9383 110.317 62.8286 110.601 62.8222 110.982C62.8222 111.246 62.919 111.505 63.1255 111.763C63.332 112.021 63.5578 112.15 63.8095 112.15L65.1905 112.176L66.5715 112.195C66.6231 112.195 66.6812 112.182 66.7328 112.163C66.7844 112.137 66.836 112.098 66.8812 112.034C66.9909 111.885 67.0619 111.717 67.0877 111.517C67.1006 111.414 67.1071 111.317 67.1135 111.227C67.12 111.137 67.1264 111.046 67.1264 110.956C67.1264 110.788 67.12 110.627 67.0877 110.466C67.0619 110.304 66.9909 110.175 66.8812 110.085C66.8296 110.033 66.7586 109.988 66.6683 109.943C66.5779 109.911 66.494 109.891 66.4166 109.891V109.885Z" fill="#563118"/>
<path d="M59.1378 112.208C59.1313 112.266 59.0797 112.331 58.9829 112.402C58.8861 112.473 58.7764 112.499 58.6603 112.486L58.415 112.454C58.3053 112.441 58.2085 112.389 58.1311 112.299C58.0537 112.208 58.0149 112.131 58.0278 112.066L58.8603 105.897C58.8668 105.833 58.9248 105.768 59.0216 105.691C59.1184 105.626 59.2217 105.6 59.3443 105.62L59.5895 105.652C59.7121 105.671 59.8089 105.716 59.8864 105.807C59.9638 105.891 59.9961 105.974 59.9832 106.045L59.1507 112.215L59.1378 112.208Z" fill="#563118"/>
<path d="M58.3244 106.194L56.2142 108.756L54.0911 111.324C54.0395 111.395 53.9492 111.434 53.8137 111.447C53.6781 111.46 53.5426 111.447 53.4071 111.414C53.2522 111.376 53.1296 111.318 53.0264 111.247C52.9231 111.176 52.865 111.092 52.8392 111.001C52.6198 109.911 52.4069 108.801 52.1939 107.684C51.9874 106.581 51.7873 105.465 51.5938 104.335C51.5938 104.277 51.5938 104.226 51.6067 104.174C51.6196 104.116 51.6454 104.058 51.6841 104.006C51.7164 103.955 51.8003 103.929 51.9229 103.929L52.0842 103.961L52.2455 104.006L52.5875 104.103C52.6456 104.116 52.6973 104.167 52.736 104.258C52.7553 104.29 52.7811 104.393 52.8134 104.561L52.8715 104.916L52.9296 105.323C52.9747 105.548 53.0264 105.71 53.0844 105.819C53.149 105.929 53.2135 106.013 53.278 106.078C53.3232 106.116 53.3684 106.142 53.42 106.155L53.4845 106.174L53.5362 106.187L53.5942 106.22L54.2783 106.413L54.7881 106.549L55.4657 106.723L55.9819 106.839L56.1239 106.878C56.1755 106.891 56.2336 106.897 56.2788 106.897L56.3885 106.846L56.4982 106.781C56.595 106.723 56.6853 106.652 56.7692 106.568L56.9435 106.355L57.2468 105.994C57.3436 105.871 57.4791 105.729 57.6469 105.574C57.6727 105.542 57.7178 105.516 57.7759 105.503C57.834 105.497 57.905 105.503 57.976 105.523L58.0211 105.536C58.1567 105.568 58.2405 105.6 58.2793 105.626C58.4406 105.665 58.4922 105.781 58.4471 105.968L58.4083 106.058L58.3115 106.22L58.3244 106.194ZM55.143 107.342L54.5364 107.155L54.4654 107.136L54.4009 107.117L54.3493 107.104C54.2847 107.084 54.2202 107.071 54.1621 107.059C54.104 107.046 54.0395 107.039 53.975 107.033C53.8072 106.988 53.6588 107.052 53.5233 107.226C53.4587 107.323 53.4071 107.439 53.3748 107.568C53.3297 107.73 53.3168 107.923 53.3232 108.143C53.3232 108.336 53.349 108.53 53.4006 108.711C53.4781 108.982 53.5942 109.162 53.7427 109.246L53.9879 109.349L54.1363 109.382C54.1363 109.382 54.2073 109.388 54.2525 109.382C54.388 109.369 54.5622 109.259 54.7687 109.059C54.8978 108.923 55.0204 108.762 55.143 108.562C55.2656 108.362 55.3495 108.181 55.3947 108.02C55.427 107.897 55.4399 107.788 55.427 107.691C55.4076 107.504 55.3108 107.381 55.1366 107.336L55.143 107.342Z" fill="#563118"/>
<path d="M44.3971 103.341C44.3648 103.393 44.3519 103.477 44.3455 103.593L44.3648 103.825L44.3777 104.064C44.41 104.651 44.4681 105.258 44.5391 105.89C44.5584 106.052 44.5778 106.258 44.6036 106.504C44.623 106.658 44.6423 106.858 44.6617 107.11C44.6746 107.265 44.6939 107.472 44.7133 107.723C44.7133 107.788 44.681 107.859 44.6359 107.936C44.6036 107.994 44.552 108.033 44.4939 108.046C44.4358 108.059 44.3068 108.026 44.1196 107.962L44.0551 107.93L44.0035 107.904L43.8873 107.839L43.7905 107.781C43.6421 107.672 43.5388 107.568 43.4807 107.472C43.4356 107.401 43.4033 107.297 43.3969 107.162L43.4098 106.039C43.4098 105.736 43.3904 105.348 43.3517 104.89C43.3388 104.781 43.2678 104.651 43.1323 104.522L43.0226 104.439C43.0226 104.439 42.9645 104.406 42.9322 104.387C42.9 104.38 42.8741 104.368 42.8548 104.368C42.6999 104.309 42.5708 104.309 42.4611 104.361L40.1573 105.406C40.0412 105.458 39.9315 105.465 39.8347 105.432L39.5701 105.31C39.4862 105.258 39.4152 105.194 39.3636 105.116C39.3313 105.064 39.3249 104.993 39.3572 104.903C39.4023 104.845 39.4604 104.8 39.5378 104.755C39.8089 104.613 40.067 104.484 40.3251 104.368C40.5833 104.251 40.8478 104.135 41.1318 104.019L41.932 103.677L42.7257 103.316L42.9645 103.167L43.2097 102.974L43.2936 102.896L43.371 102.799L44.5713 100.715C44.6423 100.592 44.7456 100.541 44.8875 100.554C45.0295 100.567 45.1457 100.605 45.2425 100.657C45.3522 100.715 45.4425 100.805 45.5329 100.915C45.6232 101.025 45.6232 101.147 45.5522 101.276L45.2747 101.786L44.9714 102.309L44.7456 102.703L44.3906 103.348L44.3971 103.341Z" fill="#563118"/>
<path d="M33.2784 98.1273C33.1428 98.2822 33.0848 98.4758 33.0912 98.6888C33.0977 98.9082 33.1751 99.0889 33.3235 99.2373L33.1557 99.0695L33.5623 99.4825L34.1302 100.057L34.4141 100.367C34.4593 100.412 34.4851 100.502 34.5045 100.638C34.5174 100.767 34.4787 100.876 34.3883 100.967C34.3238 101.031 34.227 101.07 34.1108 101.083C33.9947 101.096 33.8914 101.057 33.8011 100.967L29.6323 96.7593C29.542 96.6625 29.4968 96.5592 29.5161 96.4495C29.5355 96.3398 29.5742 96.243 29.6452 96.172C29.7226 96.0946 29.8388 96.0559 29.9808 96.0559C30.1163 96.0688 30.2066 96.101 30.2518 96.1462L30.8261 96.727L31.4005 97.3013C31.4715 97.3723 31.5489 97.4239 31.6392 97.4562C31.7296 97.4885 31.8264 97.5078 31.9361 97.5014C32.1361 97.5014 32.3104 97.4433 32.4653 97.3207L35.9629 93.8876C36.0661 93.7908 36.1758 93.765 36.3049 93.8101C36.434 93.8553 36.5372 93.9263 36.6211 94.0102C36.705 94.1005 36.776 94.2038 36.8276 94.3393C36.8792 94.4748 36.8534 94.5845 36.7502 94.6878L35.0143 96.4043L33.2719 98.1273H33.2784Z" fill="#563118"/>
<path d="M27.4653 94.0102L26.2715 92.2421L25.0647 90.4545C24.8776 90.1835 24.7679 89.8608 24.7356 89.493C24.7033 89.1897 24.7808 88.8928 24.9744 88.6024C25.0712 88.4605 25.1744 88.3314 25.2841 88.2153C25.3358 88.1636 25.3874 88.112 25.4455 88.0604C25.5035 88.0088 25.5616 87.9636 25.6326 87.9184C25.7875 87.8152 25.9359 87.7377 26.0843 87.6861C26.2328 87.6345 26.3747 87.6087 26.5231 87.6151C26.8135 87.6216 27.1104 87.6732 27.4137 87.7571C27.5621 87.7893 27.7299 87.8668 27.9041 87.9765C28.0848 88.0862 28.2332 88.1701 28.3623 88.2346L28.7043 87.628C28.8398 87.3763 28.9302 87.1956 28.9754 87.0859L29.4271 85.9115L29.5562 85.6211C29.5949 85.5436 29.64 85.4726 29.6917 85.421C29.8336 85.3758 29.995 85.4856 30.1692 85.7501L30.337 86.0083C30.3886 86.0857 30.4144 86.1631 30.4144 86.2535C30.4273 86.4793 30.3628 86.7375 30.2273 87.0279L29.7562 87.912L29.5949 88.2153L29.4529 88.525C29.3626 88.7121 29.298 88.9122 29.2658 89.1122L29.3045 89.3897L29.3561 89.5704L29.3884 89.6801L30.0595 90.6739C30.2015 90.8869 30.3693 90.9901 30.5499 90.9837C30.7306 90.9772 30.9307 90.932 31.1436 90.8546L31.8599 90.39L32.5827 89.8995C32.6537 89.8544 32.744 89.835 32.8537 89.8544C32.9634 89.8737 33.0409 89.9124 33.0796 89.9705L33.3377 90.3835C33.4216 90.5707 33.3764 90.732 33.1893 90.8546L30.7306 92.5195L28.2591 94.1845C28.1106 94.2877 27.9687 94.32 27.8396 94.2942C27.7041 94.2684 27.5879 94.1716 27.4718 94.0102H27.4653ZM29.298 91.1708L28.6333 90.1835L27.9622 89.1897C27.8525 89.0284 27.7364 88.8993 27.6202 88.8089C27.4976 88.7121 27.3685 88.6541 27.2265 88.6218C26.9491 88.5637 26.6522 88.6412 26.3425 88.8477C26.123 88.9961 25.9682 89.2284 25.8778 89.5446C25.7875 89.8608 25.8133 90.1189 25.9488 90.3255L26.7232 91.4677L27.4976 92.6099C27.5298 92.6551 27.5686 92.6938 27.6202 92.7196C27.6718 92.7454 27.7363 92.7648 27.8138 92.7712C28.0009 92.7777 28.1816 92.7389 28.3559 92.6421C28.4462 92.5905 28.5301 92.5453 28.6075 92.5002C28.685 92.455 28.7624 92.4034 28.8398 92.3582C28.9754 92.2614 29.1044 92.1582 29.2206 92.0485C29.3367 91.9323 29.4013 91.8032 29.4142 91.6548C29.4271 91.5838 29.4271 91.4999 29.4142 91.4031C29.3884 91.3128 29.3561 91.2354 29.3109 91.1644L29.298 91.1708Z" fill="#563118"/>
<path d="M28.9745 84.8338L25.6511 84.7435L22.3212 84.6467C22.2373 84.6467 22.147 84.6015 22.0566 84.5047C21.9663 84.4079 21.8889 84.2918 21.8308 84.1627C21.7662 84.0207 21.734 83.8852 21.7275 83.7561C21.7211 83.6271 21.7469 83.5303 21.8114 83.4593C22.5406 82.6139 23.2827 81.7686 24.0378 80.9103C24.7863 80.0649 25.5414 79.226 26.3093 78.3806C26.348 78.3419 26.3932 78.3096 26.4448 78.2903C26.4964 78.2645 26.561 78.2516 26.6255 78.2451C26.69 78.2451 26.761 78.2838 26.832 78.3871L26.9094 78.5355L26.974 78.6904L27.103 79.0195C27.1289 79.0711 27.1159 79.1486 27.0772 79.2325C27.0643 79.2712 26.9998 79.3486 26.8836 79.4777L26.6384 79.7423L26.3545 80.0327C26.206 80.2004 26.1093 80.3489 26.0576 80.4586C26.0125 80.5747 25.9802 80.678 25.9737 80.7683C25.9737 80.8264 25.9737 80.878 25.9995 80.9297L26.0254 80.9877L26.0447 81.0394L26.0576 81.1039L26.3287 81.7621L26.5416 82.2461L26.8191 82.8914L27.045 83.369L27.103 83.5045C27.1289 83.5561 27.1547 83.6013 27.1869 83.64L27.2966 83.6981L27.4128 83.7432C27.516 83.782 27.6258 83.8142 27.7484 83.8271H28.0259L28.4969 83.853C28.6518 83.853 28.8454 83.8788 29.0777 83.911C29.1229 83.911 29.1616 83.9304 29.2132 83.9691C29.2584 84.0143 29.2907 84.0724 29.3229 84.1369L29.3423 84.1821C29.3939 84.3111 29.4262 84.395 29.4262 84.4402C29.4907 84.5886 29.4326 84.7048 29.2584 84.7822L29.1681 84.808L28.9809 84.8338H28.9745ZM26.1222 83.0269L25.8963 82.4332L25.864 82.3623L25.8382 82.3042L25.8124 82.2526C25.7866 82.1945 25.7608 82.1364 25.735 82.0783C25.7092 82.0202 25.6769 81.9686 25.6382 81.917C25.5672 81.7557 25.4252 81.6782 25.2058 81.6782C25.0896 81.6847 24.967 81.7169 24.8444 81.775C24.6895 81.8396 24.5282 81.9428 24.3604 82.0848C24.2056 82.2009 24.07 82.3429 23.9603 82.4978C23.7926 82.7301 23.7216 82.9301 23.7474 83.0979L23.8184 83.3561L23.8829 83.4916C23.8829 83.4916 23.9216 83.5497 23.9603 83.5819C24.0571 83.6852 24.2443 83.7497 24.5347 83.7949C24.7218 83.8142 24.9283 83.8142 25.1542 83.7949C25.3865 83.7691 25.5801 83.7239 25.735 83.6594C25.8511 83.6077 25.9415 83.5496 26.0125 83.4851C26.148 83.3561 26.1867 83.2076 26.1157 83.0398L26.1222 83.0269Z" fill="#563118"/>
<path d="M24.2448 70.5073L24.3545 70.4815L24.4642 70.4556L24.5352 70.4427C24.632 70.4234 24.7095 70.4234 24.7804 70.4427C24.8772 70.4427 24.9547 70.4944 25.0063 70.5912L25.0708 70.7396L25.116 70.8945C25.1418 71.0171 25.0902 71.1913 24.9611 71.4172C24.7353 71.8044 24.5094 72.1851 24.2835 72.5529C24.0577 72.9208 23.806 73.3144 23.5285 73.7339L22.2056 75.7666C22.0959 75.9344 22.0185 76.0764 21.9733 76.1861C21.9281 76.2958 21.9281 76.4765 21.9862 76.7217C22.0378 76.9605 22.1604 77.0831 22.354 77.0895C22.5476 77.096 22.7283 77.0895 22.8961 77.0508L26.0001 76.3732C26.0711 76.3603 26.1421 76.3732 26.2324 76.4313C26.3163 76.4829 26.3744 76.5604 26.3937 76.6572L26.4325 76.8508C26.4518 76.954 26.4325 77.0444 26.3808 77.1283C26.3163 77.2121 26.2582 77.2638 26.1937 77.2767L20.5407 78.5028C20.3471 78.5415 20.1922 78.548 20.0825 78.5221C19.9147 78.4834 19.7986 78.3995 19.7405 78.2769C19.6953 78.1737 19.6631 78.0382 19.6243 77.8833C19.5727 77.6316 19.6243 77.3735 19.805 77.1024L22.5347 73.024C22.6767 72.8111 22.7283 72.6175 22.6961 72.4368C22.6896 72.3981 22.6767 72.3722 22.6702 72.3529C22.6638 72.3335 22.6444 72.3013 22.6186 72.2625C22.4702 72.0625 22.2572 71.9657 21.9733 71.9721L18.8822 72.6175C18.8177 72.6304 18.7402 72.6175 18.6499 72.5594C18.5596 72.5078 18.5015 72.4303 18.4821 72.3335L18.4369 72.1335C18.4176 72.0431 18.4369 71.9528 18.495 71.8624C18.5531 71.7721 18.6176 71.7205 18.6822 71.7076L24.2513 70.4944L24.2448 70.5073Z" fill="#563118"/>
<path d="M24.9221 64.5187C24.9221 64.5639 24.9221 64.6091 24.9221 64.6542C24.9221 64.6994 24.9221 64.7446 24.935 64.7962L24.9802 65.106L25.0125 65.3899L25.0318 65.6803C25.0383 66.1772 24.9866 66.6354 24.8705 67.0548C24.7543 67.4743 24.5672 67.8615 24.3091 68.2229C24.038 68.5971 23.6896 68.9263 23.2636 69.1973C23.0442 69.3264 22.8055 69.4296 22.5473 69.5135C22.4247 69.5522 22.2957 69.578 22.1601 69.5974C22.0246 69.6167 21.8827 69.6297 21.7342 69.6297C20.5275 69.649 19.5724 69.2554 18.869 68.4423C18.2689 67.7324 17.9656 66.8548 17.9462 65.8094C17.9268 64.622 18.2237 63.654 18.8432 62.8861C19.153 62.5053 19.5272 62.2149 19.979 62.002C20.4242 61.7955 20.9728 61.6858 21.631 61.6729C22.0053 61.6729 22.3602 61.7245 22.6893 61.8535C23.0184 61.9826 23.3346 62.1698 23.6315 62.4214C23.6637 62.4279 23.7218 62.4408 23.7993 62.4537C23.8831 62.4666 23.967 62.473 24.0509 62.473H24.1864C24.1864 62.473 24.2381 62.4666 24.2703 62.4601C24.3026 62.4601 24.3542 62.4472 24.4252 62.4343C24.4897 62.4214 24.5607 62.3827 24.6188 62.3182C24.6769 62.2536 24.7801 62.1762 24.9092 62.0859C24.9866 62.0407 25.0641 62.0149 25.1286 62.0149C25.2061 62.0149 25.2835 62.0342 25.3545 62.0794C25.5739 62.2149 25.6836 62.3763 25.69 62.5763C25.69 62.6925 25.6384 62.8022 25.5287 62.9054L25.3416 63.0861L25.1544 63.2797C25.0254 63.4088 24.9415 63.5572 24.8963 63.7121L24.8769 63.8734V64.0605V64.1122L24.9092 64.5058L24.9221 64.5187ZM21.7342 68.5132C22.4312 68.4294 22.9732 68.1841 23.3733 67.784C23.8767 67.2613 24.1219 66.5644 24.109 65.6932C24.109 65.3705 23.9541 65.1705 23.6637 65.0931L23.5282 65.0801C23.4443 65.0801 23.354 65.0995 23.2572 65.1382C23.1604 65.1769 23.0636 65.1963 22.9668 65.2028L22.8377 65.1898C22.7151 65.164 22.6312 65.0801 22.5861 64.9511C22.5602 64.8607 22.5538 64.7833 22.5473 64.7188L22.5602 64.5832C22.6183 64.4542 22.6958 64.3509 22.799 64.2735C22.8764 64.2154 22.941 64.0993 22.9732 63.9379L22.9862 63.7766C22.9862 63.5959 22.9152 63.4346 22.7861 63.2862C22.6829 63.1506 22.5473 63.0474 22.3731 62.9764H22.3602C22.1666 62.9119 21.9343 62.8667 21.6762 62.8344C21.1922 62.8409 20.7792 62.899 20.4307 63.0151C20.0887 63.1248 19.7983 63.2991 19.566 63.5378C19.2949 63.8153 19.0884 64.1638 18.9464 64.5703C18.8884 64.751 18.8432 64.9511 18.8109 65.1705C18.798 65.2608 18.7916 65.3641 18.7851 65.4802C18.7787 65.5964 18.7722 65.7061 18.7787 65.8029C18.7787 66.1901 18.8496 66.545 18.9787 66.8741C19.1078 67.2032 19.2949 67.4936 19.5401 67.7582C20.037 68.2938 20.6436 68.552 21.3664 68.5391H21.5148L21.7149 68.5132H21.7342Z" fill="#563118"/>
<path d="M19.8314 53.4708C19.7733 53.4579 19.7088 53.4063 19.6442 53.303C19.5862 53.2062 19.5732 53.0965 19.5926 52.9804L19.6442 52.7416C19.67 52.6319 19.7217 52.5416 19.8185 52.4706C19.9153 52.3996 19.9927 52.3673 20.0572 52.3802L20.8897 52.548L21.606 52.6964L22.3804 52.8578L23.8065 53.1482L24.2389 53.2385L24.439 53.2708C24.6067 53.303 24.7616 53.3611 24.91 53.445C25.0585 53.5289 25.2004 53.6386 25.3295 53.7741C25.5876 54.0193 25.7748 54.2968 25.9038 54.5937C26.0329 54.8905 26.0845 55.2713 26.0652 55.7294C26.0458 56.1876 26.0006 56.5748 25.9361 56.891C25.8716 57.2201 25.7941 57.5234 25.7038 57.8138C25.6134 58.1042 25.5102 58.3817 25.3811 58.6592C25.2585 58.9302 25.1101 59.169 24.9423 59.369C24.7745 59.5691 24.5422 59.7369 24.2389 59.8595C23.8388 60.0466 23.4194 60.0983 22.9934 60.0144L18.6827 59.1367C18.6246 59.1238 18.5601 59.0657 18.4956 58.9689C18.4375 58.8721 18.4246 58.7624 18.4439 58.6398L18.4956 58.4011C18.5149 58.2914 18.573 58.201 18.6698 58.1236C18.7666 58.0526 18.844 58.0203 18.9086 58.0332L23.2129 58.8915C23.4065 58.9302 23.5936 58.9109 23.7807 58.8399C23.9679 58.7689 24.1421 58.6592 24.3034 58.5237C24.4777 58.3753 24.6261 58.2075 24.7358 58.0203L24.8713 57.7428L25.0133 57.4073L25.0778 57.1814L25.1101 57.0072L25.123 56.9491L25.1682 56.7426C25.1875 56.6652 25.194 56.5877 25.194 56.5103C25.2133 56.4135 25.2263 56.3231 25.2198 56.2521L25.2069 55.8779C25.2004 55.6326 25.1553 55.4197 25.0649 55.2454C24.981 55.0712 24.852 54.8905 24.6906 54.7098C24.6132 54.6324 24.5293 54.555 24.4325 54.4904C24.3357 54.4259 24.2389 54.3872 24.1357 54.3678L19.8249 53.4773L19.8314 53.4708Z" fill="#563118"/>
<path d="M20.9929 49.954C20.9348 49.9346 20.8831 49.8701 20.8315 49.7604C20.7799 49.6507 20.7799 49.541 20.8186 49.4248L20.8961 49.1925C20.9348 49.0828 21.0058 49.0054 21.109 48.9408C21.2123 48.8763 21.2962 48.8634 21.3607 48.8828L27.2396 50.9349C27.2976 50.9542 27.3557 51.0188 27.4073 51.1349C27.4525 51.2382 27.4525 51.3479 27.4138 51.464L27.3364 51.6964C27.2976 51.8125 27.2266 51.8964 27.1298 51.9545C27.0331 52.0126 26.9492 52.0255 26.8782 51.9997L20.9993 49.9475L20.9929 49.954Z" fill="#563118"/>
<path d="M24.4182 46.9208L26.8446 48.1211C27.0511 48.2244 27.2705 48.276 27.5028 48.2695C27.7287 48.2695 27.8836 48.1792 27.9675 48.0179L28.5224 46.895L29.2258 45.4688L29.8647 44.1782C29.9357 44.0298 30.0648 43.9975 30.2519 44.0879L30.4003 44.1653C30.5875 44.2556 30.6455 44.3782 30.5746 44.5331L29.9292 45.8367L28.9225 47.8759L28.0772 49.586C28.0449 49.6505 28.0126 49.6957 27.9868 49.7344C27.9546 49.7731 27.9158 49.7925 27.8642 49.8054C27.7803 49.8247 27.7029 49.8183 27.6254 49.7796L24.8312 48.3986L22.0434 47.0176C21.9918 46.9918 21.9402 46.9208 21.9079 46.8047C21.8756 46.6949 21.8885 46.5852 21.9466 46.4691L22.0563 46.2497C22.108 46.1464 22.1854 46.0754 22.2951 46.0303C22.4048 45.9851 22.4887 45.9786 22.5468 46.0045L23.4825 46.4691L24.4182 46.9208Z" fill="#563118"/>
<path d="M26.2959 39.3257C26.2442 39.2934 26.212 39.216 26.1926 39.0998C26.1733 38.9837 26.1926 38.874 26.2636 38.7772L26.3991 38.5707C26.4637 38.4739 26.554 38.4158 26.6637 38.3835C26.7799 38.3513 26.8638 38.3577 26.9218 38.39L32.0973 41.8489C32.1489 41.8812 32.1876 41.9586 32.207 42.0812C32.2199 42.1909 32.2005 42.3006 32.1296 42.3974L31.994 42.6039C31.9231 42.7072 31.8392 42.7717 31.7295 42.804C31.6198 42.8298 31.5359 42.8298 31.4713 42.7846L26.2959 39.3257Z" fill="#563118"/>
<path d="M32.7247 40.5259L30.5241 38.5706L28.3236 36.6153C28.0848 36.4023 28.0848 36.1636 28.3236 35.899L29.4787 34.6019L30.6532 33.2854C30.8468 33.1176 31.0469 32.9563 31.2469 32.8079C31.3437 32.7304 31.447 32.6595 31.5502 32.6014C31.6535 32.5369 31.7632 32.4852 31.8793 32.4336C32.2988 32.24 32.7311 32.1561 33.17 32.1884C33.5701 32.2206 33.9637 32.3304 34.3509 32.511C34.5316 32.6014 34.7058 32.6982 34.8865 32.8143C34.964 32.866 35.0478 32.924 35.1382 32.995C35.2285 33.066 35.306 33.1241 35.377 33.1886C35.6932 33.4726 35.9836 33.8146 36.2417 34.2276C36.4998 34.6341 36.6353 35.002 36.6547 35.3182C36.6676 35.8344 36.6289 36.2474 36.5321 36.5701C36.4611 36.8153 36.3707 37.0283 36.261 37.2283L36.0545 37.5574C35.9771 37.6671 35.8932 37.7704 35.8093 37.8672L33.4604 40.4743C33.228 40.7324 32.9893 40.7518 32.7505 40.5388L32.7247 40.5259ZM33.783 38.9062L34.4283 38.2092L34.7575 37.8091L35.0156 37.5187C35.306 37.0541 35.4802 36.5959 35.5447 36.1442C35.6093 35.6925 35.4802 35.2214 35.1511 34.7374L34.9575 34.4728C34.9252 34.4276 34.893 34.3954 34.8672 34.3696C34.8413 34.3437 34.8026 34.305 34.751 34.2599L34.5187 34.0534L34.2735 33.8339C34.1315 33.7113 33.9766 33.6016 33.8088 33.5177C33.6346 33.4338 33.4668 33.3629 33.299 33.3177C32.8667 33.2015 32.5053 33.1951 32.2084 33.3048C31.9116 33.408 31.5889 33.5758 31.2469 33.8081L30.5048 34.6406L29.782 35.4537C29.6401 35.615 29.5755 35.7957 29.6013 35.9829C29.6336 36.1506 29.7369 36.312 29.9175 36.4733L31.3308 37.7252L32.7247 38.9642C32.8215 39.0481 32.9118 39.1062 32.9957 39.132C33.0796 39.1578 33.17 39.1707 33.2668 39.1643C33.3958 39.1514 33.5701 39.0675 33.783 38.9126V38.9062Z" fill="#563118"/>
<path d="M38.0343 34.6408L37.3309 31.3948L36.6339 28.1359C36.6146 28.052 36.6339 27.9552 36.7114 27.8391C36.7824 27.7229 36.8727 27.6261 36.9889 27.5422C37.1115 27.4454 37.2341 27.3809 37.3567 27.3486C37.4729 27.3164 37.5761 27.3164 37.6664 27.3551C38.6602 27.8649 39.6605 28.3812 40.6736 28.9103C41.6674 29.433 42.6677 29.9686 43.6744 30.5172C43.7196 30.5494 43.7647 30.5881 43.797 30.6269C43.8357 30.672 43.8615 30.7301 43.8809 30.7882C43.9002 30.8463 43.8744 30.9302 43.797 31.0205L43.6679 31.1302L43.5324 31.2335L43.242 31.44C43.1968 31.4787 43.1259 31.4851 43.0291 31.4658C42.9903 31.4658 42.8935 31.4206 42.7451 31.3367L42.4289 31.1625L42.074 30.956C41.8739 30.8527 41.7126 30.7882 41.59 30.7688C41.4674 30.7495 41.3577 30.7495 41.2673 30.7624C41.2157 30.7753 41.1641 30.7947 41.1189 30.8269L41.0673 30.8656L41.0221 30.8979L40.964 30.9237L40.3897 31.3432L39.9702 31.6594L39.4088 32.0788L38.9958 32.4144L38.8796 32.5048C38.8345 32.537 38.7958 32.5757 38.7699 32.6209L38.7377 32.7371L38.7183 32.8597C38.7054 32.9694 38.7054 33.0855 38.7183 33.2017L38.7764 33.4727L38.8732 33.9374C38.9055 34.0922 38.9313 34.2858 38.9571 34.5182C38.9635 34.5569 38.9571 34.6085 38.9313 34.6601C38.899 34.7117 38.8538 34.7634 38.7958 34.8085L38.757 34.8344C38.6473 34.9182 38.5699 34.9634 38.5312 34.9763C38.4021 35.0731 38.2795 35.0473 38.1633 34.8924L38.1182 34.8085L38.0536 34.6343L38.0343 34.6408ZM39.1055 31.4335L39.6282 31.0721L39.6863 31.027L39.7379 30.9882L39.7831 30.956C39.8347 30.9173 39.8863 30.8785 39.9315 30.8334C39.9767 30.7947 40.0219 30.7495 40.067 30.7043C40.2026 30.6011 40.2477 30.4397 40.1961 30.2268C40.1574 30.1171 40.0993 30.0074 40.0219 29.8977C39.9186 29.7621 39.7831 29.6331 39.6024 29.504C39.454 29.3814 39.2862 29.2846 39.1055 29.2072C38.8409 29.0975 38.628 29.0781 38.4731 29.1426L38.2408 29.2717L38.1246 29.3685C38.1246 29.3685 38.073 29.4201 38.0536 29.4653C37.9762 29.5815 37.9568 29.7815 37.9891 30.0719C38.0149 30.2526 38.0665 30.4591 38.144 30.672C38.2214 30.8914 38.3118 31.0657 38.415 31.2012C38.4925 31.3045 38.5699 31.3754 38.6538 31.4271C38.8151 31.5303 38.97 31.5303 39.112 31.4206L39.1055 31.4335Z" fill="#563118"/>
<path d="M44.8364 29.8393L43.5522 27.187L42.268 24.5347C42.1325 24.2508 42.2228 24.0249 42.539 23.87L44.1007 23.115L45.6882 22.3471C45.9334 22.2632 46.1722 22.1922 46.4174 22.1341C46.54 22.1019 46.6562 22.0761 46.7788 22.0567C46.895 22.0373 47.0176 22.0309 47.1466 22.0309C47.6113 22.0115 48.0372 22.1019 48.4308 22.3019C48.7858 22.4891 49.1084 22.7343 49.3988 23.0505C49.5279 23.1989 49.6569 23.3602 49.7731 23.5345C49.8247 23.6119 49.8763 23.6958 49.9344 23.7926C49.9925 23.8894 50.0377 23.9798 50.0828 24.0636C50.27 24.4444 50.3991 24.8767 50.4829 25.3543C50.5668 25.8318 50.5539 26.219 50.4442 26.5223C50.2635 27.0063 50.0635 27.3741 49.8505 27.6258C49.6892 27.8194 49.5214 27.9872 49.3472 28.1292L49.031 28.3486C48.9213 28.4196 48.8051 28.4841 48.6825 28.5422L45.5075 30.0522C45.1978 30.2006 44.9655 30.1297 44.8235 29.8393H44.8364ZM46.4303 28.7487L47.2951 28.3486L47.7532 28.1033L48.1017 27.9356C48.547 27.6194 48.889 27.2644 49.1213 26.8643C49.3536 26.4707 49.4117 25.9867 49.302 25.4124L49.2246 25.0962C49.2117 25.0445 49.1988 24.9994 49.1858 24.9671C49.1729 24.9348 49.1536 24.8832 49.1213 24.8187L48.9858 24.5412L48.8438 24.2443C48.7664 24.0765 48.6567 23.9217 48.5341 23.7732C48.4115 23.6248 48.2759 23.5022 48.134 23.3925C47.7855 23.1215 47.4499 22.9795 47.1337 22.9601C46.8175 22.9472 46.4561 22.9795 46.056 23.0569L45.0558 23.5409L44.0814 24.012C43.8878 24.1088 43.7587 24.2443 43.7135 24.4315C43.6748 24.5993 43.7135 24.7864 43.8168 25.0058L44.6363 26.703L45.4494 28.3808C45.5011 28.497 45.5656 28.5809 45.6366 28.639C45.7076 28.697 45.785 28.7422 45.8754 28.768C46.0044 28.8067 46.1916 28.7938 46.4497 28.7358L46.4303 28.7487Z" fill="#563118"/>
<path d="M63.164 21.715C62.7316 21.6828 62.3251 21.6247 61.9508 21.5343C61.7636 21.4892 61.583 21.4505 61.3958 21.4117C61.2087 21.373 61.0344 21.3472 60.8666 21.3278C60.7957 21.3149 60.7182 21.3085 60.6343 21.302C60.5504 21.2956 60.4601 21.2891 60.3504 21.2891C60.2729 21.2891 60.2084 21.302 60.1568 21.302C59.9503 21.302 59.8341 21.3085 59.8019 21.3149C59.4598 21.3408 59.0727 21.4763 58.6338 21.715C58.4854 21.7731 58.3693 21.8054 58.2789 21.8118C58.1111 21.8247 57.995 21.7667 57.9369 21.6247L57.9111 21.515C57.8982 21.3278 58.0208 21.1536 58.2854 20.9794C58.679 20.7019 59.0597 20.5277 59.434 20.4567L59.847 20.405C59.9632 20.3986 60.0794 20.3921 60.1891 20.3921C60.2988 20.3921 60.4214 20.3921 60.5375 20.4115C60.9893 20.4567 61.4668 20.547 61.9637 20.6761C62.2154 20.7406 62.4735 20.7858 62.7252 20.8116C62.9833 20.8374 63.235 20.8374 63.4931 20.8116C63.5641 20.8116 63.648 20.7793 63.7512 20.7342L64.2029 20.5277C64.3449 20.4631 64.4998 20.405 64.6611 20.3534C64.7257 20.3341 64.7966 20.3211 64.8805 20.3018C64.958 20.2824 65.029 20.276 65.0806 20.2695C65.1967 20.2631 65.2806 20.2889 65.3387 20.347C65.3968 20.4115 65.4355 20.4954 65.442 20.6115C65.3903 20.7729 65.2806 20.9213 65.1193 21.0504C64.958 21.1859 64.7708 21.2956 64.5514 21.3924C64.1771 21.5666 63.8158 21.6634 63.4737 21.6957L63.3124 21.7086H63.1317L63.164 21.715Z" fill="#563118"/>
<path d="M64.6743 86.3311H44.6758V68.146H64.6743V86.3311ZM46.6053 84.3952H62.7318V70.082H46.6053V84.3952Z" fill="#563118"/>
<path d="M46.6059 63.7061H44.6699V69.1138H46.6059V63.7061Z" fill="#563118"/>
<path d="M55.6332 63.7061H53.6973V69.1138H55.6332V63.7061Z" fill="#563118"/>
<path d="M64.6742 63.7061H62.7383V69.1138H64.6742V63.7061Z" fill="#563118"/>
<path d="M57.5256 86.3312H51.8984V81.7494C51.8984 80.1748 53.1826 78.8906 54.7572 78.8906C56.3318 78.8906 57.5256 80.2135 57.5256 81.8462V86.3312ZM53.8344 84.3952H55.5897V81.8462C55.5897 81.3557 55.2735 80.8266 54.7572 80.8266C54.2409 80.8266 53.8344 81.2396 53.8344 81.7494V84.3952Z" fill="#563118"/>
<path d="M86.3319 65.5003H84.396V50.2192H71.8832V65.5003H69.9473V48.2832H86.3319V65.5003Z" fill="#563118"/>
<path d="M71.8832 43.8433H69.9473V49.251H71.8832V43.8433Z" fill="#563118"/>
<path d="M79.1039 43.8433H77.168V49.251H79.1039V43.8433Z" fill="#563118"/>
<path d="M86.3324 43.8433H84.3965V49.251H86.3324V43.8433Z" fill="#563118"/>
<path d="M64.6742 86.3245H62.7383C62.7383 82.5106 67.4491 79.981 72.431 77.3094C78.0388 74.3022 84.3952 70.8884 84.3952 65.5H86.3312C86.3312 72.05 79.4327 75.7477 73.3473 79.013C68.8882 81.4071 64.6742 83.6658 64.6742 86.3245Z" fill="#563118"/>
<path d="M64.6742 76.3415H62.7383C62.7383 72.4889 67.4685 70.1593 72.4826 67.6942C78.0711 64.9451 84.4017 61.8282 84.4017 56.4785H86.3376C86.3376 63.035 79.4327 66.4358 73.3409 69.4301C68.8882 71.6242 64.6807 73.6892 64.6807 76.3415H64.6742Z" fill="#563118"/>
<path d="M64.2674 60.8795L63.1445 59.3049C63.8092 58.8339 64.5384 58.3757 65.2483 57.9369C67.6618 56.4333 69.9462 55.02 69.9462 52.8711H71.8822C71.8822 56.0977 68.9008 57.9498 66.2743 59.5824C65.558 60.0277 64.8869 60.4472 64.2738 60.886L64.2674 60.8795Z" fill="#563118"/>
<path d="M79.1039 58.2725H77.168V65.5H79.1039V58.2725Z" fill="#563118"/>
</g>
<defs>
<clipPath id="clip0_49_966">
<rect width="131" height="131" fill="white"/>
</clipPath>
</defs>
</svg>
