<svg width="86" height="86" viewBox="0 0 86 86" fill="none" xmlns="http://www.w3.org/2000/svg">
<g clip-path="url(#clip0_22_502)">
<path d="M78.8756 3.2178H7.12437C4.96682 3.2178 3.21777 4.96685 3.21777 7.1244V78.8756C3.21777 81.0331 4.96682 82.7822 7.12437 82.7822H78.8756C81.0331 82.7822 82.7822 81.0331 82.7822 78.8756V7.1244C82.7822 4.96685 81.0331 3.2178 78.8756 3.2178Z" fill="#FBF0DA"/>
<path d="M0 0V86H86V0H0ZM82.7822 78.8756C82.7822 81.0345 81.0345 82.7822 78.8756 82.7822H7.1244C4.96549 82.7822 3.2178 81.0345 3.2178 78.8756V7.1244C3.2178 4.96549 4.96549 3.2178 7.1244 3.2178H78.8756C81.0345 3.2178 82.7822 4.96549 82.7822 7.1244V78.8756Z" fill="#563118"/>
<path d="M29.5701 46.0945C27.1302 46.0979 24.728 47.1328 23.0694 48.7982C22.6136 49.3123 22.1065 49.3534 21.6096 48.7982C16.2946 43.3564 6.66856 46.7284 5.80499 54.1784C5.56169 56.327 5.75702 60.8641 5.70561 62.4165C5.70561 62.6735 5.87696 62.7249 6.10998 62.7283C6.75765 62.7386 8.77264 62.7386 9.41688 62.7283C9.61221 62.7181 9.80069 62.7009 9.8144 62.4782C9.92748 60.9498 9.66704 56.3304 9.93091 54.569C10.6334 50.0387 16.7675 48.7091 19.2896 52.4512C20.2183 53.726 18.1793 52.8796 17.5693 53.0098C14.2213 53.003 11.3907 55.4703 10.863 58.6949C10.6128 60.4358 10.7979 62.7112 10.7431 64.5172C10.7945 65.2094 10.5546 65.6103 11.1543 65.6446C11.802 65.6583 13.8169 65.6583 14.4612 65.6446C14.636 65.6309 14.8244 65.6103 14.8519 65.4047C14.8998 64.8221 14.8587 61.8682 14.8724 60.5797C14.8724 59.9115 14.8553 59.466 15.1534 58.7703C15.8011 57.1186 18.1553 56.6491 19.3993 57.9136C20.4136 58.9211 20.2663 60.0314 20.2765 61.4364C20.2457 63.5782 20.3348 66.1312 20.2423 68.3107C20.208 68.4683 20.1223 68.4957 19.9853 68.5026C18.7653 68.5368 12.7992 68.4512 10.3764 68.5334C10.1194 68.6602 10.1811 68.8864 10.1776 69.2976C10.5649 75.6715 15.9484 80.7878 22.4663 80.7055C28.7271 80.6884 34.073 75.6784 34.4945 69.4107C34.4945 69.0029 34.5973 68.6945 34.3026 68.5334C33.0107 68.4614 29.1109 68.5266 26.4997 68.506C25.4134 68.4477 24.7691 68.6328 24.471 68.4032C24.2894 66.7103 24.4573 64.7844 24.4025 63.1396C24.5327 61.4878 23.9844 59.6133 25.0433 58.1741C26.2427 56.5566 29.0355 57.0501 29.6078 58.9862C30.0225 60.518 29.7141 62.1321 29.8066 63.7701C29.8785 64.757 29.625 65.4184 30.0088 65.624C30.7661 65.7165 32.7571 65.6446 33.5247 65.6549C33.6789 65.6446 33.8091 65.6343 33.8811 65.5109C34.0182 64.3287 33.8948 62.4439 33.9359 61.104C33.9359 60.0109 33.9599 59.6099 33.816 58.7052C33.278 55.3572 30.2247 52.8316 26.7361 53.0304C26.3352 52.9721 25.2694 53.421 25.1461 53.0098C27.3667 48.4076 34.3814 49.9599 34.8098 54.9974C34.988 57.1426 34.683 60.6003 34.9331 62.6564C35.7179 62.8791 37.7431 62.6941 38.5724 62.742C38.6615 62.7318 38.802 62.7283 38.8706 62.6804C38.97 62.6118 38.9768 62.4919 38.9802 62.3617C38.9186 60.6894 39.1036 56.4709 38.8946 54.312C38.3634 49.6995 34.3266 46.1116 29.6935 46.1082H29.577L29.5701 46.0945Z" fill="#99B0C6"/>
<path d="M79.7459 21.7844C79.7528 20.3109 78.3581 20.6536 77.4088 20.304L77.3334 20.2663C76.5418 19.7386 76.9291 18.4981 76.84 17.6071C76.7612 14.2728 76.9908 10.4108 76.7475 7.21008C76.6995 7.10042 76.6172 6.93936 76.4836 6.94279C72.8237 6.69263 55.6827 6.91195 49.7748 6.86397C48.9078 6.79886 48.9935 7.71383 48.9935 8.3615C48.9832 10.8014 49.0106 16.723 48.9798 19.1046C49.1168 21.2841 46.0224 19.7283 46.0909 21.7433C46.0567 25.8247 46.0909 35.3479 46.0841 38.4423C46.0087 39.5115 46.9751 39.5286 47.8009 39.5115C49.2334 39.5115 51.4128 39.5732 52.9035 39.5355H53.6917C54.1886 39.5355 54.5929 39.1311 54.5929 38.6342V27.3085C54.5998 26.7602 54.7026 21.1573 57.6051 18.6969C57.9889 18.3713 60.1924 16.5619 63.0709 16.7127C65.4457 16.8361 67.7314 18.2651 69.3215 20.5371C70.6031 22.367 71.2268 24.5807 71.2268 26.815V38.7267C71.2268 39.1722 71.5901 39.5355 72.0356 39.5355H73.0122V39.5218C73.2726 39.532 73.5605 39.5081 73.8792 39.5149C75.6543 39.5458 77.5562 39.6486 79.1805 39.4087C79.7665 39.275 79.7425 38.5691 79.7425 38.1133C79.7425 34.7379 79.7185 26.5889 79.7425 21.7844H79.7459Z" fill="#7A7A56"/>
<path d="M58.3624 51.8413C57.5743 58.8834 47.4274 58.3831 48.0716 51.4095C48.6713 44.9156 58.1603 45.1932 58.3624 51.7179V51.8413Z" fill="#C25630"/>
<path d="M49.8912 67.053C50.8439 64.6953 51.5909 64.5034 52.1084 64.2807C53.719 63.5885 55.7991 65.5315 56.9197 66.2443C57.4131 66.5595 58.0334 66.3813 58.2938 65.857C59.1163 64.2019 59.9764 62.5536 60.7509 60.8744C61.5048 59.2432 62.2107 57.5127 63.1634 55.9843C63.9481 54.7267 65.6478 52.9995 67.9061 52.9961C70.9457 52.9927 72.7722 56.327 72.8545 56.4812C76.0963 62.0327 77.9639 67.8857 79.4614 74.0952C80.4244 78.0806 80.5786 79.2011 79.9069 79.9825C79.2832 80.709 78.3786 80.6404 74.167 80.6541C72.1862 80.661 70.2055 80.7295 68.2214 80.7158C64.774 80.6952 62.6391 80.7809 60.1615 80.7981C57.2932 80.8186 53.6196 80.8289 48.8735 80.7981C48.3389 80.7981 47.0435 80.7706 46.4233 79.9276C45.9675 79.3108 45.9846 78.3581 46.3924 77.0697C47.3691 73.9958 48.4245 70.6717 49.8878 67.0496L49.8912 67.053Z" fill="#C25630"/>
<path d="M8.52939 27.0138C8.52939 27.0138 8.51569 26.9932 8.50883 26.983C8.50198 26.9761 8.49855 26.9693 8.4917 26.9624L8.52939 27.0138Z" fill="#D38734"/>
<path d="M37.3354 29.6559L35.8584 28.8266C35.6185 28.6758 35.3375 28.5799 35.1902 28.3674C34.9503 28.0487 35.0051 27.5518 35.3135 27.2948C35.6391 27.0412 36.0914 26.8459 36.2045 26.3901C36.2902 25.7973 35.9064 25.297 35.598 24.8378C34.9674 23.7343 34.3506 24.0256 33.4596 24.5979C32.7605 24.9851 32.0169 25.5197 31.2904 25.8178C30.7456 26.0234 30.2555 25.6328 29.7929 25.3861L28.3468 24.5568L27.6237 24.1421C27.3873 23.9948 27.12 23.892 26.9692 23.6863C26.6196 23.2888 26.671 22.6651 27.0891 22.3362C27.9938 21.733 29.0493 21.3013 30.0122 20.7804C30.2007 20.6879 30.5297 20.4822 30.7284 20.448C31.2493 20.3417 31.7119 20.7016 32.154 20.962C32.5138 21.1779 33.2232 21.6165 33.583 21.829C34.1141 22.182 34.7789 22.5383 35.3238 21.9798C35.7213 21.5446 36.0434 21.058 36.2868 20.5131C36.7974 19.4028 35.5774 18.9333 34.9332 18.385C34.868 18.3233 34.8304 18.2959 34.8612 18.2445C34.9126 18.1588 35.0976 18.0629 35.1867 18.0012C36.1086 17.4598 37.0784 16.9766 38.0173 16.4214C38.3908 16.233 38.8535 15.8115 38.7644 15.3009C38.6376 14.6703 38.3154 14.242 38.0105 13.7142C37.7534 13.2208 37.1675 12.693 36.5335 12.9569C35.2998 13.4469 34.121 14.3413 32.973 14.8177C32.9456 14.7183 32.9353 14.5607 32.9182 14.4613C32.8805 13.8479 32.8908 13.046 32.2945 12.6656C31.4652 12.2167 30.6907 12.4086 29.8717 12.4874C29.111 12.6142 28.8676 13.3236 28.8951 13.9507C28.8882 14.8314 28.9567 15.856 28.9225 16.6853C28.8985 16.8669 28.8539 16.9903 28.7648 17.1034C28.4359 17.4735 27.6066 17.8059 27.1542 18.104L25.9445 18.7928C25.7869 18.8819 25.5162 19.043 25.3586 19.1218C24.9713 19.324 24.4642 18.9916 24.4504 18.5701L24.4436 15.8183C24.4607 15.5442 24.3853 14.8862 24.5361 14.6635C24.7657 14.2557 25.6224 13.9507 26.0851 13.6594L26.695 13.3236C27.1371 13.0563 27.6443 12.9055 27.9698 12.4052C28.3091 11.85 27.9698 11.2195 27.6991 10.726C27.3598 10.027 26.767 9.19423 25.8589 9.43411C25.3757 9.51978 24.824 9.95841 24.4162 10.0132C24.3237 9.62258 24.3648 7.15868 24.3408 6.66865C24.3819 5.06146 23.2408 5.15741 22.0105 5.1951C20.8934 5.18482 20.4513 5.72627 20.5438 6.77831C20.5438 7.17582 20.5576 8.47802 20.5576 8.86868C20.5473 9.18737 20.6021 9.83162 20.4959 10.1092C20.3554 10.1812 20.1121 10.0475 19.9442 9.98583C18.7653 9.35529 18.0662 9.30046 17.4049 10.5958C17.2781 10.8802 17.1136 11.1407 16.9971 11.4525C16.8497 11.7815 16.932 12.2715 17.213 12.5046C17.6516 12.9055 18.3541 13.1762 18.8407 13.4641C19.2691 13.7211 20.0367 14.0295 20.3725 14.3653C20.746 14.7286 20.609 15.4002 20.6432 16.0034C20.6432 16.6168 20.6535 18.1588 20.6569 18.7585C20.6261 19.6838 19.5946 19.5159 18.9469 19.1389L17.5728 18.3713C17.189 18.1486 16.5687 17.8196 16.2089 17.5934C15.7634 17.3227 15.5818 16.8806 15.6366 16.37C15.6126 15.3523 15.8011 14.3379 15.6161 13.327C15.431 12.6519 14.516 12.6451 13.9849 12.6348C13.5188 12.6588 13.0562 12.5765 12.645 12.8678C12.0624 13.3304 12.2201 14.1426 12.107 14.7697C12.0693 14.9273 12.0419 15.037 11.8739 15.0404C11.1063 14.7457 9.82469 13.9198 8.8686 13.3955C8.21065 13.0014 7.63151 12.8301 7.0935 13.5566C6.80222 13.9233 6.63088 14.3242 6.4047 14.708C6.22994 14.989 6.08943 15.39 6.24364 15.7292C6.45611 16.1987 6.96328 16.4077 7.35051 16.6408C7.87482 16.9457 9.09135 17.6585 9.61223 17.9635C9.7493 18.0492 9.90694 18.1177 9.98918 18.2514C9.98918 18.2651 9.99261 18.2617 9.98233 18.2856C9.62936 18.7483 9.06051 18.8168 8.65271 19.3411C8.16267 19.8346 8.49165 20.7187 8.89602 21.267L9.22499 21.7673C9.4683 22.2025 10.068 22.4904 10.5512 22.3053C11.7129 21.853 12.5387 21.0819 13.6662 20.6296C14.3447 20.496 14.9238 21.1436 15.5784 21.4383C15.6777 21.4966 16.5516 22.0003 16.5516 22.0003C16.8189 22.158 17.2609 22.3978 17.5042 22.5623C17.7201 22.7165 17.888 22.8776 17.8812 23.1312C17.8366 23.3437 17.5454 23.5938 17.3398 23.7377C17.1616 23.8371 14.8279 25.1359 14.8279 25.1359C14.4749 25.3209 14.1117 25.5882 13.7519 25.53C13.6079 25.4957 13.3612 25.3621 13.207 25.2798C12.7786 25.0434 11.8088 24.4368 11.3668 24.1695C9.92064 23.2237 9.33808 23.8611 8.56361 25.1702C8.42997 25.3998 8.29632 25.6636 8.24149 25.9995C8.17981 26.325 8.29975 26.7362 8.52592 26.9932C8.85832 27.4422 9.38606 27.5827 9.72874 27.9288C9.11191 28.3537 8.27576 28.7615 7.62809 29.1453C6.93929 29.5634 5.70905 29.9883 5.95579 31.0575C6.20937 31.7874 6.51436 32.3768 7.02839 32.9765C7.16889 33.1204 7.30939 33.2815 7.62466 33.398C8.24834 33.5831 8.89259 33.1067 9.36892 32.86C9.85896 32.603 11.2263 31.7908 11.7814 31.5235C11.9322 32.3734 11.7506 33.4871 12.8917 33.8092C13.4983 33.984 13.9952 33.8949 14.5503 33.8743C15.3556 33.8846 15.9896 33.3774 16.0273 32.5619C16.0752 31.5578 15.9587 30.5195 16.0067 29.5497C16.0033 29.4229 16.0204 29.3269 16.0924 29.2241C16.3802 28.854 17.0519 28.5867 17.4631 28.3263L18.5529 27.706C18.7962 27.5724 19.2314 27.3119 19.4781 27.1851C19.8002 27.0207 20.2697 27.2126 20.304 27.5861C20.3143 27.6889 20.3108 28.0281 20.3108 28.1652L20.3142 30.6805C20.3005 31.3316 20.3519 31.5681 19.8379 31.8422C18.9469 32.4008 17.8606 32.8052 17.0176 33.4597C16.0992 34.337 17.0108 35.5432 17.5694 36.3759C17.7201 36.5678 17.984 36.8146 18.3507 36.8968C18.7173 36.9722 19.0018 36.8831 19.2279 36.8146C19.5912 36.7083 20.0572 36.4685 20.3074 36.3657C20.3074 36.4239 20.3074 36.489 20.3142 36.5576C20.3451 37.6439 20.3074 38.7713 20.3382 39.8953C20.4239 41.3551 21.8803 41.2386 22.9598 41.1906C23.6691 41.2009 24.4333 40.8651 24.4539 40.0289C24.5361 39.1106 24.4744 38.0105 24.471 37.0921C24.4744 36.9482 24.4676 36.5096 24.495 36.2903C24.8514 36.3691 25.2078 36.6227 25.5813 36.746C26.3798 37.1059 27.1062 36.6364 27.5209 35.8893C27.7779 35.413 28.0212 34.9778 28.1172 34.474C28.2028 33.374 26.9555 33.0964 26.2358 32.6475L25.9069 32.4796C25.4785 32.2637 25.057 32.0581 24.704 31.808C24.5498 31.6949 24.4779 31.6058 24.4333 31.4413C24.3888 31.2734 24.3785 31.0472 24.3751 30.8107L24.3339 27.9528C24.3339 27.778 24.3271 27.4045 24.3305 27.2537C24.3476 26.935 24.6869 26.6814 24.9987 26.7499C25.1632 26.7773 25.4237 26.9555 25.5847 27.0344L25.5642 27.0241L28.3982 28.5936C28.8916 28.83 29.1349 29.1076 29.1418 29.6593C29.1452 30.1871 29.1349 30.7422 29.1315 31.2836C29.1829 31.9485 28.8882 32.9594 29.6181 33.3912C30.3652 33.6516 31.1465 33.6276 31.9073 33.47C32.0889 33.4083 32.2636 33.2918 32.3802 33.1307C32.788 32.5687 32.5309 31.8045 32.7742 31.2185C32.8359 31.1089 32.9147 31.0883 33.0587 31.126C33.3328 31.2117 33.6207 31.407 33.9085 31.5509C34.4877 31.8662 35.9132 32.6989 36.4855 32.9628C36.8111 33.1376 37.2394 33.0862 37.4862 32.7949C37.9453 32.2157 38.3634 31.5852 38.5416 30.8553C38.5793 30.1939 37.8117 29.9643 37.3559 29.6696L37.3354 29.6559Z" fill="#D38734"/>
</g>
<defs>
<clipPath id="clip0_22_502">
<rect width="86" height="86" fill="white"/>
</clipPath>
</defs>
</svg>
