<svg width="364" height="158" viewBox="0 0 364 158" fill="none" xmlns="http://www.w3.org/2000/svg">
<path d="M0 0V52.6667H113.562V0H0ZM108.517 40.0564C108.517 44.2367 105.132 47.6226 100.951 47.6226H12.6102C8.42995 47.6226 5.0441 44.2367 5.0441 40.0564V12.6102C5.0441 8.42995 8.42995 5.0441 12.6102 5.0441H100.951C105.132 5.0441 108.517 8.42995 108.517 12.6102V40.0564Z" fill="#563118"/>
<path d="M113.562 52.6667V105.333H363.717V52.6667H113.562ZM358.673 92.7232C358.673 96.9035 355.287 100.289 351.107 100.289H126.172C121.991 100.289 118.606 96.9035 118.606 92.7232V65.277C118.606 61.0967 121.991 57.7108 126.172 57.7108H351.107C355.287 57.7108 358.673 61.0967 358.673 65.277V92.7232Z" fill="#563118"/>
<path d="M25.0757 10.5045C25.0757 10.7188 24.5713 11.3935 23.5624 12.5347C22.5536 13.6759 21.9546 14.6406 21.7655 15.4287C21.5763 16.2169 21.4818 19.981 21.4818 26.7212C21.4818 33.4614 21.5763 37.1877 21.7655 37.8876C21.9546 38.5938 22.3519 39.073 22.9571 39.3315C23.5624 39.5837 24.6091 39.7161 26.0845 39.7161C27.5599 39.7161 28.8524 39.445 29.9621 38.9027C31.0718 38.3605 32.2635 37.3895 33.5435 35.9961C34.8234 34.6026 35.9268 33.9028 36.841 33.9028C37.5472 33.9028 37.9003 34.3441 37.9003 35.2331V35.8763C37.9003 37.1058 37.7048 38.474 37.3076 39.9746C36.9104 41.4752 36.6014 42.3327 36.3745 42.5471C35.8637 43.0263 34.6342 43.2596 32.6796 43.2596H19.4515C15.1325 43.2596 12.7429 43.2217 12.2826 43.1335C11.4944 42.9884 11.0972 42.5408 11.0972 41.8031C11.0972 41.4122 11.5323 40.7753 12.4024 39.9052C13.2725 39.0351 13.8715 37.9002 14.1993 36.5068C14.3317 35.9519 14.3948 32.2697 14.3948 25.4728C14.3948 18.6759 14.2939 14.9496 14.0985 14.2938C13.903 13.6381 13.2662 12.9698 12.2006 12.3014C11.135 11.6268 10.5991 10.8701 10.5991 10.0379C10.5991 9.36322 12.2006 9.02905 15.4036 9.02905H21.9294C23.2093 9.02905 24.0542 9.12363 24.4515 9.31278C24.855 9.50194 25.0568 9.89916 25.0568 10.5045H25.0757Z" fill="#563118"/>
<path d="M40.6118 26.4374C40.6118 23.8082 41.0154 21.3807 41.8161 19.1487C43.3735 14.7793 46.1099 11.7528 50.019 10.063C52.2826 9.07945 54.6029 8.58765 56.9673 8.58765L57.56 8.61287H58.1275C60.0316 8.61287 62.0114 9.04792 64.0606 9.91803C66.1097 10.7881 67.8689 12.0239 69.319 13.6254C70.7692 15.2269 71.8789 17.0933 72.6292 19.2181C73.3859 21.3429 73.7642 23.4993 73.7642 25.6808V26.2483C73.7642 28.7262 73.348 31.0969 72.522 33.3542C71.6897 35.6114 70.4981 37.5471 68.9407 39.1549C65.7882 42.4209 61.6079 44.0666 56.4061 44.0792C54.2687 44.0792 52.2132 43.6756 50.2334 42.8623C48.2536 42.0489 46.6017 40.914 45.2713 39.4512C42.1692 36.0023 40.6181 31.6707 40.6181 26.4501L40.6118 26.4374ZM65.3657 27.4967V25.8448C65.3657 24.1676 65.1451 22.4148 64.7037 20.5737C63.8147 16.9104 62.2573 14.3757 60.0253 12.9634C59.0228 12.3392 57.8752 12.0302 56.5764 12.0302H56.2044C55.1388 12.0302 54.048 12.3518 52.9257 12.9886C50.7568 14.237 49.2751 16.4375 48.468 19.5901C47.9573 21.5573 47.7051 23.5245 47.7051 25.4791V26.3176C47.7051 28.2407 47.951 30.1322 48.4428 32.0049C49.4264 35.6997 51.1162 38.2595 53.5184 39.6908C54.502 40.2835 55.5234 40.5798 56.5701 40.5798H57.3078C58.4238 40.5798 59.502 40.2583 60.536 39.6088C61.5701 38.9594 62.4149 38.083 63.0707 36.9859C64.5965 34.4386 65.3594 31.2798 65.3594 27.503L65.3657 27.4967Z" fill="#563118"/>
<path d="M89.9744 8.58121C94.3565 8.58121 97.3073 8.96583 98.8142 9.74136C99.9491 10.3151 100.517 11.7968 100.517 14.1739C100.517 16.5509 100.113 17.7426 99.3123 17.7426C98.6566 17.7426 97.5784 17.049 96.084 15.6619C94.5897 14.2747 93.4548 13.3668 92.6856 12.9381C91.9164 12.5093 90.9075 12.2949 89.6654 12.2949C88.4233 12.2949 87.3641 12.6985 86.4877 13.4992C85.6113 14.3063 85.1699 15.2646 85.1699 16.3806C85.1699 17.875 85.9896 19.2116 87.6352 20.397C88.4549 20.9897 90.3527 21.9481 93.3224 23.2784C96.2922 24.6088 98.4106 25.914 99.678 27.1939C101.469 29.0161 102.364 31.0716 102.364 33.354C102.364 38.1144 100.006 41.3237 95.2959 42.982C93.9025 43.4738 92.4712 43.7197 91.0084 43.7197H90.1194C88.3099 43.7197 86.3111 43.5116 84.1106 43.1018C81.9101 42.6919 80.523 42.2884 79.9493 41.8975C78.8837 41.1598 78.3478 39.4448 78.3478 36.7525V35.9139C78.3478 34.1737 78.8143 33.3036 79.7538 33.3036C80.4095 33.3036 81.4562 34.1422 82.8812 35.813C84.3061 37.4839 85.5104 38.6062 86.4877 39.1611C87.465 39.7222 88.7134 39.9996 90.2329 39.9996C91.7525 39.9996 93.0261 39.5646 94.0601 38.6945C95.0942 37.8244 95.6112 36.8786 95.6112 35.8635C95.6112 34.3376 95.1509 33.0829 94.2304 32.093C93.3098 31.1094 91.4813 29.9808 88.7386 28.7198C85.9959 27.4587 84.098 26.4373 83.0514 25.6681C80.1636 23.537 78.7134 20.9708 78.7134 17.9821C78.7134 17.3579 78.7765 16.7085 78.9089 16.0339C79.4511 13.2092 81.267 11.078 84.3502 9.62786C85.8635 8.92169 87.4397 8.5686 89.0791 8.5686H89.9681L89.9744 8.58121Z" fill="#563118"/>
<path d="M145.705 89.4571C145.705 90.7244 145.982 91.7395 146.544 92.5088C146.771 92.824 147.143 93.2402 147.653 93.7635C148.164 94.2868 148.416 94.7155 148.416 95.0434C148.416 95.9955 147.634 96.4747 146.077 96.4747C145.598 96.4747 145.049 96.4495 144.425 96.399L142.874 96.254C141.872 96.1909 140.585 96.1531 139.009 96.1531C137.433 96.1531 136.373 96.1027 135.831 96.0081C135.308 95.9072 135.043 95.6235 135.043 95.1569C135.043 94.6903 135.484 94.0157 136.361 93.1393C137.237 92.2629 137.836 91.4999 138.145 90.8505C138.454 90.2011 138.612 88.814 138.612 86.6891C138.612 84.5643 138.07 82.5404 136.985 80.6173C133.259 74.0032 130.674 69.722 129.23 67.7864C128.839 67.2441 128.095 66.5947 127.01 65.8381C125.926 65.0815 125.384 64.3501 125.384 63.6439C125.384 62.9377 125.768 62.4459 126.544 62.1685C127.691 61.7398 130.049 61.5254 133.612 61.5254H134.45C136.796 61.5254 137.975 62.1181 137.975 63.2971L137.874 63.8394L137.748 64.3564C137.603 65.1445 137.527 65.6615 137.527 65.9074C137.527 67.0424 138.826 70.1634 141.418 75.2642C142.124 76.6577 142.641 77.3575 142.969 77.3575C143.612 77.3575 144.948 75.5354 146.985 71.891C148.038 70.0184 148.561 68.6817 148.561 67.8746C148.561 67.0676 148.366 66.2605 147.981 65.4472C147.597 64.6338 147.401 64.0222 147.401 63.6124C147.401 62.8873 147.817 62.4081 148.656 62.1622C149.917 61.7839 151.966 61.5947 154.791 61.5947C156.84 61.5947 157.868 62.0109 157.868 62.8495C157.868 63.852 157.477 64.6338 156.682 65.1887C155.238 66.2101 154.312 67.0298 153.902 67.654C152.061 70.4156 149.885 74.4383 147.376 79.722C146.26 82.0675 145.699 85.3146 145.699 89.4508L145.705 89.4571Z" fill="#563118"/>
<path d="M187.181 67.5153C187.181 68.4359 186.992 69.0664 186.614 69.4005C186.235 69.7347 185.914 69.905 185.643 69.905C185.371 69.905 184.148 69.3942 181.973 68.3791C179.798 67.364 177.944 66.8533 176.418 66.8533C174.892 66.8533 173.802 67.3892 173.14 68.4674C172.484 69.5456 172.156 71.2542 172.156 73.5998C172.156 74.5329 172.433 75.3084 172.994 75.9263C173.549 76.5442 174.3 76.8469 175.233 76.8469C176.166 76.8469 177.181 76.5001 178.259 75.8002C179.344 75.1004 180.157 74.7536 180.699 74.7536L181.387 75.1004C182.042 75.6426 182.37 76.9415 182.37 78.9906C182.37 81.0398 182.118 82.3513 181.607 82.9061L180.964 83.2781C180.157 83.2781 179.255 82.8998 178.253 82.1432C177.25 81.3866 176.462 81.0083 175.889 81.0083C174.495 81.0083 173.511 81.2731 172.944 81.7964C172.377 82.3197 172.093 83.1079 172.093 84.1608C172.093 87.3764 172.402 89.5265 173.026 90.5984C173.65 91.6765 174.836 92.2125 176.582 92.2125C178.329 92.2125 180.384 91.5693 182.742 90.2768C185.1 88.9905 186.399 88.3411 186.645 88.3411C187.648 88.3411 188.146 89.041 188.146 90.4344V91.3234C188.146 93.1771 187.717 94.4697 186.866 95.2011C186.015 95.9325 184.564 96.2982 182.528 96.2982H175.264L174.205 96.273H173.146C166.708 96.273 163.329 96.2477 163.001 96.1973C161.62 95.9829 160.933 95.6298 160.933 95.138V94.4003C160.933 93.8581 161.406 93.2906 162.364 92.698C163.316 92.1053 163.896 91.4811 164.111 90.8253C164.325 90.1696 164.432 86.4433 164.432 79.6464C164.432 72.8494 164.331 69.1546 164.123 68.562C163.915 67.9693 163.335 67.2757 162.377 66.4687C161.418 65.6616 160.933 64.9933 160.933 64.451C160.933 63.562 161.607 63.045 162.95 62.9C163.707 62.818 167.446 62.7739 174.18 62.7739L179.451 62.7486H181.544C183.385 62.7486 184.779 63.1017 185.731 63.8079C186.683 64.5141 187.162 65.7436 187.162 67.5027L187.181 67.5153ZM178.978 52.6667H179.274C180.258 52.6667 181.059 52.8496 181.664 53.209C182.269 53.5684 182.578 53.8647 182.578 54.098V54.2241C182.578 55.2455 180.548 57.2317 176.494 60.1825C175.214 61.1156 174.073 61.5885 173.07 61.5885H172.925C172.118 61.5885 171.721 61.3615 171.721 60.9012V60.5103C171.721 59.3943 173.184 57.1938 176.103 53.9089C176.828 53.0892 177.786 52.6794 178.984 52.6794L178.978 52.6667Z" fill="#563118"/>
<path d="M204.57 61.7021H207.231C211.304 61.7021 214.375 62.4398 216.443 63.9215C218.511 65.4032 219.545 67.3893 219.545 69.8798C219.545 71.3111 219.217 72.6226 218.561 73.8205C217.905 75.0185 217.111 75.9265 216.184 76.5444C215.257 77.1623 214.791 77.509 214.791 77.591C214.791 77.673 215.428 78.0324 216.701 78.6755C217.975 79.3186 218.99 80.0815 219.74 80.9643C220.938 82.3955 221.537 83.9466 221.537 85.6174V86.2606C221.537 91.1533 218.605 94.2491 212.742 95.548C211.184 95.8948 208.984 96.065 206.14 96.065H204.835L204.173 96.0398C203.732 96.0209 203.297 96.0146 202.868 96.0146L201.563 95.9641C201.134 95.9452 200.699 95.9389 200.257 95.9389L197.08 95.8632C195.289 95.8632 194.23 95.8317 193.902 95.7624C193.051 95.5984 192.622 95.1949 192.622 94.5581C192.622 94.0978 193.164 93.4169 194.249 92.5152C194.974 91.9099 195.453 90.9705 195.693 89.7095C195.932 88.4484 196.052 84.6969 196.052 78.4674C196.052 72.238 195.938 68.663 195.718 67.7424C195.497 66.8219 194.93 66.0022 194.015 65.2771C193.101 64.552 192.647 63.9089 192.647 63.3414C192.647 62.774 192.969 62.3957 193.618 62.1939C194.268 61.9984 196.002 61.8976 198.826 61.8976L201.386 61.7967C203.095 61.7336 204.154 61.6958 204.564 61.6958L204.57 61.7021ZM203.215 89.9995L203.265 91.0083C203.265 91.9793 204.141 92.4585 205.901 92.4585L206.121 92.4837L206.317 92.5089L207.206 92.5341H208.315C209.942 92.5341 211.323 92.0171 212.464 90.9831C213.605 89.949 214.173 88.543 214.173 86.7713V85.8381C214.173 84.1799 213.58 82.7612 212.401 81.5759C211.222 80.3905 209.413 79.8041 206.985 79.8041H205.459C204.211 79.8041 203.524 79.9491 203.404 80.2329C203.278 80.5229 203.221 82.3955 203.221 85.8633L203.196 86.2795V86.8974L203.17 87.0928V87.509L203.145 88.3475V88.543L203.17 88.7385V89.1546L203.196 89.3501V89.7914L203.221 89.9869L203.215 89.9995ZM203.24 74.9239L203.29 75.7877C203.29 76.2985 203.65 76.5507 204.375 76.5507H205.51L205.705 76.5254L207.035 76.475C207.168 76.4561 207.3 76.4498 207.426 76.4498C208.687 76.4498 209.848 75.9769 210.9 75.0311C211.953 74.0854 212.477 72.8937 212.477 71.4498L212.527 71.0589V70.2708C212.527 68.7765 211.998 67.5533 210.938 66.6012C209.879 65.6491 208.29 65.1699 206.172 65.1699H205.213C204.129 65.1699 203.498 65.4347 203.315 65.9581C203.252 66.1535 203.215 67.5974 203.215 70.296V74.7285L203.24 74.9239Z" fill="#563118"/>
<path d="M251.562 65.9392C251.562 67.0426 251.404 67.7551 251.095 68.0956C250.78 68.4298 250.307 68.6 249.664 68.6L249.223 68.3793L248.706 68.0325L248.113 67.6858C247.539 67.3579 246.436 66.9039 244.803 66.3302C243.17 65.7564 241.644 65.4664 240.232 65.4664C238.819 65.4664 237.792 65.9771 237.142 66.9922C236.493 68.0136 236.171 70.1069 236.171 73.2721C236.171 74.1737 236.449 74.8988 237.01 75.4411C237.565 75.9833 238.34 76.2544 239.324 76.2544C240.307 76.2544 241.398 75.9076 242.59 75.2204C243.782 74.5331 244.626 74.1863 245.125 74.1863C245.623 74.1863 246.064 74.5205 246.442 75.1825C246.821 75.8446 247.01 76.639 247.01 77.5596C247.01 80.0375 246.739 81.5633 246.196 82.1434L245.534 82.5154C244.563 82.5154 243.794 82.2947 243.22 81.8534C241.953 80.8824 241.026 80.4032 240.44 80.4032C238.567 80.4032 237.312 80.7941 236.669 81.5885C236.354 81.9795 236.203 83.3351 236.203 85.6427C236.203 87.9504 236.669 89.7032 237.609 90.9012C238.101 91.5443 239.185 91.8596 240.862 91.8596C242.539 91.8596 244.677 91.2921 247.281 90.1509C249.885 89.0097 251.373 88.4422 251.751 88.4422C252.457 88.4422 252.811 89.1042 252.811 90.4346V91.3237C252.811 91.7839 252.647 92.4271 252.319 93.2467C251.991 94.0664 251.48 94.7095 250.793 95.1698C250.106 95.6301 248.971 95.857 247.394 95.857H229.538C226.814 95.857 225.453 95.504 225.453 94.7978V94.0096C225.453 93.4548 225.957 92.8936 226.966 92.3325C227.975 91.7776 228.567 91.1723 228.738 90.5229C228.908 89.8735 228.996 86.103 228.996 79.2052C228.996 72.3074 228.883 68.4045 228.649 67.484C228.416 66.5634 227.842 65.7186 226.928 64.9493C226.007 64.1801 225.547 63.4172 225.547 62.6606C225.547 62.1183 226.14 61.8094 227.319 61.74C228.498 61.6707 232.382 61.6265 238.971 61.6265L245.377 61.6013H246.411C248.069 61.6013 249.235 61.8409 249.91 62.3138C251.026 63.1019 251.587 64.3188 251.587 65.9582L251.562 65.9392Z" fill="#563118"/>
<path d="M287.691 91.91C287.691 93.625 287.59 94.6339 287.382 94.9365C287.174 95.2392 286.657 95.3905 285.818 95.3905C285.541 95.3905 284.841 95.0815 283.725 94.4699C282.609 93.852 281.6 92.9882 280.698 91.8722C280.32 91.4119 277.893 87.9063 273.41 81.3553C268.927 74.8043 266.285 71.5256 265.478 71.5256C265.15 71.5256 264.986 73.7576 264.986 78.2153C264.986 82.673 265.308 86.6831 265.944 90.2455C266.127 91.248 266.443 92.0614 266.89 92.6856C267.344 93.3098 267.565 93.8268 267.565 94.2366L267.369 94.8041C266.89 95.3653 265.314 95.6427 262.641 95.6427H261.581C259.463 95.6427 258.208 95.485 257.811 95.1761C257.42 94.8671 257.218 94.3943 257.218 93.7701C257.218 93.4233 257.672 92.9756 258.586 92.4271C259.501 91.8785 260.043 91.33 260.226 90.7877C260.327 90.4914 260.371 89.0286 260.371 86.4057L260.421 85.2203L260.497 81.6768C260.547 79.3313 260.573 76.658 260.573 73.663C260.573 70.6681 260.459 68.7892 260.238 68.0199C260.018 67.2507 259.412 66.5067 258.429 65.7816C257.445 65.0502 256.953 64.3882 256.953 63.7892C256.953 63.1902 257.187 62.73 257.653 62.4084C258.12 62.0868 259.028 61.9292 260.377 61.9292H261.487C264.148 61.9292 266.512 63.0515 268.58 65.3024C270.648 67.5534 273.41 71.1914 276.865 76.2103C280.32 81.2355 282.313 83.7449 282.836 83.7449C283.46 83.7449 283.769 80.5104 283.769 74.0413C283.769 69.2305 283.233 66.2041 282.168 64.9557C281.562 64.2306 281.253 63.7325 281.253 63.455C281.253 62.7173 281.997 62.3453 283.492 62.3453C286.48 62.3453 288.536 62.4714 289.664 62.7299C290.787 62.9822 291.354 63.5118 291.354 64.3188C291.354 64.798 290.862 65.5294 289.891 66.5256C288.914 67.5218 288.378 68.2154 288.277 68.6189C288.176 69.0225 288.132 70.9329 288.132 74.344L287.811 85.7689L287.785 86.8533L287.735 87.9378C287.703 88.871 287.685 90.2014 287.685 91.9164L287.691 91.91Z" fill="#563118"/>
<path d="M321.505 65.9392C321.505 67.0426 321.347 67.7551 321.038 68.0956C320.723 68.4298 320.25 68.6 319.607 68.6L319.166 68.3793L318.649 68.0325L318.056 67.6858C317.482 67.3579 316.379 66.9039 314.746 66.3302C313.113 65.7564 311.587 65.4664 310.175 65.4664C308.762 65.4664 307.735 65.9771 307.085 66.9922C306.436 68.0136 306.114 70.1069 306.114 73.2721C306.114 74.1737 306.392 74.8988 306.953 75.4411C307.508 75.9833 308.283 76.2544 309.267 76.2544C310.25 76.2544 311.341 75.9076 312.533 75.2204C313.725 74.5331 314.569 74.1863 315.068 74.1863C315.566 74.1863 316.007 74.5205 316.385 75.1825C316.764 75.8446 316.953 76.639 316.953 77.5596C316.953 80.0375 316.682 81.5633 316.139 82.1434L315.477 82.5154C314.506 82.5154 313.737 82.2947 313.163 81.8534C311.896 80.8824 310.969 80.4032 310.383 80.4032C308.51 80.4032 307.255 80.7941 306.612 81.5885C306.297 81.9795 306.146 83.3351 306.146 85.6427C306.146 87.9504 306.612 89.7032 307.552 90.9012C308.044 91.5443 309.128 91.8596 310.805 91.8596C312.482 91.8596 314.62 91.2921 317.224 90.1509C319.828 89.0097 321.316 88.4422 321.694 88.4422C322.4 88.4422 322.753 89.1042 322.753 90.4346V91.3237C322.753 91.7839 322.589 92.4271 322.262 93.2467C321.934 94.0664 321.423 94.7095 320.736 95.1698C320.049 95.6301 318.914 95.857 317.337 95.857H299.481C296.757 95.857 295.396 95.504 295.396 94.7978V94.0096C295.396 93.4548 295.9 92.8936 296.909 92.3325C297.918 91.7776 298.51 91.1723 298.681 90.5229C298.851 89.8735 298.939 86.103 298.939 79.2052C298.939 72.3074 298.826 68.4045 298.592 67.484C298.359 66.5634 297.785 65.7186 296.871 64.9493C295.95 64.1801 295.49 63.4172 295.49 62.6606C295.49 62.1183 296.083 61.8094 297.262 61.74C298.441 61.6707 302.325 61.6265 308.914 61.6265L315.32 61.6013H316.354C318.012 61.6013 319.178 61.8409 319.853 62.3138C320.969 63.1019 321.53 64.3188 321.53 65.9582L321.505 65.9392Z" fill="#563118"/>
<path d="M338.699 61.1596C343.081 61.1596 346.032 61.5442 347.539 62.3197C348.674 62.8935 349.241 64.3752 349.241 66.7522C349.241 69.1293 348.838 70.3209 348.037 70.3209C347.381 70.3209 346.303 69.6274 344.809 68.2402C343.314 66.8531 342.18 65.9452 341.41 65.5164C340.641 65.0877 339.632 64.8733 338.39 64.8733C337.148 64.8733 336.089 65.2768 335.212 66.0776C334.336 66.8846 333.895 67.843 333.895 68.959C333.895 70.4533 334.714 71.79 336.36 72.9754C337.18 73.5681 339.077 74.5264 342.047 75.8568C345.017 77.1872 347.135 78.4924 348.403 79.7723C350.193 81.5945 351.089 83.6499 351.089 85.9324C351.089 90.6928 348.73 93.9021 344.021 95.5603C342.627 96.0521 341.196 96.298 339.733 96.298H338.844C337.035 96.298 335.036 96.0899 332.835 95.6801C330.635 95.2703 329.248 94.8668 328.674 94.4758C327.608 93.7381 327.072 92.0231 327.072 89.3309V88.4923C327.072 86.7521 327.539 85.882 328.478 85.882C329.134 85.882 330.181 86.7205 331.606 88.3914C333.031 90.0623 334.235 91.1846 335.212 91.7394C336.19 92.3006 337.438 92.578 338.958 92.578C340.477 92.578 341.751 92.1429 342.785 91.2728C343.819 90.4027 344.336 89.457 344.336 88.4418C344.336 86.916 343.876 85.6613 342.955 84.6714C342.034 83.6878 340.206 82.5592 337.463 81.2981C334.721 80.0371 332.823 79.0157 331.776 78.2465C328.888 76.1153 327.438 73.5491 327.438 70.5605C327.438 69.9363 327.501 69.2869 327.634 68.6122C328.176 65.7875 329.992 63.6564 333.075 62.2062C334.588 61.5001 336.164 61.147 337.804 61.147H338.693L338.699 61.1596Z" fill="#563118"/>
<path d="M62.7612 105.333V158H113.562V105.333H62.7612ZM108.517 145.39C108.517 149.57 105.132 152.956 100.951 152.956H75.3715C71.1912 152.956 67.8053 149.57 67.8053 145.39V117.943C67.8053 113.763 71.1912 110.377 75.3715 110.377H100.951C105.132 110.377 108.517 113.763 108.517 117.943V145.39Z" fill="#563118"/>
<path d="M83.4105 119.98C82.635 126.89 72.6792 126.399 73.3097 119.558C73.8961 113.183 83.2151 113.454 83.4105 119.86V119.98Z" fill="#563118"/>
<path d="M75.0939 134.911C76.0271 132.597 76.7585 132.408 77.2692 132.193C78.8518 131.512 80.8883 133.423 81.9917 134.122C82.4772 134.431 83.0825 134.255 83.341 133.744C84.1481 132.117 84.993 130.503 85.7559 128.851C86.4936 127.25 87.1871 125.548 88.1266 124.053C88.8958 122.817 90.5667 121.121 92.7798 121.121C95.7621 121.121 97.5591 124.394 97.6347 124.539C100.819 129.986 102.647 135.73 104.123 141.827C105.068 145.737 105.22 146.84 104.564 147.603C103.952 148.315 103.063 148.246 98.9336 148.259C96.9916 148.259 95.0433 148.334 93.1013 148.322C89.7155 148.303 87.6222 148.385 85.1884 148.404C82.37 148.423 78.7698 148.435 74.1103 148.404C73.587 148.404 72.3133 148.378 71.7017 147.546C71.2541 146.941 71.273 146.008 71.6702 144.74C72.6286 141.72 73.6627 138.46 75.1002 134.911H75.0939Z" fill="#563118"/>
</svg>
