<svg width="81" height="84" viewBox="0 0 81 84" fill="none" xmlns="http://www.w3.org/2000/svg">
<path d="M0 0V83.53H80.57V0H0ZM72.57 63.53C72.57 70.16 67.2 75.53 60.57 75.53H20C13.37 75.53 8 70.16 8 63.53V20C8 13.37 13.37 8 20 8H60.57C67.2 8 72.57 13.37 72.57 20V63.53Z" fill="#C25630"/>
<path d="M32.7499 23.2299C31.5199 34.1899 15.7299 33.4099 16.7299 22.5599C17.6599 12.4499 32.4399 12.8799 32.7499 23.0399V23.2299Z" fill="#C25630"/>
<path d="M19.5599 46.9099C21.0399 43.2399 22.1999 42.9399 23.0099 42.5999C25.5199 41.5199 28.7499 44.5499 30.4999 45.6599C31.2699 46.1499 32.2299 45.8699 32.6399 45.0599C33.9199 42.4799 35.2599 39.9199 36.4699 37.2999C37.6399 34.7599 38.7399 32.0599 40.2299 29.6899C41.4499 27.7299 44.0999 25.0399 47.6099 25.0399C52.3399 25.0399 55.1899 30.2299 55.3099 30.4599C60.3599 39.0999 63.2598 48.2099 65.5998 57.8799C67.0998 64.0799 67.3399 65.8299 66.2999 67.0399C65.3299 68.1699 63.9199 68.0599 57.3699 68.0799C54.2899 68.0799 51.1999 68.1999 48.1199 68.1799C42.7499 68.1499 39.4299 68.2799 35.5699 68.3099C31.0999 68.3399 25.3899 68.3599 17.9999 68.3099C17.1699 68.3099 15.1499 68.2699 14.1799 66.9499C13.4699 65.9899 13.4999 64.5099 14.1299 62.4999C15.6499 57.7099 17.2899 52.5399 19.5699 46.9099H19.5599Z" fill="#C25630"/>
</svg>
