<svg width="376" height="163" viewBox="0 0 376 163" fill="none" xmlns="http://www.w3.org/2000/svg">
<path d="M0 0V54.3333H117.155V0H0ZM111.952 41.324C111.952 45.6366 108.459 49.1296 104.146 49.1296H13.0093C8.69672 49.1296 5.20372 45.6366 5.20372 41.324V13.0093C5.20372 8.69672 8.69672 5.20372 13.0093 5.20372H104.146C108.459 5.20372 111.952 8.69672 111.952 13.0093V41.324Z" fill="#563118"/>
<path d="M117.154 54.3333V108.667H375.226V54.3333H117.154ZM370.022 95.6573C370.022 99.9699 366.529 103.463 362.217 103.463H130.164C125.851 103.463 122.358 99.9699 122.358 95.6573V67.3426C122.358 63.03 125.851 59.537 130.164 59.537H362.217C366.529 59.537 370.022 63.03 370.022 67.3426V95.6573Z" fill="#563118"/>
<path d="M25.8682 10.8365C25.8682 11.0577 25.3479 11.7537 24.3071 12.931C23.2664 14.1084 22.6484 15.1036 22.4533 15.9167C22.2582 16.7298 22.1606 20.613 22.1606 27.5665C22.1606 34.52 22.2582 38.3642 22.4533 39.0862C22.6484 39.8148 23.0582 40.3091 23.6827 40.5758C24.3071 40.836 25.3869 40.9726 26.909 40.9726C28.4311 40.9726 29.7645 40.6929 30.9093 40.1335C32.0542 39.5741 33.2836 38.5724 34.604 37.1348C35.9245 35.6973 37.0628 34.9753 38.0059 34.9753C38.7345 34.9753 39.0987 35.4306 39.0987 36.3478V37.0112C39.0987 38.2797 38.8971 39.6912 38.4873 41.2393C38.0775 42.7874 37.7588 43.672 37.5246 43.8932C36.9977 44.3875 35.7293 44.6282 33.7128 44.6282H20.0661C15.6104 44.6282 13.1452 44.5892 12.6703 44.4981C11.8572 44.3485 11.4474 43.8867 11.4474 43.1256C11.4474 42.7223 11.8963 42.0654 12.7939 41.1677C13.6916 40.2701 14.3095 39.0992 14.6477 37.6617C14.7843 37.0893 14.8494 33.2906 14.8494 26.2786C14.8494 19.2666 14.7453 15.4223 14.5437 14.7458C14.342 14.0694 13.685 13.3799 12.5858 12.6904C11.4865 11.9944 10.9336 11.2138 10.9336 10.3552C10.9336 9.6592 12.5858 9.31445 15.8901 9.31445H22.6224C23.9429 9.31445 24.8145 9.41202 25.2243 9.60716C25.6406 9.8023 25.8487 10.2121 25.8487 10.8365H25.8682Z" fill="#563118"/>
<path d="M41.8965 27.274C41.8965 24.5616 42.3128 22.0573 43.1389 19.7547C44.7455 15.2469 47.5685 12.1247 51.6014 10.3815C53.9366 9.36674 56.3303 8.85938 58.7695 8.85938L59.381 8.88539H59.9664C61.9308 8.88539 63.9733 9.33421 66.0873 10.2319C68.2013 11.1295 70.0161 12.4044 71.5122 14.0566C73.0082 15.7088 74.1531 17.6341 74.9271 19.8262C75.7077 22.0183 76.0979 24.2429 76.0979 26.4935V27.0789C76.0979 29.6352 75.6686 32.081 74.8165 34.4096C73.9579 36.7383 72.7285 38.7352 71.1219 40.3939C67.8695 43.7633 63.557 45.461 58.1906 45.474C55.9855 45.474 53.865 45.0577 51.8226 44.2186C49.7801 43.3795 48.0759 42.2087 46.7034 40.6996C43.5031 37.1416 41.903 32.6729 41.903 27.287L41.8965 27.274ZM67.4337 28.3668V26.6626C67.4337 24.9324 67.2061 23.1241 66.7508 21.2247C65.8336 17.4455 64.227 14.8306 61.9243 13.3736C60.8901 12.7296 59.7062 12.4109 58.3663 12.4109H57.9825C56.8832 12.4109 55.7579 12.7427 54.6001 13.3996C52.3625 14.6875 50.8339 16.9577 50.0013 20.21C49.4744 22.2394 49.2142 24.2689 49.2142 26.2853V27.1504C49.2142 29.1344 49.4679 31.0858 49.9752 33.0176C50.99 36.8294 52.7333 39.4703 55.2115 40.9468C56.2262 41.5582 57.28 41.864 58.3597 41.864H59.1208C60.2721 41.864 61.3844 41.5322 62.4512 40.8622C63.518 40.1923 64.3896 39.2881 65.066 38.1563C66.6402 35.5284 67.4272 32.2696 67.4272 28.3733L67.4337 28.3668Z" fill="#563118"/>
<path d="M92.8207 8.85285C97.3415 8.85285 100.386 9.24964 101.94 10.0497C103.111 10.6416 103.697 12.1702 103.697 14.6225C103.697 17.0747 103.28 18.3041 102.454 18.3041C101.778 18.3041 100.665 17.5886 99.1237 16.1576C97.5821 14.7266 96.4113 13.7899 95.6177 13.3476C94.8242 12.9052 93.7834 12.6841 92.502 12.6841C91.2206 12.6841 90.1278 13.1004 89.2237 13.9265C88.3195 14.7591 87.8642 15.7478 87.8642 16.8991C87.8642 18.4407 88.7098 19.8197 90.4075 21.0426C91.2531 21.654 93.211 22.6427 96.2747 24.0152C99.3384 25.3877 101.524 26.7341 102.831 28.0546C104.679 29.9344 105.602 32.0549 105.602 34.4096C105.602 39.3206 103.17 42.6315 98.3106 44.3422C96.8731 44.8496 95.3966 45.1033 93.8875 45.1033H92.9703C91.1035 45.1033 89.0415 44.8886 86.7714 44.4658C84.5013 44.043 83.0703 43.6267 82.4783 43.2234C81.3791 42.4624 80.8262 40.6931 80.8262 37.9156V37.0505C80.8262 35.2552 81.3075 34.3576 82.2767 34.3576C82.9532 34.3576 84.033 35.2227 85.503 36.9464C86.9731 38.6702 88.2154 39.828 89.2237 40.4004C90.2319 40.9793 91.5198 41.2655 93.0874 41.2655C94.655 41.2655 95.969 40.8167 97.0357 39.9191C98.1025 39.0214 98.6359 38.0457 98.6359 36.9985C98.6359 35.4243 98.1611 34.1299 97.2114 33.1087C96.2617 32.094 94.3753 30.9296 91.5458 29.6287C88.7163 28.3278 86.7584 27.274 85.6786 26.4805C82.6995 24.2819 81.2034 21.6345 81.2034 18.5513C81.2034 17.9073 81.2685 17.2373 81.4051 16.5413C81.9645 13.6273 83.8378 11.4287 87.0186 9.93262C88.5797 9.2041 90.2058 8.83984 91.8971 8.83984H92.8142L92.8207 8.85285Z" fill="#563118"/>
<path d="M150.316 92.2878C150.316 93.5952 150.602 94.6424 151.181 95.436C151.415 95.7612 151.799 96.1906 152.326 96.7304C152.853 97.2703 153.113 97.7126 153.113 98.0509C153.113 99.0331 152.306 99.5274 150.7 99.5274C150.205 99.5274 149.64 99.5014 148.996 99.4494L147.395 99.2998C146.361 99.2347 145.034 99.1957 143.408 99.1957C141.782 99.1957 140.689 99.1437 140.13 99.0461C139.59 98.942 139.317 98.6493 139.317 98.168C139.317 97.6866 139.772 96.9906 140.676 96.0865C141.58 95.1823 142.198 94.3953 142.517 93.7253C142.836 93.0553 142.998 91.6243 142.998 89.4322C142.998 87.2402 142.439 85.1522 141.32 83.1682C137.476 76.3449 134.809 71.9282 133.319 69.9313C132.916 69.3719 132.149 68.7019 131.03 67.9213C129.911 67.1408 129.352 66.3863 129.352 65.6577C129.352 64.9292 129.748 64.4218 130.548 64.1356C131.732 63.6933 134.165 63.4722 137.84 63.4722H138.705C141.125 63.4722 142.341 64.0836 142.341 65.3L142.237 65.8594L142.107 66.3928C141.958 67.2058 141.88 67.7392 141.88 67.9929C141.88 69.1637 143.219 72.3835 145.893 77.6458C146.621 79.0833 147.155 79.8053 147.493 79.8053C148.157 79.8053 149.535 77.9255 151.636 74.1658C152.723 72.2339 153.263 70.8549 153.263 70.0223C153.263 69.1898 153.061 68.3572 152.664 67.5181C152.267 66.679 152.066 66.048 152.066 65.6252C152.066 64.8772 152.495 64.3828 153.36 64.1291C154.661 63.7389 156.775 63.5437 159.689 63.5437C161.803 63.5437 162.863 63.973 162.863 64.8381C162.863 65.8724 162.46 66.679 161.641 67.2514C160.151 68.3051 159.195 69.1507 158.772 69.7947C156.873 72.6437 154.629 76.7937 152.04 82.2446C150.888 84.6643 150.31 88.0142 150.31 92.2813L150.316 92.2878Z" fill="#563118"/>
<path d="M193.102 69.6517C193.102 70.6014 192.907 71.2518 192.517 71.5966C192.127 71.9413 191.795 72.117 191.515 72.117C191.235 72.117 189.974 71.5901 187.729 70.5428C185.485 69.4956 183.573 68.9687 181.999 68.9687C180.425 68.9687 179.299 69.5216 178.617 70.6339C177.94 71.7462 177.602 73.509 177.602 75.9287C177.602 76.8914 177.888 77.6914 178.467 78.3289C179.039 78.9664 179.813 79.2786 180.776 79.2786C181.739 79.2786 182.786 78.9208 183.898 78.1988C185.017 77.4768 185.856 77.119 186.416 77.119L187.125 77.4768C187.801 78.0362 188.139 79.3762 188.139 81.4902C188.139 83.6042 187.879 84.9571 187.352 85.5296L186.689 85.9133C185.856 85.9133 184.926 85.523 183.892 84.7425C182.858 83.9619 182.044 83.5716 181.453 83.5716C180.015 83.5716 179 83.8448 178.415 84.3847C177.829 84.9246 177.537 85.7377 177.537 86.824C177.537 90.1413 177.855 92.3594 178.499 93.4652C179.143 94.5775 180.366 95.1304 182.168 95.1304C183.97 95.1304 186.09 94.4669 188.523 93.1335C190.956 91.8065 192.296 91.1366 192.549 91.1366C193.584 91.1366 194.098 91.8586 194.098 93.2961V94.2133C194.098 96.1256 193.655 97.4591 192.777 98.2136C191.899 98.9682 190.403 99.3454 188.302 99.3454H180.809L179.716 99.3194H178.623C171.982 99.3194 168.495 99.2934 168.157 99.2414C166.732 99.0202 166.023 98.6559 166.023 98.1486V97.3875C166.023 96.8281 166.511 96.2427 167.5 95.6313C168.482 95.0198 169.081 94.3759 169.302 93.6994C169.523 93.0229 169.634 89.1787 169.634 82.1666C169.634 75.1546 169.529 71.3429 169.315 70.7315C169.1 70.12 168.502 69.4045 167.513 68.5719C166.524 67.7393 166.023 67.0498 166.023 66.4904C166.023 65.5733 166.719 65.0399 168.105 64.8903C168.886 64.8057 172.743 64.7602 179.69 64.7602L185.128 64.7342H187.287C189.187 64.7342 190.624 65.0984 191.606 65.827C192.588 66.5555 193.083 67.8239 193.083 69.6387L193.102 69.6517ZM184.64 54.3333H184.946C185.96 54.3333 186.786 54.5219 187.411 54.8927C188.035 55.2634 188.354 55.5691 188.354 55.8098V55.9399C188.354 56.9937 186.259 59.0426 182.077 62.0868C180.757 63.0495 179.579 63.5373 178.545 63.5373H178.395C177.563 63.5373 177.153 63.3032 177.153 62.8283V62.425C177.153 61.2737 178.662 59.0036 181.674 55.6147C182.422 54.7691 183.41 54.3463 184.646 54.3463L184.64 54.3333Z" fill="#563118"/>
<path d="M211.043 63.6545H213.788C217.99 63.6545 221.158 64.4155 223.291 65.9441C225.425 67.4727 226.492 69.5216 226.492 72.091C226.492 73.5675 226.153 74.9205 225.477 76.1564C224.8 77.3923 223.981 78.3289 223.025 78.9664C222.068 79.6039 221.587 79.9616 221.587 80.0462C221.587 80.1307 222.244 80.5015 223.558 81.165C224.872 81.8284 225.919 82.6155 226.693 83.5262C227.929 85.0027 228.547 86.6029 228.547 88.3266V88.9901C228.547 94.0377 225.522 97.2315 219.473 98.5714C217.867 98.9292 215.596 99.1048 212.663 99.1048H211.316L210.633 99.0788C210.178 99.0593 209.729 99.0528 209.287 99.0528L207.94 99.0007C207.498 98.9812 207.049 98.9747 206.594 98.9747L203.316 98.8966C201.468 98.8966 200.376 98.8641 200.037 98.7926C199.159 98.6235 198.717 98.2072 198.717 97.5502C198.717 97.0753 199.276 96.3728 200.395 95.4427C201.143 94.8182 201.637 93.849 201.885 92.5481C202.132 91.2472 202.255 87.3769 202.255 80.9503C202.255 74.5237 202.138 70.8356 201.911 69.8859C201.683 68.9362 201.098 68.0906 200.154 67.3426C199.211 66.5946 198.743 65.9311 198.743 65.3457C198.743 64.7602 199.075 64.37 199.745 64.1618C200.415 63.9602 202.203 63.8561 205.117 63.8561L207.758 63.752C209.521 63.687 210.614 63.6479 211.037 63.6479L211.043 63.6545ZM209.645 92.8473L209.697 93.8881C209.697 94.8898 210.601 95.3841 212.416 95.3841L212.643 95.4101L212.845 95.4362L213.762 95.4622H214.907C216.585 95.4622 218.01 94.9288 219.187 93.862C220.364 92.7953 220.95 91.3447 220.95 89.5169V88.5543C220.95 86.8435 220.338 85.38 219.122 84.1571C217.906 82.9342 216.039 82.3293 213.534 82.3293H211.96C210.672 82.3293 209.963 82.4789 209.84 82.7716C209.71 83.0708 209.651 85.0027 209.651 88.5803L209.625 89.0096V89.647L209.599 89.8487V90.278L209.573 91.1431V91.3447L209.599 91.5464V91.9757L209.625 92.1773V92.6327L209.651 92.8343L209.645 92.8473ZM209.671 77.2947L209.723 78.1858C209.723 78.7127 210.093 78.9729 210.841 78.9729H212.012L212.214 78.9469L213.586 78.8948C213.723 78.8753 213.86 78.8688 213.99 78.8688C215.291 78.8688 216.487 78.381 217.574 77.4053C218.66 76.4296 219.2 75.2002 219.2 73.7106L219.252 73.3074V72.4943C219.252 70.9527 218.706 69.6908 217.613 68.7086C216.52 67.7264 214.881 67.232 212.695 67.232H211.707C210.588 67.232 209.937 67.5052 209.749 68.0451C209.684 68.2467 209.645 69.7363 209.645 72.5203V77.0931L209.671 77.2947Z" fill="#563118"/>
<path d="M259.522 68.0255C259.522 69.1638 259.359 69.8988 259.04 70.2501C258.715 70.5948 258.227 70.7705 257.564 70.7705L257.108 70.5428L256.575 70.185L255.964 69.8273C255.372 69.489 254.233 69.0207 252.549 68.4288C250.864 67.8369 249.29 67.5376 247.833 67.5376C246.376 67.5376 245.315 68.0645 244.646 69.1118C243.976 70.1655 243.644 72.3251 243.644 75.5904C243.644 76.5206 243.93 77.2686 244.509 77.828C245.081 78.3874 245.881 78.6671 246.896 78.6671C247.911 78.6671 249.036 78.3093 250.266 77.6003C251.495 76.8913 252.367 76.5336 252.88 76.5336C253.394 76.5336 253.85 76.8783 254.24 77.5613C254.63 78.2443 254.825 79.0639 254.825 80.0136C254.825 82.5699 254.546 84.144 253.986 84.7424L253.303 85.1262C252.302 85.1262 251.508 84.8986 250.916 84.4432C249.609 83.4415 248.652 82.9472 248.048 82.9472C246.116 82.9472 244.821 83.3504 244.158 84.17C243.832 84.5733 243.676 85.9718 243.676 88.3525C243.676 90.7332 244.158 92.5415 245.127 93.7774C245.634 94.4409 246.753 94.7661 248.483 94.7661C250.213 94.7661 252.419 94.1807 255.105 93.0033C257.791 91.826 259.327 91.2406 259.717 91.2406C260.445 91.2406 260.81 91.9236 260.81 93.296V94.2132C260.81 94.688 260.64 95.3515 260.302 96.1971C259.964 97.0427 259.437 97.7062 258.728 98.181C258.019 98.6559 256.848 98.8901 255.222 98.8901H236.801C233.991 98.8901 232.586 98.5258 232.586 97.7973V96.9842C232.586 96.4118 233.106 95.8329 234.147 95.254C235.188 94.6815 235.799 94.0571 235.975 93.3871C236.15 92.7171 236.242 88.8274 236.242 81.7113C236.242 74.5952 236.124 70.5688 235.884 69.6191C235.643 68.6695 235.051 67.7978 234.108 67.0043C233.158 66.2107 232.684 65.4236 232.684 64.6431C232.684 64.0837 233.295 63.7649 234.511 63.6934C235.728 63.6218 239.735 63.5763 246.532 63.5763L253.141 63.5503H254.207C255.918 63.5503 257.121 63.7975 257.817 64.2853C258.969 65.0984 259.548 66.3538 259.548 68.045L259.522 68.0255Z" fill="#563118"/>
<path d="M296.794 94.8183C296.794 96.5875 296.69 97.6283 296.475 97.9405C296.261 98.2527 295.727 98.4088 294.862 98.4088C294.576 98.4088 293.854 98.0901 292.703 97.4592C291.551 96.8217 290.511 95.9306 289.581 94.7793C289.19 94.3044 286.686 90.6878 282.061 83.9295C277.436 77.1712 274.711 73.7887 273.878 73.7887C273.54 73.7887 273.371 76.0914 273.371 80.6902C273.371 85.289 273.703 89.4259 274.36 93.1011C274.548 94.1353 274.873 94.9744 275.335 95.6183C275.804 96.2623 276.031 96.7957 276.031 97.2185L275.83 97.8039C275.335 98.3828 273.709 98.669 270.951 98.669H269.858C267.673 98.669 266.378 98.5064 265.969 98.1877C265.565 97.869 265.357 97.3811 265.357 96.7371C265.357 96.3794 265.825 95.9176 266.769 95.3517C267.712 94.7858 268.271 94.2199 268.46 93.6605C268.564 93.3547 268.61 91.8456 268.61 89.1397L268.662 87.9168L268.74 84.2612C268.792 81.8415 268.818 79.0835 268.818 75.9938C268.818 72.9041 268.701 70.9657 268.473 70.1722C268.245 69.3786 267.621 68.611 266.606 67.863C265.591 67.1085 265.084 66.4255 265.084 65.8075C265.084 65.1896 265.325 64.7148 265.806 64.383C266.287 64.0513 267.224 63.8887 268.616 63.8887H269.761C272.506 63.8887 274.945 65.0465 277.079 67.3687C279.212 69.6908 282.061 73.444 285.626 78.6217C289.19 83.8059 291.246 86.3948 291.786 86.3948C292.43 86.3948 292.748 83.0579 292.748 76.3841C292.748 71.4211 292.195 68.2988 291.096 67.0109C290.472 66.2629 290.153 65.749 290.153 65.4628C290.153 64.7018 290.92 64.318 292.462 64.318C295.545 64.318 297.666 64.4481 298.83 64.7148C299.988 64.9749 300.573 65.5213 300.573 66.3539C300.573 66.8483 300.066 67.6028 299.064 68.6306C298.056 69.6583 297.503 70.3738 297.399 70.7901C297.295 71.2064 297.25 73.1773 297.25 76.6963L296.918 88.4827L296.892 89.6015L296.84 90.7203C296.807 91.683 296.788 93.0555 296.788 94.8248L296.794 94.8183Z" fill="#563118"/>
<path d="M331.678 68.0255C331.678 69.1638 331.515 69.8988 331.197 70.2501C330.871 70.5948 330.384 70.7705 329.72 70.7705L329.265 70.5428L328.731 70.185L328.12 69.8273C327.528 69.489 326.39 69.0207 324.705 68.4288C323.02 67.8369 321.446 67.5376 319.989 67.5376C318.532 67.5376 317.472 68.0645 316.802 69.1118C316.132 70.1655 315.8 72.3251 315.8 75.5904C315.8 76.5206 316.086 77.2686 316.665 77.828C317.238 78.3874 318.038 78.6671 319.052 78.6671C320.067 78.6671 321.192 78.3093 322.422 77.6003C323.651 76.8913 324.523 76.5336 325.037 76.5336C325.551 76.5336 326.006 76.8783 326.396 77.5613C326.786 78.2443 326.982 79.0639 326.982 80.0136C326.982 82.5699 326.702 84.144 326.142 84.7424L325.46 85.1262C324.458 85.1262 323.664 84.8986 323.072 84.4432C321.765 83.4415 320.809 82.9472 320.204 82.9472C318.272 82.9472 316.977 83.3504 316.314 84.17C315.989 84.5733 315.833 85.9718 315.833 88.3525C315.833 90.7332 316.314 92.5415 317.283 93.7774C317.791 94.4409 318.909 94.7661 320.64 94.7661C322.37 94.7661 324.575 94.1807 327.261 93.0033C329.948 91.826 331.483 91.2406 331.873 91.2406C332.602 91.2406 332.966 91.9236 332.966 93.296V94.2132C332.966 94.688 332.797 95.3515 332.458 96.1971C332.12 97.0427 331.593 97.7062 330.884 98.181C330.175 98.6559 329.005 98.8901 327.378 98.8901H308.957C306.147 98.8901 304.742 98.5258 304.742 97.7973V96.9842C304.742 96.4118 305.263 95.8329 306.303 95.254C307.344 94.6815 307.956 94.0571 308.131 93.3871C308.307 92.7171 308.398 88.8274 308.398 81.7113C308.398 74.5952 308.281 70.5688 308.04 69.6191C307.799 68.6695 307.208 67.7978 306.264 67.0043C305.315 66.2107 304.84 65.4236 304.84 64.6431C304.84 64.0837 305.451 63.7649 306.668 63.6934C307.884 63.6218 311.891 63.5763 318.688 63.5763L325.297 63.5503H326.364C328.074 63.5503 329.278 63.7975 329.974 64.2853C331.125 65.0984 331.704 66.3538 331.704 68.045L331.678 68.0255Z" fill="#563118"/>
<path d="M349.416 63.095C353.937 63.095 356.981 63.4918 358.536 64.2919C359.707 64.8838 360.292 66.4124 360.292 68.8647C360.292 71.3169 359.876 72.5463 359.05 72.5463C358.373 72.5463 357.261 71.8308 355.719 70.3998C354.178 68.9687 353.007 68.0321 352.214 67.5898C351.42 67.1474 350.379 66.9263 349.098 66.9263C347.816 66.9263 346.724 67.3426 345.819 68.1687C344.915 69.0013 344.46 69.99 344.46 71.1413C344.46 72.6829 345.306 74.0619 347.003 75.2847C347.849 75.8962 349.807 76.8849 352.87 78.2574C355.934 79.6299 358.12 80.9763 359.427 82.2968C361.274 84.1766 362.198 86.2971 362.198 88.6518C362.198 93.5628 359.765 96.8737 354.906 98.5844C353.469 99.0918 351.992 99.3454 350.483 99.3454H349.566C347.699 99.3454 345.637 99.1308 343.367 98.708C341.097 98.2852 339.666 97.8689 339.074 97.4656C337.975 96.7046 337.422 94.9353 337.422 92.1578V91.2927C337.422 89.4974 337.903 88.5998 338.872 88.5998C339.549 88.5998 340.629 89.4649 342.099 91.1886C343.569 92.9124 344.811 94.0702 345.819 94.6426C346.828 95.2215 348.116 95.5077 349.683 95.5077C351.251 95.5077 352.565 95.0589 353.631 94.1612C354.698 93.2636 355.232 92.2879 355.232 91.2407C355.232 89.6665 354.757 88.3721 353.807 87.3509C352.857 86.3361 350.971 85.1718 348.142 83.8709C345.312 82.57 343.354 81.5162 342.274 80.7226C339.295 78.5241 337.799 75.8767 337.799 72.7935C337.799 72.1495 337.864 71.4795 338.001 70.7835C338.56 67.8695 340.434 65.6709 343.614 64.1748C345.175 63.4463 346.802 63.082 348.493 63.082H349.41L349.416 63.095Z" fill="#563118"/>
<path d="M64.748 108.667V163H117.156V108.667H64.748ZM111.952 149.991C111.952 154.303 108.459 157.796 104.147 157.796H77.7573C73.4448 157.796 69.9518 154.303 69.9518 149.991V121.676C69.9518 117.363 73.4448 113.87 77.7573 113.87H104.147C108.459 113.87 111.952 117.363 111.952 121.676V149.991Z" fill="#C25630"/>
<path d="M86.0497 123.777C85.2496 130.906 74.9788 130.399 75.6292 123.341C76.2342 116.765 85.848 117.045 86.0497 123.653V123.777Z" fill="#C25630"/>
<path d="M77.4696 139.18C78.4323 136.793 79.1868 136.598 79.7137 136.377C81.3464 135.674 83.4474 137.645 84.5857 138.367C85.0865 138.686 85.711 138.504 85.9777 137.977C86.8103 136.298 87.6819 134.633 88.469 132.929C89.23 131.277 89.9455 129.521 90.9147 127.979C91.7083 126.704 93.432 124.954 95.7151 124.954C98.7918 124.954 100.646 128.33 100.724 128.48C104.009 134.1 105.895 140.026 107.417 146.316C108.393 150.348 108.549 151.487 107.872 152.274C107.241 153.009 106.324 152.937 102.064 152.95C100.06 152.95 98.0503 153.028 96.0469 153.015C92.5539 152.996 90.3943 153.08 87.8835 153.1C84.976 153.119 81.2618 153.132 76.4549 153.1C75.915 153.1 74.601 153.074 73.9701 152.215C73.5083 151.591 73.5278 150.628 73.9376 149.321C74.9263 146.205 75.993 142.842 77.4761 139.18H77.4696Z" fill="#C25630"/>
</svg>
