<svg width="26" height="29" viewBox="0 0 26 29" fill="none" xmlns="http://www.w3.org/2000/svg">
<path d="M2.03688 17.0691C2.03688 17.0691 2.02613 17.053 2.02076 17.0449C2.01538 17.0395 2.0127 17.0342 2.00732 17.0288L2.03688 17.0691Z" fill="#D38734"/>
<path d="M24.5521 19.1314L23.3977 18.4832C23.2102 18.3654 22.9906 18.2904 22.8754 18.1243C22.6879 17.8752 22.7308 17.4868 22.9718 17.2859C23.2263 17.0877 23.5799 16.935 23.6682 16.5788C23.7352 16.1154 23.4352 15.7244 23.1941 15.3654C22.7013 14.503 22.2192 14.7306 21.5228 15.1779C20.9764 15.4806 20.3951 15.8985 19.8273 16.1315C19.4014 16.2922 19.0184 15.9869 18.6568 15.794L17.5265 15.1458L16.9613 14.8217C16.7765 14.7065 16.5676 14.6262 16.4497 14.4655C16.1765 14.1548 16.2167 13.6673 16.5434 13.4101C17.2506 12.9387 18.0755 12.6012 18.8282 12.1941C18.9755 12.1218 19.2327 11.9611 19.388 11.9343C19.7951 11.8513 20.1567 12.1325 20.5023 12.3361C20.7835 12.5048 21.3379 12.8477 21.6192 13.0137C22.0344 13.2896 22.554 13.5682 22.9799 13.1316C23.2906 12.7914 23.5424 12.4111 23.7325 11.9852C24.1316 11.1174 23.1781 10.7504 22.6745 10.3218C22.6236 10.2736 22.5942 10.2522 22.6183 10.212C22.6584 10.1451 22.8031 10.0701 22.8727 10.0218C23.5932 9.59865 24.3513 9.22098 25.0852 8.78706C25.3771 8.63974 25.7387 8.31029 25.6691 7.9112C25.57 7.41835 25.3182 7.08354 25.0798 6.67105C24.8789 6.28535 24.4209 5.87286 23.9254 6.0791C22.9611 6.46213 22.0397 7.16122 21.1424 7.53353C21.121 7.45585 21.113 7.33264 21.0996 7.25496C21.0701 6.77551 21.0781 6.14875 20.6121 5.85143C19.9639 5.50055 19.3585 5.65054 18.7184 5.71215C18.1238 5.81125 17.9336 6.3657 17.955 6.85587C17.9497 7.54424 18.0032 8.34511 17.9764 8.99331C17.9577 9.13527 17.9229 9.23169 17.8532 9.32008C17.5961 9.60936 16.9479 9.86917 16.5943 10.1022L15.6488 10.6406C15.5256 10.7102 15.314 10.8361 15.1908 10.8977C14.8881 11.0557 14.4917 10.7959 14.481 10.4665L14.4756 8.31565C14.489 8.10137 14.4301 7.5871 14.548 7.41299C14.7274 7.09425 15.3971 6.85587 15.7586 6.6282L16.2354 6.3657C16.5809 6.15678 16.9774 6.03893 17.2318 5.64787C17.497 5.21395 17.2318 4.72111 17.0202 4.3354C16.755 3.78899 16.2917 3.13812 15.5819 3.32561C15.2042 3.39257 14.773 3.73542 14.4542 3.77828C14.3819 3.47293 14.414 1.54709 14.3953 1.16407C14.4274 -0.0921478 13.5355 -0.0171507 12.5739 0.0123127C11.7007 0.00427721 11.3552 0.42748 11.4275 1.24978C11.4275 1.56048 11.4382 2.57831 11.4382 2.88366C11.4302 3.13276 11.4731 3.63632 11.39 3.85328C11.2802 3.90952 11.09 3.80506 10.9588 3.75685C10.0374 3.26401 9.49097 3.22115 8.97402 4.23362C8.87492 4.45594 8.74635 4.6595 8.65528 4.90324C8.54011 5.16038 8.60439 5.54341 8.82403 5.72554C9.16687 6.03893 9.71596 6.25053 10.0963 6.47552C10.4311 6.67641 11.0311 6.91747 11.2936 7.17997C11.5856 7.46389 11.4784 7.98887 11.5052 8.46029C11.5052 8.93974 11.5132 10.1451 11.5159 10.6138C11.4918 11.337 10.6856 11.2057 10.1793 10.9111L9.10527 10.3111C8.80528 10.137 8.32047 9.87989 8.03923 9.70311C7.69102 9.49151 7.54906 9.14598 7.59192 8.74688C7.57317 7.95137 7.72049 7.15854 7.57585 6.36838C7.43121 5.84072 6.71605 5.83536 6.30088 5.82732C5.93661 5.84607 5.57501 5.78179 5.25359 6.00946C4.79825 6.37106 4.92146 7.00586 4.83307 7.49603C4.8036 7.61924 4.78218 7.70495 4.65093 7.70763C4.05095 7.47728 3.04919 6.83176 2.30189 6.42195C1.78762 6.11392 1.33495 5.98 0.914431 6.54784C0.686759 6.83444 0.552834 7.14782 0.376053 7.44781C0.23945 7.66745 0.129631 7.98084 0.250163 8.24601C0.41623 8.61296 0.812648 8.77635 1.11532 8.95849C1.52513 9.19687 2.47599 9.754 2.88312 9.99238C2.99026 10.0593 3.11347 10.1129 3.17776 10.2174C3.17776 10.2281 3.18044 10.2254 3.1724 10.2442C2.89652 10.6058 2.45189 10.6593 2.13314 11.0691C1.75012 11.4548 2.00726 12.1459 2.32332 12.5745L2.58045 12.9655C2.77063 13.3057 3.23936 13.5307 3.61703 13.386C4.52504 13.0325 5.17056 12.4298 6.05178 12.0763C6.58213 11.9718 7.03479 12.478 7.54638 12.7084C7.62406 12.7539 8.30707 13.1477 8.30707 13.1477C8.516 13.2709 8.86152 13.4584 9.0517 13.5869C9.22044 13.7075 9.35169 13.8333 9.34633 14.0316C9.31151 14.1976 9.08384 14.3932 8.92313 14.5056C8.78385 14.5833 6.95979 15.5985 6.95979 15.5985C6.68391 15.7431 6.39999 15.952 6.11875 15.9065C6.00625 15.8797 5.8134 15.7753 5.69286 15.711C5.35805 15.5262 4.60004 15.0521 4.25451 14.8431C3.12419 14.1039 2.66884 14.6021 2.06351 15.6253C1.95904 15.8047 1.85458 16.011 1.81173 16.2735C1.76351 16.5279 1.85726 16.8493 2.03404 17.0502C2.29386 17.4011 2.70634 17.5109 2.97419 17.7814C2.49206 18.1136 1.83851 18.4323 1.33228 18.7323C0.793898 19.0591 -0.167681 19.3912 0.0251708 20.2269C0.223379 20.7974 0.461765 21.2581 0.863539 21.7269C0.973357 21.8394 1.08317 21.9653 1.3296 22.0563C1.81708 22.201 2.32064 21.8287 2.69295 21.6358C3.07598 21.4349 4.1447 20.8001 4.57861 20.5912C4.69647 21.2555 4.5545 22.126 5.44644 22.3777C5.92054 22.5143 6.30892 22.4447 6.74284 22.4286C7.37228 22.4367 7.8678 22.0403 7.89727 21.4028C7.93476 20.618 7.8437 19.8064 7.8812 19.0484C7.87852 18.9493 7.89191 18.8743 7.94816 18.7939C8.17315 18.5046 8.69814 18.2957 9.01956 18.0922L9.87132 17.6073C10.0615 17.5029 10.4017 17.2993 10.5945 17.2002C10.8463 17.0716 11.2132 17.2216 11.24 17.5136C11.2481 17.594 11.2454 17.8591 11.2454 17.9663L11.2481 19.9323C11.2373 20.4412 11.2775 20.626 10.8758 20.8403C10.1793 21.2769 9.33026 21.5929 8.67135 22.1045C7.95351 22.7902 8.66599 23.7331 9.10259 24.3839C9.22044 24.5339 9.42669 24.7268 9.71329 24.7911C9.99988 24.85 10.2222 24.7804 10.399 24.7268C10.6829 24.6438 11.0472 24.4563 11.2427 24.3759C11.2427 24.4214 11.2427 24.4723 11.2481 24.5259C11.2722 25.375 11.2427 26.2562 11.2668 27.1347C11.3338 28.2758 12.4721 28.1847 13.3159 28.1472C13.8703 28.1553 14.4676 27.8928 14.4837 27.2392C14.548 26.5214 14.4998 25.6616 14.4971 24.9437C14.4998 24.8312 14.4944 24.4884 14.5158 24.317C14.7944 24.3786 15.073 24.5768 15.3649 24.6732C15.989 24.9545 16.5568 24.5875 16.8809 24.0036C17.0818 23.6313 17.272 23.2911 17.347 22.8974C17.414 22.0376 16.439 21.8206 15.8765 21.4697L15.6194 21.3385C15.2846 21.1697 14.9551 21.009 14.6792 20.8135C14.5587 20.7251 14.5024 20.6555 14.4676 20.5269C14.4328 20.3957 14.4248 20.2189 14.4221 20.0341L14.3899 17.8002C14.3899 17.6636 14.3846 17.3716 14.3873 17.2538C14.4007 17.0047 14.6658 16.8065 14.9096 16.86C15.0381 16.8815 15.2417 17.0208 15.3676 17.0824L15.3515 17.0743L17.5666 18.3011C17.9523 18.4859 18.1425 18.7028 18.1479 19.1341C18.1505 19.5466 18.1425 19.9805 18.1398 20.4037C18.18 20.9233 17.9497 21.7135 18.5202 22.051C19.1041 22.2545 19.7148 22.2358 20.3094 22.1126C20.4514 22.0644 20.588 21.9733 20.679 21.8474C20.9978 21.4081 20.7969 20.8108 20.9871 20.3528C21.0353 20.2671 21.0969 20.251 21.2094 20.2805C21.4237 20.3474 21.6487 20.5001 21.8736 20.6126C22.3263 20.859 23.4406 21.5099 23.8879 21.7162C24.1423 21.8528 24.4771 21.8126 24.67 21.5849C25.0289 21.1322 25.3557 20.6394 25.495 20.0689C25.5244 19.5519 24.9245 19.3725 24.5682 19.1421L24.5521 19.1314Z" fill="#D38734"/>
</svg>
