<svg width="81" height="84" viewBox="0 0 81 84" fill="none" xmlns="http://www.w3.org/2000/svg">
<path d="M0 0V83.53H80.57V0H0ZM72.58 63.53C72.58 70.16 67.21 75.53 60.58 75.53H20.01C13.38 75.53 8.01 70.16 8.01 63.53V20C8.01 13.37 13.38 8 20.01 8H60.58C67.21 8 72.58 13.37 72.58 20V63.53Z" fill="#99B0C6"/>
<path d="M52.1099 14.62C48.1199 14.62 44.1999 16.32 41.4899 19.04C40.7399 19.88 39.9199 19.95 39.1099 19.04C30.4299 10.15 14.6999 15.66 13.2899 27.83C12.8999 31.34 13.21 38.75 13.13 41.29C13.13 41.71 13.4099 41.79 13.7899 41.8C14.8499 41.82 18.14 41.82 19.2 41.8C19.52 41.78 19.8299 41.76 19.8499 41.39C20.0299 38.89 19.6099 31.34 20.0399 28.47C21.1899 21.07 31.21 18.9 35.33 25.01C36.85 27.09 33.52 25.71 32.52 25.92C27.05 25.91 22.4299 29.94 21.5699 35.21C21.1599 38.05 21.46 41.77 21.37 44.72C21.45 45.85 21.0599 46.51 22.0399 46.56C23.0999 46.58 26.39 46.58 27.45 46.56C27.74 46.54 28.04 46.51 28.09 46.17C28.17 45.22 28.1 40.39 28.12 38.29C28.12 37.2 28.09 36.47 28.58 35.33C29.64 32.63 33.49 31.86 35.51 33.93C37.17 35.57 36.93 37.39 36.94 39.68C36.89 43.18 37.04 47.35 36.88 50.91C36.82 51.17 36.6899 51.21 36.4599 51.22C34.4699 51.28 24.72 51.14 20.76 51.27C20.34 51.48 20.44 51.85 20.44 52.52C21.08 62.93 29.87 71.29 40.52 71.16C50.75 71.13 59.4799 62.95 60.1699 52.71C60.1699 52.04 60.3399 51.54 59.8599 51.28C57.7499 51.16 51.3799 51.27 47.1099 51.23C45.3399 51.13 44.28 51.44 43.8 51.06C43.5 48.3 43.78 45.15 43.69 42.46C43.9 39.76 43.0099 36.7 44.7399 34.35C46.6999 31.71 51.26 32.52 52.2 35.68C52.88 38.18 52.38 40.82 52.52 43.49C52.64 45.1 52.2199 46.18 52.8499 46.52C54.0899 46.67 57.3399 46.55 58.5999 46.57C58.8499 46.55 59.0599 46.53 59.1799 46.34C59.4099 44.41 59.2 41.33 59.27 39.14C59.27 37.36 59.3099 36.7 59.0699 35.22C58.1899 29.75 53.1999 25.62 47.5099 25.95C46.8499 25.85 45.11 26.59 44.91 25.92C48.54 18.4 60 20.94 60.7 29.17C60.99 32.68 60.4899 38.32 60.8999 41.69C62.1799 42.05 65.4899 41.75 66.8499 41.83C66.9999 41.82 67.23 41.81 67.34 41.73C67.5 41.62 67.51 41.42 67.52 41.21C67.42 38.48 67.72 31.59 67.38 28.06C66.51 20.52 59.9199 14.66 52.3499 14.66H52.16L52.1099 14.62Z" fill="#99B0C6"/>
</svg>
