<svg width="317" height="163" viewBox="0 0 317 163" fill="none" xmlns="http://www.w3.org/2000/svg">
<path d="M0 0V54.3333H87.2793V0H0ZM82.0756 43.9779C82.0756 46.8204 79.7665 49.1296 76.924 49.1296H10.3554C7.51287 49.1296 5.20372 46.8204 5.20372 43.9779V10.3554C5.20372 7.51286 7.51287 5.20372 10.3554 5.20372H76.9174C79.76 5.20372 82.0691 7.51286 82.0691 10.3554V43.9779H82.0756Z" fill="#563118"/>
<path d="M25.8683 10.8367C25.8683 11.0578 25.3479 11.7538 24.3071 12.9312C23.2664 14.1085 22.6485 15.1037 22.4533 15.9168C22.2582 16.7299 22.1606 20.6131 22.1606 27.5666C22.1606 34.5201 22.2582 38.3643 22.4533 39.0864C22.6485 39.8149 23.0583 40.3092 23.6827 40.5759C24.3071 40.8361 25.3869 40.9727 26.909 40.9727C28.4311 40.9727 29.7645 40.693 30.9094 40.1336C32.0542 39.5742 33.2836 38.5725 34.604 37.135C35.9244 35.6974 37.0628 34.9754 38.0059 34.9754C38.7345 34.9754 39.0987 35.4307 39.0987 36.3479V37.0114C39.0987 38.2798 38.8971 39.6913 38.4873 41.2394C38.0775 42.7875 37.7588 43.6721 37.5246 43.8933C36.9977 44.3876 35.7293 44.6283 33.7129 44.6283H20.0661C15.6104 44.6283 13.1452 44.5893 12.6703 44.4982C11.8573 44.3486 11.4475 43.8868 11.4475 43.1257C11.4475 42.7224 11.8963 42.0655 12.7939 41.1678C13.6916 40.2702 14.3095 39.0994 14.6477 37.6618C14.7843 37.0894 14.8494 33.2907 14.8494 26.2787C14.8494 19.2667 14.7453 15.4224 14.5437 14.746C14.342 14.0695 13.6851 13.38 12.5858 12.6905C11.4865 11.9945 10.9336 11.2139 10.9336 10.3553C10.9336 9.65933 12.5858 9.31458 15.8901 9.31458H22.6224C23.9429 9.31458 24.8145 9.41215 25.2243 9.60729C25.6406 9.80243 25.8488 10.2122 25.8488 10.8367H25.8683Z" fill="#563118"/>
<path d="M58.1123 9.2887H58.8474C60.1028 9.2887 61.5078 10.6286 63.0624 13.3021C63.6023 14.2322 64.4153 16.1641 65.5016 19.0977C66.5879 22.0313 67.5181 24.4575 68.2986 26.3894C69.0792 28.3213 69.9313 30.6174 70.8549 33.2908C71.7786 35.9577 72.4486 37.727 72.8649 38.5986C73.2812 39.4703 74.0227 40.3029 75.0895 41.1029C76.1562 41.8965 76.6896 42.5925 76.6896 43.1714C76.6896 43.7503 76.3254 44.1406 75.5968 44.3292C74.413 44.6154 71.4729 44.7585 66.783 44.7585C64.6495 44.7585 63.5828 44.3032 63.5828 43.386C63.5828 43.1519 63.7519 42.5665 64.0901 41.6428C64.4284 40.7191 64.5975 40.0361 64.5975 39.6003C64.5975 37.5188 64.0966 35.7626 63.1014 34.3381C62.6981 33.7657 61.4167 33.473 59.2637 33.473C55.3153 33.473 53.0843 33.6031 52.5704 33.8567C52.0565 34.1104 51.5296 34.7544 50.9963 35.7886C50.4629 36.8229 50.1962 37.779 50.1962 38.6572C50.1962 39.5353 50.4369 40.485 50.9182 41.5062C51.3996 42.5274 51.6402 43.321 51.6402 43.8934C51.6402 44.6024 50.8792 44.9602 49.3506 44.9602C45.7275 44.9602 43.3013 44.7911 42.0849 44.4528C41.3043 44.2317 40.9141 43.6853 40.9141 42.8006C40.9141 42.6835 41.6816 41.9485 43.2232 40.5891C44.0688 39.841 44.7453 38.8718 45.2527 37.6685C48.9083 28.9457 51.2369 22.6232 52.2256 18.7009C53.2143 14.7786 54.06 12.2288 54.7559 11.0514C55.4519 9.87411 56.5707 9.2887 58.1123 9.2887ZM53.1103 29.2579V29.5116C53.1103 29.7133 53.8973 29.8174 55.4715 29.8174H58.392C60.7142 29.8174 61.872 29.6808 61.872 29.4141C61.872 28.6856 61.15 26.4479 59.7125 22.7078C58.275 18.9676 57.5334 17.0943 57.4879 17.0943C57.4424 17.0943 56.7008 18.9676 55.2633 22.7208C53.8258 26.474 53.1038 28.653 53.1038 29.2645L53.1103 29.2579Z" fill="#563118"/>
<path d="M34.8652 108.667V163H87.2732V108.667H34.8652ZM82.076 149.991C82.076 154.303 78.583 157.796 74.2704 157.796H47.881C43.5685 157.796 40.0755 154.303 40.0755 149.991V121.676C40.0755 117.363 43.5685 113.87 47.881 113.87H74.2704C78.583 113.87 82.076 117.363 82.076 121.676V149.991Z" fill="#99B0C6"/>
<path d="M87.2793 54.3333V108.667H316.854V54.3333H87.2793ZM311.651 95.6573C311.651 99.9698 308.158 103.463 303.845 103.463H100.289C95.976 103.463 92.483 99.9698 92.483 95.6573V67.3425C92.483 63.03 95.976 59.537 100.289 59.537H303.845C308.158 59.537 311.651 63.03 311.651 67.3425V95.6573Z" fill="#563118"/>
<path d="M127.55 68.0776V68.8907C127.55 70.2957 127.069 70.9982 126.099 70.9982C126.015 70.9982 124.818 70.4258 122.515 69.268C120.213 68.1166 118.19 67.5377 116.44 67.5377C115.861 67.5377 115.185 67.7394 114.398 68.1492C113.611 68.5589 113.025 69.1118 112.641 69.8143C112.258 70.5168 112.069 71.7722 112.069 73.587C112.069 77.1776 113.292 78.9729 115.725 78.9729C116.466 78.9729 117.403 78.6476 118.535 77.9972C119.66 77.3467 120.31 77.0215 120.479 77.0215C121.78 77.0215 122.437 78.485 122.437 81.4186C122.437 83.0253 122.132 84.1636 121.52 84.8206C121.247 85.1263 120.935 85.2759 120.577 85.2759C120.219 85.2759 119.549 85.0742 118.554 84.6775C117.565 84.2807 116.869 84.079 116.486 84.079C114.859 84.079 113.65 84.4498 112.849 85.1978C112.31 85.7052 112.036 86.7655 112.036 88.3721C112.036 89.9787 112.264 91.5464 112.719 93.0619C113.175 94.5775 113.611 95.7419 114.027 96.555C114.443 97.368 114.651 97.7843 114.651 97.7973C114.651 98.695 113.767 99.1438 112.01 99.1438L111.145 99.1178H110.254C106.039 99.1178 103.359 98.9422 102.227 98.5844C101.479 98.3502 101.109 97.9144 101.109 97.29C101.109 96.6655 101.635 96.0541 102.696 95.4622C103.756 94.8702 104.374 94.1482 104.563 93.3026C104.628 92.9839 104.667 89.4714 104.667 82.7716C104.667 76.0718 104.543 72.0715 104.296 70.764C104.049 69.4631 103.437 68.3053 102.455 67.297C101.473 66.2888 100.979 65.5083 100.979 64.9489C100.979 64.3895 101.408 64.0447 102.273 63.9081C103.795 63.6545 107.626 63.5243 113.76 63.5243L116.505 63.4463H119.25L120.141 63.4723C123.478 63.4723 125.442 63.6674 126.034 64.0577C127.036 64.7212 127.53 66.0547 127.53 68.0711L127.55 68.0776Z" fill="#563118"/>
<path d="M146.836 99.2542C144.416 99.2542 142.263 98.7469 140.383 97.7322C136.825 95.8003 134.796 92.626 134.282 88.2028L134.204 87.1621C134.184 86.8044 134.178 86.1018 134.178 85.0546L134.256 79.9484V74.2569C134.256 71.1411 134.171 69.3849 134.002 68.9816C133.833 68.5848 133.215 68.1035 132.161 67.5311C131.101 66.9652 130.574 66.3342 130.574 65.6382V64.8251C130.574 64.2527 131.199 63.9015 132.454 63.7844C134.997 63.5307 137.846 63.4006 141.014 63.4006C143.044 63.4006 144.065 63.7844 144.065 64.5454C144.065 64.578 143.766 65.2154 143.161 66.4513C142.556 67.6872 142.146 69.0206 141.918 70.4517C141.691 71.8827 141.574 75.3236 141.574 80.768C141.574 86.2124 141.996 89.803 142.842 91.5267C144.026 93.9464 146.159 95.1628 149.243 95.1628C152.326 95.1628 154.55 94.0115 155.923 91.7088C156.925 90.0307 157.419 86.0888 157.419 79.8834C157.419 73.678 157.003 69.6256 156.177 67.7262L155.819 67.0888L155.389 66.5033C154.882 65.7098 154.628 65.1634 154.628 64.8772C154.628 64.2332 155.012 63.8364 155.773 63.6803C156.092 63.6153 157.425 63.5763 159.774 63.5763C162.122 63.5763 163.858 63.7974 164.997 64.2397C165.452 64.4088 165.68 64.8707 165.68 65.6252C165.68 66.3798 165.355 67.0042 164.717 67.492C163.377 68.5068 162.636 69.2678 162.479 69.7687C162.33 70.2695 162.252 72.6047 162.252 76.7677L162.304 79.7923L162.33 80.8071C162.33 84.8725 162.128 87.9036 161.718 89.9006C161.315 91.8975 160.515 93.6017 159.331 95.0067C156.892 97.8362 153.087 99.2477 147.922 99.2477H146.829L146.836 99.2542Z" fill="#563118"/>
<path d="M196.459 68.0255C196.459 69.1638 196.297 69.8988 195.978 70.2501C195.653 70.5948 195.165 70.7705 194.501 70.7705L194.046 70.5428L193.513 70.185L192.901 69.8273C192.309 69.489 191.171 69.0207 189.486 68.4288C187.801 67.8369 186.227 67.5376 184.77 67.5376C183.313 67.5376 182.247 68.0645 181.583 69.1118C180.913 70.1655 180.581 72.3251 180.581 75.5904C180.581 76.5206 180.868 77.2686 181.446 77.828C182.019 78.3874 182.819 78.6671 183.834 78.6671C184.848 78.6671 185.974 78.3093 187.203 77.6003C188.432 76.8913 189.304 76.5336 189.818 76.5336C190.332 76.5336 190.787 76.8783 191.177 77.5613C191.568 78.2443 191.763 79.0639 191.763 80.0136C191.763 82.5699 191.483 84.144 190.924 84.7424L190.241 85.1262C189.239 85.1262 188.445 84.8985 187.854 84.4432C186.546 83.4415 185.59 82.9472 184.985 82.9472C183.053 82.9472 181.759 83.3504 181.095 84.17C180.77 84.5733 180.614 85.9718 180.614 88.3525C180.614 90.7332 181.095 92.5415 182.064 93.7774C182.572 94.4409 183.691 94.7661 185.421 94.7661C187.151 94.7661 189.356 94.1807 192.043 93.0033C194.729 91.826 196.264 91.2406 196.654 91.2406C197.383 91.2406 197.747 91.9236 197.747 93.296V94.2132C197.747 94.688 197.578 95.3515 197.24 96.1971C196.902 97.0427 196.375 97.7062 195.666 98.181C194.957 98.6559 193.786 98.89 192.16 98.89H173.738C170.928 98.89 169.523 98.5258 169.523 97.7973V96.9842C169.523 96.4118 170.044 95.8329 171.085 95.254C172.125 94.6815 172.737 94.0571 172.912 93.3871C173.088 92.7171 173.179 88.8274 173.179 81.7113C173.179 74.5952 173.062 70.5688 172.821 69.6191C172.581 68.6695 171.989 67.7978 171.046 67.0043C170.096 66.2107 169.621 65.4236 169.621 64.6431C169.621 64.0837 170.232 63.7649 171.449 63.6934C172.665 63.6218 176.672 63.5763 183.469 63.5763L190.078 63.5503H191.145C192.856 63.5503 194.059 63.7975 194.755 64.2853C195.906 65.0984 196.485 66.3538 196.485 68.045L196.459 68.0255Z" fill="#563118"/>
<path d="M233.732 94.8181C233.732 96.5874 233.628 97.6281 233.413 97.9404C233.198 98.2526 232.665 98.4087 231.8 98.4087C231.514 98.4087 230.792 98.09 229.64 97.459C228.489 96.8216 227.448 95.9304 226.518 94.7791C226.128 94.3043 223.623 90.6877 218.999 83.9294C214.374 77.171 211.648 73.7886 210.816 73.7886C210.478 73.7886 210.308 76.0913 210.308 80.69C210.308 85.2888 210.64 89.4258 211.297 93.1009C211.486 94.1351 211.811 94.9743 212.273 95.6182C212.735 96.2622 212.969 96.7956 212.969 97.2184L212.767 97.8038C212.273 98.3827 210.647 98.6689 207.889 98.6689H206.796C204.61 98.6689 203.316 98.5063 202.906 98.1875C202.503 97.8688 202.295 97.381 202.295 96.737C202.295 96.3793 202.763 95.9174 203.706 95.3515C204.649 94.7856 205.209 94.2197 205.397 93.6603C205.501 93.3546 205.547 91.8455 205.547 89.1396L205.599 87.9167L205.677 84.2611C205.729 81.8414 205.755 79.0834 205.755 75.9937C205.755 72.904 205.638 70.9656 205.41 70.172C205.183 69.3785 204.558 68.6109 203.544 67.8629C202.529 67.1083 202.021 66.4253 202.021 65.8074C202.021 65.1895 202.262 64.7146 202.744 64.3829C203.225 64.0512 204.162 63.8885 205.554 63.8885H206.698C209.443 63.8885 211.883 65.0464 214.016 67.3685C216.15 69.6907 218.999 73.4439 222.563 78.6216C226.128 83.8058 228.183 86.3946 228.723 86.3946C229.367 86.3946 229.686 83.0577 229.686 76.384C229.686 71.4209 229.133 68.2987 228.034 67.0108C227.409 66.2627 227.09 65.7489 227.09 65.4627C227.09 64.7016 227.858 64.3178 229.4 64.3178C232.483 64.3178 234.603 64.4479 235.768 64.7146C236.925 64.9748 237.511 65.5212 237.511 66.3538C237.511 66.8481 237.003 67.6027 236.002 68.6304C234.994 69.6582 234.441 70.3737 234.337 70.79C234.233 71.2063 234.187 73.1772 234.187 76.6962L233.855 88.4826L233.829 89.6014L233.777 90.7202C233.745 91.6829 233.725 93.0554 233.725 94.8246L233.732 94.8181Z" fill="#563118"/>
<path d="M250.123 67.5441C248.718 67.5441 247.235 68.1881 245.674 69.476C243.182 71.5445 241.869 72.5787 241.738 72.5787C240.854 72.5787 240.418 72.0258 240.418 70.9265V70.1395C240.418 68.3117 240.568 66.6595 240.873 65.1829C241.023 64.4219 241.368 63.9601 241.901 63.8105C242.434 63.6608 247.528 63.5828 257.187 63.5828L266.716 63.5308H268.394C270.222 63.5308 271.309 63.83 271.66 64.4219C272.005 65.0138 272.18 66.3082 272.18 68.3117V69.9378C272.18 71.7331 271.764 72.6308 270.938 72.6308C270.209 72.6308 269.331 72.0453 268.297 70.8745C267.263 69.7037 266.313 68.8646 265.448 68.3442C264.583 67.8303 263.451 67.5701 262.046 67.5701C260.927 67.5701 260.277 68.3052 260.088 69.7817C260.016 70.2891 259.984 74.0748 259.984 81.1258C259.984 88.1769 260.075 92.0927 260.264 92.8537C260.452 93.6148 261.142 94.4343 262.345 95.306C263.549 96.1776 264.147 96.9126 264.147 97.5175C264.147 98.1225 263.841 98.4932 263.23 98.6493C262.618 98.8055 260.647 98.877 257.311 98.877H253.043C251.365 98.877 250.22 98.8185 249.603 98.7014C248.985 98.5843 248.672 98.2461 248.672 97.6867C248.672 97.1273 249.245 96.3337 250.403 95.2994C251.554 94.2652 252.23 93.3676 252.432 92.5935C252.634 91.826 252.738 87.9817 252.738 81.0738C252.738 74.1659 252.666 70.3541 252.536 69.6516C252.4 68.9491 252.165 68.4222 251.84 68.0775C251.508 67.7328 250.936 67.5571 250.123 67.5571V67.5441Z" fill="#563118"/>
<path d="M302.518 68.0255C302.518 69.1638 302.355 69.8988 302.036 70.2501C301.711 70.5948 301.223 70.7705 300.56 70.7705L300.105 70.5428L299.571 70.185L298.96 69.8273C298.368 69.489 297.229 69.0207 295.545 68.4288C293.86 67.8369 292.286 67.5376 290.829 67.5376C289.372 67.5376 288.305 68.0645 287.642 69.1118C286.972 70.1655 286.64 72.3251 286.64 75.5904C286.64 76.5206 286.926 77.2686 287.505 77.828C288.077 78.3874 288.878 78.6671 289.892 78.6671C290.907 78.6671 292.032 78.3093 293.262 77.6003C294.491 76.8913 295.363 76.5336 295.877 76.5336C296.39 76.5336 296.846 76.8783 297.236 77.5613C297.626 78.2443 297.821 79.0639 297.821 80.0136C297.821 82.5699 297.542 84.144 296.982 84.7424L296.299 85.1262C295.298 85.1262 294.504 84.8985 293.912 84.4432C292.605 83.4415 291.649 82.9472 291.044 82.9472C289.112 82.9472 287.817 83.3504 287.154 84.17C286.829 84.5733 286.672 85.9718 286.672 88.3525C286.672 90.7332 287.154 92.5415 288.123 93.7774C288.63 94.4409 289.749 94.7661 291.479 94.7661C293.21 94.7661 295.415 94.1807 298.101 93.0033C300.788 91.826 302.323 91.2406 302.713 91.2406C303.441 91.2406 303.806 91.9236 303.806 93.296V94.2132C303.806 94.688 303.637 95.3515 303.298 96.1971C302.96 97.0427 302.433 97.7062 301.724 98.181C301.015 98.6559 299.844 98.89 298.218 98.89H279.797C276.987 98.89 275.582 98.5258 275.582 97.7973V96.9842C275.582 96.4118 276.102 95.8329 277.143 95.254C278.184 94.6815 278.795 94.0571 278.971 93.3871C279.147 92.7171 279.238 88.8274 279.238 81.7113C279.238 74.5952 279.121 70.5688 278.88 69.6191C278.639 68.6695 278.047 67.7978 277.104 67.0043C276.154 66.2107 275.68 65.4236 275.68 64.6431C275.68 64.0837 276.291 63.7649 277.507 63.6934C278.724 63.6218 282.731 63.5763 289.528 63.5763L296.137 63.5503H297.203C298.914 63.5503 300.118 63.7975 300.814 64.2853C301.965 65.0984 302.544 66.3538 302.544 68.045L302.518 68.0255Z" fill="#563118"/>
<path d="M68.7612 118.176C66.1659 118.176 63.616 119.282 61.8533 121.051C61.3654 121.598 60.8321 121.643 60.3052 121.051C54.6591 115.269 44.4273 118.853 43.5102 126.769C43.2565 129.052 43.4581 133.872 43.4061 135.524C43.4061 135.797 43.5882 135.849 43.8354 135.856C44.5249 135.869 46.6649 135.869 47.3544 135.856C47.5626 135.843 47.7642 135.83 47.7772 135.589C47.8943 133.963 47.6211 129.052 47.9008 127.185C48.6488 122.372 55.1665 120.96 57.8464 124.935C58.8351 126.288 56.6691 125.39 56.0186 125.527C52.4606 125.52 49.4554 128.141 48.896 131.569C48.6293 133.417 48.8245 135.836 48.7659 137.755C48.818 138.49 48.5643 138.92 49.2017 138.952C49.8912 138.965 52.0313 138.965 52.7208 138.952C52.9094 138.939 53.1045 138.92 53.1371 138.698C53.1891 138.08 53.1436 134.939 53.1566 133.573C53.1566 132.864 53.1371 132.389 53.4558 131.647C54.1453 129.891 56.6496 129.39 57.9635 130.737C59.0433 131.804 58.8872 132.987 58.8937 134.477C58.8611 136.754 58.9587 139.466 58.8546 141.782C58.8156 141.951 58.731 141.977 58.5814 141.983C57.287 142.022 50.945 141.931 48.3692 142.016C48.096 142.152 48.161 142.393 48.161 142.829C48.5773 149.6 54.2949 155.038 61.2223 154.954C67.8766 154.934 73.5551 149.613 74.004 142.952C74.004 142.517 74.1145 142.191 73.8023 142.022C72.4298 141.944 68.2864 142.016 65.5089 141.99C64.3576 141.925 63.6681 142.126 63.3559 141.879C63.1607 140.084 63.3428 138.035 63.2843 136.285C63.4209 134.529 62.842 132.539 63.9673 131.01C65.2422 129.293 68.2083 129.82 68.8198 131.875C69.2621 133.501 68.9368 135.218 69.0279 136.955C69.106 138.002 68.8328 138.705 69.2426 138.926C70.0491 139.024 72.1631 138.946 72.9827 138.959C73.1453 138.946 73.2819 138.933 73.36 138.809C73.5096 137.554 73.373 135.55 73.4185 134.126C73.4185 132.968 73.4446 132.539 73.2884 131.576C72.716 128.018 69.4702 125.331 65.7691 125.546C65.3398 125.481 64.208 125.962 64.0779 125.527C66.4391 120.635 73.8934 122.287 74.3487 127.641C74.5373 129.924 74.2121 133.592 74.4788 135.784C75.3114 136.019 77.4644 135.823 78.3491 135.875C78.4466 135.869 78.5962 135.862 78.6678 135.81C78.7719 135.739 78.7784 135.609 78.7849 135.472C78.7198 133.696 78.915 129.215 78.6938 126.919C78.1279 122.014 73.8413 118.202 68.9173 118.202H68.7937L68.7612 118.176Z" fill="#99B0C6"/>
</svg>
