<svg width="302" height="156" viewBox="0 0 302 156" fill="none" xmlns="http://www.w3.org/2000/svg">
<rect x="4" y="2" width="105" height="47" fill="#FBF0DA"/>
<rect x="114" y="54" width="186" height="48" fill="#FBF0DA"/>
<rect x="63" y="106" width="48" height="49" fill="#FBF0DA"/>
<path d="M0 0V51.9999H112.124V0H0ZM107.144 39.5493C107.144 43.6767 103.801 47.0197 99.6733 47.0197H12.4506C8.32323 47.0197 4.98024 43.6767 4.98024 39.5493V12.4506C4.98024 8.32323 8.32323 4.98024 12.4506 4.98024H99.6733C103.801 4.98024 107.144 8.32323 107.144 12.4506V39.5493Z" fill="#563118"/>
<path d="M112.124 52V104H301.94V52H112.124ZM296.959 91.5493C296.959 95.6767 293.616 99.0197 289.489 99.0197H124.575C120.447 99.0197 117.104 95.6767 117.104 91.5493V64.4506C117.104 60.3232 120.447 56.9802 124.575 56.9802H289.489C293.616 56.9802 296.959 60.3232 296.959 64.4506V91.5493Z" fill="#563118"/>
<path d="M24.7581 10.3715C24.7581 10.5832 24.2601 11.2493 23.2641 12.3761C22.268 13.5028 21.6766 14.4553 21.4899 15.2335C21.3031 16.0116 21.2097 19.7281 21.2097 26.383C21.2097 33.0378 21.3031 36.717 21.4899 37.408C21.6766 38.1052 22.0688 38.5783 22.6664 38.8336C23.2641 39.0826 24.2975 39.2133 25.7542 39.2133C27.2109 39.2133 28.4871 38.9456 29.5827 38.4103C30.6784 37.8749 31.855 36.9162 33.1187 35.5404C34.3824 34.1646 35.4719 33.4736 36.3745 33.4736C37.0718 33.4736 37.4204 33.9094 37.4204 34.7871V35.4221C37.4204 36.6361 37.2274 37.9869 36.8352 39.4686C36.443 40.9502 36.138 41.7968 35.9139 42.0085C35.4096 42.4816 34.1957 42.7119 32.2658 42.7119H19.2052C14.9408 42.7119 12.5814 42.6746 12.127 42.5874C11.3488 42.4443 10.9566 42.0023 10.9566 41.2739C10.9566 40.8879 11.3862 40.2592 12.2453 39.4001C13.1044 38.541 13.6958 37.4204 14.0195 36.0447C14.1502 35.4968 14.2125 31.8612 14.2125 25.1504C14.2125 18.4395 14.1129 14.7604 13.9199 14.1129C13.7269 13.4655 13.0981 12.8056 12.0461 12.1457C10.994 11.4796 10.4648 10.7326 10.4648 9.91084C10.4648 9.24474 12.0461 8.91479 15.2085 8.91479H21.6517C22.9154 8.91479 23.7496 9.00817 24.1418 9.19493C24.5402 9.38169 24.7395 9.77389 24.7395 10.3715H24.7581Z" fill="#563118"/>
<path d="M55.6164 8.88989H56.3199C57.5214 8.88989 58.866 10.1723 60.3539 12.7309C60.8706 13.6211 61.6487 15.47 62.6884 18.2776C63.728 21.0853 64.6182 23.4073 65.3652 25.2562C66.1123 27.1051 66.9278 29.3027 67.8118 31.8612C68.6958 34.4136 69.337 36.1069 69.7354 36.9411C70.1338 37.7753 70.8435 38.5721 71.8645 39.3378C72.8854 40.0973 73.3959 40.7634 73.3959 41.3175C73.3959 41.8715 73.0473 42.2451 72.35 42.4256C71.217 42.6995 68.4032 42.8365 63.9148 42.8365C61.8729 42.8365 60.8519 42.4007 60.8519 41.5229C60.8519 41.2988 61.0138 40.7385 61.3375 39.8545C61.6612 38.9705 61.8231 38.3169 61.8231 37.8998C61.8231 35.9077 61.3437 34.2269 60.3912 32.8635C60.0053 32.3157 58.7789 32.0356 56.7183 32.0356C52.9396 32.0356 50.8043 32.1601 50.3125 32.4029C49.8207 32.6456 49.3164 33.2619 48.806 34.2518C48.2955 35.2416 48.0402 36.1567 48.0402 36.9971C48.0402 37.8375 48.2706 38.7464 48.7312 39.7238C49.1919 40.7012 49.4223 41.4607 49.4223 42.0085C49.4223 42.687 48.6939 43.0294 47.231 43.0294C43.7635 43.0294 41.4414 42.8676 40.2773 42.5439C39.5303 42.3322 39.1567 41.8093 39.1567 40.9626C39.1567 40.8506 39.8913 40.1471 41.3667 38.846C42.176 38.1301 42.8234 37.2026 43.309 36.0509C46.8076 27.7027 49.0363 21.6518 49.9825 17.8979C50.9288 14.144 51.7381 11.7037 52.4042 10.5769C53.0703 9.45017 54.141 8.88989 55.6164 8.88989ZM50.8292 28.0016V28.2443C50.8292 28.4373 51.5824 28.5369 53.089 28.5369H55.8841C58.1065 28.5369 59.2147 28.4062 59.2147 28.151C59.2147 27.4537 58.5236 25.3122 57.1479 21.7327C55.7721 18.1531 55.0624 16.3603 55.0188 16.3603C54.9752 16.3603 54.2655 18.1531 52.8897 21.7451C51.514 25.3371 50.8229 27.4226 50.8229 28.0078L50.8292 28.0016Z" fill="#563118"/>
<path d="M88.2749 8.47266C92.6014 8.47266 95.5149 8.8524 97.0027 9.61811C98.1233 10.1846 98.6836 11.6476 98.6836 13.9945C98.6836 16.3414 98.2851 17.518 97.4945 17.518C96.8471 17.518 95.7826 16.8332 94.3072 15.4637C92.8318 14.0941 91.7112 13.1977 90.9517 12.7743C90.1923 12.351 89.1962 12.1394 87.9698 12.1394C86.7434 12.1394 85.6976 12.5378 84.8323 13.3284C83.967 14.1252 83.5312 15.0715 83.5312 16.1734C83.5312 17.6487 84.3405 18.9685 85.9653 20.1389C86.7746 20.724 88.6484 21.6703 91.5805 22.9838C94.5126 24.2974 96.6043 25.586 97.8556 26.8497C99.6236 28.6489 100.508 30.6783 100.508 32.9319C100.508 37.632 98.1793 40.8006 93.529 42.4379C92.1532 42.9235 90.7401 43.1662 89.2958 43.1662H88.418C86.6314 43.1662 84.658 42.9608 82.4853 42.5562C80.3127 42.1515 78.9431 41.7531 78.3766 41.3671C77.3246 40.6388 76.7954 38.9455 76.7954 36.2873V35.4593C76.7954 33.7411 77.2561 32.8821 78.1836 32.8821C78.8311 32.8821 79.8645 33.71 81.2714 35.3597C82.6783 37.0094 83.8674 38.1175 84.8323 38.6654C85.7972 39.2194 87.0298 39.4933 88.5301 39.4933C90.0304 39.4933 91.2879 39.0638 92.3089 38.2047C93.3298 37.3456 93.8403 36.4118 93.8403 35.4095C93.8403 33.903 93.3858 32.6642 92.4769 31.6868C91.568 30.7157 89.7627 29.6013 87.0547 28.3563C84.3467 27.1112 82.4729 26.1027 81.4395 25.3432C78.5883 23.2391 77.1565 20.7054 77.1565 17.7546C77.1565 17.1383 77.2187 16.4971 77.3495 15.831C77.8848 13.042 79.6777 10.9379 82.7219 9.50606C84.2097 8.80882 85.7661 8.46021 87.3909 8.46021H88.2686L88.2749 8.47266Z" fill="#563118"/>
<path d="M140.723 60.7964H141.426C142.628 60.7964 143.972 62.0788 145.46 64.6374C145.977 65.5276 146.755 67.3765 147.795 70.1841C148.834 72.9917 149.725 75.3138 150.472 77.1627C151.219 79.0116 152.034 81.2091 152.918 83.7677C153.802 86.3201 154.443 88.0134 154.842 88.8476C155.24 89.6818 155.95 90.4786 156.971 91.2443C157.992 92.0038 158.502 92.6699 158.502 93.224C158.502 93.778 158.154 94.1515 157.456 94.3321C156.323 94.606 153.51 94.7429 149.021 94.7429C146.979 94.7429 145.958 94.3072 145.958 93.4294C145.958 93.2053 146.12 92.645 146.444 91.761C146.768 90.877 146.93 90.2234 146.93 89.8063C146.93 87.8142 146.45 86.1334 145.498 84.77C145.112 84.2222 143.885 83.942 141.825 83.942C138.046 83.942 135.911 84.0666 135.419 84.3093C134.927 84.5521 134.423 85.1684 133.912 86.1583C133.402 87.1481 133.147 88.0632 133.147 88.9036C133.147 89.744 133.377 90.6529 133.838 91.6303C134.298 92.6077 134.529 93.3672 134.529 93.915C134.529 94.5935 133.8 94.9359 132.337 94.9359C128.87 94.9359 126.548 94.7741 125.384 94.4504C124.637 94.2387 124.263 93.7158 124.263 92.8691C124.263 92.7571 124.998 92.0536 126.473 90.7525C127.282 90.0366 127.93 89.109 128.415 87.9574C131.914 79.6092 134.143 73.5582 135.089 69.8044C136.035 66.0505 136.845 63.6102 137.511 62.4834C138.177 61.3567 139.247 60.7964 140.723 60.7964ZM135.929 79.9081V80.1508C135.929 80.3438 136.683 80.4434 138.189 80.4434H140.984C143.207 80.4434 144.315 80.3127 144.315 80.0575C144.315 79.3602 143.624 77.2187 142.248 73.6392C140.872 70.0596 140.163 68.2667 140.119 68.2667C140.075 68.2667 139.366 70.0596 137.99 73.6516C136.614 77.2436 135.923 79.3291 135.923 79.9143L135.929 79.9081Z" fill="#563118"/>
<path d="M173.941 60.8961H175.597C179.749 60.8961 182.993 61.693 185.321 63.2804C187.656 64.8679 188.82 67.109 188.82 69.9913C188.82 71.6285 188.477 73.0666 187.799 74.293C187.12 75.5256 186.429 76.4594 185.732 77.0881C184.144 78.5324 183.348 79.3168 183.348 79.4475C183.348 80.0451 183.64 80.842 184.238 81.8318C184.829 82.8216 185.508 84.0044 186.267 85.3802C187.027 86.756 187.575 87.6649 187.898 88.1069C188.739 89.2399 189.654 90.0305 190.644 90.4663C192.412 91.2258 193.296 91.7985 193.296 92.1658C193.296 93.2054 192.86 93.8529 191.982 94.1081C190.731 94.4816 189.274 94.6684 187.606 94.6684C185.937 94.6684 184.593 94.1454 183.572 93.0996C182.551 92.0537 181.368 90.1301 180.023 87.335C178.679 84.5398 177.813 82.8963 177.421 82.4108C176.612 81.3587 175.547 80.8295 174.234 80.8295C173.518 80.8295 173.039 81.1844 172.79 81.8878C172.541 82.5913 172.41 84.3468 172.41 87.1544C172.41 87.833 172.758 88.9037 173.456 90.3667L174.358 91.9977C174.794 92.807 175.012 93.2615 175.012 93.3611C175.012 94.2015 173.692 94.6248 171.046 94.6248C166.44 94.6248 163.744 94.5127 162.96 94.2824C162.175 94.0583 161.783 93.6038 161.783 92.9191C161.783 92.2343 162.275 91.5993 163.265 90.9954C164.255 90.3978 164.852 89.6881 165.064 88.8664C165.276 88.0509 165.381 84.49 165.381 78.19C165.381 71.89 165.257 68.1984 165.014 67.1152C164.771 66.032 164.336 65.1791 163.701 64.5628C162.568 63.4609 162.001 62.7575 162.001 62.4462C162.001 61.7988 162.68 61.3755 164.031 61.1825C165.381 60.9895 168.687 60.8899 173.941 60.8899V60.8961ZM175.08 64.1271H174.327C173.225 64.1271 172.553 64.2765 172.323 64.5753C172.086 64.8741 171.968 65.6585 171.968 66.9222V75.7497C171.968 76.3971 172.105 76.8578 172.379 77.1379C172.653 77.4118 173.263 77.5488 174.203 77.5488H175.149L175.342 77.5239L175.902 77.499C176.033 77.4803 176.151 77.4741 176.269 77.4741C177.421 77.4741 178.542 76.9263 179.637 75.8306C180.733 74.735 181.281 73.3031 181.281 71.5414V70.371C181.281 68.6217 180.727 67.1401 179.625 65.9324C178.523 64.7247 177.004 64.1208 175.08 64.1208V64.1271Z" fill="#563118"/>
<path d="M224.422 67.0965C224.422 68.7337 223.943 69.5555 222.991 69.5555C222.567 69.5555 221.565 68.9205 219.978 67.6568C218.39 66.393 217.064 65.5153 216.012 65.0172C214.96 64.5254 213.752 64.2764 212.389 64.2764H212.314C211.001 64.2764 209.743 64.6251 208.548 65.3223C205.174 67.2833 203.493 71.4978 203.493 77.9659C203.493 79.8148 203.786 81.6139 204.371 83.3632C206.07 88.5364 209.332 91.1199 214.144 91.1199H214.194C216.398 91.1199 218.683 90.292 221.055 88.6423C222.58 87.5902 223.451 87.061 223.682 87.061C224.478 87.061 224.871 87.4345 224.871 88.1816V88.7917C224.871 89.1652 224.491 89.9184 223.738 91.0514C222.984 92.1844 221.976 93.0435 220.712 93.6287C218.508 94.6497 215.912 95.1601 212.93 95.1601H212.103C209.718 95.1601 207.533 94.7244 205.535 93.8466C201.563 92.0973 198.805 89.2025 197.268 85.1623C196.44 83.0084 196.029 80.9042 196.029 78.8623V77.1628C196.029 75.1396 196.427 73.0666 197.218 70.9624C198.855 66.6047 201.656 63.5605 205.634 61.8423C207.726 60.9334 209.793 60.479 211.835 60.479H212.638C217.761 60.479 221.148 60.9646 222.804 61.9357C223.887 62.5707 224.435 64.2889 224.435 67.0903L224.422 67.0965Z" fill="#563118"/>
<path d="M243.976 60.7964H244.679C245.881 60.7964 247.225 62.0788 248.713 64.6374C249.23 65.5276 250.008 67.3765 251.048 70.1841C252.087 72.9917 252.978 75.3138 253.725 77.1627C254.472 79.0116 255.287 81.2091 256.171 83.7677C257.055 86.3201 257.696 88.0134 258.095 88.8476C258.493 89.6818 259.203 90.4786 260.224 91.2443C261.245 92.0038 261.755 92.6699 261.755 93.224C261.755 93.778 261.407 94.1515 260.709 94.3321C259.576 94.606 256.763 94.7429 252.274 94.7429C250.232 94.7429 249.211 94.3072 249.211 93.4294C249.211 93.2053 249.373 92.645 249.697 91.761C250.021 90.877 250.182 90.2234 250.182 89.8063C250.182 87.8142 249.703 86.1334 248.751 84.77C248.365 84.2222 247.138 83.942 245.078 83.942C241.299 83.942 239.164 84.0666 238.672 84.3093C238.18 84.5521 237.676 85.1684 237.165 86.1583C236.655 87.1481 236.4 88.0632 236.4 88.9036C236.4 89.744 236.63 90.6529 237.091 91.6303C237.551 92.6077 237.782 93.3672 237.782 93.915C237.782 94.5935 237.053 94.9359 235.59 94.9359C232.123 94.9359 229.801 94.7741 228.637 94.4504C227.89 94.2387 227.516 93.7158 227.516 92.8691C227.516 92.7571 228.251 92.0536 229.726 90.7525C230.535 90.0366 231.183 89.109 231.668 87.9574C235.167 79.6092 237.396 73.5582 238.342 69.8044C239.288 66.0505 240.097 63.6102 240.764 62.4834C241.43 61.3567 242.5 60.7964 243.976 60.7964ZM239.182 79.9081V80.1508C239.182 80.3438 239.936 80.4434 241.442 80.4434H244.237C246.46 80.4434 247.568 80.3127 247.568 80.0575C247.568 79.3602 246.877 77.2187 245.501 73.6392C244.125 70.0596 243.416 68.2667 243.372 68.2667C243.328 68.2667 242.619 70.0596 241.243 73.6516C239.867 77.2436 239.176 79.3291 239.176 79.9143L239.182 79.9081Z" fill="#563118"/>
<path d="M276.634 60.3855C280.96 60.3855 283.874 60.7652 285.362 61.5309C286.482 62.0975 287.042 63.5604 287.042 65.9073C287.042 68.2543 286.644 69.4309 285.853 69.4309C285.206 69.4309 284.141 68.7461 282.666 67.3765C281.191 66.0069 280.07 65.1105 279.311 64.6872C278.551 64.2639 277.555 64.0522 276.329 64.0522C275.102 64.0522 274.056 64.4506 273.191 65.2412C272.326 66.0381 271.89 66.9843 271.89 68.0862C271.89 69.5616 272.699 70.8813 274.324 72.0517C275.133 72.6369 277.007 73.5831 279.939 74.8967C282.871 76.2102 284.963 77.4988 286.214 78.7626C287.982 80.5617 288.866 82.5911 288.866 84.8447C288.866 89.5448 286.538 92.7135 281.888 94.3507C280.512 94.8363 279.099 95.0791 277.655 95.0791H276.777C274.99 95.0791 273.017 94.8737 270.844 94.469C268.672 94.0644 267.302 93.6659 266.736 93.28C265.683 92.5516 265.154 90.8583 265.154 88.2001V87.3722C265.154 85.654 265.615 84.7949 266.543 84.7949C267.19 84.7949 268.223 85.6229 269.63 87.2726C271.037 88.9223 272.226 90.0304 273.191 90.5782C274.156 91.1323 275.389 91.4062 276.889 91.4062C278.389 91.4062 279.647 90.9766 280.668 90.1175C281.689 89.2584 282.199 88.3246 282.199 87.3224C282.199 85.8158 281.745 84.577 280.836 83.5996C279.927 82.6285 278.122 81.5142 275.414 80.2691C272.706 79.024 270.832 78.0155 269.798 77.2561C266.947 75.1519 265.515 72.6182 265.515 69.6674C265.515 69.0511 265.578 68.4099 265.708 67.7438C266.244 64.9549 268.037 62.8507 271.081 61.4189C272.569 60.7217 274.125 60.373 275.75 60.373H276.628L276.634 60.3855Z" fill="#563118"/>
<path d="M61.9668 104V156H112.124V104H61.9668ZM107.144 143.549C107.144 147.677 103.801 151.02 99.6734 151.02H74.4174C70.29 151.02 66.947 147.677 66.947 143.549V116.451C66.947 112.323 70.29 108.98 74.4174 108.98H99.6734C103.801 108.98 107.144 112.323 107.144 116.451V143.549Z" fill="#563118"/>
<path d="M103.751 128.602C103.757 127.139 102.375 127.482 101.429 127.133L101.354 127.096C100.569 126.573 100.955 125.34 100.862 124.456C100.781 121.151 101.011 117.316 100.769 114.141C100.719 114.029 100.638 113.873 100.507 113.873C96.8778 113.624 79.8703 113.842 74.0123 113.792C73.1532 113.73 73.2404 114.633 73.2342 115.28C73.2217 117.702 73.2528 123.572 73.2217 125.938C73.3587 128.098 70.2896 126.554 70.3581 128.559C70.3269 132.605 70.3581 142.055 70.3581 145.124C70.2834 146.182 71.2421 146.201 72.0576 146.182C73.4769 146.182 75.6371 146.245 77.1187 146.207H77.9031C78.3949 146.207 78.7934 145.809 78.7934 145.317V134.08C78.7996 133.539 78.9054 127.98 81.7815 125.533C82.1612 125.209 84.3463 123.417 87.2037 123.566C89.5631 123.69 91.8291 125.104 93.4041 127.357C94.6741 129.175 95.2966 131.366 95.2966 133.589V145.404C95.2966 145.846 95.6577 146.207 96.0997 146.207H97.0708V146.195C97.3261 146.207 97.6124 146.182 97.9299 146.189C99.6917 146.22 101.578 146.319 103.19 146.083C103.769 145.952 103.751 145.249 103.751 144.794C103.751 141.445 103.726 133.358 103.751 128.596V128.602Z" fill="#563118"/>
</svg>
