<svg width="81" height="84" viewBox="0 0 81 84" fill="none" xmlns="http://www.w3.org/2000/svg">
<path d="M0 0V83.53H80.57V0H0ZM72.57 63.53C72.57 70.16 67.2 75.53 60.57 75.53H20C13.37 75.53 8 70.16 8 63.53V20C8 13.37 13.37 8 20 8H60.57C67.2 8 72.57 13.37 72.57 20V63.53Z" fill="#D38734"/>
<path d="M16.2702 48.41C16.2702 48.41 16.2502 48.37 16.2302 48.36C16.2302 48.35 16.2102 48.34 16.2002 48.32L16.2702 48.41Z" fill="#D38734"/>
<path d="M66.3701 53.01L63.8001 51.57C63.3801 51.31 62.8901 51.14 62.6401 50.77C62.2201 50.21 62.3201 49.35 62.8501 48.9C63.4201 48.46 64.2001 48.12 64.4001 47.33C64.5501 46.3 63.8801 45.43 63.3501 44.63C62.2501 42.71 61.1801 43.22 59.6301 44.21C58.4201 44.88 57.1201 45.81 55.8601 46.33C54.9101 46.69 54.0601 46.01 53.2501 45.58L50.7401 44.14L49.4801 43.42C49.0701 43.16 48.6001 42.98 48.3401 42.63C47.7301 41.94 47.8201 40.85 48.5501 40.28C50.1301 39.23 51.9601 38.48 53.6401 37.57C53.9701 37.41 54.5401 37.05 54.8901 36.99C55.7901 36.81 56.6001 37.43 57.3701 37.88C58.0001 38.26 59.2301 39.02 59.8601 39.39C60.7801 40 61.9401 40.62 62.8901 39.66C63.5801 38.9 64.1401 38.05 64.5601 37.11C65.4501 35.18 63.3301 34.36 62.2101 33.41C62.1001 33.3 62.0301 33.26 62.0801 33.17C62.1701 33.02 62.4901 32.85 62.6501 32.74C64.2501 31.8 65.9401 30.96 67.5701 29.99C68.2201 29.66 69.0301 28.93 68.8701 28.04C68.6501 26.94 68.0901 26.2 67.5601 25.28C67.1101 24.42 66.0901 23.5 64.9901 23.96C62.8501 24.81 60.8001 26.37 58.8001 27.2C58.7501 27.03 58.7301 26.75 58.7001 26.58C58.6301 25.52 58.6501 24.12 57.6101 23.46C56.1701 22.68 54.8201 23.01 53.3901 23.15C52.0701 23.37 51.6401 24.61 51.6901 25.7C51.6801 27.23 51.8001 29.01 51.7301 30.46C51.6901 30.78 51.6101 30.99 51.4601 31.19C50.8901 31.83 49.4501 32.41 48.6601 32.93L46.5601 34.13C46.2801 34.29 45.8101 34.56 45.5401 34.7C44.8701 35.05 43.9801 34.47 43.9601 33.74V28.95C43.9901 28.47 43.8601 27.33 44.1201 26.94C44.5201 26.23 46.0101 25.7 46.8101 25.19L47.8701 24.61C48.6401 24.14 49.5201 23.89 50.0901 23.01C50.6801 22.04 50.0901 20.95 49.6201 20.09C49.0301 18.88 48.0001 17.42 46.4201 17.85C45.5801 18 44.6201 18.76 43.9101 18.86C43.7501 18.18 43.8201 13.9 43.7801 13.04C43.8501 10.24 41.8701 10.41 39.7201 10.48C37.7801 10.46 37.0101 11.41 37.1701 13.23C37.1701 13.92 37.1901 16.18 37.1901 16.87C37.1701 17.42 37.2701 18.55 37.0801 19.03C36.8401 19.15 36.4101 18.92 36.1201 18.81C34.0701 17.71 32.8601 17.62 31.7001 19.87C31.4801 20.36 31.1901 20.82 30.9901 21.36C30.7301 21.93 30.8701 22.78 31.3701 23.19C32.1301 23.89 33.3501 24.36 34.2001 24.86C34.9401 25.31 36.2801 25.84 36.8601 26.43C37.5101 27.06 37.2701 28.23 37.3301 29.28C37.3301 30.35 37.3501 33.03 37.3501 34.07C37.3001 35.68 35.5001 35.39 34.3701 34.73L31.9801 33.39C31.3101 33 30.2301 32.43 29.6101 32.04C28.8301 31.57 28.5201 30.8 28.6101 29.91C28.5701 28.14 28.9001 26.38 28.5801 24.62C28.2601 23.45 26.6701 23.44 25.7401 23.42C24.9301 23.46 24.1201 23.32 23.4101 23.82C22.4001 24.62 22.6701 26.04 22.4701 27.13C22.4001 27.4 22.3601 27.6 22.0601 27.6C20.7301 27.09 18.4901 25.65 16.8301 24.74C15.6901 24.05 14.6801 23.76 13.7401 25.02C13.2401 25.66 12.9301 26.35 12.5401 27.03C12.2401 27.52 11.9901 28.21 12.2601 28.81C12.6301 29.62 13.5101 29.99 14.1801 30.39C15.0901 30.92 17.2101 32.16 18.1101 32.69C18.3501 32.84 18.6201 32.96 18.7601 33.19C18.7601 33.21 18.7601 33.21 18.7501 33.25C18.1401 34.06 17.1501 34.18 16.4401 35.08C15.5901 35.94 16.1601 37.47 16.8601 38.43L17.4301 39.3C17.8501 40.06 18.9001 40.56 19.7401 40.24C21.7601 39.45 23.2001 38.11 25.1601 37.32C26.3401 37.09 27.3401 38.22 28.4801 38.72C28.6501 38.82 30.1801 39.7 30.1801 39.7C30.6501 39.97 31.4201 40.39 31.8401 40.68C32.2201 40.95 32.5101 41.23 32.5001 41.67C32.4201 42.04 31.9201 42.47 31.5601 42.72C31.2501 42.89 27.1901 45.15 27.1901 45.15C26.5801 45.47 25.9501 45.94 25.3201 45.83C25.0701 45.77 24.6401 45.54 24.3701 45.4C23.6201 44.99 21.9401 43.94 21.1701 43.47C18.6601 41.83 17.6401 42.93 16.2901 45.21C16.0601 45.61 15.8201 46.07 15.7301 46.65C15.6201 47.21 15.8301 47.93 16.2201 48.38C16.8001 49.16 17.7101 49.41 18.3101 50.01C17.2301 50.75 15.7801 51.46 14.6601 52.13C13.4601 52.85 11.3201 53.6 11.7501 55.45C12.1901 56.72 12.7201 57.75 13.6101 58.79C13.8601 59.04 14.1001 59.32 14.6501 59.52C15.7301 59.84 16.8601 59.01 17.6801 58.58C18.5301 58.13 20.9101 56.72 21.8801 56.26C22.1401 57.74 21.8301 59.67 23.8101 60.23C24.8701 60.53 25.7301 60.38 26.7001 60.34C28.1001 60.36 29.2001 59.47 29.2701 58.06C29.3601 56.31 29.1501 54.51 29.2401 52.82C29.2401 52.6 29.2601 52.43 29.3901 52.25C29.8901 51.6 31.0601 51.14 31.7801 50.69L33.6801 49.61C34.1001 49.37 34.8601 48.93 35.2901 48.71C35.8501 48.42 36.6701 48.76 36.7201 49.41C36.7401 49.59 36.7201 50.18 36.7301 50.42V54.8C36.7101 55.94 36.8001 56.34 35.9101 56.82C34.3601 57.79 32.4701 58.49 31.0101 59.64C29.4101 61.17 31.0001 63.26 31.9701 64.72C32.2301 65.06 32.6901 65.49 33.3301 65.63C33.9701 65.76 34.4601 65.61 34.8601 65.49C35.4901 65.3 36.3001 64.89 36.7401 64.71C36.7401 64.81 36.7401 64.93 36.7501 65.04C36.8001 66.93 36.7401 68.89 36.7901 70.84C36.9401 73.38 39.4701 73.18 41.3501 73.09C42.5801 73.11 43.9101 72.52 43.9501 71.07C44.0901 69.47 43.9801 67.56 43.9801 65.96C43.9801 65.71 43.9801 64.95 44.0201 64.57C44.6401 64.71 45.2601 65.15 45.9101 65.36C47.3001 65.99 48.5601 65.17 49.2801 63.87C49.7301 63.04 50.1501 62.28 50.3201 61.41C50.4701 59.5 48.3001 59.01 47.0501 58.23L46.4801 57.94C45.7301 57.56 45.0001 57.2 44.3901 56.77C44.1201 56.57 43.9901 56.42 43.9201 56.13C43.8401 55.84 43.8201 55.45 43.8201 55.03L43.7501 50.06C43.7501 49.76 43.7501 49.1 43.7501 48.85C43.7801 48.3 44.3701 47.85 44.9101 47.97C45.1901 48.02 45.6501 48.33 45.9301 48.46L45.8901 48.44L50.8201 51.17C51.6801 51.58 52.1001 52.07 52.1101 53.02C52.1101 53.94 52.1001 54.9 52.0901 55.84C52.1801 57 51.6701 58.76 52.9401 59.51C54.2401 59.96 55.6001 59.92 56.9201 59.65C57.2401 59.55 57.5401 59.34 57.7401 59.06C58.4501 58.08 58.0001 56.75 58.4201 55.74C58.5201 55.55 58.6701 55.51 58.9201 55.58C59.3901 55.73 59.9001 56.07 60.4001 56.32C61.4101 56.87 63.8801 58.32 64.8801 58.77C65.4501 59.07 66.1901 58.98 66.6201 58.48C67.4201 57.47 68.1501 56.38 68.4501 55.11C68.5101 53.96 67.1801 53.56 66.3901 53.05L66.3701 53.01Z" fill="#D38734"/>
</svg>
