<svg width="81" height="84" viewBox="0 0 81 84" fill="none" xmlns="http://www.w3.org/2000/svg">
<path d="M0 0V83.53H80.57V0H0ZM72.57 63.53C72.57 70.16 67.2 75.53 60.57 75.53H20C13.37 75.53 8 70.16 8 63.53V20C8 13.37 13.37 8 20 8H60.57C67.2 8 72.57 13.37 72.57 20V63.53Z" fill="#7A7A56"/>
<path d="M67.12 39.5199C67.13 37.1699 64.91 37.7199 63.39 37.1599L63.27 37.0999C62.01 36.2599 62.63 34.2799 62.48 32.8599C62.35 27.5499 62.72 21.3899 62.33 16.2899C62.25 16.1099 62.12 15.8599 61.91 15.8599C56.08 15.4599 28.76 15.8099 19.35 15.7299C17.97 15.6299 18.11 17.0799 18.1 18.1199C18.08 22.0099 18.13 31.4399 18.08 35.2399C18.3 38.7099 13.37 36.2299 13.48 39.4499C13.43 45.9499 13.48 61.1299 13.48 66.0599C13.36 67.7599 14.9 67.7899 16.21 67.7599C18.49 67.7599 21.96 67.8599 24.34 67.7999H25.6C26.39 67.7999 27.03 67.1599 27.03 66.3699V48.3199C27.04 47.4499 27.21 38.5199 31.83 34.5899C32.44 34.0699 35.95 31.1899 40.54 31.4299C44.33 31.6299 47.97 33.8999 50.5 37.5199C52.54 40.4399 53.54 43.9599 53.54 47.5299V66.5099C53.54 67.2199 54.12 67.7999 54.83 67.7999H56.39V67.7799C56.8 67.7999 57.26 67.7599 57.77 67.7699C60.6 67.8199 63.63 67.9799 66.22 67.5999C67.15 67.3899 67.12 66.2599 67.12 65.5299C67.12 60.1499 67.08 47.1599 67.12 39.5099V39.5199Z" fill="#7A7A56"/>
</svg>
