<svg width="316" height="163" viewBox="0 0 316 163" fill="none" xmlns="http://www.w3.org/2000/svg">
<path d="M0 0V54.3334H117.155V0H0ZM111.952 41.3241C111.952 45.6367 108.459 49.1297 104.146 49.1297H13.0093C8.69672 49.1297 5.20372 45.6367 5.20372 41.3241V13.0093C5.20372 8.69672 8.69672 5.20372 13.0093 5.20372H104.146C108.459 5.20372 111.952 8.69672 111.952 13.0093V41.3241Z" fill="#563118"/>
<path d="M117.154 54.333V108.666H315.488V54.333H117.154ZM310.284 95.6571C310.284 99.9697 306.791 103.463 302.478 103.463H130.164C125.851 103.463 122.358 99.9697 122.358 95.6571V67.3423C122.358 63.0297 125.851 59.5367 130.164 59.5367H302.478C306.791 59.5367 310.284 63.0297 310.284 67.3423V95.6571Z" fill="#563118"/>
<path d="M25.8683 10.8365C25.8683 11.0577 25.3479 11.7537 24.3072 12.931C23.2664 14.1084 22.6485 15.1036 22.4533 15.9167C22.2582 16.7298 22.1606 20.613 22.1606 27.5665C22.1606 34.52 22.2582 38.3642 22.4533 39.0863C22.6485 39.8148 23.0583 40.3091 23.6827 40.5758C24.3072 40.836 25.3869 40.9726 26.909 40.9726C28.4311 40.9726 29.7646 40.6929 30.9094 40.1335C32.0542 39.5741 33.2836 38.5724 34.604 37.1349C35.9245 35.6973 37.0628 34.9753 38.006 34.9753C38.7345 34.9753 39.0987 35.4306 39.0987 36.3478V37.0113C39.0987 38.2797 38.8971 39.6912 38.4873 41.2393C38.0775 42.7874 37.7588 43.672 37.5246 43.8932C36.9977 44.3876 35.7293 44.6282 33.7129 44.6282H20.0661C15.6104 44.6282 13.1452 44.5892 12.6703 44.4981C11.8573 44.3485 11.4475 43.8867 11.4475 43.1256C11.4475 42.7224 11.8963 42.0654 12.7939 41.1677C13.6916 40.2701 14.3095 39.0993 14.6478 37.6617C14.7843 37.0893 14.8494 33.2906 14.8494 26.2786C14.8494 19.2666 14.7453 15.4223 14.5437 14.7458C14.342 14.0694 13.6851 13.3799 12.5858 12.6904C11.4865 11.9944 10.9336 11.2138 10.9336 10.3552C10.9336 9.6592 12.5858 9.31445 15.8901 9.31445H22.6225C23.9429 9.31445 24.8145 9.41202 25.2243 9.60716C25.6406 9.8023 25.8488 10.2121 25.8488 10.8365H25.8683Z" fill="#563118"/>
<path d="M58.1124 9.28857H58.8474C60.1028 9.28857 61.5078 10.6285 63.0624 13.3019C63.6023 14.2321 64.4154 16.164 65.5017 19.0976C66.5879 22.0312 67.5181 24.4574 68.2987 26.3893C69.0792 28.3212 69.9313 30.6173 70.855 33.2907C71.7786 35.9577 72.4486 37.7269 72.8649 38.5985C73.2812 39.4702 74.0228 40.3028 75.0895 41.1028C76.1563 41.8964 76.6897 42.5924 76.6897 43.1713C76.6897 43.7502 76.3254 44.1405 75.5969 44.3291C74.413 44.6153 71.4729 44.7584 66.7831 44.7584C64.6495 44.7584 63.5828 44.3031 63.5828 43.386C63.5828 43.1518 63.7519 42.5664 64.0901 41.6427C64.4284 40.7191 64.5975 40.0361 64.5975 39.6003C64.5975 37.5188 64.0967 35.7625 63.1014 34.338C62.6982 33.7656 61.4167 33.4729 59.2637 33.4729C55.3154 33.4729 53.0843 33.603 52.5704 33.8567C52.0565 34.1103 51.5297 34.7543 50.9963 35.7885C50.4629 36.8228 50.1962 37.779 50.1962 38.6571C50.1962 39.5352 50.4369 40.4849 50.9182 41.5061C51.3996 42.5274 51.6402 43.3209 51.6402 43.8933C51.6402 44.6023 50.8792 44.9601 49.3506 44.9601C45.7275 44.9601 43.3013 44.791 42.0849 44.4527C41.3043 44.2316 40.9141 43.6852 40.9141 42.8006C40.9141 42.6835 41.6816 41.9484 43.2232 40.589C44.0688 39.8409 44.7453 38.8717 45.2527 37.6684C48.9083 28.9456 51.2369 22.6231 52.2257 18.7008C53.2144 14.7785 54.06 12.2287 54.756 11.0513C55.452 9.87399 56.5708 9.28857 58.1124 9.28857ZM53.1103 29.2579V29.5115C53.1103 29.7132 53.8974 29.8173 55.4715 29.8173H58.3921C60.7142 29.8173 61.8721 29.6807 61.8721 29.414C61.8721 28.6855 61.15 26.4479 59.7125 22.7077C58.275 18.9675 57.5335 17.0942 57.4879 17.0942C57.4424 17.0942 56.7009 18.9675 55.2633 22.7207C53.8258 26.4739 53.1038 28.6529 53.1038 29.2644L53.1103 29.2579Z" fill="#563118"/>
<path d="M92.2348 8.85285C96.7556 8.85285 99.7997 9.24964 101.354 10.0497C102.525 10.6416 103.111 12.1702 103.111 14.6225C103.111 17.0747 102.694 18.3041 101.868 18.3041C101.192 18.3041 100.079 17.5886 98.5378 16.1576C96.9962 14.7266 95.8254 13.7899 95.0318 13.3476C94.2383 12.9053 93.1975 12.6841 91.9161 12.6841C90.6347 12.6841 89.5419 13.1004 88.6377 13.9265C87.7336 14.7591 87.2783 15.7478 87.2783 16.8991C87.2783 18.4407 88.1239 19.8197 89.8216 21.0426C90.6672 21.654 92.6251 22.6427 95.6888 24.0152C98.7525 25.3877 100.938 26.7341 102.245 28.0546C104.093 29.9344 105.016 32.055 105.016 34.4096C105.016 39.3207 102.584 42.6315 97.7247 44.3422C96.2872 44.8496 94.8107 45.1033 93.3016 45.1033H92.3844C90.5176 45.1033 88.4556 44.8886 86.1855 44.4658C83.9154 44.043 82.4843 43.6267 81.8924 43.2234C80.7931 42.4624 80.2402 40.6931 80.2402 37.9156V37.0505C80.2402 35.2552 80.7216 34.3576 81.6908 34.3576C82.3673 34.3576 83.447 35.2227 84.9171 36.9465C86.3871 38.6702 87.6295 39.828 88.6377 40.4004C89.646 40.9793 90.9339 41.2655 92.5015 41.2655C94.0691 41.2655 95.3831 40.8167 96.4498 39.9191C97.5166 39.0214 98.05 38.0457 98.05 36.9985C98.05 35.4244 97.5751 34.1299 96.6255 33.1087C95.6758 32.094 93.7894 30.9296 90.9599 29.6287C88.1304 28.3278 86.1725 27.274 85.0927 26.4805C82.1136 24.2819 80.6175 21.6345 80.6175 18.5513C80.6175 17.9073 80.6826 17.2374 80.8191 16.5414C81.3785 13.6273 83.2519 11.4287 86.4327 9.93263C87.9873 9.2041 89.6134 8.83984 91.3112 8.83984H92.2283L92.2348 8.85285Z" fill="#563118"/>
<path d="M147.036 63.5244H147.771C149.027 63.5244 150.432 64.8644 151.986 67.5378C152.526 68.4679 153.339 70.3998 154.425 73.3334C155.512 76.267 156.442 78.6933 157.222 80.6251C158.003 82.557 158.855 84.8532 159.779 87.5266C160.702 90.1935 161.372 91.9628 161.789 92.8344C162.205 93.706 162.947 94.5386 164.013 95.3387C165.08 96.1322 165.613 96.8282 165.613 97.4072C165.613 97.9861 165.249 98.3764 164.521 98.565C163.337 98.8512 160.397 98.9943 155.707 98.9943C153.573 98.9943 152.507 98.539 152.507 97.6218C152.507 97.3876 152.676 96.8022 153.014 95.8786C153.352 94.9549 153.521 94.2719 153.521 93.8361C153.521 91.7546 153.02 89.9984 152.025 88.5738C151.622 88.0014 150.341 87.7087 148.188 87.7087C144.239 87.7087 142.008 87.8388 141.494 88.0925C140.98 88.3462 140.453 88.9901 139.92 90.0244C139.387 91.0586 139.12 92.0148 139.12 92.8929C139.12 93.7711 139.361 94.7207 139.842 95.742C140.323 96.7632 140.564 97.5568 140.564 98.1292C140.564 98.8382 139.803 99.1959 138.274 99.1959C134.651 99.1959 132.225 99.0268 131.009 98.6886C130.228 98.4674 129.838 97.921 129.838 97.0364C129.838 96.9193 130.605 96.1843 132.147 94.8248C132.993 94.0768 133.669 93.1076 134.176 91.9042C137.832 83.1815 140.161 76.859 141.149 72.9366C142.138 69.0143 142.984 66.4645 143.68 65.2872C144.376 64.1098 145.495 63.5244 147.036 63.5244ZM142.028 83.4937V83.7474C142.028 83.949 142.815 84.0531 144.389 84.0531H147.309C149.632 84.0531 150.789 83.9165 150.789 83.6498C150.789 82.9213 150.067 80.6837 148.63 76.9435C147.192 73.2033 146.451 71.33 146.405 71.33C146.36 71.33 145.618 73.2033 144.181 76.9565C142.743 80.7097 142.021 82.8888 142.021 83.5002L142.028 83.4937Z" fill="#563118"/>
<path d="M181.747 63.6286H183.477C187.815 63.6286 191.204 64.4612 193.637 66.1199C196.076 67.7785 197.293 70.1202 197.293 73.1319C197.293 74.8426 196.935 76.3452 196.226 77.6266C195.517 78.9145 194.795 79.8902 194.066 80.5472C192.408 82.0563 191.575 82.8758 191.575 83.0124C191.575 83.6369 191.881 84.4695 192.505 85.5037C193.123 86.538 193.832 87.7738 194.626 89.2114C195.419 90.6489 195.992 91.5986 196.33 92.0604C197.208 93.2443 198.164 94.0704 199.199 94.5257C201.046 95.3193 201.97 95.9177 201.97 96.3015C201.97 97.3877 201.514 98.0642 200.597 98.3309C199.29 98.7212 197.768 98.9163 196.024 98.9163C194.281 98.9163 192.876 98.3699 191.809 97.2772C190.742 96.1844 189.507 94.1744 188.102 91.2538C186.697 88.3332 185.792 86.616 185.383 86.1087C184.537 85.0094 183.425 84.4565 182.052 84.4565C181.304 84.4565 180.803 84.8272 180.543 85.5623C180.283 86.2973 180.146 88.1316 180.146 91.0652C180.146 91.7742 180.511 92.893 181.239 94.4216L182.182 96.1258C182.638 96.9714 182.865 97.4463 182.865 97.5503C182.865 98.4285 181.486 98.8708 178.722 98.8708C173.908 98.8708 171.092 98.7537 170.272 98.513C169.453 98.2789 169.043 97.804 169.043 97.0885C169.043 96.373 169.557 95.7095 170.591 95.0786C171.625 94.4541 172.25 93.7126 172.471 92.854C172.692 92.0019 172.803 88.2812 172.803 81.6985C172.803 75.1158 172.673 71.2585 172.419 70.1267C172.165 68.9949 171.71 68.1038 171.046 67.4598C169.863 66.3085 169.271 65.5735 169.271 65.2482C169.271 64.5717 169.98 64.1294 171.391 63.9278C172.803 63.7261 176.257 63.6221 181.747 63.6221V63.6286ZM182.937 67.0045H182.15C180.999 67.0045 180.296 67.1606 180.055 67.4728C179.808 67.7851 179.685 68.6046 179.685 69.9251V79.1487C179.685 79.8252 179.828 80.3065 180.114 80.5992C180.4 80.8854 181.038 81.0285 182.02 81.0285H183.008L183.21 81.0025L183.796 80.9765C183.932 80.957 184.056 80.9505 184.179 80.9505C185.383 80.9505 186.553 80.3781 187.698 79.2332C188.843 78.0884 189.416 76.5924 189.416 74.7515V73.5287C189.416 71.7009 188.837 70.1527 187.685 68.8908C186.534 67.6289 184.947 66.998 182.937 66.998V67.0045Z" fill="#563118"/>
<path d="M234.492 70.1073C234.492 71.818 233.991 72.6767 232.996 72.6767C232.554 72.6767 231.506 72.0132 229.848 70.6927C228.189 69.3723 226.803 68.4551 225.704 67.9348C224.605 67.4209 223.343 67.1607 221.918 67.1607H221.84C220.468 67.1607 219.154 67.525 217.905 68.2535C214.38 70.3025 212.623 74.7061 212.623 81.4644C212.623 83.3963 212.929 85.2762 213.54 87.104C215.316 92.5093 218.725 95.2088 223.753 95.2088H223.805C226.107 95.2088 228.495 94.3437 230.973 92.6199C232.567 91.5206 233.477 90.9677 233.718 90.9677C234.55 90.9677 234.96 91.358 234.96 92.1386V92.776C234.96 93.1663 234.563 93.9534 233.776 95.1372C232.989 96.3211 231.936 97.2187 230.615 97.8301C228.313 98.8969 225.6 99.4303 222.484 99.4303H221.619C219.128 99.4303 216.845 98.975 214.757 98.0578C210.607 96.23 207.725 93.2053 206.119 88.9838C205.254 86.7332 204.824 84.5346 204.824 82.4011V80.6253C204.824 78.5113 205.24 76.3453 206.067 74.1467C207.777 69.5934 210.704 66.4127 214.861 64.6174C217.046 63.6677 219.206 63.1929 221.34 63.1929H222.179C227.532 63.1929 231.07 63.7002 232.801 64.715C233.933 65.3784 234.505 67.1737 234.505 70.1008L234.492 70.1073Z" fill="#563118"/>
<path d="M254.923 63.5244H255.658C256.913 63.5244 258.318 64.8644 259.873 67.5378C260.413 68.4679 261.226 70.3998 262.312 73.3334C263.398 76.267 264.329 78.6933 265.109 80.6251C265.89 82.557 266.742 84.8532 267.666 87.5266C268.589 90.1935 269.259 91.9628 269.675 92.8344C270.092 93.706 270.833 94.5386 271.9 95.3387C272.967 96.1322 273.5 96.8282 273.5 97.4072C273.5 97.9861 273.136 98.3764 272.407 98.565C271.224 98.8512 268.283 98.9943 263.594 98.9943C261.46 98.9943 260.393 98.539 260.393 97.6218C260.393 97.3876 260.562 96.8022 260.901 95.8786C261.239 94.9549 261.408 94.2719 261.408 93.8361C261.408 91.7546 260.907 89.9984 259.912 88.5738C259.509 88.0014 258.227 87.7087 256.074 87.7087C252.126 87.7087 249.895 87.8388 249.381 88.0925C248.867 88.3462 248.34 88.9901 247.807 90.0244C247.273 91.0586 247.007 92.0148 247.007 92.8929C247.007 93.7711 247.247 94.7207 247.729 95.742C248.21 96.7632 248.451 97.5568 248.451 98.1292C248.451 98.8382 247.69 99.1959 246.161 99.1959C242.538 99.1959 240.112 99.0268 238.895 98.6886C238.115 98.4674 237.725 97.921 237.725 97.0364C237.725 96.9193 238.492 96.1843 240.034 94.8248C240.879 94.0768 241.556 93.1076 242.063 91.9042C245.719 83.1815 248.047 76.859 249.036 72.9366C250.025 69.0143 250.871 66.4645 251.567 65.2872C252.263 64.1098 253.381 63.5244 254.923 63.5244ZM249.914 83.4937V83.7474C249.914 83.949 250.701 84.0531 252.276 84.0531H255.196C257.518 84.0531 258.676 83.9165 258.676 83.6498C258.676 82.9213 257.954 80.6837 256.517 76.9435C255.079 73.2033 254.337 71.33 254.292 71.33C254.246 71.33 253.505 73.2033 252.067 76.9565C250.63 80.7097 249.908 82.8888 249.908 83.5002L249.914 83.4937Z" fill="#563118"/>
<path d="M289.047 63.0955C293.568 63.0955 296.612 63.4923 298.167 64.2924C299.338 64.8843 299.923 66.4129 299.923 68.8652C299.923 71.3174 299.507 72.5468 298.681 72.5468C298.004 72.5468 296.892 71.8313 295.35 70.4003C293.809 68.9692 292.638 68.0326 291.844 67.5902C291.051 67.1479 290.01 66.9268 288.729 66.9268C287.447 66.9268 286.354 67.3431 285.45 68.1692C284.546 69.0018 284.091 69.9905 284.091 71.1418C284.091 72.6834 284.936 74.0624 286.634 75.2852C287.48 75.8967 289.438 76.8854 292.501 78.2579C295.565 79.6304 297.751 80.9768 299.058 82.2973C300.905 84.1771 301.829 86.2976 301.829 88.6523C301.829 93.5633 299.396 96.8742 294.537 98.5849C293.1 99.0923 291.623 99.346 290.114 99.346H289.197C287.33 99.346 285.268 99.1313 282.998 98.7085C280.728 98.2857 279.297 97.8694 278.705 97.4661C277.606 96.7051 277.053 94.9358 277.053 92.1583V91.2932C277.053 89.4979 277.534 88.6003 278.503 88.6003C279.18 88.6003 280.26 89.4654 281.73 91.1891C283.2 92.9129 284.442 94.0707 285.45 94.6431C286.458 95.222 287.746 95.5082 289.314 95.5082C290.882 95.5082 292.196 95.0594 293.262 94.1617C294.329 93.2641 294.862 92.2884 294.862 91.2412C294.862 89.667 294.388 88.3726 293.438 87.3514C292.488 86.3367 290.602 85.1723 287.772 83.8714C284.943 82.5705 282.985 81.5167 281.905 80.7231C278.926 78.5246 277.43 75.8772 277.43 72.794C277.43 72.15 277.495 71.48 277.632 70.784C278.191 67.8699 280.064 65.6714 283.245 64.1753C284.8 63.4468 286.426 63.0825 288.124 63.0825H289.041L289.047 63.0955Z" fill="#563118"/>
<path d="M64.748 108.667V163H117.156V108.667H64.748ZM111.952 149.991C111.952 154.303 108.459 157.796 104.147 157.796H77.7574C73.4448 157.796 69.9518 154.303 69.9518 149.991V121.676C69.9518 117.363 73.4448 113.87 77.7574 113.87H104.147C108.459 113.87 111.952 117.363 111.952 121.676V149.991Z" fill="#7A7A56"/>
<path d="M108.407 134.373C108.414 132.845 106.97 133.203 105.981 132.838L105.903 132.799C105.083 132.253 105.487 130.965 105.389 130.041C105.305 126.587 105.545 122.58 105.292 119.263C105.24 119.146 105.155 118.983 105.018 118.983C101.226 118.723 83.4555 118.951 77.3346 118.899C76.437 118.834 76.5281 119.777 76.5216 120.453C76.5086 122.984 76.5411 129.118 76.5086 131.589C76.6517 133.846 73.4449 132.233 73.5164 134.328C73.4839 138.556 73.5164 148.43 73.5164 151.637C73.4384 152.743 74.4401 152.762 75.2922 152.743C76.7752 152.743 79.0324 152.808 80.5805 152.769H81.4001C81.9139 152.769 82.3302 152.352 82.3302 151.838V140.097C82.3367 139.532 82.4473 133.723 85.4524 131.167C85.8492 130.828 88.1324 128.955 91.118 129.111C93.5833 129.241 95.951 130.718 97.5966 133.072C98.9236 134.972 99.5741 137.261 99.5741 139.584V151.929C99.5741 152.391 99.9513 152.769 100.413 152.769H101.428V152.756C101.695 152.769 101.994 152.743 102.326 152.749C104.166 152.782 106.137 152.886 107.822 152.638C108.427 152.502 108.407 151.767 108.407 151.292C108.407 147.792 108.381 139.343 108.407 134.367V134.373Z" fill="#7A7A56"/>
</svg>
