<svg width="31" height="31" viewBox="0 0 31 31" fill="none" xmlns="http://www.w3.org/2000/svg">
<path d="M7.43594 2.78516H10.8992C10.8992 2.78516 13.2121 2.78516 13.2121 5.09805V13.1871C13.2121 13.1871 13.2121 15.5 10.8992 15.5H7.43594C7.43594 15.5 5.12305 15.5 5.12305 13.1871V5.09805C5.12305 5.09805 5.12305 2.78516 7.43594 2.78516Z" stroke="#563118" stroke-width="1.5" stroke-miterlimit="10"/>
<path d="M7.43555 15.5V28.2148H19L17.7891 23.5891C18.8554 23.5954 19.9125 23.3909 20.8995 22.9873C21.8865 22.5836 22.784 21.9888 23.5402 21.237C24.2965 20.4852 24.8967 19.5914 25.3062 18.6068C25.7158 17.6222 25.9266 16.5664 25.9266 15.5H7.43555Z" stroke="#563118" stroke-width="1.5" stroke-miterlimit="10"/>
<path d="M13.2109 12.0367H27.0883" stroke="#563118" stroke-width="1.5" stroke-miterlimit="10"/>
</svg>
