<svg width="27" height="28" viewBox="0 0 27 28" fill="none" xmlns="http://www.w3.org/2000/svg">
<path d="M18.6733 0C16.7662 0.00267849 14.8886 0.811584 13.5922 2.11333C13.236 2.51511 12.8395 2.54725 12.4512 2.11333C8.29681 -2.14012 0.772922 0.495521 0.097941 6.31857C-0.0922321 7.99798 0.0604419 11.5443 0.0202645 12.7577C0.0202645 12.9586 0.154189 12.9987 0.336327 13.0014C0.842562 13.0094 2.41752 13.0094 2.92107 13.0014C3.07375 12.9934 3.22107 12.98 3.23178 12.8059C3.32017 11.6113 3.1166 8.00066 3.32285 6.62391C3.87194 3.08295 8.66645 2.04369 10.6378 4.96861C11.3637 5.96501 9.76999 5.30342 9.29321 5.4052C6.67632 5.39985 4.46389 7.32836 4.0514 9.84882C3.85587 11.2095 4.00051 12.988 3.95765 14.3996C3.99783 14.9406 3.81033 15.254 4.27907 15.2808C4.78531 15.2915 6.36026 15.2915 6.86382 15.2808C7.00042 15.2701 7.14774 15.254 7.16917 15.0933C7.20667 14.638 7.17452 12.3291 7.18524 11.322C7.18524 10.7997 7.17185 10.4515 7.40487 9.90775C7.91111 8.61672 9.75124 8.24976 10.7235 9.23813C11.5164 10.0256 11.4012 10.8934 11.4092 11.9916C11.3851 13.6657 11.4548 15.6612 11.3824 17.3647C11.3557 17.4879 11.2887 17.5093 11.1816 17.5147C10.228 17.5415 5.56475 17.4745 3.67105 17.5388C3.47017 17.6379 3.51838 17.8147 3.5157 18.1361C3.81837 23.1181 8.02629 27.1171 13.1208 27.0528C18.0144 27.0394 22.1928 23.1234 22.5223 18.2245C22.5223 17.9057 22.6027 17.6647 22.3723 17.5388C21.3625 17.4825 18.3144 17.5334 16.2734 17.5173C15.4243 17.4718 14.9207 17.6165 14.6877 17.437C14.5457 16.1138 14.677 14.6085 14.6341 13.3228C14.7359 12.0318 14.3074 10.5667 15.135 9.44169C16.0725 8.17744 18.2555 8.56314 18.7028 10.0765C19.0269 11.2738 18.7858 12.5354 18.8581 13.8157C18.9144 14.5871 18.7162 15.104 19.0161 15.2647C19.6081 15.3371 21.1643 15.2808 21.7643 15.2888C21.8848 15.2808 21.9866 15.2728 22.0429 15.1763C22.15 14.2523 22.0536 12.7791 22.0857 11.7318C22.0857 10.8774 22.1045 10.564 21.992 9.85686C21.5714 7.23997 19.1849 5.26592 16.4582 5.42127C16.1448 5.37574 15.3118 5.72662 15.2154 5.4052C16.951 1.80799 22.4339 3.02134 22.7687 6.95873C22.908 8.63546 22.6696 11.3381 22.8651 12.9452C23.4785 13.1193 25.0615 12.9746 25.7097 13.0121C25.7793 13.0041 25.8892 13.0014 25.9427 12.9639C26.0204 12.9103 26.0258 12.8166 26.0284 12.7148C25.9802 11.4077 26.1249 8.11048 25.9615 6.42303C25.5463 2.81777 22.3911 0.0133948 18.7697 0.0107163H18.6787L18.6733 0Z" fill="#99B0C6"/>
</svg>
