<svg width="509" height="542" viewBox="0 0 509 542" fill="none" xmlns="http://www.w3.org/2000/svg">
<path d="M54.7037 483.567C54.7037 485.665 54.406 487.027 53.8104 487.665C53.2149 488.303 52.3074 488.629 51.088 488.629L50.2372 488.204L49.2589 487.551L48.1387 486.899C47.0469 486.275 44.9483 485.41 41.8431 484.318C38.7378 483.227 35.831 482.674 33.1511 482.674C30.4712 482.674 28.5003 483.638 27.2667 485.58C26.0331 487.523 25.4092 491.507 25.4092 497.534C25.4092 499.249 25.9339 500.625 26.9973 501.66C28.0608 502.695 29.5354 503.205 31.4071 503.205C33.2788 503.205 35.3489 502.553 37.6176 501.234C39.8863 499.916 41.4886 499.263 42.4386 499.263C43.3886 499.263 44.2252 499.902 44.9483 501.163C45.6715 502.425 46.026 503.943 46.026 505.687C46.026 510.408 45.5155 513.315 44.4804 514.407L43.2185 515.116C41.3752 515.116 39.9005 514.691 38.8087 513.854C36.3982 512.011 34.64 511.089 33.5056 511.089C29.9466 511.089 27.5503 511.841 26.3309 513.344C25.7353 514.095 25.4376 516.662 25.4376 521.057C25.4376 525.453 26.3309 528.785 28.1033 531.068C29.0391 532.287 31.1093 532.897 34.2855 532.897C37.4617 532.897 41.5453 531.805 46.4939 529.636C51.4425 527.466 54.2783 526.374 55.0015 526.374C56.3485 526.374 57.015 527.636 57.015 530.174V531.862C57.015 532.741 56.703 533.96 56.0791 535.52C55.4552 537.08 54.491 538.299 53.1724 539.178C51.8679 540.057 49.6984 540.497 46.7066 540.497H12.7613C7.57162 540.497 4.97681 539.831 4.97681 538.483V536.98C4.97681 535.917 5.941 534.854 7.85521 533.79C9.7836 532.727 10.9038 531.578 11.2299 530.345C11.556 529.111 11.7262 521.936 11.7262 508.806C11.7262 495.676 11.5135 488.246 11.0739 486.502C10.6344 484.758 9.54255 483.142 7.79849 481.667C6.05444 480.192 5.17532 478.746 5.17532 477.314C5.17532 476.279 6.29548 475.697 8.55 475.556C10.8045 475.414 18.1919 475.343 30.7123 475.343L42.8923 475.3H44.8633C48.0253 475.3 50.2372 475.754 51.5134 476.662C53.6403 478.165 54.7037 480.476 54.7037 483.595V483.567Z" fill="#563118"/>
<path d="M89.9962 478.122C89.9962 478.533 89.032 479.824 87.1178 481.993C85.1894 484.163 84.0551 486.006 83.7006 487.495C83.3461 488.998 83.1618 496.158 83.1618 508.976C83.1618 521.795 83.3461 528.884 83.7006 530.231C84.0551 531.578 84.8208 532.486 85.9693 532.968C87.1178 533.45 89.1029 533.691 91.9246 533.691C94.7463 533.691 97.1993 533.181 99.312 532.145C101.425 531.11 103.693 529.267 106.132 526.615C108.571 523.964 110.67 522.631 112.414 522.631C113.761 522.631 114.427 523.482 114.427 525.155V526.374C114.427 528.714 114.059 531.323 113.307 534.173C112.556 537.037 111.96 538.668 111.52 539.065C110.556 539.972 108.202 540.426 104.487 540.426H79.3192C71.0952 540.426 66.5578 540.355 65.6786 540.185C64.1756 539.902 63.4241 539.065 63.4241 537.661C63.4241 536.91 64.2465 535.704 65.9055 534.045C67.5645 532.387 68.6988 530.231 69.3227 527.58C69.578 526.516 69.6914 519.526 69.6914 506.58C69.6914 493.634 69.5071 486.545 69.1242 485.297C68.7556 484.049 67.5503 482.787 65.5227 481.497C63.495 480.221 62.4741 478.774 62.4741 477.186C62.4741 475.91 65.5227 475.258 71.6056 475.258H84.0267C86.4656 475.258 88.0678 475.442 88.8335 475.797C89.5992 476.151 89.982 476.917 89.982 478.065L89.9962 478.122Z" fill="#563118"/>
<path d="M195.405 487.41C195.405 490.572 194.484 492.146 192.64 492.146C191.832 492.146 189.89 490.926 186.827 488.487C183.764 486.048 181.212 484.361 179.184 483.397C177.157 482.447 174.831 481.965 172.208 481.965H172.066C169.528 481.965 167.118 482.631 164.806 483.978C158.312 487.764 155.065 495.889 155.065 508.353C155.065 511.912 155.632 515.385 156.752 518.76C160.028 528.728 166.309 533.705 175.597 533.705H175.696C179.95 533.705 184.345 532.117 188.911 528.927C191.846 526.899 193.534 525.878 193.973 525.878C195.505 525.878 196.27 526.601 196.27 528.033V529.21C196.27 529.934 195.547 531.38 194.087 533.563C192.626 535.747 190.684 537.406 188.245 538.526C183.991 540.497 179 541.475 173.243 541.475H171.655C167.061 541.475 162.85 540.625 158.993 538.952C151.336 535.577 146.033 530.004 143.055 522.22C141.467 518.065 140.659 514.024 140.659 510.082V506.807C140.659 502.908 141.425 498.923 142.956 494.854C146.118 486.445 151.52 480.589 159.177 477.286C163.204 475.542 167.188 474.662 171.13 474.662H172.676C182.545 474.662 189.081 475.598 192.272 477.47C194.37 478.689 195.405 482.007 195.405 487.41Z" fill="#563118"/>
<path d="M231.165 475.272H232.527C234.838 475.272 237.433 477.739 240.311 482.674C241.318 484.389 242.807 487.948 244.806 493.365C246.805 498.767 248.521 503.248 249.967 506.821C251.399 510.38 252.973 514.62 254.675 519.54C256.376 524.46 257.61 527.721 258.376 529.338C259.141 530.94 260.502 532.486 262.473 533.96C264.444 535.435 265.423 536.697 265.423 537.775C265.423 538.852 264.756 539.561 263.409 539.901C261.226 540.426 255.809 540.696 247.146 540.696C243.204 540.696 241.247 539.845 241.247 538.172C241.247 537.732 241.559 536.669 242.183 534.967C242.807 533.266 243.119 532.004 243.119 531.195C243.119 527.353 242.197 524.12 240.354 521.497C239.602 520.433 237.248 519.909 233.278 519.909C226.004 519.909 221.878 520.15 220.928 520.618C219.978 521.086 219 522.277 218.021 524.177C217.043 526.077 216.547 527.849 216.547 529.466C216.547 531.082 216.986 532.84 217.879 534.712C218.773 536.584 219.212 538.058 219.212 539.122C219.212 540.44 217.809 541.093 215.001 541.093C208.308 541.093 203.842 540.781 201.602 540.157C200.169 539.746 199.446 538.739 199.446 537.108C199.446 536.895 200.864 535.534 203.714 533.025C205.274 531.649 206.522 529.848 207.458 527.636C214.207 511.543 218.489 499.887 220.318 492.656C222.147 485.425 223.707 480.717 224.983 478.548C226.259 476.378 228.33 475.286 231.165 475.286V475.272ZM221.935 512.11V512.578C221.935 512.947 223.381 513.145 226.288 513.145H231.676C235.958 513.145 238.099 512.89 238.099 512.394C238.099 511.047 236.766 506.92 234.115 500.015C231.463 493.11 230.088 489.664 230.017 489.664C229.946 489.664 228.571 493.124 225.919 500.043C223.268 506.963 221.935 510.99 221.935 512.11Z" fill="#563118"/>
<path d="M313.136 481.355C313.136 479.795 316.086 479.015 321.998 479.015C327.911 479.015 331.428 479.469 332.59 480.377L333.384 481.497V482.801C333.384 483.368 332.448 484.73 330.591 486.899C328.733 489.069 327.727 490.401 327.571 490.912C327.415 491.408 327.344 492.656 327.344 494.669C327.344 496.683 327.216 501.688 326.947 509.742C326.677 517.782 326.55 524.361 326.55 529.451C326.55 534.542 326.479 537.392 326.366 537.987C326.025 539.575 324.877 540.384 322.948 540.384C322.424 540.384 321.133 539.93 319.077 539.022C317.036 538.115 315.263 536.825 313.76 535.137C312.257 533.45 309.96 530.33 306.869 525.765C293.838 506.552 286.593 496.938 285.118 496.938C284.622 496.938 284.366 500.696 284.366 508.211C284.366 515.726 284.692 521.227 285.345 524.73C285.401 525.098 285.827 526.771 286.578 529.749C287.344 532.713 287.812 534.4 287.968 534.811L288.578 536.073C289.145 537.236 289.428 537.902 289.428 538.087C289.428 539.249 288.719 540.015 287.316 540.412C285.912 540.809 283.246 540.993 279.319 540.993C275.391 540.993 272.782 540.795 271.463 540.412C270.144 540.015 269.492 538.895 269.492 537.009C269.492 536.413 270.442 535.435 272.356 534.06C274.271 532.684 275.263 531.904 275.362 531.72C275.703 530.968 275.873 523.95 275.873 510.678C275.873 497.406 275.689 490.231 275.306 489.168C274.937 488.104 273.746 486.814 271.747 485.283C269.747 483.751 268.741 482.05 268.741 480.178C268.741 478.703 271.534 477.98 277.135 477.98H279.148C281.743 477.98 283.771 478.25 285.245 478.774C286.72 479.299 288.62 480.759 290.96 483.127C293.299 485.495 298.12 491.819 305.394 502.057C312.668 512.308 316.681 517.427 317.433 517.427C318.468 517.427 318.978 511.429 318.978 499.434C318.978 495.307 318.269 491.167 316.865 487.013C316.553 486.048 315.844 484.985 314.753 483.822C313.661 482.66 313.108 481.851 313.108 481.383L313.136 481.355ZM309.478 470.82H308.585L308.159 470.777C306.529 470.777 304.246 470.04 301.268 468.551C298.305 467.062 296.178 466.325 294.902 466.325C293.625 466.325 292.222 466.977 290.705 468.267C289.187 469.558 288.039 470.21 287.259 470.21C285.671 470.21 284.863 469.473 284.863 468.012V467.587C284.863 465.588 285.997 463.446 288.28 461.164C290.563 458.881 292.945 457.746 295.455 457.746H295.88C297.823 457.746 300.276 458.484 303.239 459.973C306.203 461.461 308.344 462.199 309.662 462.199C310.981 462.199 312.371 461.561 313.859 460.299C315.348 459.037 316.454 458.399 317.206 458.399C318.794 458.399 319.602 459.15 319.602 460.653C319.602 462.936 318.482 465.205 316.227 467.445C313.973 469.7 311.732 470.82 309.478 470.82Z" fill="#563118"/>
<path d="M345.805 539.802C341.807 539.802 339.808 539.164 339.808 537.874C339.808 536.584 340.843 535.222 342.927 533.776C345.011 532.33 346.273 530.685 346.741 528.884C347.209 527.069 347.45 519.909 347.45 507.403C347.45 494.896 347.323 488.147 347.082 487.183C346.514 484.971 345.451 483.312 343.891 482.22C341.041 480.221 339.623 478.661 339.623 477.527V476.874C339.623 475.754 343.565 475.187 351.435 475.187L354.625 475.045H357.815L358.893 475.088H359.971C363.53 475.088 365.699 475.215 366.465 475.485C367.23 475.754 367.613 476.562 367.613 477.895C367.613 478.704 366.451 480.051 364.139 481.922C362.892 482.957 362.041 484.418 361.615 486.332C361.176 488.232 360.963 495.591 360.963 508.409C360.963 521.227 361.133 528.331 361.474 529.735C361.814 531.139 362.948 532.656 364.848 534.287C366.748 535.917 367.713 537.25 367.713 538.313C367.713 539.561 366.465 540.185 363.969 540.185H360.694L359.616 540.143H357.418L354.228 540.043L350.017 539.944L347.961 539.845C347.28 539.816 346.571 539.802 345.848 539.802H345.805Z" fill="#563118"/>
<path d="M428.896 487.41C428.896 490.572 427.975 492.146 426.131 492.146C425.323 492.146 423.381 490.926 420.318 488.487C417.255 486.048 414.703 484.361 412.675 483.397C410.648 482.447 408.322 481.965 405.699 481.965H405.557C403.019 481.965 400.609 482.631 398.297 483.978C391.803 487.764 388.556 495.889 388.556 508.353C388.556 511.912 389.123 515.385 390.243 518.76C393.519 528.728 399.8 533.705 409.088 533.705H409.187C413.441 533.705 417.836 532.117 422.402 528.927C425.337 526.899 427.025 525.878 427.464 525.878C428.996 525.878 429.761 526.601 429.761 528.033V529.21C429.761 529.934 429.038 531.38 427.578 533.563C426.117 535.747 424.175 537.406 421.736 538.526C417.482 540.497 412.491 541.475 406.734 541.475H405.146C400.552 541.475 396.341 540.625 392.484 538.952C384.827 535.577 379.524 530.004 376.546 522.22C374.958 518.065 374.15 514.024 374.15 510.082V506.807C374.15 502.908 374.916 498.923 376.447 494.854C379.609 486.445 385.011 480.589 392.668 477.286C396.695 475.542 400.679 474.662 404.621 474.662H406.167C416.036 474.662 422.572 475.598 425.763 477.47C427.861 478.689 428.896 482.007 428.896 487.41Z" fill="#563118"/>
<path d="M436.44 508.452C436.44 503.446 437.206 498.824 438.737 494.584C441.701 486.275 446.904 480.504 454.348 477.286C458.659 475.414 463.069 474.478 467.564 474.478L468.684 474.521H469.761C473.391 474.521 477.149 475.343 481.048 477.002C484.962 478.661 488.294 481.015 491.059 484.049C493.824 487.098 495.922 490.642 497.354 494.684C498.786 498.725 499.51 502.837 499.51 506.991V508.069C499.51 512.791 498.716 517.3 497.142 521.596C495.568 525.892 493.285 529.565 490.321 532.627C484.324 538.852 476.369 541.972 466.472 542C462.417 542 458.503 541.22 454.731 539.675C450.96 538.129 447.812 535.96 445.288 533.18C439.389 526.615 436.426 518.363 436.426 508.438L436.44 508.452ZM483.544 510.465V507.332C483.544 504.141 483.118 500.795 482.282 497.307C480.594 490.345 477.631 485.51 473.377 482.83C471.477 481.639 469.279 481.043 466.812 481.043H466.103C464.075 481.043 461.991 481.653 459.864 482.872C455.738 485.254 452.916 489.437 451.385 495.435C450.421 499.178 449.939 502.922 449.939 506.637V508.225C449.939 511.883 450.407 515.485 451.342 519.058C453.214 526.091 456.433 530.968 460.999 533.677C462.87 534.797 464.813 535.364 466.812 535.364H468.216C470.343 535.364 472.385 534.74 474.355 533.507C476.326 532.273 477.929 530.614 479.176 528.515C482.083 523.666 483.53 517.654 483.53 510.479L483.544 510.465Z" fill="#563118"/>
<path d="M21.1555 437.725C19.1137 437.725 17.5681 436.307 17.5681 434.322C17.5681 432.337 19.0428 431.033 21.1555 430.976C23.1973 430.976 24.7287 432.337 24.7287 434.379C24.7287 436.421 23.1973 437.782 21.1555 437.725Z" fill="#563118"/>
<path d="M36.9227 413.705L19.2411 405.495L1.5311 397.229C1.06319 397.045 0.694524 396.577 0.425117 395.839C0.155709 395.102 0.013916 394.308 0.013916 393.486C0.013916 392.564 0.14153 391.756 0.410937 391.075C0.680345 390.394 1.04901 389.912 1.54528 389.657C7.42971 386.807 13.3992 383.957 19.4538 381.093C25.4375 378.285 31.4779 375.492 37.575 372.741C37.8869 372.628 38.1989 372.571 38.525 372.571C38.8795 372.571 39.234 372.628 39.5884 372.755C39.9429 372.883 40.2123 373.294 40.3825 373.989L40.4392 374.953V375.946L40.3825 378.03C40.3825 378.385 40.1698 378.739 39.7444 379.108C39.6026 379.278 39.0638 379.576 38.1421 380.001L36.1996 380.866L33.9876 381.773C32.7824 382.341 31.9174 382.894 31.3928 383.39C30.8681 383.9 30.4711 384.397 30.2159 384.879C30.0741 385.176 29.989 385.474 29.989 385.786V386.509L29.904 386.892L29.8189 391.061V398.278L29.9323 401.383V402.248C29.9323 402.575 29.9748 402.886 30.0741 403.17L30.5137 403.723L31.0383 404.248C31.5062 404.716 32.0308 405.113 32.6406 405.467L34.1152 406.162L36.6108 407.353C37.4474 407.736 38.4399 408.303 39.6026 409.012C39.8295 409.125 40.0138 409.324 40.184 409.622C40.3116 409.948 40.3825 410.345 40.3825 410.784V411.068C40.3825 411.876 40.3399 412.415 40.2407 412.642C40.2407 413.606 39.6735 414.088 38.5533 414.088L38.0003 414.003L36.9511 413.705H36.9227ZM25.7069 397.342L25.877 393.627V392.465C25.877 392.082 25.877 391.699 25.8487 391.344C25.8203 390.99 25.7778 390.621 25.721 390.253C25.721 389.232 25.1255 388.48 23.9486 387.984C23.2964 387.757 22.5874 387.658 21.7934 387.658C20.8008 387.658 19.6948 387.842 18.4754 388.211C17.3694 388.48 16.3201 388.92 15.3418 389.487C13.8955 390.338 13.0589 391.245 12.7895 392.238L12.5626 393.798L12.591 394.691C12.591 394.875 12.6619 395.102 12.7895 395.357C13.0731 396.109 13.938 396.945 15.3985 397.824C16.3485 398.363 17.4687 398.831 18.7732 399.242C20.0777 399.654 21.2262 399.852 22.2329 399.852C22.9703 399.852 23.6083 399.753 24.1471 399.554C25.1964 399.157 25.721 398.448 25.721 397.385L25.7069 397.342Z" fill="#563118"/>
<path d="M0 361.866V336.527C0 334.585 0.524635 332.685 1.55973 330.799C2.41049 329.211 3.7717 328.034 5.64337 327.254C6.55085 326.9 7.47251 326.616 8.39417 326.403C9.31582 326.177 10.2091 326.077 11.0599 326.077H12.7614C13.045 326.077 13.286 326.091 13.5129 326.134C13.8957 326.233 14.2077 326.29 14.4346 326.332C15.4838 326.503 16.5047 326.914 17.4831 327.58C19.5533 328.856 21.0563 330.374 21.978 332.132C22.4175 333.209 22.8004 334.273 23.084 335.322L23.3959 336.924L23.5093 338.555V354.167C23.5093 355.684 23.9631 356.719 24.8847 357.286C25.8064 357.853 26.9124 358.293 28.2027 358.605L33.208 358.69H38.3409C38.8372 358.69 39.3335 358.888 39.8156 359.285C40.2977 359.682 40.5387 360.079 40.5387 360.491L40.4536 363.511C40.2551 364.716 39.4894 365.312 38.1708 365.312H20.7444H3.26125C2.21198 365.312 1.40375 365.028 0.85076 364.461C0.297766 363.894 0.0141793 363.029 0.0141793 361.866H0ZM17.7525 354.096V340.242C17.7525 337.96 17.2137 336.23 16.1503 335.039C15.0726 333.848 13.5129 333.252 11.4569 333.252C9.89717 333.252 8.39417 333.876 6.90534 335.109C5.43068 336.343 4.69336 337.704 4.69336 339.165V355.202C4.69336 355.514 4.76426 355.826 4.92023 356.137C5.06202 356.435 5.33143 356.733 5.72845 357.031C6.11129 357.314 6.59339 357.584 7.14638 357.825C7.64266 357.995 8.19565 358.08 8.77701 358.08H13.1584L14.7323 357.967C15.4555 357.896 16.1077 357.527 16.7033 356.889C17.0152 356.563 17.2846 356.152 17.5115 355.67C17.6816 355.23 17.7667 354.72 17.7667 354.138L17.7525 354.096Z" fill="#563118"/>
<path d="M36.9227 320.958L19.2411 312.749L1.5311 304.482C1.06319 304.298 0.694524 303.83 0.425117 303.092C0.155709 302.355 0.013916 301.561 0.013916 300.739C0.013916 299.817 0.14153 299.009 0.410937 298.328C0.680345 297.648 1.04901 297.166 1.54528 296.91C7.42971 294.06 13.3992 291.21 19.4538 288.346C25.4375 285.538 31.4779 282.745 37.575 279.994C37.8869 279.881 38.1989 279.824 38.525 279.824C38.8795 279.824 39.234 279.881 39.5884 280.009C39.9429 280.136 40.2123 280.547 40.3825 281.242L40.4392 282.206V283.199L40.3825 285.283C40.3825 285.638 40.1698 285.992 39.7444 286.361C39.6026 286.531 39.0638 286.829 38.1421 287.254L36.1996 288.119L33.9876 289.027C32.7824 289.594 31.9174 290.147 31.3928 290.643C30.8681 291.153 30.4711 291.65 30.2159 292.132C30.0741 292.43 29.989 292.727 29.989 293.039V293.762L29.904 294.145L29.8189 298.314V305.531L29.9323 308.637V309.502C29.9323 309.828 29.9748 310.14 30.0741 310.423L30.5137 310.976L31.0383 311.501C31.5062 311.969 32.0308 312.366 32.6406 312.72L34.1152 313.415L36.6108 314.606C37.4474 314.989 38.4399 315.556 39.6026 316.265C39.8295 316.379 40.0138 316.577 40.184 316.875C40.3116 317.201 40.3825 317.598 40.3825 318.038V318.321C40.3825 319.129 40.3399 319.668 40.2407 319.895C40.2407 320.859 39.6735 321.341 38.5533 321.341L38.0003 321.256L36.9511 320.958H36.9227ZM25.7069 304.596L25.877 300.881V299.718C25.877 299.335 25.877 298.952 25.8487 298.598C25.8203 298.243 25.7778 297.875 25.721 297.506C25.721 296.485 25.1255 295.733 23.9486 295.237C23.2964 295.01 22.5874 294.911 21.7934 294.911C20.8008 294.911 19.6948 295.095 18.4754 295.464C17.3694 295.733 16.3201 296.173 15.3418 296.74C13.8955 297.591 13.0589 298.498 12.7895 299.491L12.5626 301.051L12.591 301.944C12.591 302.128 12.6619 302.355 12.7895 302.61C13.0731 303.362 13.938 304.198 15.3985 305.078C16.3485 305.616 17.4687 306.084 18.7732 306.496C20.0777 306.907 21.2262 307.105 22.2329 307.105C22.9703 307.105 23.6083 307.006 24.1471 306.807C25.1964 306.41 25.721 305.702 25.721 304.638L25.7069 304.596Z" fill="#563118"/>
<path d="M0 269.104V243.894C0 241.951 0.524635 240.023 1.55973 238.123C2.41049 236.535 3.7717 235.344 5.64337 234.578C6.56503 234.209 7.50087 233.926 8.42252 233.713C8.83372 233.628 9.2591 233.543 9.69866 233.486C10.1382 233.429 10.592 233.401 11.0599 233.401C12.1517 233.401 13.1301 233.514 14.0092 233.741C14.8741 233.968 15.6682 234.337 16.3913 234.833C17.7809 235.826 19.0712 237.031 20.2481 238.435C20.8578 239.101 21.425 239.994 21.9354 241.115C22.4459 242.235 22.8996 243.156 23.3108 243.879L26.9691 242.079C28.4721 241.299 29.493 240.717 30.046 240.335L36.0864 236.095L37.6603 235.117C38.0999 234.861 38.5536 234.677 38.9932 234.592C39.8297 234.847 40.2409 235.911 40.2409 237.782L40.2126 239.583C40.2126 240.122 40.0708 240.604 39.773 241.029C39.1066 242.164 37.9581 243.199 36.3133 244.163L31.1236 246.942L29.3512 247.892L27.6355 248.913C26.5863 249.537 25.6362 250.289 24.7855 251.168L24.0623 252.671L23.7078 253.72L23.5093 254.358V261.405C23.5093 262.922 23.9631 263.957 24.8847 264.525C25.8064 265.092 26.9124 265.531 28.2027 265.843L33.208 265.928H38.3409C38.8372 265.928 39.3335 266.155 39.8156 266.609C40.2977 267.063 40.5387 267.488 40.5387 267.899L40.4536 270.763C40.2551 271.969 39.4894 272.564 38.1708 272.564H20.7444H3.26125C2.21198 272.564 1.40375 272.281 0.85076 271.714C0.297766 271.146 0.0141793 270.281 0.0141793 269.119L0 269.104ZM18.2204 261.306V247.297C18.2204 246.148 18.0787 245.156 17.8092 244.305C17.5398 243.454 17.1003 242.717 16.5047 242.107C15.342 240.902 13.6547 240.306 11.4569 240.306C9.89717 240.306 8.39417 240.93 6.90534 242.164C5.43068 243.397 4.69336 244.759 4.69336 246.219V262.412C4.69336 262.724 4.76426 263.036 4.92023 263.348C5.06202 263.645 5.33143 263.943 5.70009 264.227C6.56503 264.879 7.58594 265.262 8.74865 265.39C9.34418 265.446 9.91135 265.489 10.4502 265.531C10.989 265.574 11.5278 265.588 12.0524 265.588C13.0308 265.588 13.995 265.503 14.9167 265.319C15.8525 265.148 16.5898 264.723 17.157 264.057C17.4548 263.759 17.7242 263.348 17.9652 262.809C18.1495 262.284 18.2488 261.788 18.2488 261.306H18.2204Z" fill="#563118"/>
<path d="M13.8675 207.751C12.6623 207.623 11.5563 207.935 10.5212 208.672C9.48613 209.41 8.84806 210.402 8.60701 211.593L8.8906 210.232L8.20999 213.564L7.25997 218.201L6.67862 220.597C6.60772 220.937 6.26742 221.391 5.64353 221.944C5.048 222.426 4.38157 222.596 3.65842 222.44C3.11961 222.327 2.62333 222.001 2.18377 221.462C1.74421 220.923 1.58824 220.285 1.73003 219.59L8.67791 185.532C8.83388 184.766 9.21672 184.241 9.81225 183.944C10.4078 183.646 11.0033 183.546 11.613 183.674C12.2653 183.802 12.8183 184.227 13.272 184.95C13.6407 185.645 13.7825 186.184 13.7116 186.567L12.7474 191.274L11.7974 195.953C11.6839 196.521 11.6839 197.074 11.8115 197.612C11.9392 198.151 12.1802 198.69 12.5489 199.186C13.1869 200.165 14.0519 200.817 15.1579 201.157L43.3038 207.013C44.1262 207.183 44.6225 207.651 44.8069 208.431C44.9912 209.211 45.0054 209.948 44.8636 210.643C44.7218 211.352 44.4098 212.047 43.9419 212.728C43.474 213.408 42.8217 213.663 41.9852 213.493L27.9476 210.629L13.8534 207.751H13.8675Z" fill="#563118"/>
<path d="M46.508 187.049L33.4488 172.586L20.3755 158.052C20.021 157.697 19.865 157.13 19.8934 156.336C19.9218 155.542 20.1061 154.777 20.4322 153.997C20.7867 153.146 21.2263 152.451 21.7367 151.927C22.2472 151.402 22.7718 151.118 23.339 151.076C29.8615 150.75 36.4832 150.452 43.1617 150.182C49.7551 149.927 56.4052 149.729 63.112 149.587C63.4381 149.601 63.7643 149.686 64.0478 149.8C64.374 149.941 64.6717 150.126 64.9553 150.381C65.2389 150.636 65.324 151.118 65.1964 151.827L64.8702 152.749L64.4732 153.671L63.6083 155.556C63.4665 155.883 63.1404 156.124 62.6016 156.308C62.403 156.407 61.7933 156.464 60.7724 156.492L58.6455 156.521L56.2492 156.492C54.9164 156.549 53.9096 156.705 53.229 156.974C52.5484 157.244 51.9954 157.542 51.57 157.882C51.3148 158.095 51.1305 158.35 51.0029 158.633L50.8469 158.988L50.7193 159.3L50.4924 159.626L48.7909 163.426L47.5715 166.29L45.9692 170.062L44.8632 172.969L44.5229 173.763C44.3953 174.075 44.3102 174.372 44.296 174.656L44.4804 175.337L44.764 176.031C45.005 176.641 45.3453 177.222 45.7707 177.79L46.8483 178.995L48.6775 181.065C49.2872 181.746 49.9961 182.653 50.7902 183.773C50.9461 183.958 51.0454 184.227 51.0879 184.567C51.0879 184.922 50.9887 185.305 50.8044 185.716L50.6909 185.971C50.3648 186.723 50.1237 187.19 49.9394 187.375C49.5566 188.254 48.8618 188.481 47.8125 188.041L47.3304 187.744L46.4797 187.049H46.508ZM42.5945 167.609L44.1968 164.248L44.3669 163.837L44.5229 163.483L44.6505 163.171C44.8065 162.816 44.9341 162.462 45.0617 162.121C45.1893 161.781 45.2886 161.427 45.3737 161.058C45.7707 160.122 45.5296 159.2 44.6363 158.279C44.1259 157.825 43.502 157.442 42.7788 157.13C41.8572 156.747 40.7654 156.478 39.5034 156.336C38.3833 156.166 37.2489 156.138 36.1287 156.294C34.4698 156.521 33.3354 157.031 32.7115 157.825L31.9033 159.172L31.5772 159.995C31.5063 160.165 31.4779 160.392 31.4921 160.689C31.4496 161.498 31.9317 162.589 32.9242 163.979C33.5765 164.844 34.4272 165.709 35.4765 166.602C36.5116 167.481 37.5041 168.119 38.4116 168.516C39.0922 168.8 39.7161 168.956 40.2975 168.984C41.4176 169.041 42.1833 168.587 42.5945 167.609Z" fill="#563118"/>
<path d="M56.7172 123.057C55.6396 123.256 54.8456 123.71 54.3493 124.376C53.9381 124.943 53.6687 125.567 53.5269 126.234C53.3851 126.9 53.7679 127.538 54.6187 128.162L70.6839 139.789C70.9958 140.016 71.1943 140.47 71.2652 141.164C71.3078 141.831 71.1234 142.455 70.7122 143.022L69.8615 144.185C69.4219 144.78 68.8973 145.149 68.2592 145.291C67.6211 145.432 67.139 145.39 66.7987 145.149L38.8229 124.801C37.5468 123.88 36.9938 122.802 37.1497 121.569C37.2206 121.115 37.3766 120.619 37.6035 120.08C37.7453 119.796 37.9012 119.498 38.0714 119.201C38.2415 118.903 38.4542 118.577 38.6953 118.236C39.5744 117.017 40.3826 116.251 41.12 115.925C41.6446 115.741 42.5662 115.698 43.8849 115.798L54.8455 117.301L65.7778 118.747C67.1532 118.96 68.2167 118.548 68.9682 117.499C69.6488 116.549 69.748 115.372 69.2801 113.954L64.3457 103.788L59.2979 93.3943C59.1135 93.054 59.0568 92.4726 59.1135 91.6502C59.1135 91.2957 59.2411 90.7994 59.4822 90.1897C59.7232 89.58 60.0635 88.9561 60.5315 88.3181C61.1837 87.4248 61.9919 86.7725 62.9561 86.3755C63.9203 85.9785 64.7711 86.0494 65.4942 86.5598L94.0939 107.361C94.4059 107.588 94.6186 108.027 94.7178 108.665C94.732 108.921 94.7178 109.204 94.6611 109.502C94.6044 109.8 94.491 110.069 94.2924 110.339L93.5551 111.374C93.1723 111.898 92.676 112.21 92.0663 112.309C91.4566 112.409 90.9887 112.338 90.6625 112.111L75.4198 101.079C74.7959 100.626 74.0018 100.399 73.0376 100.385C72.0876 100.314 71.3078 100.682 70.7122 101.519C70.3719 102.001 70.0742 102.597 69.8331 103.306C69.5921 104.015 69.663 104.766 70.0174 105.546L78.2273 122.405C78.525 122.958 78.3265 123.696 77.6459 124.646C77.1071 125.397 76.5257 125.723 75.8877 125.652L56.6605 123.043L56.7172 123.057Z" fill="#563118"/>
<path d="M107.976 73.0044L102.673 77.6268L97.3837 82.2351C96.221 83.2418 95.7389 84.3053 95.9375 85.3971C96.136 86.5031 96.6039 87.5949 97.3412 88.7009L98.1352 89.6225L98.9576 90.5584L99.7517 91.48L100.532 92.3733C101.439 93.4226 102.446 93.9614 103.552 94.0181C104.658 94.0748 105.778 93.6069 106.926 92.6002L116.143 84.5605L125.317 76.5634C126.054 75.9111 126.834 76.0529 127.642 76.9887L128.323 77.7686C129.117 78.6761 129.145 79.456 128.408 80.1082L115.76 91.1397L103.126 102.143C102.701 102.526 102.205 102.724 101.652 102.781C101.099 102.823 100.673 102.668 100.361 102.313L88.309 88.474L76.2424 74.6208C75.9446 74.2805 75.7886 73.8551 75.7744 73.3447C75.7603 72.8342 76.0438 72.2954 76.6536 71.7708L88.6351 61.3348L100.645 50.8704C101.396 50.2182 102.176 50.3458 102.97 51.2674L103.651 52.0473C104.459 52.969 104.473 53.7488 103.722 54.4153L94.7038 62.2706L85.7141 70.1118C84.9201 70.8066 84.6791 71.8416 84.991 73.217C85.2888 74.4506 85.8985 75.6134 86.8485 76.691C87.756 77.7261 88.9329 78.5343 90.4075 79.1015C91.8822 79.6828 93.215 79.4418 94.4061 78.3925C94.718 78.1231 95.2427 77.6835 96.0083 77.0738C96.7598 76.4641 97.1569 76.1522 97.1852 76.1238C97.5397 75.826 97.9084 75.4857 98.3196 75.1313C98.7308 74.7768 99.1703 74.3797 99.6524 73.9685L104.856 69.4312C105.041 69.2752 105.211 69.1618 105.367 69.105C105.523 69.0483 105.778 69.0341 106.118 69.0483L106.827 69.1901C107.04 69.2752 107.238 69.4028 107.409 69.6013L108.16 70.4663C108.458 70.8066 108.585 71.2745 108.543 71.8416C108.458 72.3663 108.273 72.7633 107.99 73.0185L107.976 73.0044Z" fill="#563118"/>
<path d="M169.67 51.3667L169.996 51.9481L170.322 52.5294L170.52 52.8981C170.79 53.3944 170.932 53.8481 170.917 54.2593C171.087 54.7981 170.917 55.3086 170.449 55.7765L169.74 56.3862L168.946 56.9108C168.308 57.2511 167.245 57.2653 165.756 56.9108C163.204 56.2869 160.694 55.6347 158.255 54.9541C155.802 54.2735 153.165 53.5078 150.343 52.657L136.703 48.5734C135.568 48.2473 134.661 48.0346 133.966 47.9495C133.271 47.8644 132.264 48.1764 130.974 48.8853C129.726 49.5659 129.23 50.4592 129.5 51.5652C129.769 52.6712 130.138 53.6638 130.62 54.5429L139.553 70.9058C139.751 71.2603 139.765 71.7282 139.595 72.3096C139.425 72.8909 139.099 73.3022 138.603 73.5857L137.596 74.1387C137.071 74.4223 136.518 74.4932 135.937 74.3089C135.356 74.0962 134.987 73.8268 134.788 73.4865L118.511 43.6815C117.958 42.6606 117.66 41.8099 117.646 41.1151C117.589 40.0942 117.858 39.3143 118.454 38.7755C118.964 38.3643 119.645 37.9389 120.481 37.471C121.814 36.7478 123.374 36.6486 125.161 37.1874L152.626 45.8226C154.072 46.2763 155.263 46.248 156.185 45.7517C156.384 45.6383 156.525 45.5532 156.639 45.4681C156.738 45.3972 156.88 45.2412 157.05 45.0144C157.929 43.8375 158.113 42.4763 157.617 40.9166L148.854 24.5961C148.67 24.2558 148.656 23.7879 148.798 23.1924C148.939 22.5969 149.28 22.1573 149.804 21.8737L150.854 21.3065C151.321 21.0513 151.86 21.0088 152.47 21.1931C153.08 21.3774 153.477 21.6468 153.661 21.9871L169.698 51.3384L169.67 51.3667Z" fill="#563118"/>
<path d="M182.318 20.1581C181.878 19.0379 181.084 18.1871 179.936 17.6341C178.787 17.067 177.639 16.9677 176.462 17.308L177.795 16.9252L174.519 17.8752L169.982 19.2081L167.6 19.8178C167.259 19.917 166.706 19.8178 165.926 19.5342C165.218 19.2222 164.764 18.726 164.565 18.017C164.409 17.4924 164.466 16.8968 164.735 16.2446C165.005 15.5923 165.487 15.1669 166.182 14.9684L199.532 5.19887C200.283 4.98618 200.921 5.07126 201.474 5.4541C202.027 5.85112 202.382 6.33322 202.552 6.91457C202.736 7.55264 202.623 8.24743 202.197 8.98475C201.758 9.637 201.346 10.0198 200.964 10.1191L196.355 11.4661L191.775 12.8132C191.222 12.9691 190.74 13.2386 190.315 13.6072C189.89 13.9759 189.535 14.4438 189.266 14.9968C188.698 16.0177 188.514 17.0812 188.741 18.2297L196.71 45.851C196.951 46.6451 196.752 47.3115 196.157 47.8361C195.547 48.3608 194.909 48.7294 194.228 48.9138C193.534 49.1123 192.782 49.169 191.96 49.0697C191.137 48.9705 190.613 48.5167 190.372 47.6943L186.345 33.9546L182.304 20.1581H182.318Z" fill="#563118"/>
<path d="M237.32 0.0800715C244.253 -0.373667 250.053 1.10098 254.703 4.50402C257.015 6.20554 258.858 8.33244 260.205 10.8989C261.566 13.4654 262.36 16.6557 262.615 20.47C262.672 21.3349 262.672 22.1148 262.63 22.8237C262.587 23.5185 262.46 24.2558 262.275 25.0357C261.977 26.4678 261.453 27.8999 260.701 29.332C259.411 31.8843 257.61 34.0963 255.299 35.968C253.257 37.5844 250.96 38.8747 248.408 39.8389C245.856 40.8031 243.119 41.3845 240.184 41.5688C237.263 41.7673 234.569 41.5688 232.073 41.0158C229.578 40.4628 227.238 39.4703 225.054 38.0523C222.772 36.5919 220.758 34.6351 219.028 32.1963C218.206 30.9485 217.525 29.5873 216.986 28.1126C216.731 27.4036 216.533 26.6521 216.362 25.8581C216.192 25.0641 216.093 24.2417 216.036 23.3909C215.568 16.3012 217.61 10.587 222.162 6.24808C226.146 2.5331 231.194 0.477093 237.32 0.0800715ZM222.559 23.0081C223.254 27.0633 224.842 30.1828 227.323 32.3948C230.528 35.2023 234.682 36.4359 239.801 36.1098C244.537 35.7978 248.28 34.4933 250.988 32.1821C253.938 29.7291 255.554 26.0283 255.852 21.108C255.668 18.2722 255.2 15.8617 254.448 13.8766C253.697 11.8915 252.591 10.2608 251.13 8.97051C249.415 7.4675 247.33 6.36152 244.877 5.65255C243.8 5.35478 242.623 5.14209 241.332 5.02866C240.793 4.98612 240.184 4.95776 239.503 4.95776C238.823 4.95776 238.199 4.95776 237.603 5.0003C235.334 5.15627 233.264 5.65255 231.378 6.48913C229.493 7.33989 227.834 8.51678 226.373 10.0481C223.381 13.0967 222.034 16.7408 222.304 20.9946L222.36 21.8453L222.545 23.0222L222.559 23.0081Z" fill="#563118"/>
<path d="M283.232 42.533C282.367 42.3912 280.822 41.8807 278.567 41.0016C276.483 40.2218 274.838 39.215 273.647 37.9956C272.64 37.0739 272.201 36.0956 272.371 35.0888L272.569 34.3941C273.023 33.3306 273.661 32.8485 274.483 32.9903L274.909 33.1179C276.001 33.5575 276.894 33.997 277.589 34.4224C278.184 34.7769 278.936 35.1739 279.829 35.5851C280.722 35.9963 281.828 36.4642 283.133 36.9889C284.253 37.4284 285.487 37.868 286.834 38.2934C287.486 38.4777 288.081 38.6195 288.649 38.7471C289.202 38.8747 289.84 38.9882 290.563 39.1016C290.832 39.1441 291.229 39.215 291.754 39.2859C292.278 39.371 292.647 39.4277 292.888 39.4703C293.569 39.5837 294.264 39.612 294.973 39.5837C296.376 39.5837 297.652 39.3568 298.815 38.9031C300.97 38.0665 302.247 36.4359 302.629 34.0112L302.729 33.3731V32.9478C302.814 31.0761 301.608 29.6865 299.141 28.7649C297.071 27.9992 295.781 27.5454 295.285 27.3895C293.81 26.9074 292.392 26.5671 291.045 26.3402C289.471 25.9573 288.081 25.5887 286.834 25.2484C285.6 24.9081 284.338 24.5111 283.062 24.0857C280.68 23.3058 278.737 22.1856 277.248 20.711C275.547 19.0804 274.71 17.0953 274.739 14.7415L274.909 12.7706C275.121 11.3952 275.561 10.119 276.227 8.92797C277.504 6.56002 279.404 4.88686 281.928 3.93684C284.451 2.97265 287.018 2.41965 289.655 2.27786C290.336 2.2495 290.846 2.2495 291.215 2.27786C291.584 2.29204 291.995 2.34876 292.477 2.41965L296.164 2.91593C297.411 3.11444 298.645 3.39803 299.864 3.76669C301.084 4.13535 302.417 4.61745 303.835 5.1988C306.444 6.21972 308.485 7.36824 309.932 8.67274C311.194 9.80709 311.718 11.0265 311.52 12.331L311.449 12.7989L311.265 13.281C310.853 14.231 310.23 14.6281 309.379 14.5004L308.755 14.3161C307.904 14.0183 307.068 13.4795 306.231 12.728C305.394 11.9765 304.813 11.4802 304.473 11.2392C303.438 10.587 302.091 9.92052 300.432 9.25409L297.681 8.219C297.255 8.07721 296.844 7.94959 296.461 7.85034C296.079 7.75108 295.625 7.66601 295.114 7.58093C294.278 7.45332 293.512 7.33988 292.846 7.25481C292.179 7.16973 291.47 7.09883 290.747 7.0563C290.024 7.01376 289.159 7.07048 288.181 7.24063C285.869 7.66601 284.253 8.71528 283.346 10.4026C282.977 11.0974 282.736 11.7355 282.651 12.3168C282.481 13.4086 282.792 14.4154 283.601 15.3087C284.508 16.3012 286.011 17.1803 288.124 17.946L294.845 20.002L298.347 21.0655C298.815 21.1931 299.127 21.2923 299.283 21.3349C299.439 21.3774 299.864 21.5476 300.531 21.8028C302.417 22.4409 304.118 23.2207 305.65 24.1424C307.181 25.0641 308.4 26.1559 309.322 27.432C310.244 28.7081 310.726 30.2679 310.768 32.1395L310.669 33.4724L310.57 34.2948C310.315 35.8829 309.804 37.3292 309.038 38.6053C308.018 40.2218 306.585 41.4695 304.77 42.3345C301.58 43.9084 297.979 44.5748 293.937 44.3479L292.037 44.1494L289.74 43.7808L288.322 43.5539L283.26 42.4905L283.232 42.533Z" fill="#563118"/>
<path d="M363.388 35.2732C363.842 34.153 363.842 32.9903 363.402 31.7993C362.963 30.6082 362.197 29.7291 361.119 29.1619L362.353 29.8L359.333 28.2402L355.121 26.0708L352.966 24.8656C352.654 24.7096 352.314 24.2558 351.959 23.5043C351.662 22.7954 351.676 22.1148 352.016 21.4625C352.271 20.9804 352.711 20.5834 353.363 20.2998C354.015 20.0162 354.654 20.0446 355.292 20.3707L386.174 36.3225C386.869 36.6769 387.28 37.1874 387.408 37.8396C387.535 38.4919 387.464 39.1016 387.181 39.6404C386.869 40.236 386.316 40.6472 385.508 40.9024C384.742 41.0725 384.175 41.0584 383.835 40.874L379.567 38.6762L375.327 36.4926C374.817 36.2374 374.278 36.0814 373.725 36.0531C373.172 36.0247 372.59 36.1239 371.995 36.3366C370.889 36.6769 370.01 37.3292 369.386 38.3076L356.1 63.802C355.717 64.5393 355.121 64.8938 354.327 64.8513C353.533 64.8087 352.81 64.6244 352.186 64.3125C351.548 63.9863 350.967 63.5042 350.442 62.8662C349.918 62.2281 349.847 61.5333 350.244 60.7818L356.823 48.0488L363.416 35.2732H363.388Z" fill="#563118"/>
<path d="M425.678 68.7931C425.905 68.5237 426.358 68.3535 427.067 68.2685C427.734 68.2401 428.344 68.4528 428.897 68.9065L430.003 69.814C430.513 70.2394 430.825 70.7782 430.938 71.4588C431.052 72.1394 430.995 72.6357 430.74 72.9335L427.578 76.8044L424.855 80.1366L421.892 83.7098L416.475 90.3173L414.845 92.3166L414.107 93.2525C413.469 94.0323 412.746 94.6846 411.91 95.2234C411.073 95.7622 410.123 96.1876 409.045 96.4995C407.06 97.1518 405.118 97.3928 403.232 97.2369C401.346 97.0809 399.248 96.3152 396.922 94.954C394.597 93.5928 392.711 92.3166 391.25 91.1255C389.733 89.8919 388.344 88.63 387.082 87.368C385.82 86.1061 384.657 84.7874 383.594 83.3978C382.53 82.0082 381.694 80.6045 381.112 79.2007C380.531 77.7828 380.318 76.1238 380.488 74.1954C380.616 71.6006 381.495 69.3036 383.126 67.3043L399.474 47.3398C399.701 47.0704 400.155 46.9002 400.864 46.8293C401.53 46.801 402.14 47.0136 402.707 47.4674L403.827 48.3749C404.338 48.8002 404.664 49.3532 404.777 50.0338C404.891 50.7145 404.834 51.2107 404.593 51.5085L388.344 71.4872C387.62 72.3805 387.181 73.4014 387.053 74.5783C386.926 75.7552 386.997 76.932 387.266 78.1515C387.55 79.4701 388.032 80.6754 388.698 81.7956L389.747 83.2702L391.109 84.9292L392.087 85.8792L392.881 86.5314L393.136 86.7441L394.1 87.5382C394.469 87.8359 394.852 88.1054 395.221 88.318C395.674 88.6867 396.1 88.9845 396.483 89.183L398.454 90.1472C399.758 90.7853 400.977 91.1114 402.126 91.1539C403.274 91.1823 404.551 91.0263 405.94 90.686C406.55 90.5158 407.174 90.2748 407.798 89.9487C408.379 89.6084 408.861 89.2113 409.23 88.7576L425.664 68.8215L425.678 68.7931Z" fill="#563118"/>
<path d="M444.947 85.9218L452.703 95.7623L460.544 105.716C461.75 107.248 462.53 109.077 462.898 111.204C463.21 112.976 462.884 114.748 461.891 116.521C461.395 117.386 460.842 118.18 460.247 118.917C459.977 119.243 459.694 119.569 459.382 119.881C459.07 120.207 458.73 120.505 458.361 120.789C457.496 121.469 456.659 121.98 455.837 122.334C455.015 122.689 454.164 122.902 453.285 122.958C451.583 123.029 449.825 122.887 448.024 122.519C447.131 122.377 446.138 122.022 445.046 121.455C443.955 120.888 443.019 120.448 442.253 120.137L440.495 123.823C439.8 125.355 439.346 126.446 439.162 127.099L437.035 134.174L436.397 135.918C436.213 136.4 435.972 136.811 435.674 137.152C434.866 137.464 433.873 136.882 432.725 135.422L431.633 133.99C431.307 133.564 431.122 133.096 431.094 132.586C430.924 131.282 431.179 129.75 431.874 127.978L434.228 122.59L435.036 120.746L435.759 118.875C436.199 117.726 436.482 116.549 436.61 115.344L436.255 113.713L435.887 112.664L435.646 112.04L431.278 106.51C430.342 105.319 429.336 104.78 428.272 104.908C427.209 105.036 426.06 105.376 424.855 105.929L420.871 108.963L416.83 112.139C416.433 112.451 415.908 112.579 415.256 112.522C414.603 112.466 414.135 112.281 413.894 111.955L412.193 109.658C411.612 108.58 411.838 107.645 412.859 106.836L426.542 96.0459L440.282 85.2128C441.105 84.5606 441.913 84.277 442.707 84.3763C443.501 84.4755 444.252 84.986 444.961 85.8935L444.947 85.9218ZM435.461 103.32L439.786 108.807L444.125 114.323C444.834 115.23 445.557 115.925 446.308 116.422C447.06 116.918 447.84 117.23 448.691 117.329C450.35 117.556 452.051 116.989 453.767 115.613C454.986 114.649 455.794 113.231 456.191 111.345C456.588 109.46 456.333 107.942 455.426 106.794L450.406 100.427L445.387 94.0607C445.188 93.8197 444.947 93.6212 444.635 93.4652C444.323 93.3234 443.94 93.2525 443.487 93.2667C442.409 93.2951 441.36 93.6212 440.367 94.2451C439.871 94.5712 439.389 94.8832 438.935 95.1951C438.481 95.507 438.056 95.819 437.645 96.1451C436.879 96.7548 436.17 97.4071 435.56 98.1302C434.937 98.8534 434.61 99.6332 434.582 100.498C434.525 100.909 434.582 101.406 434.724 101.973C434.894 102.497 435.135 102.951 435.433 103.32H435.461Z" fill="#563118"/>
<path d="M472.838 128.928C473.136 128.758 473.632 128.758 474.298 128.97C474.965 129.169 475.475 129.58 475.83 130.19L476.553 131.437C476.879 132.019 476.978 132.643 476.851 133.337C476.723 134.032 476.482 134.472 476.142 134.656L444.451 152.834C444.125 153.018 443.629 153.004 442.934 152.806C442.296 152.593 441.799 152.182 441.459 151.572L440.736 150.324C440.381 149.7 440.268 149.062 440.396 148.41C440.523 147.758 440.778 147.318 441.147 147.106L472.838 128.928Z" fill="#563118"/>
<path d="M450.52 170.601C450.194 169.792 449.839 168.19 449.442 165.808C449.045 163.61 449.059 161.696 449.499 160.051C449.782 158.704 450.392 157.839 451.328 157.471L452.023 157.286C453.171 157.13 453.909 157.428 454.206 158.208L454.32 158.648C454.504 159.81 454.575 160.803 454.561 161.625C454.561 162.32 454.603 163.157 454.717 164.149C454.83 165.127 454.986 166.319 455.199 167.708C455.397 168.899 455.653 170.19 455.979 171.551C456.163 172.203 456.333 172.799 456.518 173.337C456.702 173.876 456.915 174.486 457.184 175.166C457.283 175.422 457.439 175.79 457.638 176.287C457.836 176.783 457.978 177.137 458.063 177.35C458.318 177.988 458.645 178.598 459.042 179.193C459.765 180.399 460.615 181.377 461.594 182.143C463.423 183.561 465.465 183.816 467.748 182.908L468.343 182.667L468.712 182.469C470.357 181.576 470.938 179.831 470.456 177.237C470.045 175.067 469.79 173.734 469.662 173.224C469.322 171.707 468.896 170.317 468.386 169.041C467.904 167.495 467.507 166.106 467.166 164.872C466.826 163.639 466.514 162.348 466.23 161.03C465.677 158.577 465.649 156.336 466.16 154.309C466.684 152.012 467.96 150.268 470.016 149.091L471.803 148.226C473.093 147.715 474.426 147.432 475.787 147.389C478.481 147.276 480.878 148.056 482.99 149.729C485.103 151.402 486.904 153.33 488.364 155.514C488.733 156.081 489.002 156.535 489.173 156.847C489.343 157.159 489.513 157.556 489.697 157.995L491.158 161.412C491.626 162.575 492.009 163.78 492.32 165.028C492.632 166.276 492.888 167.651 493.129 169.169C493.597 171.934 493.639 174.273 493.27 176.187C492.944 177.846 492.164 178.924 490.945 179.42L490.506 179.59L489.995 179.675C488.974 179.803 488.308 179.477 487.982 178.683L487.826 178.059C487.655 177.18 487.67 176.173 487.897 175.081C488.109 173.975 488.237 173.224 488.279 172.813C488.308 171.579 488.194 170.09 487.925 168.332L487.4 165.439C487.301 165 487.202 164.589 487.088 164.206C486.975 163.823 486.819 163.383 486.635 162.916C486.323 162.121 486.025 161.427 485.755 160.803C485.486 160.179 485.188 159.541 484.848 158.903C484.508 158.265 484.011 157.542 483.373 156.79C481.828 155.018 480.098 154.181 478.184 154.266C477.404 154.294 476.737 154.422 476.184 154.649C475.149 155.06 474.454 155.84 474.1 157.003C473.717 158.293 473.731 160.037 474.157 162.235L475.83 169.055L476.709 172.614C476.837 173.082 476.922 173.394 476.95 173.564C476.978 173.734 477.064 174.16 477.191 174.869C477.602 176.811 477.815 178.683 477.815 180.455C477.815 182.242 477.503 183.858 476.879 185.29C476.255 186.723 475.163 187.942 473.575 188.935L472.384 189.53L471.619 189.87C470.116 190.466 468.627 190.764 467.138 190.764C465.224 190.707 463.423 190.126 461.736 189.005C458.744 187.077 456.319 184.312 454.462 180.739L453.653 179.009L452.788 176.84L452.25 175.507L450.562 170.629L450.52 170.601Z" fill="#563118"/>
<path d="M494.306 208.786C495.468 208.474 496.39 207.779 497.085 206.701C497.766 205.624 498.007 204.489 497.794 203.284L498.035 204.645L497.454 201.285L496.645 196.62L496.305 194.181C496.248 193.841 496.404 193.288 496.773 192.55C497.156 191.884 497.709 191.487 498.432 191.359C498.971 191.26 499.552 191.388 500.162 191.728C500.786 192.068 501.154 192.593 501.268 193.302L507.237 227.545C507.365 228.311 507.209 228.949 506.769 229.445C506.316 229.941 505.791 230.253 505.196 230.352C504.543 230.466 503.863 230.282 503.182 229.771C502.587 229.261 502.26 228.807 502.19 228.424L501.367 223.702L500.545 219.009C500.445 218.442 500.233 217.931 499.921 217.478C499.609 217.024 499.183 216.613 498.659 216.272C497.709 215.592 496.66 215.294 495.511 215.379L467.167 220.214C466.344 220.356 465.706 220.101 465.252 219.434C464.799 218.768 464.515 218.102 464.387 217.407C464.26 216.698 464.288 215.932 464.487 215.138C464.671 214.33 465.196 213.862 466.032 213.72L480.141 211.253L494.306 208.786Z" fill="#563118"/>
<path d="M505.861 241.398C506.216 241.398 506.641 241.625 507.138 242.121C507.634 242.618 507.903 243.213 507.917 243.908L507.974 245.354C508.003 246.021 507.79 246.63 507.35 247.169C506.911 247.708 506.485 247.992 506.103 248.006L469.591 249.268C469.222 249.268 468.768 249.041 468.258 248.545C467.79 248.062 467.549 247.467 467.521 246.772L467.464 245.326C467.435 244.603 467.634 243.993 468.059 243.468C468.485 242.944 468.91 242.688 469.336 242.674L505.847 241.412L505.861 241.398Z" fill="#563118"/>
<path d="M469.279 270.026C471.463 265.957 473.916 263.022 476.653 261.207C478.496 259.987 480.339 259.165 482.154 258.725C483.983 258.286 485.983 258.073 488.195 258.073C490.137 258.073 491.966 258.3 493.696 258.739C495.426 259.179 497.142 260.016 498.843 261.235C500.403 262.398 501.693 263.589 502.728 264.78L504.288 266.836C504.784 267.587 505.309 268.452 505.876 269.417C506.443 270.381 506.925 271.515 507.365 272.834C507.805 274.138 508.088 275.372 508.244 276.492L508.471 279.399L508.556 282.476C508.556 284.418 508.457 286.332 508.244 288.247C508.244 288.8 508.244 289.197 508.202 289.452C508.173 289.707 508.102 290.118 507.989 290.714C507.875 291.309 507.663 292.132 507.351 293.209C506.911 295.053 506.372 296.655 505.763 298.002C505.153 299.349 504.217 300.03 502.955 300.03H502.629L502.303 299.973C501.41 299.803 500.772 299.307 500.389 298.47C500.247 298.116 500.162 297.704 500.162 297.222C500.162 296.627 500.261 296.017 500.446 295.393L502.218 291.848C502.572 291.139 502.899 290.345 503.196 289.466C503.437 288.615 503.551 287.835 503.551 287.141V278.293C503.551 276.421 503.097 274.649 502.19 272.961C501.353 271.402 500.134 269.97 498.531 268.637C497.057 267.431 495.454 266.51 493.753 265.872C492.037 265.234 490.251 264.922 488.379 264.922C485.203 264.922 482.594 265.461 480.58 266.552C478.751 267.502 477.163 268.906 475.844 270.792C474.767 272.295 473.987 273.812 473.491 275.372L472.909 277.669L472.47 280.363C472.413 280.803 472.37 281.256 472.328 281.71C472.285 282.164 472.271 282.603 472.271 283.029C472.271 285.354 472.682 287.765 473.519 290.274C473.93 291.494 474.426 292.699 475.05 293.89C475.66 295.081 476.185 296.315 476.638 297.591L476.752 298.172L476.78 298.924V299.42C476.667 300.172 476.369 300.654 475.873 300.866L475.263 301.008L474.597 301.178C474.001 301.178 473.547 301.079 473.235 300.88C472.952 300.824 472.597 300.413 472.158 299.633L470.995 297.633C470.584 296.924 470.258 296.244 470.002 295.577L468.982 293.167C468.698 292.444 468.485 291.777 468.315 291.168L467.365 286.701C467.067 284.574 466.926 282.617 466.926 280.817C466.926 276.875 467.734 273.287 469.336 270.026H469.279Z" fill="#563118"/>
<path d="M508.414 330.359C508.414 337.307 506.557 342.993 502.87 347.417C501.027 349.615 498.772 351.302 496.135 352.493C493.497 353.684 490.25 354.266 486.422 354.266C485.557 354.266 484.777 354.223 484.082 354.124C483.388 354.025 482.664 353.869 481.899 353.628C480.495 353.245 479.091 352.621 477.716 351.77C475.263 350.31 473.164 348.367 471.449 345.942C469.974 343.801 468.825 341.419 468.031 338.81C467.237 336.201 466.84 333.422 466.84 330.487C466.84 327.552 467.195 324.872 467.918 322.433C468.641 319.98 469.775 317.711 471.335 315.627C472.937 313.443 475.022 311.572 477.574 309.998C478.864 309.26 480.268 308.665 481.785 308.225C482.509 308.027 483.274 307.871 484.068 307.757C484.876 307.644 485.699 307.587 486.55 307.587C493.653 307.587 499.212 309.998 503.253 314.833C506.698 319.044 508.414 324.22 508.414 330.359ZM486.507 314.138C482.423 314.564 479.191 315.939 476.823 318.279C473.802 321.285 472.299 325.354 472.299 330.487C472.299 335.237 473.363 339.051 475.49 341.915C477.744 345.021 481.317 346.878 486.224 347.488C489.074 347.488 491.512 347.176 493.526 346.552C495.553 345.928 497.255 344.936 498.645 343.574C500.247 341.958 501.495 339.959 502.36 337.548C502.728 336.499 503.012 335.336 503.225 334.06C503.295 333.521 503.366 332.912 503.423 332.245C503.48 331.565 503.508 330.941 503.508 330.345C503.508 328.076 503.154 325.964 502.43 324.035C501.707 322.107 500.63 320.363 499.212 318.803C496.362 315.627 492.817 314.039 488.563 314.039H487.698L486.507 314.152V314.138Z" fill="#563118"/>
<path d="M467.365 375.889C467.365 375.024 467.62 373.408 468.145 371.04C468.585 368.856 469.322 367.084 470.343 365.708C471.094 364.56 471.988 363.993 473.009 363.993L473.732 364.078C474.866 364.361 475.419 364.914 475.419 365.737L475.362 366.176C475.093 367.325 474.809 368.275 474.483 369.04C474.228 369.693 473.959 370.487 473.689 371.437C473.42 372.387 473.136 373.55 472.81 374.925C472.555 376.102 472.314 377.392 472.101 378.782C472.03 379.448 471.973 380.072 471.931 380.639C471.888 381.206 471.874 381.859 471.874 382.582V384.936C471.874 385.616 471.945 386.311 472.101 387.02C472.328 388.409 472.753 389.629 473.377 390.706C474.54 392.706 476.355 393.698 478.808 393.698H479.446L479.857 393.642C481.715 393.415 482.892 392.011 483.416 389.43C483.842 387.261 484.097 385.928 484.168 385.403C484.409 383.872 484.522 382.412 484.522 381.05C484.65 379.448 484.792 378.002 484.933 376.726C485.089 375.45 485.274 374.145 485.486 372.812C485.869 370.331 486.677 368.246 487.911 366.545C489.244 364.602 491.087 363.468 493.413 363.128L495.384 362.986C496.773 362.986 498.106 363.213 499.396 363.681C501.934 364.574 503.877 366.176 505.224 368.516C506.571 370.855 507.521 373.308 508.074 375.875C508.202 376.541 508.287 377.052 508.329 377.406C508.372 377.761 508.386 378.186 508.386 378.668L508.471 382.383C508.471 383.645 508.386 384.907 508.202 386.169C508.031 387.431 507.762 388.821 507.408 390.309C506.812 393.046 505.99 395.23 504.94 396.889C504.019 398.307 502.899 399.03 501.58 399.03H501.112L500.616 398.916C499.623 398.661 499.113 398.108 499.113 397.257L499.198 396.619C499.368 395.726 499.751 394.819 500.36 393.868C500.97 392.918 501.367 392.266 501.552 391.898C502.034 390.763 502.473 389.331 502.884 387.601L503.466 384.723C503.537 384.283 503.593 383.858 503.636 383.461C503.678 383.064 503.693 382.61 503.693 382.085C503.693 381.235 503.693 380.469 503.664 379.803C503.65 379.122 503.593 378.427 503.522 377.69C503.452 376.967 503.253 376.13 502.941 375.18C502.161 372.968 500.871 371.536 499.056 370.912C498.319 370.657 497.652 370.529 497.057 370.529C495.951 370.529 495.015 370.997 494.249 371.947C493.413 372.997 492.789 374.627 492.363 376.825L491.385 383.787L490.889 387.417C490.832 387.899 490.789 388.225 490.761 388.381C490.733 388.551 490.648 388.977 490.492 389.686C490.151 391.642 489.655 393.457 488.989 395.102C488.322 396.761 487.429 398.136 486.323 399.242C485.217 400.348 483.742 401.072 481.899 401.412L480.566 401.525L479.73 401.554C478.113 401.554 476.624 401.284 475.235 400.717C473.476 399.951 472.016 398.746 470.867 397.087C468.811 394.18 467.578 390.721 467.167 386.708L467.053 384.794V381.022L467.308 375.861L467.365 375.889Z" fill="#563118"/>
<path d="M486.819 431.543C488.861 431.543 490.407 432.961 490.407 434.946C490.407 436.931 488.932 438.236 486.819 438.292C484.777 438.292 483.246 436.931 483.246 434.889C483.246 432.848 484.777 431.486 486.819 431.543Z" fill="#563118"/>
<path d="M487.939 134.344C490.108 134.996 490.817 133.862 491.115 132.543C491.441 131.14 491.569 130.034 489.314 129.367C487.273 128.758 485.259 128.02 483.217 127.439C481.261 126.886 480.339 127.921 480.041 129.24C479.715 130.643 479.616 131.693 481.005 132.132" fill="#563118"/>
<path d="M198.695 286.46C188.599 286.474 178.66 290.756 171.797 297.647C169.911 299.774 167.812 299.944 165.756 297.647C143.764 275.131 103.934 289.083 100.361 319.909C99.3545 328.799 100.163 347.573 99.95 353.996C99.95 355.06 100.659 355.272 101.623 355.286C104.303 355.329 112.641 355.329 115.306 355.286C116.114 355.244 116.894 355.173 116.951 354.251C117.419 347.927 116.341 328.814 117.433 321.525C120.34 302.78 145.721 297.279 156.157 312.763C160 318.037 151.563 314.535 149.039 315.074C135.186 315.045 123.474 325.255 121.29 338.597C120.255 345.8 121.021 355.215 120.794 362.688C121.006 365.552 120.014 367.211 122.495 367.353C125.175 367.41 133.513 367.41 136.178 367.353C136.901 367.296 137.681 367.211 137.795 366.36C137.993 363.95 137.823 351.727 137.88 346.396C137.88 343.631 137.809 341.788 139.042 338.909C141.722 332.075 151.464 330.132 156.611 335.364C160.808 339.533 160.198 344.127 160.241 349.941C160.113 358.803 160.482 369.366 160.099 378.384C159.957 379.037 159.603 379.15 159.035 379.179C153.987 379.32 129.301 378.966 119.276 379.306C118.213 379.831 118.468 380.767 118.454 382.468C120.056 408.842 142.332 430.011 169.301 429.671C195.207 429.6 217.327 408.87 219.071 382.936C219.071 381.249 219.496 379.973 218.277 379.306C212.931 379.008 196.795 379.278 185.99 379.193C181.495 378.952 178.83 379.717 177.596 378.767C176.845 371.763 177.539 363.794 177.312 356.988C177.851 350.153 175.583 342.397 179.964 336.442C184.927 329.749 196.483 331.791 198.851 339.803C200.567 346.141 199.29 352.819 199.673 359.597C199.971 363.681 198.922 366.417 200.51 367.268C203.644 367.651 211.882 367.353 215.058 367.396C215.696 367.353 216.235 367.31 216.533 366.8C217.1 361.908 216.589 354.109 216.759 348.565C216.759 344.042 216.859 342.383 216.263 338.64C214.037 324.787 201.403 314.336 186.969 315.159C185.31 314.918 180.9 316.775 180.389 315.074C189.578 296.031 218.603 302.454 220.375 323.298C221.112 332.174 219.85 346.481 220.886 354.989C224.133 355.91 232.513 355.145 235.944 355.343C236.313 355.301 236.894 355.286 237.178 355.088C237.589 354.804 237.617 354.308 237.631 353.769C237.376 346.85 238.142 329.395 237.277 320.462C235.079 301.377 218.376 286.531 199.205 286.517H198.723L198.695 286.46Z" fill="#99B0C6"/>
<path d="M406.309 185.872C406.337 179.775 400.566 181.193 396.639 179.746L396.327 179.59C393.051 177.407 394.653 172.274 394.285 168.587C393.959 154.791 394.909 138.811 393.902 125.567C393.703 125.113 393.363 124.447 392.81 124.461C377.667 123.426 306.742 124.333 282.296 124.135C278.709 123.865 279.064 127.651 279.064 130.331C279.021 140.427 279.134 164.929 279.007 174.783C279.574 183.802 266.77 177.364 267.054 185.702C266.912 202.589 267.054 241.994 267.025 254.797C266.713 259.221 270.712 259.292 274.129 259.221C280.056 259.221 289.074 259.477 295.242 259.321H298.503C300.559 259.321 302.233 257.648 302.233 255.592V208.729C302.261 206.46 302.686 183.277 314.696 173.096C316.284 171.749 325.402 164.262 337.312 164.886C347.139 165.397 356.596 171.31 363.175 180.71C368.478 188.282 371.059 197.442 371.059 206.687V255.974C371.059 257.818 372.562 259.321 374.405 259.321H378.446V259.264C379.524 259.307 380.715 259.207 382.034 259.236C389.379 259.363 397.248 259.789 403.969 258.796C406.394 258.243 406.295 255.322 406.295 253.436C406.295 239.47 406.195 205.751 406.295 185.872H406.309Z" fill="#7A7A56"/>
<path d="M317.829 310.225C314.568 339.363 272.583 337.293 275.249 308.438C277.73 281.568 316.993 282.717 317.829 309.714V310.225Z" fill="#C25630"/>
<path d="M282.778 373.167C286.72 363.411 289.811 362.617 291.952 361.696C298.617 358.831 307.223 366.871 311.86 369.82C313.902 371.125 316.468 370.387 317.546 368.218C320.949 361.369 324.508 354.549 327.713 347.601C330.832 340.852 333.753 333.691 337.695 327.367C340.942 322.164 347.975 315.017 357.319 315.003C369.896 314.989 377.454 328.785 377.794 329.423C391.208 352.394 398.935 376.612 405.132 402.305C409.116 418.796 409.754 423.432 406.975 426.665C404.394 429.671 400.651 429.388 383.225 429.444C375.029 429.473 366.833 429.756 358.623 429.7C344.359 429.615 335.525 429.969 325.274 430.04C313.406 430.125 298.205 430.168 278.567 430.04C276.355 430.04 270.995 429.926 268.429 426.438C266.543 423.886 266.614 419.944 268.301 414.613C272.342 401.894 276.709 388.14 282.764 373.152L282.778 373.167Z" fill="#C25630"/>
<path d="M111.634 207.51C111.634 207.51 111.577 207.425 111.549 207.382C111.52 207.354 111.506 207.325 111.478 207.297L111.634 207.51Z" fill="#D38734"/>
<path d="M230.825 218.428L224.714 214.996C223.721 214.372 222.558 213.975 221.949 213.096C220.956 211.777 221.183 209.721 222.459 208.658C223.806 207.609 225.678 206.8 226.146 204.915C226.5 202.462 224.912 200.391 223.636 198.491C221.027 193.926 218.475 195.131 214.788 197.499C211.896 199.101 208.819 201.313 205.813 202.547C203.558 203.397 201.53 201.781 199.616 200.76L193.633 197.329L190.641 195.613C189.662 195.003 188.556 194.578 187.932 193.727C186.486 192.082 186.699 189.502 188.429 188.14C192.172 185.645 196.539 183.858 200.524 181.703C201.304 181.32 202.665 180.469 203.487 180.328C205.642 179.888 207.557 181.377 209.386 182.455C210.875 183.348 213.81 185.163 215.299 186.042C217.496 187.502 220.247 188.977 222.502 186.666C224.146 184.865 225.479 182.852 226.486 180.597C228.599 176.003 223.551 174.06 220.885 171.792C220.616 171.536 220.46 171.423 220.587 171.21C220.8 170.856 221.566 170.459 221.935 170.204C225.749 167.963 229.762 165.964 233.647 163.667C235.192 162.887 237.106 161.143 236.738 159.03C236.213 156.421 234.88 154.649 233.618 152.465C232.555 150.423 230.13 148.24 227.507 149.332C222.402 151.359 217.525 155.06 212.775 157.031C212.661 156.62 212.619 155.968 212.548 155.556C212.392 153.018 212.434 149.7 209.967 148.126C206.536 146.269 203.331 147.063 199.942 147.389C196.795 147.914 195.788 150.849 195.901 153.444C195.873 157.088 196.156 161.327 196.015 164.759C195.915 165.51 195.731 166.021 195.362 166.489C194.001 168.02 190.57 169.395 188.698 170.629L183.693 173.479C183.041 173.848 181.92 174.514 181.268 174.84C179.666 175.677 177.567 174.301 177.511 172.557L177.482 161.171C177.553 160.037 177.241 157.315 177.865 156.393C178.815 154.706 182.36 153.444 184.274 152.238L186.798 150.849C188.627 149.743 190.726 149.119 192.073 147.049C193.477 144.752 192.073 142.143 190.953 140.101C189.549 137.208 187.096 133.763 183.338 134.755C181.339 135.11 179.056 136.925 177.369 137.152C176.986 135.535 177.156 125.34 177.057 123.313C177.227 116.662 172.505 117.059 167.415 117.215C162.793 117.173 160.963 119.413 161.346 123.766C161.346 125.411 161.403 130.799 161.403 132.416C161.36 133.734 161.587 136.4 161.148 137.549C160.566 137.846 159.56 137.293 158.865 137.038C153.987 134.429 151.095 134.202 148.358 139.562C147.833 140.739 147.153 141.817 146.671 143.107C146.061 144.468 146.401 146.496 147.564 147.46C149.379 149.119 152.286 150.239 154.299 151.43C156.072 152.494 159.248 153.77 160.637 155.159C162.183 156.662 161.616 159.442 161.757 161.937C161.757 164.475 161.8 170.856 161.814 173.337C161.687 177.166 157.419 176.471 154.739 174.911L149.053 171.735C147.465 170.813 144.898 169.452 143.409 168.516C141.566 167.396 140.815 165.567 141.041 163.454C140.942 159.243 141.722 155.046 140.956 150.863C140.191 148.07 136.405 148.041 134.207 147.999C132.279 148.098 130.364 147.758 128.663 148.963C126.252 150.877 126.905 154.238 126.437 156.833C126.281 157.485 126.167 157.939 125.473 157.953C122.296 156.733 116.993 153.316 113.037 151.147C110.315 149.516 107.919 148.807 105.692 151.813C104.487 153.33 103.778 154.989 102.842 156.577C102.119 157.74 101.538 159.399 102.176 160.803C103.055 162.745 105.154 163.61 106.756 164.574C108.925 165.836 113.959 168.786 116.114 170.048C116.681 170.402 117.334 170.686 117.674 171.239C117.674 171.295 117.688 171.281 117.646 171.381C116.185 173.295 113.831 173.578 112.144 175.748C110.116 177.79 111.478 181.448 113.151 183.717L114.512 185.787C115.519 187.587 118 188.779 119.999 188.013C124.806 186.141 128.223 182.951 132.888 181.079C135.696 180.526 138.092 183.206 140.8 184.426C141.212 184.667 144.827 186.751 144.827 186.751C145.933 187.403 147.762 188.396 148.769 189.076C149.662 189.714 150.357 190.381 150.329 191.43C150.145 192.309 148.939 193.344 148.089 193.94C147.351 194.351 137.695 199.725 137.695 199.725C136.235 200.491 134.732 201.597 133.243 201.356C132.647 201.214 131.626 200.661 130.988 200.321C129.216 199.342 125.203 196.832 123.374 195.726C117.39 191.813 114.98 194.45 111.775 199.867C111.222 200.817 110.669 201.909 110.442 203.298C110.187 204.645 110.683 206.347 111.619 207.41C112.995 209.268 115.178 209.849 116.596 211.281C114.044 213.039 110.584 214.727 107.904 216.315C105.054 218.045 99.9639 219.803 100.985 224.227C102.034 227.247 103.296 229.686 105.423 232.167C106.004 232.763 106.586 233.429 107.89 233.911C110.471 234.677 113.136 232.706 115.107 231.685C117.135 230.622 122.793 227.261 125.09 226.155C125.714 229.672 124.962 234.28 129.684 235.613C132.194 236.336 134.25 235.967 136.547 235.882C139.879 235.925 142.502 233.826 142.658 230.452C142.856 226.297 142.374 222.001 142.573 217.988C142.559 217.463 142.63 217.066 142.927 216.641C144.118 215.11 146.897 214.004 148.599 212.926L153.108 210.359C154.115 209.807 155.916 208.729 156.936 208.204C158.269 207.524 160.212 208.318 160.354 209.863C160.396 210.289 160.382 211.692 160.382 212.26L160.396 222.667C160.34 225.361 160.552 226.34 158.425 227.474C154.739 229.785 150.244 231.458 146.756 234.167C142.956 237.797 146.727 242.788 149.039 246.233C149.662 247.027 150.754 248.048 152.271 248.388C153.789 248.7 154.966 248.332 155.901 248.048C157.404 247.609 159.333 246.616 160.368 246.191C160.368 246.432 160.368 246.701 160.396 246.985C160.524 251.48 160.368 256.145 160.495 260.795C160.85 266.836 166.876 266.354 171.343 266.155C174.278 266.198 177.44 264.808 177.525 261.348C177.865 257.548 177.61 252.997 177.596 249.197C177.61 248.601 177.582 246.786 177.695 245.879C179.17 246.205 180.644 247.254 182.19 247.765C185.494 249.253 188.5 247.311 190.215 244.22C191.279 242.249 192.286 240.448 192.683 238.364C193.037 233.812 187.876 232.664 184.898 230.806L183.537 230.111C181.764 229.218 180.02 228.367 178.56 227.332C177.922 226.864 177.624 226.496 177.44 225.815C177.255 225.12 177.213 224.184 177.199 223.206L177.029 211.38C177.029 210.657 177 209.112 177.014 208.488C177.085 207.169 178.489 206.12 179.779 206.403C180.46 206.517 181.538 207.254 182.204 207.58L182.119 207.538L193.845 214.032C195.887 215.01 196.894 216.159 196.922 218.442C196.936 220.625 196.894 222.922 196.88 225.163C197.092 227.914 195.873 232.096 198.893 233.883C201.984 234.961 205.217 234.861 208.365 234.209C209.116 233.954 209.84 233.472 210.322 232.805C212.009 230.48 210.946 227.318 211.952 224.893C212.207 224.44 212.534 224.354 213.129 224.51C214.263 224.865 215.455 225.673 216.646 226.269C219.042 227.573 224.941 231.019 227.308 232.111C228.656 232.834 230.428 232.621 231.449 231.416C233.349 229.02 235.079 226.411 235.816 223.39C235.972 220.654 232.796 219.704 230.91 218.484L230.825 218.428Z" fill="#D38734"/>
</svg>
