<svg width="159" height="159" viewBox="0 0 159 159" fill="none" xmlns="http://www.w3.org/2000/svg">
<g clip-path="url(#clip0_80_1716)">
<path d="M95.2825 142.965C130.38 134.202 151.728 98.6464 142.965 63.5492C134.202 28.4519 98.6464 7.10374 63.5492 15.8666C28.4519 24.6296 7.10374 60.1852 15.8666 95.2825C24.6296 130.38 60.1852 151.728 95.2825 142.965Z" fill="#FBF0DA"/>
<path d="M84.3501 38.1432L84.3453 38.2575L84.3406 38.3717L84.339 38.4453C84.3374 38.5455 84.3171 38.6237 84.2842 38.6785C84.2607 38.7708 84.1965 38.8334 84.0838 38.8615L83.9273 38.9006L83.7613 38.9021C83.6408 38.899 83.4781 38.8066 83.2888 38.6344C82.9649 38.3228 82.6551 38.0144 82.3515 37.7044C82.048 37.3944 81.7241 37.0562 81.3799 36.6899L79.7151 34.9239C79.579 34.7783 79.4585 34.6687 79.3615 34.5998C79.2645 34.5309 79.0877 34.4886 78.8404 34.4838C78.5993 34.4775 78.4491 34.5682 78.3958 34.7545C78.3425 34.9407 78.3143 35.1207 78.3095 35.2881L78.2319 38.4669C78.2287 38.5342 78.1927 38.6031 78.1176 38.675C78.0424 38.747 77.9579 38.7814 77.864 38.7783L77.6699 38.7735C77.5697 38.7719 77.4805 38.7343 77.4086 38.6592C77.3413 38.5762 77.31 38.5042 77.3132 38.4369L77.4526 32.6553C77.4558 32.455 77.4856 32.3079 77.5467 32.2062C77.6281 32.0528 77.7315 31.9605 77.8645 31.9339C77.9741 31.9199 78.1118 31.9121 78.273 31.9184C78.5344 31.9263 78.7691 32.0406 78.9882 32.2786L82.3051 35.8935C82.4788 36.0829 82.6556 36.1785 82.8372 36.1864C82.8779 36.1895 82.9045 36.1895 82.9295 36.1833C82.9483 36.1786 82.9859 36.1692 83.0297 36.1582C83.2582 36.0613 83.4039 35.8719 83.4634 35.6043L83.5661 32.4459C83.5693 32.3786 83.6053 32.3098 83.6789 32.2315C83.7525 32.1533 83.837 32.1189 83.9372 32.1205L84.1375 32.1237C84.2314 32.1268 84.3143 32.166 84.3879 32.2474C84.4614 32.3288 84.499 32.3992 84.4958 32.4665L84.3563 38.1683L84.3501 38.1432Z" fill="#C25630"/>
<path d="M85.0309 38.4722L87.0461 35.834L89.0737 33.1927C89.1222 33.1207 89.2115 33.0785 89.3461 33.0582C89.4807 33.0379 89.6153 33.0442 89.7561 33.0755C89.9111 33.11 90.0363 33.1585 90.1474 33.2306C90.2507 33.2979 90.3179 33.3809 90.3398 33.4685C90.5977 34.5548 90.8509 35.6489 91.1088 36.7618C91.3558 37.8575 91.5996 38.9672 91.8325 40.0864C91.8403 40.1443 91.8403 40.1975 91.8262 40.2476C91.8136 40.3039 91.7886 40.3634 91.7557 40.4181C91.7228 40.4729 91.643 40.4995 91.5178 40.5042L91.3519 40.4791L91.1829 40.4414L90.8354 40.3553C90.7791 40.3427 90.7274 40.2957 90.6789 40.2081C90.6586 40.1799 90.6258 40.075 90.5914 39.9107L90.5226 39.5554L90.4492 39.1547C90.3945 38.9355 90.3398 38.7696 90.274 38.6663C90.2083 38.563 90.1395 38.4738 90.0722 38.4174C90.03 38.3814 89.9783 38.361 89.9283 38.3469L89.8657 38.3359L89.8093 38.3234L89.7483 38.2921L89.0612 38.1244L88.5463 38.0069L87.864 37.858L87.3413 37.7623L87.2004 37.731C87.1441 37.7184 87.0909 37.7184 87.0439 37.7168L86.9375 37.77L86.8279 37.8373C86.7355 37.8936 86.6479 37.9687 86.5649 38.0626L86.3942 38.2848L86.1014 38.6572C86.0059 38.7808 85.876 38.9263 85.7116 39.0938C85.6865 39.1266 85.6458 39.1501 85.591 39.1704C85.5347 39.1845 85.4658 39.1751 85.3891 39.161L85.3406 39.1531C85.206 39.1202 85.1199 39.0951 85.0808 39.0717C84.9196 39.0387 84.8649 38.926 84.9041 38.7367L84.9354 38.649L85.0278 38.4863L85.0309 38.4722ZM88.1678 37.2101L88.7813 37.3762L88.8517 37.3919L88.9159 37.4091L88.9722 37.4216C89.0364 37.4389 89.099 37.4498 89.16 37.4546C89.2211 37.4593 89.2837 37.4702 89.3447 37.475C89.5137 37.5126 89.6625 37.4422 89.7909 37.2638C89.8519 37.1621 89.8973 37.051 89.924 36.9179C89.9616 36.7489 89.9679 36.5611 89.9539 36.3451C89.9461 36.1542 89.918 35.9617 89.8586 35.7769C89.771 35.5062 89.6475 35.3308 89.4941 35.2494L89.2453 35.1585L89.0981 35.1288C89.0981 35.1288 89.0309 35.1256 88.9808 35.1381C88.8462 35.1584 88.674 35.2679 88.4751 35.4838C88.3499 35.6215 88.2324 35.7905 88.1166 35.9924C88.0007 36.1943 87.9271 36.3789 87.8879 36.5417C87.8581 36.6622 87.8534 36.7765 87.8706 36.8719C87.8971 37.0582 87.9988 37.1725 88.1757 37.2148L88.1678 37.2101Z" fill="#C25630"/>
<path d="M96.6188 36.909C96.683 36.7134 96.6674 36.5177 96.5783 36.3205C96.4891 36.1233 96.3483 35.9855 96.1558 35.9072L96.3718 35.9996L95.8366 35.774L95.0933 35.4608L94.7098 35.2838C94.6566 35.2572 94.5925 35.1867 94.5158 35.0662C94.4533 34.9488 94.4517 34.8361 94.4956 34.7187C94.5332 34.6295 94.6021 34.5591 94.7085 34.5059C94.815 34.4528 94.9261 34.445 95.0372 34.4904L100.504 36.7772C100.622 36.8273 100.702 36.9071 100.73 37.0198C100.759 37.1325 100.757 37.2327 100.715 37.3297C100.674 37.433 100.582 37.5159 100.447 37.5628C100.315 37.5957 100.225 37.605 100.159 37.5815L99.4015 37.2651L98.6519 36.9535C98.5627 36.9159 98.4719 36.8986 98.3733 36.9033C98.281 36.9064 98.1808 36.9314 98.0853 36.9752C97.9037 37.0471 97.7613 37.1692 97.672 37.3444L95.7659 41.8577C95.7126 41.9907 95.6156 42.0548 95.4778 42.0626C95.3401 42.0704 95.2211 42.0469 95.11 42.0015C94.9989 41.9561 94.8925 41.8762 94.7955 41.7807C94.6969 41.6789 94.6751 41.5647 94.7346 41.4301L95.6759 39.1797L96.6219 36.9215L96.6188 36.909Z" fill="#C25630"/>
<path d="M107.639 41.5608C107.673 41.5123 107.75 41.4732 107.864 41.4513C107.974 41.4373 108.086 41.4624 108.182 41.525L108.388 41.6597C108.484 41.7223 108.545 41.8068 108.574 41.9258C108.604 42.0447 108.604 42.1246 108.565 42.1809L108.097 42.8898L107.691 43.5032L107.25 44.1588L106.449 45.3762L106.208 45.7424L106.099 45.9161C106.008 46.0585 105.892 46.1806 105.759 46.2869C105.626 46.3933 105.476 46.4841 105.3 46.5544C104.976 46.6952 104.649 46.7702 104.325 46.778C104.001 46.7857 103.632 46.6917 103.219 46.5022C102.806 46.3126 102.46 46.1263 102.191 45.954C101.912 45.7708 101.652 45.5829 101.418 45.3888C101.183 45.1946 100.959 44.9911 100.759 44.7751C100.559 44.559 100.39 44.3351 100.266 44.1066C100.142 43.8781 100.08 43.601 100.071 43.2708C100.046 42.8247 100.159 42.424 100.4 42.0579L102.822 38.3868C102.857 38.3383 102.933 38.2992 103.047 38.2773C103.163 38.2617 103.27 38.2884 103.373 38.3557L103.58 38.4904C103.675 38.553 103.738 38.6438 103.772 38.7549C103.806 38.8661 103.802 38.9537 103.763 39.01L101.353 42.678C101.248 42.8438 101.187 43.0254 101.19 43.2241C101.193 43.4229 101.222 43.6217 101.287 43.8252C101.36 44.0396 101.457 44.2416 101.595 44.42L101.798 44.6486L102.055 44.9038L102.238 45.051L102.382 45.1481L102.429 45.1762L102.604 45.2921C102.674 45.3344 102.739 45.3782 102.806 45.408C102.893 45.4659 102.97 45.5067 103.036 45.5302L103.388 45.6617C103.621 45.7432 103.831 45.7839 104.027 45.7684C104.222 45.7528 104.437 45.7059 104.662 45.623C104.765 45.5839 104.866 45.5323 104.963 45.4681C105.058 45.3977 105.133 45.3258 105.185 45.2397L107.623 41.578L107.639 41.5608Z" fill="#C25630"/>
<path d="M111.145 44.0175L112.664 45.5205L114.2 47.0392C114.438 47.2724 114.604 47.5636 114.714 47.9221C114.807 48.2179 114.784 48.5231 114.657 48.8408C114.59 48.9973 114.513 49.1428 114.427 49.2774C114.389 49.34 114.344 49.3979 114.3 49.462C114.256 49.5262 114.203 49.5794 114.145 49.6404C114.012 49.7734 113.885 49.8782 113.752 49.958C113.619 50.0378 113.478 50.0863 113.332 50.1159C113.046 50.1675 112.742 50.1768 112.431 50.1548C112.276 50.1469 112.101 50.1109 111.903 50.0404C111.706 49.9699 111.539 49.9119 111.404 49.879L111.183 50.5394C111.099 50.8133 111.047 51.0058 111.03 51.1232L110.821 52.3658L110.752 52.6757C110.734 52.7602 110.699 52.8353 110.655 52.8995C110.527 52.9715 110.347 52.89 110.118 52.6677L109.904 52.4485C109.842 52.3843 109.796 52.3092 109.781 52.22C109.726 52.0008 109.734 51.7395 109.815 51.4265L110.1 50.464L110.197 50.1338L110.281 49.8004C110.329 49.5954 110.351 49.3904 110.353 49.1838L110.259 48.9146L110.176 48.7424L110.124 48.6422L109.269 47.7983C109.084 47.6183 108.907 47.5493 108.724 47.5884C108.549 47.6322 108.362 47.712 108.167 47.834L107.558 48.4317L106.942 49.0575C106.884 49.1186 106.798 49.1467 106.687 49.1545C106.576 49.1623 106.496 49.1357 106.445 49.0887L106.11 48.7333C105.988 48.5642 106.007 48.3999 106.166 48.2403L108.253 46.1296L110.351 44.0095C110.48 43.8843 110.609 43.8186 110.743 43.8186C110.876 43.8187 111.013 43.8907 111.154 44.0285L111.145 44.0175ZM109.907 47.1599L110.755 47.9991L111.603 48.8383C111.744 48.976 111.882 49.0747 112.013 49.1483C112.149 49.2141 112.292 49.2517 112.433 49.2564C112.719 49.2581 112.993 49.1298 113.258 48.8576C113.444 48.6714 113.552 48.4116 113.577 48.0861C113.602 47.7605 113.532 47.5054 113.355 47.33L112.374 46.3578L111.393 45.3855C111.357 45.348 111.31 45.3198 111.252 45.301C111.194 45.2822 111.133 45.2775 111.057 45.29C110.87 45.3165 110.704 45.3978 110.549 45.523C110.473 45.5887 110.396 45.6544 110.33 45.7108C110.26 45.7749 110.196 45.8375 110.131 45.9001C110.014 46.0159 109.914 46.1473 109.82 46.2772C109.726 46.4071 109.688 46.5495 109.706 46.6982C109.704 46.7717 109.724 46.8531 109.76 46.9439C109.801 47.0269 109.853 47.1004 109.907 47.1599Z" fill="#C25630"/>
<path d="M111.465 53.3223L114.738 52.7646L118.019 52.2115C118.1 52.1912 118.2 52.2194 118.307 52.2993C118.419 52.3776 118.516 52.4731 118.591 52.5873C118.678 52.7188 118.742 52.8425 118.771 52.9615C118.801 53.0804 118.793 53.1822 118.749 53.2729C118.2 54.2416 117.639 55.2196 117.068 56.207C116.499 57.1804 115.924 58.1553 115.331 59.1349C115.296 59.1834 115.259 59.2194 115.213 59.2506C115.162 59.2835 115.109 59.3101 115.046 59.3257C114.983 59.3413 114.91 59.3132 114.816 59.2302L114.716 59.0955L114.62 58.9531L114.426 58.6557C114.394 58.604 114.389 58.532 114.412 58.4397C114.417 58.4052 114.466 58.3066 114.555 58.158L114.744 57.8513L114.965 57.5101C115.076 57.3161 115.148 57.1518 115.172 57.0328C115.195 56.9139 115.202 56.8059 115.191 56.7089C115.177 56.6525 115.164 56.6024 115.133 56.557L115.092 56.5007L115.061 56.4553L115.033 56.3958L114.639 55.8025L114.337 55.3657L113.941 54.7928L113.622 54.3669L113.539 54.248C113.507 54.2026 113.471 54.165 113.431 54.1352L113.315 54.0976L113.19 54.0757C113.079 54.0569 112.964 54.0522 112.847 54.0615L112.572 54.1037L112.105 54.1802C111.952 54.2052 111.758 54.2271 111.528 54.238C111.484 54.2489 111.44 54.2332 111.387 54.2066C111.338 54.1722 111.287 54.1252 111.244 54.0626L111.215 54.0234C111.133 53.9107 111.093 53.8278 111.083 53.7902C110.989 53.654 111.019 53.5335 111.179 53.4271L111.268 53.3849L111.446 53.327L111.465 53.3223ZM114.615 54.5378L114.949 55.0732L114.991 55.1358L115.032 55.1922L115.063 55.2376C115.104 55.294 115.136 55.3456 115.176 55.3957C115.215 55.4458 115.252 55.4896 115.298 55.5382C115.393 55.6806 115.551 55.7276 115.767 55.687C115.88 55.6589 115.992 55.6041 116.099 55.5243C116.241 55.4289 116.374 55.2959 116.512 55.1285C116.642 54.983 116.749 54.8234 116.824 54.645C116.946 54.3883 116.973 54.1755 116.918 54.0095L116.797 53.7669L116.707 53.6432C116.707 53.6432 116.661 53.5947 116.614 53.5665C116.502 53.4882 116.301 53.4584 116.012 53.4709C115.829 53.4833 115.627 53.5271 115.405 53.5959C115.182 53.6647 115.004 53.7491 114.861 53.8446C114.76 53.9165 114.678 53.9901 114.625 54.0699C114.517 54.2232 114.509 54.3782 114.612 54.5253L114.615 54.5378Z" fill="#C25630"/>
<path d="M119.915 59.5934L117.444 60.696C117.228 60.7899 117.049 60.9275 116.908 61.1091C116.766 61.2843 116.73 61.4596 116.806 61.6333L117.318 62.776L117.967 64.2302L118.553 65.5404C118.618 65.6907 118.561 65.8112 118.375 65.891L118.225 65.9551C118.034 66.0427 117.899 66.0098 117.833 65.8532L117.242 64.5243L116.318 62.4471L115.536 60.7001C115.506 60.6344 115.486 60.5796 115.481 60.5342C115.47 60.4904 115.478 60.4419 115.506 60.3949C115.547 60.3182 115.598 60.2588 115.677 60.2259L118.526 58.9559L121.368 57.6875C121.422 57.6609 121.505 57.6734 121.622 57.7173C121.727 57.7643 121.8 57.8457 121.855 57.9584L121.958 58.1854C122.004 58.2871 122.011 58.3982 121.98 58.5125C121.949 58.6267 121.9 58.6987 121.839 58.7206L120.881 59.146L119.933 59.5824L119.915 59.5934Z" fill="#C25630"/>
<path d="M122.339 70.6877L122.067 69.5185L121.797 68.3555C121.733 68.0988 121.614 67.9423 121.434 67.8874C121.252 67.8263 121.049 67.8106 120.828 67.8325L120.628 67.8825L120.419 67.9278L120.219 67.9778L120.023 68.02C119.792 68.0779 119.631 68.178 119.532 68.3423C119.433 68.5066 119.418 68.7101 119.474 68.9621L119.947 70.9922L120.418 73.0098C120.459 73.1726 120.372 73.2806 120.171 73.3243L120.001 73.3665C119.801 73.4166 119.679 73.3539 119.645 73.1896L118.996 70.405L118.349 67.6267C118.325 67.5328 118.336 67.4436 118.368 67.3559C118.405 67.2667 118.46 67.2198 118.542 67.1995L121.584 66.493L124.633 65.7849C124.709 65.7661 124.785 65.7802 124.86 65.8147C124.943 65.8538 124.998 65.9399 125.025 66.073L125.637 68.7136L126.25 71.3541C126.291 71.5169 126.205 71.6249 126.004 71.6749L125.835 71.7171C125.635 71.7671 125.513 71.7045 125.471 71.5354L125.008 69.5491L124.547 67.5691C124.503 67.3938 124.367 67.2748 124.138 67.2121C123.926 67.1589 123.705 67.1541 123.467 67.2135C123.242 67.2698 123.022 67.3777 122.821 67.5545C122.619 67.7313 122.546 67.9488 122.606 68.2133C122.623 68.2822 122.651 68.3949 122.678 68.5546C122.712 68.7189 122.726 68.8019 122.728 68.8081C122.747 68.8833 122.767 68.9647 122.79 69.0586C122.812 69.1462 122.837 69.2464 122.862 69.3466L123.128 70.4908C123.137 70.5283 123.147 70.5659 123.134 70.5956C123.128 70.6238 123.111 70.6614 123.084 70.7146L123.007 70.8069C122.981 70.8335 122.945 70.8491 122.901 70.8601L122.713 70.907C122.638 70.9257 122.56 70.9054 122.474 70.8537C122.4 70.7989 122.359 70.7425 122.342 70.6737L122.339 70.6877Z" fill="#C25630"/>
<path d="M119.808 74.725C119.799 74.6076 119.846 74.5027 119.935 74.4073C120.04 74.3212 120.129 74.279 120.207 74.2728C120.325 74.2634 120.434 74.3026 120.535 74.384L120.66 74.4858L120.796 74.5781L122.683 75.9294L124.565 77.2885C124.62 77.3214 124.681 77.3527 124.75 77.3888C124.819 77.4248 124.886 77.4545 124.952 77.478C125.018 77.5015 125.087 77.5109 125.143 77.5235C125.205 77.5345 125.265 77.5329 125.337 77.5282C125.442 77.522 125.529 77.5001 125.614 77.4657C125.699 77.4313 125.766 77.3812 125.828 77.3124C125.908 77.206 125.951 77.109 125.963 77.026L125.795 74.0882C125.795 74.035 125.823 73.9614 125.9 73.8691C125.977 73.7768 126.057 73.7236 126.149 73.7205L126.287 73.7127C126.379 73.7096 126.468 73.7472 126.548 73.8271C126.628 73.9069 126.673 73.9821 126.675 74.0415L126.978 79.3599C126.98 79.4194 126.944 79.4883 126.875 79.5853C126.798 79.6776 126.717 79.7245 126.626 79.7339L126.482 79.7432C126.397 79.751 126.314 79.7119 126.23 79.6399C125.488 79.1732 124.759 78.6769 124.031 78.1601L123.318 77.6466L122.601 77.1471L121.872 76.6507C121.728 76.5802 121.575 76.552 121.423 76.5567L121.255 76.5785C120.955 76.6269 120.811 76.7693 120.822 77.026L120.829 77.1371L120.993 80.0562C120.994 80.1156 120.96 80.1908 120.89 80.2815C120.819 80.3723 120.731 80.4208 120.639 80.4239L120.501 80.4316C120.415 80.4332 120.326 80.3956 120.234 80.3189C120.154 80.239 120.11 80.1701 120.109 80.1107L119.818 74.7359L119.808 74.725Z" fill="#C25630"/>
<path d="M120.713 81.0312L123.537 82.7803L126.365 84.5419C126.441 84.5827 126.49 84.6703 126.523 84.8018C126.556 84.9333 126.563 85.071 126.544 85.2087C126.524 85.3668 126.49 85.4951 126.432 85.6094C126.372 85.7174 126.299 85.7956 126.212 85.8237C125.159 86.1865 124.092 86.5462 123.011 86.909C121.942 87.2624 120.865 87.611 119.774 87.9566C119.718 87.9707 119.665 87.9707 119.61 87.9644C119.549 87.9597 119.491 87.9409 119.432 87.9158C119.372 87.8907 119.339 87.8125 119.322 87.6904L119.333 87.5214L119.35 87.3508L119.402 86.9986C119.407 86.9376 119.452 86.8797 119.532 86.8265C119.559 86.7999 119.656 86.7624 119.822 86.7076L120.168 86.6013L120.559 86.4903C120.773 86.4168 120.928 86.3449 121.029 86.2666C121.129 86.1884 121.204 86.1164 121.259 86.0429C121.287 85.996 121.307 85.9443 121.314 85.8895L121.323 85.8207L121.329 85.7659L121.353 85.7002L121.45 84.9975L121.511 84.47L121.598 83.7767L121.638 83.2477L121.656 83.1037C121.662 83.0489 121.662 82.9957 121.649 82.9456L121.584 82.8423L121.506 82.7421C121.437 82.6529 121.351 82.5746 121.26 82.5041L121.024 82.3569L120.628 82.1033C120.495 82.0234 120.338 81.9029 120.157 81.7619C120.124 81.7369 120.094 81.6977 120.068 81.6445C120.053 81.5882 120.049 81.5162 120.057 81.4411L120.064 81.3925C120.083 81.2548 120.101 81.164 120.118 81.1265C120.137 80.9621 120.246 80.8949 120.431 80.9153L120.523 80.9388L120.694 81.0093L120.713 81.0312ZM122.278 84.0258L122.175 84.6502L122.167 84.7253L122.158 84.7942L122.151 84.849C122.142 84.9178 122.137 84.9789 122.132 85.0399C122.128 85.101 122.131 85.1667 122.132 85.2262C122.109 85.3983 122.196 85.5361 122.384 85.6488C122.491 85.7021 122.611 85.7319 122.743 85.7522C122.913 85.7695 123.104 85.7617 123.315 85.7289C123.51 85.7071 123.696 85.6539 123.87 85.5773C124.126 85.46 124.292 85.3254 124.358 85.1627L124.427 84.906L124.443 84.7558C124.443 84.7558 124.438 84.6838 124.421 84.6415C124.388 84.51 124.261 84.3488 124.031 84.1734C123.884 84.0638 123.699 83.9636 123.488 83.8634C123.279 83.7694 123.084 83.7114 122.92 83.6926C122.796 83.6769 122.685 83.6847 122.59 83.7019C122.402 83.7488 122.303 83.8599 122.281 84.0383L122.278 84.0258Z" fill="#C25630"/>
<path d="M119.01 89.4777C119.206 89.196 119.447 89.0959 119.738 89.1696L119.838 89.1978C119.881 89.2072 119.912 89.226 119.949 89.2432C120.12 89.2871 120.248 89.428 120.323 89.6753C120.369 89.8303 120.378 89.9743 120.339 90.1104C120.311 90.2372 120.235 90.3624 120.127 90.4891C120.019 90.6159 119.882 90.7035 119.714 90.7519C119.539 90.7957 119.379 90.7957 119.216 90.7565C119.146 90.7408 119.065 90.7079 118.974 90.6641C118.889 90.6186 118.77 90.5419 118.615 90.4276C118.467 90.3118 118.343 90.2162 118.262 90.1301C118.058 89.9282 117.982 89.7544 118.029 89.623C118.071 89.5259 118.171 89.4743 118.32 89.4838L118.455 89.5167L118.577 89.5527L118.645 89.5621C118.73 89.5809 118.844 89.559 118.998 89.4808L119.01 89.4777Z" fill="#C25630"/>
<path d="M118.825 98.2768C118.904 98.0843 118.907 97.884 118.824 97.6852C118.747 97.4848 118.609 97.333 118.419 97.2343L118.503 97.2797L118.619 97.3439L118.666 97.3721L118.589 97.3314L117.969 97.0072L117.151 96.5797L116.722 96.3542C116.669 96.3276 116.624 96.2524 116.588 96.135C116.56 96.0223 116.58 95.9175 116.639 95.8095L116.752 95.5951C116.802 95.5028 116.884 95.4292 117 95.387C117.117 95.3511 117.2 95.337 117.252 95.3574L122.757 98.253C122.81 98.2796 122.854 98.3485 122.884 98.4674C122.912 98.5801 122.905 98.6881 122.852 98.7945L122.739 99.0089C122.685 99.1091 122.603 99.1826 122.494 99.2233C122.384 99.2639 122.299 99.2717 122.238 99.2404L121.45 98.8254L120.661 98.4104C120.454 98.3024 120.268 98.2757 120.096 98.332C119.924 98.3883 119.774 98.5056 119.636 98.6997L119.326 99.2959L118.699 100.49L118.173 101.499L118.154 101.531C118.056 101.721 118.035 101.933 118.109 102.147C118.178 102.369 118.317 102.528 118.523 102.636L119.281 103.032L120.038 103.428C120.091 103.455 120.135 103.524 120.165 103.643C120.193 103.755 120.188 103.869 120.129 103.977L120.016 104.192C119.961 104.292 119.88 104.366 119.77 104.406C119.661 104.447 119.576 104.455 119.515 104.423L116.737 102.968L114.005 101.536C113.952 101.509 113.907 101.434 113.871 101.316C113.842 101.204 113.863 101.099 113.916 100.992L114.029 100.778C114.087 100.664 114.168 100.59 114.272 100.551C114.375 100.512 114.459 100.504 114.522 100.542L115.433 101.019L116.35 101.496C116.725 101.615 117.035 101.524 117.275 101.205L118.044 99.729L118.814 98.2596L118.825 98.2768Z" fill="#C25630"/>
<path d="M117.884 106.659C117.933 106.694 117.966 106.772 117.981 106.888C117.997 107.004 117.972 107.116 117.903 107.213L117.761 107.415C117.698 107.511 117.606 107.567 117.487 107.597C117.368 107.626 117.286 107.62 117.23 107.581L112.149 103.987C112.101 103.953 112.06 103.87 112.044 103.754C112.03 103.645 112.063 103.537 112.132 103.44L112.275 103.238C112.343 103.141 112.433 103.072 112.547 103.05C112.66 103.022 112.743 103.034 112.805 103.072L117.886 106.666L117.884 106.659Z" fill="#C25630"/>
<path d="M109.856 106.23C109.955 106.118 110.177 105.943 110.511 105.707C110.815 105.485 111.112 105.344 111.398 105.293C111.624 105.236 111.804 105.264 111.932 105.379L112.015 105.471C112.123 105.637 112.129 105.769 112.037 105.878L111.976 105.927C111.811 106.041 111.666 106.124 111.534 106.183C111.428 106.236 111.304 106.3 111.162 106.396C111.019 106.491 110.847 106.601 110.654 106.735C110.484 106.851 110.305 106.989 110.124 107.141C110.036 107.216 109.961 107.288 109.891 107.352C109.822 107.422 109.742 107.502 109.657 107.59C109.626 107.624 109.579 107.676 109.516 107.745C109.454 107.813 109.411 107.857 109.386 107.89C109.308 107.976 109.239 108.073 109.178 108.175C109.048 108.374 108.959 108.575 108.918 108.785C108.835 109.172 108.945 109.504 109.254 109.785L109.333 109.859L109.389 109.898C109.649 110.086 109.957 110.042 110.323 109.778C110.627 109.556 110.812 109.416 110.884 109.359C111.089 109.194 111.272 109.022 111.429 108.85C111.627 108.661 111.812 108.495 111.977 108.354C112.141 108.213 112.318 108.069 112.495 107.925C112.827 107.656 113.171 107.491 113.518 107.417C113.908 107.326 114.271 107.395 114.6 107.619L114.864 107.826C115.038 107.989 115.182 108.166 115.287 108.372C115.507 108.776 115.56 109.202 115.466 109.651C115.366 110.102 115.205 110.521 114.981 110.903C114.92 111.005 114.871 111.077 114.837 111.125C114.802 111.174 114.757 111.232 114.699 111.293L114.279 111.77C114.132 111.926 113.977 112.078 113.811 112.213C113.647 112.354 113.45 112.496 113.234 112.643C112.844 112.92 112.49 113.101 112.166 113.189C111.884 113.259 111.662 113.222 111.498 113.07L111.438 113.018L111.387 112.944C111.29 112.796 111.291 112.669 111.391 112.564L111.473 112.491C111.597 112.4 111.751 112.328 111.933 112.283C112.121 112.236 112.245 112.198 112.31 112.168C112.501 112.081 112.722 111.953 112.972 111.784L113.378 111.489C113.439 111.441 113.494 111.394 113.542 111.349C113.591 111.303 113.65 111.249 113.707 111.181C113.807 111.076 113.888 110.976 113.967 110.89C114.045 110.804 114.115 110.713 114.189 110.609C114.264 110.51 114.338 110.379 114.405 110.222C114.565 109.85 114.563 109.524 114.405 109.238C114.343 109.12 114.272 109.025 114.196 108.957C114.056 108.826 113.886 108.782 113.681 108.813C113.457 108.849 113.191 108.982 112.882 109.212L111.962 109.974L111.483 110.373C111.423 110.428 111.38 110.465 111.356 110.478C111.334 110.497 111.272 110.539 111.17 110.611C110.902 110.817 110.633 110.991 110.359 111.119C110.085 111.247 109.811 111.322 109.548 111.335C109.285 111.347 109.013 111.269 108.744 111.097L108.562 110.956L108.453 110.863C108.248 110.682 108.096 110.474 107.985 110.242C107.85 109.943 107.805 109.628 107.852 109.284C107.927 108.68 108.17 108.107 108.577 107.553L108.781 107.303L109.047 107.01L109.215 106.829L109.838 106.208L109.856 106.23Z" fill="#C25630"/>
<path d="M107.36 115.786C107.498 115.937 107.673 116.027 107.891 116.045C108.109 116.064 108.296 116.017 108.464 115.889L108.273 116.03L108.738 115.681L109.381 115.195L109.727 114.955C109.771 114.918 109.867 114.9 110.012 114.897C110.14 114.905 110.247 114.958 110.319 115.06C110.377 115.132 110.402 115.232 110.392 115.354C110.383 115.477 110.334 115.575 110.239 115.646L105.506 119.202C105.4 119.281 105.293 119.308 105.181 119.283C105.066 119.252 104.987 119.198 104.919 119.115C104.851 119.026 104.827 118.906 104.852 118.766C104.887 118.638 104.924 118.549 104.981 118.508L105.637 118.018L106.286 117.53C106.365 117.471 106.427 117.402 106.473 117.318C106.518 117.233 106.548 117.139 106.554 117.031C106.585 116.837 106.546 116.654 106.445 116.486L103.516 112.562C103.435 112.449 103.419 112.333 103.488 112.21C103.557 112.086 103.633 111.994 103.729 111.923C103.824 111.853 103.943 111.797 104.081 111.762C104.219 111.728 104.328 111.767 104.418 111.884L105.882 113.833L107.356 115.793L107.36 115.786Z" fill="#C25630"/>
<path d="M99.9438 122.313C98.8746 122.826 97.8635 122.959 96.912 122.717C96.4362 122.597 96.0153 122.376 95.6351 122.052C95.2564 121.734 94.9294 121.277 94.6494 120.688C94.5838 120.558 94.5321 120.432 94.4977 120.32C94.4633 120.209 94.4383 120.083 94.4118 119.949C94.3712 119.707 94.3587 119.444 94.3901 119.17C94.4356 118.686 94.5782 118.218 94.8209 117.779C95.0433 117.391 95.322 117.042 95.6633 116.73C96.0046 116.419 96.4038 116.153 96.8546 115.934C97.307 115.721 97.7437 115.579 98.171 115.506C98.5999 115.438 99.0334 115.443 99.4669 115.528C99.9208 115.614 100.365 115.796 100.794 116.075C101.004 116.222 101.199 116.392 101.376 116.594C101.461 116.693 101.539 116.793 101.615 116.914C101.692 117.034 101.761 117.15 101.82 117.282C102.346 118.374 102.377 119.404 101.935 120.379C101.539 121.216 100.869 121.862 99.925 122.318L99.9438 122.313ZM100.826 117.749C100.459 117.156 100.013 116.755 99.4791 116.563C98.7937 116.321 98.0581 116.385 97.2675 116.762C96.5365 117.111 96.0293 117.557 95.7443 118.094C95.4358 118.67 95.4074 119.355 95.6732 120.153C95.8828 120.593 96.1096 120.942 96.3553 121.207C96.6009 121.471 96.8748 121.662 97.1893 121.777C97.554 121.905 97.9515 121.952 98.385 121.904C98.5729 121.884 98.7748 121.84 98.9861 121.781C99.0737 121.759 99.1708 121.721 99.2788 121.674C99.3884 121.634 99.4839 121.59 99.5793 121.546C99.93 121.379 100.224 121.172 100.473 120.917C100.716 120.664 100.909 120.369 101.039 120.038C101.317 119.369 101.303 118.701 100.987 118.048L100.928 117.917L100.825 117.743L100.826 117.749Z" fill="#C25630"/>
<path d="M93.0533 124.978L90.9731 125.464L88.8678 125.956C88.5485 126.036 88.2058 126.022 87.8474 125.918C87.5485 125.84 87.3028 125.655 87.101 125.38C87.0055 125.237 86.9179 125.1 86.8476 124.951C86.8178 124.885 86.7881 124.819 86.7631 124.746C86.7381 124.672 86.7131 124.599 86.6943 124.524C86.649 124.342 86.6334 124.173 86.635 124.02C86.6366 123.866 86.6664 123.719 86.7243 123.578C86.8371 123.311 86.9843 123.048 87.1753 122.801C87.263 122.672 87.3914 122.547 87.5526 122.42C87.7201 122.292 87.8516 122.179 87.9612 122.085L87.5216 121.55C87.3339 121.331 87.1977 121.185 87.1117 121.107L86.176 120.263L85.9538 120.039C85.8912 119.975 85.8474 119.906 85.8177 119.84C85.8271 119.692 85.9868 119.585 86.2999 119.507L86.6004 119.432C86.6912 119.423 86.7788 119.428 86.8602 119.46C87.0699 119.528 87.2937 119.678 87.5127 119.916L88.173 120.669L88.3967 120.926L88.6314 121.173C88.7753 121.324 88.9412 121.455 89.1133 121.558L89.3888 121.623L89.5797 121.641L89.694 121.646L90.8632 121.374C91.1136 121.312 91.2718 121.199 91.3282 121.025C91.3846 120.852 91.4144 120.651 91.4176 120.424L91.2363 119.592L91.0362 118.737C91.0159 118.656 91.0331 118.565 91.0942 118.463C91.1505 118.369 91.2147 118.307 91.2789 118.297L91.7532 118.199C91.9629 118.186 92.0881 118.288 92.1428 118.507L92.818 121.398L93.4902 124.303C93.5339 124.479 93.5167 124.623 93.4446 124.734C93.3726 124.845 93.2396 124.925 93.0455 124.973L93.0533 124.978ZM91.057 122.257L89.894 122.527L88.7311 122.798C88.5432 122.845 88.3789 122.906 88.2521 122.984C88.1253 123.062 88.0172 123.162 87.9405 123.281C87.7871 123.519 87.7494 123.821 87.8354 124.192C87.8995 124.449 88.0559 124.676 88.3188 124.876C88.5817 125.077 88.8321 125.147 89.0763 125.086L90.4224 124.777L91.7669 124.461C91.817 124.448 91.8702 124.422 91.9156 124.391C91.9595 124.353 92.0002 124.303 92.0284 124.229C92.0988 124.059 92.1271 123.879 92.1037 123.679C92.0912 123.575 92.074 123.48 92.0584 123.391C92.0427 123.301 92.0271 123.212 92.0052 123.124C91.9646 122.962 91.9192 122.807 91.8488 122.658C91.7847 122.508 91.6846 122.4 91.5563 122.339C91.4937 122.301 91.4139 122.274 91.3153 122.252C91.2198 122.243 91.1337 122.245 91.0586 122.263L91.057 122.257Z" fill="#C25630"/>
<path d="M84.5577 126.274C84.5655 126.332 84.531 126.407 84.4543 126.5C84.3776 126.592 84.2774 126.644 84.1616 126.659L83.9159 126.687C83.8063 126.701 83.6999 126.675 83.6029 126.606C83.5058 126.537 83.4495 126.471 83.4464 126.405L82.7596 120.218C82.7503 120.154 82.791 120.077 82.8661 119.979C82.9444 119.893 83.0384 119.843 83.162 119.832L83.4077 119.804C83.5314 119.793 83.6362 119.813 83.7333 119.882C83.8287 119.945 83.8803 120.018 83.885 120.09L84.5718 126.277L84.5577 126.274Z" fill="#C25630"/>
<path d="M82.3113 120.636L80.8846 123.633L79.4469 126.639C79.414 126.72 79.3357 126.78 79.2074 126.825C79.079 126.871 78.9444 126.891 78.8051 126.892C78.6455 126.892 78.5124 126.866 78.3951 126.822C78.2777 126.778 78.201 126.711 78.1541 126.629C77.677 125.624 77.2015 124.599 76.7245 123.567C76.2568 122.547 75.7923 121.512 75.3309 120.463C75.3168 120.407 75.3043 120.357 75.3043 120.304C75.3028 120.244 75.3138 120.182 75.3388 120.122C75.3576 120.064 75.4328 120.019 75.5517 119.989L75.7161 119.981L75.8835 119.986L76.2388 119.997C76.2983 119.996 76.3609 120.033 76.4203 120.111C76.4469 120.138 76.497 120.232 76.5689 120.387L76.7113 120.717L76.8661 121.098C76.9646 121.306 77.0538 121.45 77.1367 121.542C77.2259 121.633 77.3089 121.699 77.3871 121.746C77.4403 121.772 77.4904 121.786 77.5436 121.787L77.6109 121.79L77.6641 121.79L77.7283 121.807L78.4388 121.829L78.9663 121.837L79.6659 121.842L80.1949 121.83L80.342 121.833C80.3953 121.833 80.4532 121.825 80.497 121.814L80.5909 121.737L80.6817 121.648C80.7616 121.568 80.832 121.478 80.8931 121.376L81.0106 121.127L81.2173 120.703C81.2815 120.561 81.3786 120.39 81.5039 120.199C81.5211 120.162 81.5587 120.126 81.6119 120.099C81.6667 120.079 81.7371 120.068 81.8107 120.069L81.8576 120.071C81.9969 120.069 82.0861 120.08 82.1299 120.096C82.2959 120.094 82.3741 120.195 82.3756 120.387L82.3599 120.484L82.3051 120.664L82.3113 120.636ZM79.5029 122.521L78.8691 122.487L78.7955 122.485L78.7282 122.482L78.675 122.482C78.6077 122.479 78.5419 122.482 78.4825 122.483C78.423 122.485 78.3588 122.494 78.2946 122.504C78.1209 122.5 77.9925 122.599 77.9033 122.801C77.8641 122.91 77.8422 123.036 77.8421 123.169C77.8374 123.336 77.8717 123.527 77.9312 123.738C77.978 123.926 78.05 124.108 78.1438 124.271C78.2846 124.515 78.4411 124.662 78.6054 124.707L78.8684 124.748L79.0202 124.743C79.0202 124.743 79.0906 124.733 79.1329 124.715C79.2612 124.67 79.4037 124.521 79.5556 124.277C79.648 124.115 79.7279 123.928 79.7984 123.704C79.8689 123.481 79.9065 123.285 79.9112 123.118C79.9128 122.991 79.8988 122.881 79.8628 122.79C79.7987 122.614 79.6751 122.518 79.4951 122.516L79.5029 122.521Z" fill="#C25630"/>
<path d="M68.1096 121.242C68.0908 121.3 68.0986 121.385 68.1205 121.499L68.1956 121.719L68.2659 121.948C68.4395 122.51 68.6428 123.084 68.8648 123.681C68.9227 123.833 68.9915 124.028 69.076 124.26C69.1323 124.406 69.1995 124.595 69.2793 124.834C69.3293 124.982 69.3981 125.177 69.4779 125.417C69.4935 125.479 69.4794 125.556 69.4543 125.642C69.4371 125.706 69.3964 125.756 69.3431 125.783C69.2899 125.81 69.1569 125.809 68.9597 125.792L68.8892 125.777L68.8329 125.764L68.7046 125.73L68.5966 125.697C68.426 125.626 68.3008 125.551 68.221 125.471C68.16 125.413 68.1037 125.321 68.0646 125.191L67.8051 124.098C67.7317 123.804 67.6191 123.433 67.4705 122.998C67.4314 122.895 67.3313 122.787 67.1685 122.694L67.0418 122.639C67.0418 122.639 66.9776 122.622 66.9416 122.611C66.9088 122.613 66.8806 122.607 66.8618 122.611C66.6975 122.592 66.5723 122.624 66.4783 122.7L64.4964 124.273C64.3962 124.351 64.2913 124.384 64.1896 124.376L63.9032 124.321C63.8093 124.291 63.7248 124.246 63.6559 124.183C63.6121 124.141 63.5887 124.074 63.5981 123.978C63.6279 123.911 63.6733 123.853 63.7374 123.79C63.966 123.587 64.1852 123.399 64.4075 123.224C64.6298 123.049 64.8584 122.872 65.1057 122.69L65.7992 122.165L66.4818 121.622L66.6775 121.42L66.8685 121.173L66.9311 121.077L66.9828 120.965L67.6425 118.652C67.6816 118.516 67.7693 118.44 67.9102 118.419C68.051 118.397 68.1731 118.406 68.2795 118.433C68.4 118.463 68.5096 118.528 68.6238 118.613C68.738 118.697 68.7677 118.816 68.7301 118.959L68.5844 119.521L68.4168 120.101L68.293 120.538L68.1049 121.25L68.1096 121.242Z" fill="#C25630"/>
<path d="M56.059 118.877C55.965 119.06 55.9556 119.262 56.0134 119.467C56.0728 119.678 56.1917 119.834 56.3717 119.943L56.1683 119.82L56.6627 120.123L57.3528 120.542L57.7034 120.774C57.7581 120.807 57.8051 120.888 57.8567 121.015C57.9005 121.137 57.8895 121.253 57.8237 121.363C57.7767 121.441 57.6922 121.502 57.5826 121.542C57.473 121.583 57.3635 121.571 57.2539 121.505L52.1901 118.432C52.079 118.36 52.0102 118.271 52.0024 118.16C51.9946 118.049 52.0087 117.946 52.0604 117.86C52.1168 117.766 52.2201 117.7 52.3578 117.666C52.4924 117.645 52.5879 117.655 52.6427 117.688L53.3406 118.112L54.0369 118.53C54.123 118.582 54.2106 118.613 54.3061 118.623C54.4016 118.632 54.5002 118.627 54.6051 118.594C54.7992 118.546 54.9541 118.447 55.0747 118.291L57.6365 114.113C57.7133 113.994 57.8134 113.942 57.9496 113.955C58.0858 113.967 58.2031 114.011 58.3049 114.072C58.4081 114.14 58.502 114.223 58.5849 114.342C58.6678 114.461 58.6694 114.573 58.5942 114.698L57.3258 116.784L56.0527 118.878L56.059 118.877Z" fill="#C25630"/>
<path d="M49.42 116.291L47.8334 114.864L46.2295 113.422C45.9823 113.205 45.7977 112.918 45.6773 112.569C45.5725 112.283 45.5758 111.976 45.6932 111.647C45.7528 111.486 45.8217 111.336 45.9 111.196C45.9376 111.134 45.9751 111.071 46.019 111.007C46.0628 110.943 46.1082 110.885 46.1662 110.824C46.2914 110.686 46.4167 110.575 46.5482 110.489C46.6797 110.403 46.8111 110.344 46.9567 110.314C47.24 110.25 47.5405 110.228 47.8551 110.236C48.0069 110.231 48.1885 110.266 48.3841 110.33C48.586 110.393 48.7503 110.438 48.8912 110.47L49.0761 109.798C49.1466 109.521 49.1905 109.324 49.2077 109.207L49.3615 107.958L49.4163 107.645C49.4352 107.56 49.4618 107.48 49.4994 107.418C49.6262 107.34 49.8093 107.407 50.0424 107.621L50.2677 107.831C50.3366 107.894 50.3804 107.963 50.4023 108.05C50.4695 108.266 50.4694 108.532 50.4083 108.847L50.1654 109.819L50.0823 110.152L50.0196 110.487C49.9773 110.691 49.9631 110.9 49.9803 111.102L50.0851 111.362L50.1789 111.525L50.2368 111.624L51.1287 112.425C51.318 112.597 51.5058 112.657 51.6796 112.607C51.8533 112.557 52.0365 112.465 52.2243 112.338L52.8067 111.714L53.3892 111.063C53.4471 111.002 53.5301 110.961 53.6412 110.953C53.7523 110.945 53.8368 110.964 53.8885 111.011L54.239 111.349C54.3657 111.511 54.3609 111.678 54.2091 111.842L52.2269 114.053L50.2323 116.267C50.1133 116.403 49.9834 116.469 49.8519 116.475C49.7141 116.483 49.578 116.417 49.4262 116.289L49.42 116.291ZM50.5103 113.092L49.6262 112.295L48.7343 111.493C48.5888 111.363 48.4449 111.266 48.3103 111.207C48.1679 111.142 48.0286 111.117 47.883 111.12C47.5997 111.131 47.3305 111.278 47.08 111.554C46.9031 111.751 46.8091 112.014 46.798 112.342C46.787 112.671 46.8745 112.915 47.056 113.083L48.084 114.003L49.1121 114.924C49.1543 114.96 49.2012 114.988 49.2576 115.001C49.3139 115.013 49.3812 115.016 49.4579 115.004C49.6411 114.965 49.807 114.884 49.9526 114.747C50.0277 114.675 50.0982 114.611 50.1624 114.549C50.2266 114.486 50.2892 114.417 50.3534 114.355C50.4614 114.228 50.5616 114.097 50.6477 113.962C50.7323 113.821 50.7636 113.68 50.7402 113.533C50.7355 113.461 50.7152 113.38 50.6793 113.289C50.6323 113.208 50.5823 113.14 50.5212 113.082L50.5103 113.092Z" fill="#C25630"/>
<path d="M48.6613 107.022L45.415 107.739L42.1609 108.452C42.0795 108.472 41.9809 108.45 41.8698 108.378C41.7587 108.306 41.6554 108.212 41.5678 108.101C41.4708 107.979 41.4066 107.855 41.3691 107.732C41.3316 107.608 41.3332 107.508 41.3786 107.423C41.8813 106.426 42.3966 105.426 42.9212 104.411C43.4427 103.409 43.972 102.412 44.5123 101.406C44.5405 101.359 44.5765 101.317 44.6219 101.286C44.6657 101.248 44.7252 101.22 44.7862 101.198C44.8488 101.183 44.9271 101.203 45.021 101.286L45.1321 101.411L45.2322 101.546L45.4371 101.834C45.4747 101.878 45.4809 101.956 45.4637 102.047C45.4605 102.087 45.4167 102.178 45.3353 102.332L45.1614 102.648L44.9563 102.998C44.8529 103.197 44.795 103.364 44.7715 103.483C44.7558 103.607 44.7495 103.715 44.7651 103.804C44.7792 103.86 44.7917 103.911 44.8292 103.954L44.8683 104.004L44.8996 104.05L44.9278 104.109L45.3502 104.682L45.674 105.1L46.0996 105.659L46.4344 106.068L46.5236 106.185C46.5611 106.229 46.5971 106.267 46.6378 106.296L46.7583 106.326L46.8819 106.342C46.9915 106.354 47.1057 106.359 47.2278 106.342L47.4971 106.275L47.9604 106.186C48.1106 106.148 48.3047 106.126 48.5379 106.101C48.5818 106.09 48.624 106.1 48.6835 106.125C48.7382 106.158 48.7836 106.206 48.8306 106.261L48.8603 106.3C48.9416 106.413 48.9933 106.486 49.0042 106.53C49.1028 106.659 49.0746 106.785 48.9243 106.903L48.8429 106.95L48.6676 107.02L48.6613 107.022ZM45.4562 105.96L45.0933 105.438L45.0448 105.377L45.0057 105.327L44.9681 105.283C44.929 105.233 44.8899 105.183 44.8508 105.133C44.8117 105.083 44.7678 105.041 44.7178 105C44.6098 104.861 44.4533 104.82 44.2405 104.873C44.1293 104.907 44.0182 104.968 43.9133 105.054C43.7786 105.155 43.6471 105.294 43.5187 105.472C43.3966 105.622 43.2995 105.793 43.2306 105.97C43.1241 106.236 43.1037 106.447 43.1694 106.604L43.3008 106.837L43.3962 106.953C43.3962 106.953 43.4478 107 43.4932 107.022C43.6122 107.098 43.8094 107.116 44.102 107.089C44.2883 107.063 44.4887 107.013 44.7031 106.939C44.9222 106.858 45.0991 106.767 45.2338 106.667C45.334 106.589 45.4075 106.51 45.4608 106.431C45.561 106.273 45.5626 106.119 45.4531 105.974L45.4562 105.96Z" fill="#C25630"/>
<path d="M40.6025 94.268L40.7027 94.2164L40.8029 94.1648L40.8686 94.1351C40.9578 94.0928 41.033 94.0741 41.1065 94.0757C41.2004 94.0522 41.2881 94.0836 41.3616 94.165L41.4602 94.2933L41.5415 94.4327C41.5963 94.5454 41.5884 94.7269 41.5179 94.9773C41.3925 95.4077 41.2656 95.8318 41.1356 96.2434C41.0056 96.655 40.8568 97.0979 40.6891 97.5721L39.898 99.8647C39.8323 100.054 39.7915 100.211 39.7743 100.328C39.757 100.445 39.8008 100.621 39.9165 100.845C40.0245 101.064 40.1731 101.153 40.3625 101.112C40.5519 101.072 40.7256 101.022 40.8791 100.943L43.7265 99.5341C43.7922 99.5044 43.8642 99.4997 43.9659 99.5342C44.0598 99.5639 44.1349 99.625 44.1772 99.7142L44.2616 99.8927C44.3054 99.9882 44.3085 100.08 44.2788 100.174C44.2365 100.271 44.1926 100.336 44.1331 100.364L38.9455 102.923C38.7671 103.007 38.6184 103.051 38.5057 103.052C38.3335 103.056 38.2005 103.002 38.1144 102.897C38.0456 102.808 37.9815 102.685 37.9064 102.544C37.7953 102.312 37.7829 102.049 37.8925 101.742L39.553 97.1241C39.6391 96.8831 39.6423 96.6827 39.5673 96.5152C39.5516 96.4792 39.5328 96.4573 39.5219 96.4401C39.5109 96.4229 39.4843 96.3963 39.4499 96.365C39.2575 96.2068 39.0274 96.1645 38.7535 96.2395L35.9108 97.6144C35.8513 97.6426 35.773 97.6488 35.6713 97.6143C35.5712 97.5861 35.496 97.5251 35.4538 97.4358L35.3615 97.2527C35.3209 97.1697 35.3178 97.0774 35.3522 96.9757C35.3867 96.8739 35.4368 96.8082 35.4963 96.7801L40.6056 94.2539L40.6025 94.268Z" fill="#C25630"/>
<path d="M39.8099 88.2937C39.8209 88.3375 39.8318 88.3814 39.8428 88.4252C39.8537 88.469 39.8647 88.5129 39.8897 88.5598L40.0085 88.8494L40.1086 89.1171L40.1978 89.3941C40.3244 89.8747 40.3853 90.3317 40.3742 90.7668C40.3631 91.2019 40.2753 91.6229 40.1124 92.036C39.9401 92.4648 39.6818 92.8686 39.3342 93.2347C39.1526 93.4131 38.9459 93.5711 38.7158 93.715C38.6062 93.7823 38.4873 93.8386 38.3605 93.8902C38.2337 93.9418 38.0991 93.9887 37.9551 94.0247C36.789 94.3358 35.767 94.1852 34.8876 93.5667C34.1333 93.0234 33.6265 92.2454 33.3544 91.2358C33.048 90.0884 33.1016 89.0774 33.5166 88.1822C33.7249 87.7378 34.0177 87.3654 34.4044 87.0494C34.7864 86.7411 35.292 86.5018 35.9275 86.3299C36.2906 86.2392 36.6475 86.2033 36.998 86.2488C37.3486 86.2943 37.7007 86.3993 38.0497 86.5715C38.0826 86.57 38.142 86.5684 38.2203 86.5622C38.3048 86.5544 38.3878 86.5403 38.4692 86.52L38.6007 86.4872C38.6007 86.4872 38.6492 86.4684 38.6789 86.4543C38.7102 86.4465 38.7572 86.4215 38.8229 86.3918C38.8824 86.3636 38.9419 86.3089 38.9826 86.2322C39.0233 86.1555 39.1048 86.0554 39.2081 85.9364C39.2723 85.8739 39.3412 85.8301 39.4038 85.8144C39.4789 85.7957 39.5587 85.7957 39.6385 85.8223C39.8842 85.9007 40.0298 86.0306 40.0845 86.2231C40.1126 86.3358 40.0891 86.4548 40.0077 86.5815L39.8699 86.8022L39.7352 87.0353C39.6413 87.1918 39.5958 87.3561 39.5895 87.5173L39.6098 87.6786L39.6551 87.8601L39.6676 87.9102L39.7943 88.2843L39.8099 88.2937ZM37.6846 92.9415C38.3405 92.6913 38.807 92.3221 39.0983 91.837C39.46 91.2079 39.5291 90.4723 39.3056 89.6302C39.2274 89.3171 39.0287 89.1606 38.7282 89.1558L38.5936 89.1761C38.5122 89.1964 38.4292 89.2371 38.3447 89.2981C38.2601 89.3591 38.1709 89.4013 38.0786 89.431L37.9502 89.4498C37.825 89.4544 37.7233 89.3934 37.6482 89.2791C37.6013 89.1977 37.5763 89.1241 37.5544 89.0631L37.5341 88.9285C37.5591 88.7892 37.6093 88.6702 37.6907 88.5701C37.7517 88.495 37.7862 88.3667 37.7784 88.2023L37.7519 88.0427C37.7081 87.8674 37.6002 87.728 37.439 87.6153C37.306 87.5088 37.1495 87.4415 36.9632 87.4148L36.9507 87.4179C36.7473 87.4022 36.5109 87.4147 36.2527 87.4459C35.7847 87.5694 35.398 87.7258 35.0881 87.9229C34.7828 88.1122 34.5433 88.3516 34.3757 88.6395C34.18 88.9744 34.064 89.3625 34.0248 89.7913C34.0122 89.9807 34.0168 90.1858 34.0387 90.4064C34.048 90.4972 34.0668 90.599 34.0887 90.7132C34.1105 90.8275 34.1308 90.9355 34.1606 91.0278C34.2543 91.4035 34.4092 91.7307 34.6141 92.0187C34.8191 92.3068 35.071 92.5432 35.373 92.7405C35.9849 93.1398 36.6359 93.2433 37.334 93.0557L37.478 93.0197L37.6659 92.9462L37.6846 92.9415Z" fill="#C25630"/>
<path d="M32.1933 78.8082C32.1339 78.8097 32.0587 78.7752 31.9711 78.6907C31.8913 78.6109 31.8522 78.5075 31.8429 78.3902L31.8351 78.146C31.8336 78.0333 31.8618 77.9331 31.9385 77.8408C32.0152 77.7485 32.0825 77.6984 32.1483 77.6953L32.9966 77.6565L33.7275 77.6269L34.5179 77.5959L35.972 77.5322L36.4133 77.5151L36.6152 77.4979C36.7858 77.4886 36.9502 77.5074 37.1145 77.5529C37.2788 77.5983 37.4431 77.6703 37.6012 77.7706C37.911 77.9459 38.1598 78.1698 38.3569 78.4266C38.5541 78.6833 38.6964 79.0402 38.7886 79.4894C38.8808 79.9387 38.9308 80.3253 38.9447 80.6477C38.9619 80.9826 38.9602 81.2956 38.9429 81.5993C38.9256 81.9029 38.8926 82.1971 38.8346 82.4976C38.7813 82.7903 38.6952 83.0579 38.5808 83.2926C38.4665 83.5274 38.2818 83.7464 38.0172 83.9389C37.6743 84.2174 37.2799 84.3691 36.8463 84.3908L32.4514 84.5836C32.3919 84.5851 32.3152 84.5444 32.2292 84.4661C32.1494 84.3863 32.1103 84.283 32.0994 84.1593L32.0916 83.9151C32.0838 83.804 32.1183 83.7023 32.1934 83.6037C32.2702 83.5114 32.3375 83.4613 32.4032 83.4582L36.7872 83.2483C36.9844 83.2389 37.1613 83.1748 37.3257 83.0606C37.49 82.9464 37.6325 82.7978 37.7562 82.6272C37.8893 82.441 37.9927 82.2423 38.0538 82.0341L38.118 81.7321L38.1745 81.3721L38.1824 81.1373L38.1715 80.9605L38.1699 80.901L38.1637 80.6897C38.1638 80.6099 38.1513 80.5332 38.1325 80.4581C38.1278 80.3594 38.1185 80.2687 38.095 80.2014L37.9918 79.8413C37.9262 79.605 37.8308 79.4093 37.7009 79.2622C37.5773 79.1134 37.4083 78.9694 37.208 78.8332C37.1141 78.7768 37.014 78.722 36.9044 78.6828C36.7949 78.6437 36.6916 78.6295 36.5867 78.6358L32.1886 78.816L32.1933 78.8082Z" fill="#C25630"/>
<path d="M32.469 75.1145C32.408 75.1098 32.3423 75.0597 32.2656 74.9658C32.189 74.8719 32.1624 74.7654 32.1718 74.6433L32.1907 74.3992C32.2017 74.2834 32.2518 74.191 32.3363 74.1034C32.4209 74.0158 32.4991 73.983 32.5664 73.9861L38.7673 74.553C38.8283 74.5577 38.9003 74.6063 38.9785 74.7065C39.0474 74.7957 39.074 74.9021 39.0645 75.0242L39.0457 75.2684C39.0362 75.3904 38.9877 75.489 38.9078 75.5688C38.828 75.6486 38.7497 75.6815 38.6746 75.6736L32.4737 75.1067L32.469 75.1145Z" fill="#C25630"/>
<path d="M35.0589 71.3418L37.7038 71.9186C37.9292 71.9687 38.1546 71.9657 38.3784 71.9031C38.5975 71.8484 38.7259 71.7233 38.7682 71.5464L39.0347 70.3226L39.3717 68.7685L39.6788 67.3615C39.7118 67.2003 39.8292 67.1378 40.0326 67.1801L40.1954 67.2193C40.3988 67.2616 40.4849 67.3665 40.4535 67.5339L40.1432 68.955L39.6605 71.1773L39.2545 73.0413C39.2389 73.1117 39.2185 73.1633 39.2028 73.2072C39.1809 73.2525 39.148 73.2807 39.1011 73.3057C39.0244 73.3448 38.9477 73.3573 38.8632 73.3385L35.8176 72.6755L32.7783 72.011C32.722 71.9985 32.6547 71.9421 32.5953 71.8372C32.5374 71.7386 32.5233 71.629 32.5515 71.5023L32.6048 71.2628C32.6299 71.1501 32.6878 71.0625 32.7833 70.9921C32.8788 70.9217 32.9587 70.8951 33.0213 70.9061L34.0417 71.1302L35.0589 71.3418Z" fill="#C25630"/>
<path d="M35.0396 63.5177C34.9817 63.4989 34.9317 63.4316 34.8847 63.3236C34.8378 63.2156 34.83 63.1045 34.8754 62.9933L34.9569 62.7602C34.9961 62.6506 35.0696 62.5724 35.1683 62.5145C35.2732 62.4551 35.3561 62.441 35.4203 62.4582L41.2795 64.5604C41.3374 64.5792 41.3937 64.645 41.4422 64.7593C41.4813 64.8626 41.4891 64.9737 41.4437 65.0848L41.3622 65.318C41.3183 65.4354 41.2526 65.5183 41.154 65.5762C41.0538 65.6278 40.9724 65.6481 40.8988 65.6199L35.0396 63.5177Z" fill="#C25630"/>
<path d="M41.5666 63.1253L38.958 61.7613L36.3493 60.3973C36.0661 60.2485 36.0082 60.0168 36.1758 59.7023L36.9823 58.164L37.8029 56.6023C37.9501 56.3926 38.1051 56.1876 38.2632 55.9951C38.3384 55.8965 38.4214 55.8027 38.5075 55.7213C38.592 55.6337 38.686 55.557 38.7862 55.4788C39.1462 55.1894 39.5454 55.0032 39.979 54.9282C40.375 54.8626 40.7834 54.8737 41.2029 54.9552C41.4001 54.9991 41.5926 55.0508 41.796 55.1197C41.8836 55.1511 41.9791 55.1871 42.084 55.2341C42.1888 55.2811 42.278 55.3187 42.3625 55.3641C42.7381 55.563 43.1027 55.8244 43.4532 56.1626C43.8021 56.4945 44.0227 56.8186 44.1181 57.1207C44.2556 57.6184 44.3181 58.0285 44.3024 58.365C44.2929 58.6201 44.2568 58.8486 44.1988 59.0693L44.0782 59.4386C44.0297 59.5638 43.9733 59.6843 43.9153 59.7986L42.2679 62.897C42.105 63.2037 41.878 63.2804 41.5948 63.1316L41.5666 63.1253ZM42.2011 61.2974L42.6583 60.4649L42.8807 59.997L43.0608 59.6527C43.23 59.1316 43.2881 58.6449 43.2413 58.191C43.1944 57.7371 42.9551 57.3113 42.5186 56.9214L42.2666 56.7116C42.2244 56.6756 42.1853 56.6521 42.154 56.6333C42.1227 56.6145 42.0757 56.5864 42.0147 56.555L41.7393 56.411L41.4482 56.2575C41.2808 56.1729 41.1039 56.104 40.9208 56.0632C40.7314 56.0241 40.5515 55.9958 40.3777 55.9926C39.9301 55.9847 39.5779 56.066 39.3165 56.2443C39.0535 56.4164 38.7811 56.6573 38.5055 56.9656L37.9872 57.953L37.4829 58.917C37.3843 59.1079 37.3654 59.2988 37.4358 59.4742C37.5077 59.6291 37.647 59.7606 37.8614 59.8734L39.5358 60.7457L41.1883 61.6102C41.3026 61.6681 41.4043 61.7026 41.4919 61.7073C41.5796 61.712 41.6704 61.7026 41.7627 61.6729C41.8848 61.6291 42.0335 61.5055 42.2026 61.3037L42.2011 61.2974Z" fill="#C25630"/>
<path d="M45.2938 56.1287L43.825 53.1498L42.3594 50.1569C42.3203 50.0802 42.3156 49.9816 42.3626 49.8501C42.4034 49.7202 42.4676 49.6044 42.56 49.4949C42.6555 49.3713 42.7588 49.2789 42.8699 49.2179C42.9748 49.1585 43.075 49.1335 43.172 49.1492C44.2597 49.403 45.3552 49.6616 46.4664 49.9296C47.5572 50.196 48.6574 50.4734 49.767 50.7617C49.8186 50.7821 49.8718 50.8087 49.9125 50.8384C49.961 50.8729 50.0002 50.923 50.033 50.9746C50.0659 51.0263 50.0611 51.1139 50.0079 51.2204L49.9092 51.3581L49.8028 51.4911L49.5711 51.7618C49.5366 51.8103 49.4693 51.8337 49.3707 51.8384C49.3331 51.8478 49.2283 51.8274 49.0639 51.782L48.7149 51.6895L48.3206 51.5751C48.1015 51.5234 47.9293 51.4999 47.8057 51.5108C47.682 51.5217 47.5756 51.5483 47.491 51.5827C47.4441 51.6077 47.3987 51.639 47.3627 51.6813L47.322 51.7313L47.286 51.7736L47.2359 51.8127L46.7802 52.3588L46.4499 52.7672L46.0068 53.3102L45.6874 53.7358L45.5965 53.8516C45.5605 53.8938 45.5323 53.9408 45.5182 53.9908L45.5151 54.1113L45.526 54.235C45.54 54.3446 45.5682 54.4573 45.6088 54.5668L45.7308 54.8157L45.9373 55.2431C46.0061 55.3855 46.0781 55.5671 46.1594 55.7862C46.175 55.8222 46.1813 55.8739 46.1687 55.9302C46.1499 55.9881 46.1186 56.0492 46.0732 56.1071L46.0419 56.1415C45.9558 56.2495 45.8916 56.312 45.8572 56.3339C45.7554 56.4591 45.6302 56.4638 45.48 56.3416L45.4158 56.2712L45.311 56.1178L45.2938 56.1287ZM45.5562 52.7575L45.9758 52.2803L46.0212 52.2224L46.0619 52.1723L46.0979 52.1301C46.1386 52.08 46.1793 52.0299 46.2122 51.9752C46.2467 51.9266 46.2795 51.8719 46.3124 51.8171C46.4189 51.6841 46.4236 51.5166 46.322 51.3225C46.2578 51.2255 46.1749 51.1331 46.0732 51.0454C45.9402 50.939 45.7775 50.8466 45.5709 50.7651C45.3972 50.6821 45.2109 50.6288 45.0169 50.5975C44.7336 50.5551 44.5223 50.5879 44.3877 50.6881L44.1935 50.8696L44.1043 50.9916C44.1043 50.9916 44.0667 51.0542 44.0589 51.1027C44.0119 51.2342 44.0415 51.433 44.1432 51.7069C44.212 51.8759 44.3121 52.0638 44.4388 52.2516C44.5671 52.4458 44.697 52.5929 44.83 52.6994C44.9301 52.7808 45.0225 52.8309 45.1164 52.8607C45.2979 52.9218 45.4482 52.8843 45.5593 52.7434L45.5562 52.7575Z" fill="#C25630"/>
<path d="M50.7303 49.823L48.8418 47.5608L46.9534 45.2986C46.7532 45.0559 46.7861 44.8149 47.0554 44.5881L48.3876 43.4772L49.7418 42.3476C49.9594 42.2068 50.1739 42.0801 50.3977 41.9643C50.5089 41.9033 50.6153 41.8502 50.7296 41.8017C50.8376 41.7548 50.955 41.7188 51.0802 41.6875C51.5263 41.5562 51.9614 41.5407 52.3918 41.6394C52.7815 41.735 53.154 41.8948 53.5123 42.1312C53.6735 42.2439 53.8378 42.3692 53.9927 42.5101C54.0615 42.5727 54.1319 42.6416 54.2117 42.7215C54.2915 42.8013 54.3572 42.878 54.4214 42.9485C54.6952 43.2725 54.9251 43.6608 55.1222 44.1038C55.3193 44.5468 55.4006 44.9255 55.3676 45.2464C55.3095 45.7597 55.2045 46.1651 55.0589 46.4608C54.9493 46.6877 54.8271 46.8912 54.6925 47.0711L54.4388 47.3606C54.3496 47.456 54.2525 47.5468 54.1476 47.6328L51.433 49.867C51.1684 50.086 50.9258 50.0735 50.7177 49.8261L50.7303 49.823ZM52.0126 48.3787L52.7546 47.7811L53.1397 47.4322L53.4372 47.185C53.7926 46.7703 54.0385 46.3431 54.1669 45.8987C54.297 45.4605 54.2361 44.9768 53.9905 44.4462L53.8388 44.1581C53.8138 44.1112 53.7903 44.0705 53.77 44.0423C53.7496 44.0141 53.7183 43.9687 53.6714 43.9139L53.4727 43.6775L53.263 43.4239C53.1473 43.2799 53.0033 43.1562 52.8484 43.0419C52.6935 42.9276 52.5323 42.8415 52.368 42.7694C51.9642 42.5909 51.6043 42.5344 51.2928 42.5922C50.9829 42.6563 50.6401 42.7752 50.2707 42.9472L49.4174 43.6591L48.5861 44.3522C48.4218 44.493 48.3294 44.6557 48.3309 44.8483C48.334 45.0204 48.4169 45.1926 48.5702 45.3805L49.7765 46.8286L50.9718 48.2595C51.05 48.3597 51.1329 48.4254 51.2159 48.4646C51.2988 48.5037 51.3849 48.5288 51.4788 48.532C51.6134 48.5383 51.7918 48.4804 52.0282 48.3615L52.0126 48.3787Z" fill="#C25630"/>
<path d="M66.5434 37.5009C66.1161 37.5743 65.7076 37.6164 65.3226 37.6194C65.1301 37.6209 64.9454 37.6271 64.7545 37.6349C64.5635 37.6427 64.3882 37.6598 64.2207 37.6817C64.1487 37.6864 64.072 37.6989 63.9891 37.7129C63.9061 37.727 63.8169 37.7426 63.7105 37.7692C63.6353 37.7879 63.5759 37.8161 63.5258 37.8286C63.3254 37.8786 63.2143 37.913 63.1845 37.9271C62.859 38.035 62.5161 38.2603 62.1482 38.5982C62.0183 38.6905 61.9134 38.75 61.8273 38.7781C61.6677 38.8313 61.5409 38.8031 61.4502 38.6794L61.3985 38.5792C61.3407 38.4008 61.4174 38.202 61.6319 37.9689C61.9466 37.6043 62.2738 37.343 62.6198 37.1835L63.008 37.0334C63.1191 36.999 63.2302 36.9646 63.3367 36.938C63.4431 36.9114 63.5621 36.8817 63.6795 36.8724C64.1287 36.8068 64.6139 36.7787 65.1272 36.7836C65.387 36.7852 65.6484 36.7665 65.8988 36.7306C66.1555 36.6931 66.3997 36.6322 66.6439 36.5446C66.7128 36.5274 66.7864 36.4758 66.8756 36.4069L67.2638 36.0972C67.3859 36.0001 67.5221 35.9063 67.6662 35.8171C67.7241 35.7827 67.7898 35.753 67.8665 35.7139C67.937 35.6763 68.0043 35.6529 68.0528 35.6341C68.1639 35.5997 68.2516 35.6044 68.322 35.6467C68.394 35.6953 68.4519 35.7673 68.4863 35.8784C68.4753 36.0474 68.4048 36.218 68.2795 36.3823C68.1558 36.5529 68.0008 36.7046 67.8114 36.8517C67.4905 37.1114 67.1633 37.2929 66.8393 37.407L66.6859 37.4586L66.5106 37.5024L66.5434 37.5009Z" fill="#C25630"/>
<path d="M83.6596 99.8265L64.2567 104.671L59.8516 87.0274L79.2544 82.1829L83.6596 99.8265ZM65.6598 102.325L81.306 98.4187L77.8388 84.5318L62.1926 88.4383L65.6598 102.325Z" fill="#C25630"/>
<path d="M60.6498 82.2524L58.7715 82.7213L60.0815 87.968L61.9598 87.4991L60.6498 82.2524Z" fill="#C25630"/>
<path d="M69.4076 80.0655L67.5293 80.5344L68.8393 85.7812L70.7176 85.3122L69.4076 80.0655Z" fill="#C25630"/>
<path d="M78.1791 77.8754L76.3008 78.3444L77.6108 83.5911L79.4891 83.1221L78.1791 77.8754Z" fill="#C25630"/>
<path d="M76.7229 101.558L71.2633 102.922L70.1534 98.4763C69.772 96.9486 70.7069 95.3916 72.2346 95.0101C73.7622 94.6287 75.241 95.623 75.6365 97.2071L76.7229 101.558ZM72.6727 100.574L74.3757 100.149L73.7582 97.676C73.6394 97.2002 73.2044 96.7634 72.7035 96.8884C72.2026 97.0135 71.9082 97.5127 72.0317 98.0073L72.6727 100.574Z" fill="#C25630"/>
<path d="M99.6259 74.3698L97.7476 74.8387L94.0459 60.0127L81.9059 63.0437L85.6076 77.8698L83.7293 78.3388L79.5586 61.6344L95.4553 57.6654L99.6259 74.3698Z" fill="#C25630"/>
<path d="M80.3607 56.8578L78.4824 57.3268L79.7924 62.5735L81.6707 62.1045L80.3607 56.8578Z" fill="#C25630"/>
<path d="M87.3685 55.1087L85.4902 55.5776L86.8002 60.8244L88.6785 60.3554L87.3685 55.1087Z" fill="#C25630"/>
<path d="M94.3803 53.3578L92.502 53.8268L93.8119 59.0735L95.6902 58.6045L94.3803 53.3578Z" fill="#C25630"/>
<path d="M83.6591 99.8201L81.7808 100.289C80.857 96.5889 84.8147 92.9934 89.001 89.1945C93.7134 84.9185 99.0535 80.0666 97.7483 74.8387L99.6266 74.3697C101.213 80.7247 95.4159 85.9833 90.3028 90.6255C86.5564 94.0285 83.0151 97.2406 83.6591 99.8201Z" fill="#C25630"/>
<path d="M81.2407 90.1345L79.3624 90.6034C78.4291 86.8656 82.4541 83.4595 86.7218 79.8532C91.4779 75.8323 96.8649 71.2747 95.569 66.0843L97.4473 65.6154C99.0355 71.9765 93.16 76.9487 87.975 81.3295C84.1864 84.5369 80.6044 87.5596 81.2469 90.1329L81.2407 90.1345Z" fill="#C25630"/>
<path d="M77.0997 75.2316L75.6288 73.9759C76.1596 73.3578 76.7561 72.7366 77.3385 72.1389C79.3159 70.0955 81.19 68.1709 80.6694 66.086L82.5477 65.6171C83.3293 68.7476 80.8854 71.2667 78.7326 73.4869C78.1455 74.0925 77.596 74.662 77.1075 75.2363L77.0997 75.2316Z" fill="#C25630"/>
<path d="M90.8627 69.1082L88.9844 69.5772L90.7352 76.5895L92.6135 76.1205L90.8627 69.1082Z" fill="#C25630"/>
</g>
<defs>
<clipPath id="clip0_80_1716">
<rect width="131" height="131" fill="white" transform="translate(0 31.7333) rotate(-14.0187)"/>
</clipPath>
</defs>
</svg>
