<svg width="391" height="163" viewBox="0 0 391 163" fill="none" xmlns="http://www.w3.org/2000/svg">
<path d="M0 0V56.1251H260.441V0H0ZM255.066 42.6868C255.066 47.1416 251.458 50.7498 247.003 50.7498H13.4383C8.98351 50.7498 5.37533 47.1416 5.37533 42.6868V13.4383C5.37533 8.98351 8.98351 5.37533 13.4383 5.37533H247.003C251.458 5.37533 255.066 8.98351 255.066 13.4383V42.6868Z" fill="#563118"/>
<path d="M114.945 50.75V106.875H390.511V50.75H114.945ZM385.136 93.4368C385.136 97.8916 381.528 101.5 377.073 101.5H128.384C123.929 101.5 120.321 97.8916 120.321 93.4368V64.1883C120.321 59.7335 123.929 56.1253 128.384 56.1253H377.073C381.528 56.1253 385.136 59.7335 385.136 64.1883V93.4368Z" fill="#563118"/>
<path d="M15.2988 44.763C15.2988 43.5536 15.8162 42.5995 16.8442 41.8872C17.879 41.1817 18.4703 40.3889 18.6315 39.5086C18.8734 38.1245 19.0011 34.1804 19.0011 27.6695C19.0011 21.1586 18.8465 17.2548 18.5307 15.9513C18.2149 14.6478 17.7715 13.7541 17.1936 13.2636C15.9304 12.2154 15.3056 11.5301 15.3056 11.2143V10.7977C15.3056 10.0787 15.964 9.62854 17.2743 9.43369C17.6438 9.37993 19.505 9.35306 22.8646 9.35306L26.3317 9.29932H27.017L29.0933 9.37994H31.1897C37.3847 9.37994 41.5103 11.2949 43.5798 15.1248C44.3659 16.5963 44.7624 18.1552 44.7624 19.7946V20.527C44.7624 23.47 43.6873 25.9494 41.5371 27.9651C39.387 29.9809 36.35 31.1702 32.4327 31.5196C30.1213 31.7279 28.8178 31.9026 28.5221 32.0437C27.3463 32.5678 26.7617 34.523 26.7617 37.8961C26.7617 39.4549 27.306 40.6711 28.3877 41.5446C29.8391 42.7204 30.5648 43.7081 30.5648 44.5077C30.5648 45.1393 29.8928 45.5761 28.5557 45.8179C27.2186 46.0598 25.2768 46.1875 22.7437 46.1875C17.7916 46.1875 15.319 45.7037 15.319 44.7429L15.2988 44.763ZM26.036 26.366C26.036 27.3604 26.2175 28.039 26.5736 28.4019C26.9297 28.758 27.7293 28.9394 28.9723 28.9394H30.2355C32.0362 28.9394 33.5077 28.2675 34.6433 26.917C35.7788 25.5731 36.35 23.6649 36.35 21.1922L36.3231 20.9302C36.3231 18.4441 35.6781 16.4955 34.3813 15.0778C33.0845 13.6601 31.4382 12.9545 29.4494 12.9545H28.7909C27.3194 12.9545 26.4526 13.3106 26.1906 14.0296C26.1033 14.258 26.0562 15.575 26.0562 17.9939V21.9851L26.0293 22.9795V26.366H26.036Z" fill="#563118"/>
<path d="M49.1309 28.1802C49.1309 25.3783 49.5609 22.7914 50.4142 20.4128C52.0738 15.7564 54.99 12.5312 59.1558 10.7305C61.568 9.68232 64.0406 9.1582 66.5603 9.1582L67.1919 9.18509H67.7967C69.8258 9.18509 71.9356 9.64871 74.1194 10.576C76.3031 11.5032 78.1778 12.8202 79.7232 14.5268C81.2686 16.2335 82.4511 18.2224 83.2507 20.4867C84.057 22.7511 84.4602 25.049 84.4602 27.3739V27.9786C84.4602 30.6192 84.0167 33.1456 83.1365 35.5511C82.2496 37.9565 80.9797 40.0193 79.32 41.7327C75.9605 45.2132 71.5056 46.9669 65.9623 46.9804C63.6845 46.9804 61.4941 46.5503 59.3843 45.6836C57.2744 44.8168 55.514 43.6073 54.0963 42.0485C50.7905 38.3731 49.1375 33.7571 49.1375 28.1936L49.1309 28.1802ZM75.5102 29.309V27.5486C75.5102 25.7613 75.2751 23.8933 74.8047 21.9313C73.8573 18.0275 72.1977 15.3264 69.8191 13.8213C68.7508 13.1561 67.5279 12.8269 66.1437 12.8269H65.7473C64.6118 12.8269 63.4494 13.1695 62.2534 13.8482C59.942 15.1786 58.363 17.5236 57.5029 20.8831C56.9587 22.9795 56.6899 25.0759 56.6899 27.1588V28.0525C56.6899 30.1018 56.9519 32.1176 57.476 34.1132C58.5242 38.0506 60.325 40.7786 62.885 42.3038C63.9331 42.9354 65.0217 43.2512 66.137 43.2512H66.9232C68.1125 43.2512 69.2614 42.9085 70.3634 42.2165C71.4653 41.5244 72.3657 40.5904 73.0645 39.4213C74.6905 36.7068 75.5036 33.3405 75.5036 29.3157L75.5102 29.309Z" fill="#563118"/>
<path d="M99.1534 9.62158H104.22C111.517 9.62158 115.474 9.70223 116.099 9.87021C116.717 10.0382 117.033 10.6631 117.033 11.7448C117.033 12.8266 113.929 17.9265 107.714 27.0309C101.498 36.1354 98.3942 40.8321 98.3942 41.1143C98.3942 41.8668 99.8724 42.2431 102.829 42.2431C105.785 42.2431 107.982 41.9407 109.414 41.336C110.845 40.7313 112.263 39.7301 113.667 38.3326C115.071 36.935 116.119 36.2362 116.818 36.2362C117.638 36.2362 118.054 36.935 118.054 38.3326C118.054 41.3629 117.645 43.5466 116.818 44.8972C116.328 45.7035 114.99 46.1066 112.8 46.1066H92.5351C91.0636 46.1066 90.1095 46.0193 89.6727 45.8446C88.9538 45.5489 88.5977 44.9241 88.5977 43.9699C88.5977 43.0158 89.0411 41.8332 89.9348 40.4289C90.8284 39.0179 93.9058 34.4825 99.1736 26.8226C104.441 19.1561 107.075 15.1716 107.075 14.8558C107.075 13.9084 106.027 13.4381 103.924 13.4381C101.821 13.4381 100.128 13.6665 98.8309 14.1234C97.5341 14.5803 96.0021 15.4404 94.235 16.7103C92.4679 17.9802 91.2786 18.6118 90.6671 18.6118C89.8272 18.6118 89.4039 17.8593 89.4039 16.3542C89.4039 12.9073 89.8071 10.8512 90.6134 10.186C91.0501 9.81644 93.8923 9.63503 99.1467 9.63503L99.1534 9.62158Z" fill="#563118"/>
<path d="M122.174 28.1802C122.174 25.3783 122.604 22.7914 123.457 20.4128C125.117 15.7564 128.033 12.5312 132.199 10.7305C134.611 9.68232 137.084 9.1582 139.603 9.1582L140.235 9.18509H140.84C142.869 9.18509 144.979 9.64871 147.162 10.576C149.346 11.5032 151.221 12.8202 152.766 14.5268C154.312 16.2335 155.494 18.2224 156.294 20.4867C157.1 22.7511 157.503 25.049 157.503 27.3739V27.9786C157.503 30.6192 157.06 33.1456 156.179 35.5511C155.293 37.9565 154.023 40.0193 152.363 41.7327C149.003 45.2132 144.549 46.9669 139.005 46.9804C136.728 46.9804 134.537 46.5503 132.427 45.6836C130.317 44.8168 128.557 43.6073 127.139 42.0485C123.833 38.3731 122.181 33.7571 122.181 28.1936L122.174 28.1802ZM148.553 29.309V27.5486C148.553 25.7613 148.318 23.8933 147.848 21.9313C146.9 18.0275 145.241 15.3264 142.862 13.8213C141.794 13.1561 140.571 12.8269 139.187 12.8269H138.79C137.655 12.8269 136.492 13.1695 135.296 13.8482C132.985 15.1786 131.406 17.5236 130.546 20.8831C130.002 22.9795 129.733 25.0759 129.733 27.1588V28.0525C129.733 30.1018 129.995 32.1176 130.519 34.1132C131.567 38.0506 133.368 40.7786 135.928 42.3038C136.976 42.9354 138.065 43.2512 139.18 43.2512H139.966C141.155 43.2512 142.304 42.9085 143.406 42.2165C144.508 41.5244 145.409 40.5904 146.107 39.4213C147.734 36.7068 148.547 33.3405 148.547 29.3157L148.553 29.309Z" fill="#563118"/>
<path d="M177.4 13.2434C176.405 12.7395 175.901 12.128 175.901 11.4225C175.901 10.717 176.318 10.287 177.165 10.1526C179.53 9.74942 183.595 9.54785 189.367 9.54785H190.758C196.865 9.54785 201.669 11.1537 205.17 14.3655C208.671 17.5772 210.418 21.9917 210.418 27.609C210.418 33.2262 208.671 37.7347 205.17 41.1279C201.669 44.5211 197.033 46.221 191.261 46.221H189.185L188.5 46.1941L187.082 46.1673C186.625 46.1471 186.182 46.1404 185.745 46.1404L179.866 45.959C177.904 45.959 176.748 45.8447 176.385 45.6163C176.029 45.3878 175.848 44.9444 175.848 44.2792C175.848 43.8962 176.352 43.3654 177.373 42.6935C178.388 42.0215 179.026 41.222 179.288 40.2947C179.55 39.3675 179.684 36.2901 179.684 31.0559L179.631 27.6963L179.711 23.732L179.738 23.0735C179.758 22.6166 179.765 22.1731 179.765 21.7364L179.819 19.7677C179.819 17.3891 179.637 15.7631 179.268 14.8829C179.019 14.305 178.401 13.7608 177.406 13.2568L177.4 13.2434ZM201.73 29.02V27.2327C201.73 25.3782 201.475 23.564 200.971 21.7969C199.882 18.0342 197.866 15.4943 194.91 14.1841C193.559 13.5928 192.095 13.2904 190.502 13.2904L190.133 13.3173C188.137 13.3173 187.015 13.7608 186.773 14.6544C186.719 14.8493 186.692 17.463 186.692 22.5024V32.5811L186.665 32.9776V33.7637L186.585 36.5185V37.3047L186.558 38.4873V38.9039C186.558 40.3754 186.739 41.3429 187.109 41.82C187.479 42.297 188.413 42.5255 189.918 42.5255H191.49C192.961 42.5255 194.366 42.1492 195.703 41.3967C197.04 40.6441 198.102 39.737 198.894 38.6821C199.681 37.6205 200.352 36.2296 200.903 34.5095C201.454 32.7894 201.73 30.9551 201.73 29.0133V29.02Z" fill="#563118"/>
<path d="M242.965 14.238C242.965 15.4139 242.797 16.1731 242.467 16.536C242.132 16.8921 241.628 17.0735 240.942 17.0735L240.472 16.8383L239.921 16.4688L239.289 16.0992C238.678 15.7498 237.502 15.266 235.762 14.6546C234.022 14.0432 232.395 13.7341 230.89 13.7341C229.385 13.7341 228.29 14.2783 227.598 15.3601C226.906 16.4486 226.563 18.6794 226.563 22.0524C226.563 23.0132 226.859 23.7859 227.457 24.3638C228.048 24.9416 228.875 25.2306 229.923 25.2306C230.971 25.2306 232.133 24.861 233.403 24.1286C234.673 23.3962 235.574 23.0267 236.104 23.0267C236.635 23.0267 237.106 23.3828 237.509 24.0883C237.912 24.7938 238.113 25.6404 238.113 26.6214C238.113 29.2621 237.825 30.8881 237.247 31.5062L236.541 31.9027C235.506 31.9027 234.687 31.6675 234.075 31.1972C232.725 30.1624 231.737 29.6518 231.112 29.6518C229.116 29.6518 227.779 30.0683 227.094 30.915C226.758 31.3315 226.597 32.7762 226.597 35.2354C226.597 37.6946 227.094 39.5625 228.095 40.8392C228.619 41.5245 229.775 41.8605 231.562 41.8605C233.35 41.8605 235.627 41.2558 238.402 40.0396C241.177 38.8234 242.763 38.2187 243.166 38.2187C243.919 38.2187 244.295 38.9242 244.295 40.3419V41.2893C244.295 41.7798 244.12 42.4652 243.771 43.3387C243.422 44.2122 242.877 44.8975 242.145 45.388C241.413 45.8785 240.203 46.1204 238.523 46.1204H219.495C216.592 46.1204 215.141 45.7442 215.141 44.9916V44.1517C215.141 43.5604 215.678 42.9624 216.753 42.3644C217.828 41.7731 218.46 41.1281 218.641 40.436C218.823 39.7439 218.917 35.7259 218.917 28.3751C218.917 21.0244 218.796 16.8652 218.547 15.8842C218.299 14.9032 217.687 14.0028 216.713 13.1831C215.732 12.3634 215.241 11.5503 215.241 10.744C215.241 10.1662 215.873 9.83697 217.13 9.76306C218.386 9.68915 222.525 9.6421 229.547 9.6421L236.373 9.61523H237.475C239.242 9.61523 240.485 9.87057 241.204 10.3745C242.394 11.2144 242.992 12.5112 242.992 14.2582L242.965 14.238Z" fill="#563118"/>
<path d="M144.81 62.0044C144.81 62.2329 144.273 62.9518 143.197 64.168C142.122 65.3841 141.484 66.4122 141.282 67.2521C141.081 68.092 140.98 72.1033 140.98 79.2861C140.98 86.4689 141.081 90.4399 141.282 91.1857C141.484 91.9383 141.907 92.4489 142.552 92.7244C143.197 92.9932 144.313 93.1343 145.885 93.1343C147.457 93.1343 148.835 92.8453 150.017 92.2675C151.2 91.6896 152.47 90.6549 153.834 89.17C155.198 87.685 156.374 86.9392 157.348 86.9392C158.101 86.9392 158.477 87.4095 158.477 88.357V89.0423C158.477 90.3525 158.269 91.8106 157.845 93.4098C157.422 95.0089 157.093 95.9227 156.851 96.1512C156.306 96.6618 154.996 96.9104 152.913 96.9104H138.817C134.214 96.9104 131.667 96.8701 131.177 96.7761C130.337 96.6215 129.914 96.1444 129.914 95.3583C129.914 94.9417 130.377 94.2631 131.305 93.3358C132.232 92.4086 132.87 91.1991 133.219 89.7142C133.361 89.1229 133.428 85.1989 133.428 77.9557C133.428 70.7124 133.32 66.7414 133.112 66.0426C132.904 65.3438 132.225 64.6316 131.09 63.9194C129.954 63.2004 129.383 62.3941 129.383 61.5072C129.383 60.7882 131.09 60.4321 134.503 60.4321H141.457C142.821 60.4321 143.722 60.5329 144.145 60.7345C144.575 60.9361 144.79 61.3594 144.79 62.0044H144.81Z" fill="#563118"/>
<path d="M178.117 60.4053H178.876C180.173 60.4053 181.624 61.7894 183.23 64.551C183.788 65.5118 184.628 67.5074 185.75 70.5378C186.872 73.5681 187.833 76.0744 188.639 78.0699C189.446 80.0655 190.326 82.4374 191.28 85.199C192.234 87.9538 192.926 89.7814 193.356 90.6818C193.786 91.5822 194.552 92.4422 195.654 93.2687C196.756 94.0884 197.307 94.8074 197.307 95.4054C197.307 96.0034 196.931 96.4065 196.178 96.6014C194.955 96.897 191.918 97.0448 187.074 97.0448C184.87 97.0448 183.768 96.5745 183.768 95.6271C183.768 95.3852 183.942 94.7805 184.292 93.8264C184.641 92.8722 184.816 92.1667 184.816 91.7166C184.816 89.5664 184.299 87.7522 183.271 86.2807C182.854 85.6895 181.53 85.3871 179.306 85.3871C175.228 85.3871 172.923 85.5215 172.392 85.7835C171.861 86.0456 171.317 86.7108 170.766 87.7791C170.215 88.8475 169.94 89.8352 169.94 90.7423C169.94 91.6494 170.188 92.6304 170.686 93.6853C171.183 94.7402 171.431 95.5599 171.431 96.1512C171.431 96.8836 170.645 97.2531 169.066 97.2531C165.324 97.2531 162.817 97.0784 161.561 96.729C160.755 96.5006 160.352 95.9362 160.352 95.0224C160.352 94.9014 161.144 94.1422 162.737 92.7379C163.61 91.9652 164.309 90.964 164.833 89.721C168.609 80.7106 171.015 74.1796 172.036 70.1279C173.057 66.0762 173.931 63.4423 174.65 62.2262C175.369 61.01 176.525 60.4053 178.117 60.4053ZM172.943 81.0331V81.2951C172.943 81.5034 173.756 81.6109 175.382 81.6109H178.399C180.798 81.6109 181.994 81.4698 181.994 81.1944C181.994 80.4418 181.248 78.1304 179.763 74.2669C178.278 70.4034 177.512 68.4683 177.465 68.4683C177.418 68.4683 176.652 70.4034 175.167 74.2803C173.682 78.1573 172.937 80.4082 172.937 81.0398L172.943 81.0331Z" fill="#563118"/>
<path d="M247.17 92.724C247.17 94.5516 247.062 95.6267 246.841 95.9492C246.619 96.2717 246.068 96.433 245.174 96.433C244.879 96.433 244.133 96.1038 242.944 95.452C241.754 94.7935 240.679 93.873 239.718 92.6837C239.315 92.1932 236.728 88.4573 231.951 81.4761C227.174 74.4949 224.358 71.001 223.498 71.001C223.149 71.001 222.974 73.3796 222.974 78.13C222.974 82.8805 223.317 87.1538 223.996 90.9502C224.19 92.0185 224.526 92.8853 225.003 93.5505C225.487 94.2157 225.722 94.7667 225.722 95.2034L225.514 95.8081C225.003 96.4061 223.324 96.7018 220.475 96.7018H219.346C217.088 96.7018 215.751 96.5338 215.328 96.2045C214.911 95.8753 214.696 95.3714 214.696 94.7062C214.696 94.3366 215.18 93.8596 216.154 93.275C217.129 92.6904 217.706 92.1059 217.901 91.528C218.009 91.2122 218.056 89.6534 218.056 86.8582L218.11 85.595L218.19 81.8188C218.244 79.3193 218.271 76.4704 218.271 73.2788C218.271 70.0872 218.15 68.0849 217.915 67.2651C217.68 66.4454 217.035 65.6525 215.986 64.8798C214.938 64.1004 214.414 63.3949 214.414 62.7566C214.414 62.1183 214.663 61.6278 215.16 61.2851C215.657 60.9424 216.625 60.7744 218.063 60.7744H219.245C222.081 60.7744 224.6 61.9704 226.804 64.3692C229.008 66.7679 231.951 70.6449 235.633 75.9933C239.315 81.3485 241.438 84.0227 241.996 84.0227C242.661 84.0227 242.991 80.5758 242.991 73.6819C242.991 68.5552 242.42 65.33 241.284 63.9996C240.639 63.2269 240.31 62.6961 240.31 62.4005C240.31 61.6143 241.103 61.2179 242.695 61.2179C245.88 61.2179 248.07 61.3523 249.273 61.6278C250.469 61.8965 251.074 62.4609 251.074 63.321C251.074 63.8316 250.55 64.6111 249.515 65.6727C248.473 66.7343 247.902 67.4734 247.795 67.9035C247.687 68.3335 247.64 70.3694 247.64 74.0044L247.298 86.1796L247.271 87.3353L247.217 88.4909C247.183 89.4854 247.163 90.9031 247.163 92.7307L247.17 92.724Z" fill="#563118"/>
<path d="M258.929 96.5403C256.692 96.5403 255.57 96.1842 255.57 95.4652C255.57 94.7463 256.154 93.9803 257.317 93.1673C258.479 92.3542 259.191 91.4405 259.453 90.4259C259.715 89.4113 259.85 85.3999 259.85 78.3918C259.85 71.3838 259.782 67.6076 259.641 67.0633C259.326 65.8203 258.734 64.893 257.854 64.2816C256.262 63.1595 255.469 62.286 255.469 61.6544V61.2849C255.469 60.6533 257.673 60.3375 262.08 60.3375L263.868 60.2568H265.655L266.26 60.2837H266.864C268.86 60.2837 270.069 60.3576 270.5 60.5054C270.93 60.6533 271.145 61.1035 271.145 61.856C271.145 62.3129 270.5 63.0654 269.203 64.1136C268.504 64.6915 268.027 65.5112 267.785 66.5796C267.536 67.6479 267.415 71.7668 267.415 78.9428C267.415 86.1189 267.509 90.0966 267.704 90.8828C267.899 91.6689 268.524 92.5222 269.592 93.4293C270.661 94.3364 271.192 95.0889 271.192 95.687C271.192 96.3857 270.493 96.7352 269.095 96.7352H267.261L266.656 96.7083H265.42L263.633 96.6545L261.267 96.6008L260.112 96.547C259.729 96.5269 259.332 96.5201 258.929 96.5201V96.5403Z" fill="#563118"/>
<path d="M303.967 65.0476C303.967 66.2234 303.799 66.9827 303.469 67.3455C303.133 67.7016 302.63 67.8831 301.944 67.8831L301.474 67.6479L300.923 67.2783L300.291 66.9088C299.68 66.5594 298.504 66.0756 296.764 65.4642C295.023 64.8527 293.397 64.5437 291.892 64.5437C290.387 64.5437 289.292 65.0879 288.6 66.1697C287.908 67.2582 287.565 69.489 287.565 72.862C287.565 73.8228 287.861 74.5955 288.459 75.1733C289.05 75.7512 289.877 76.0401 290.925 76.0401C291.973 76.0401 293.135 75.6706 294.405 74.9382C295.675 74.2058 296.576 73.8362 297.106 73.8362C297.637 73.8362 298.108 74.1924 298.511 74.8979C298.914 75.6034 299.115 76.45 299.115 77.431C299.115 80.0716 298.826 81.6977 298.249 82.3158L297.543 82.7122C296.508 82.7122 295.689 82.4771 295.077 82.0067C293.727 80.972 292.739 80.4613 292.114 80.4613C290.118 80.4613 288.781 80.8779 288.096 81.7245C287.76 82.1411 287.599 83.5858 287.599 86.045C287.599 88.5042 288.096 90.3721 289.097 91.6487C289.621 92.3341 290.777 92.67 292.564 92.67C294.351 92.67 296.629 92.0653 299.404 90.8492C302.179 89.633 303.765 89.0283 304.168 89.0283C304.921 89.0283 305.297 89.7338 305.297 91.1515V92.0989C305.297 92.5894 305.122 93.2748 304.773 94.1483C304.424 95.0218 303.879 95.7071 303.147 96.1976C302.414 96.6881 301.205 96.93 299.525 96.93H280.497C277.594 96.93 276.143 96.5537 276.143 95.8012V94.9613C276.143 94.37 276.68 93.772 277.755 93.174C278.83 92.5827 279.462 91.9377 279.643 91.2456C279.825 90.5535 279.919 86.5354 279.919 79.1847C279.919 71.8339 279.798 67.6748 279.549 66.6938C279.301 65.7128 278.689 64.8124 277.715 63.9927C276.734 63.1729 276.243 62.3599 276.243 61.5536C276.243 60.9758 276.875 60.6465 278.131 60.5726C279.388 60.4987 283.527 60.4517 290.548 60.4517L297.375 60.4248H298.477C300.244 60.4248 301.487 60.6801 302.206 61.1841C303.396 62.024 303.993 63.3208 303.993 65.0677L303.967 65.0476Z" fill="#563118"/>
<path d="M317.197 60.4525C320.348 60.4525 321.92 61.0102 321.92 62.1323C321.92 62.6228 321.752 63.167 321.423 63.7718C321.087 64.3765 320.926 65.0686 320.926 65.8614C320.926 66.6543 321.215 67.9242 321.793 69.6914C324.205 77.0556 325.885 81.8866 326.832 84.1779C327.779 86.4691 328.337 87.6181 328.512 87.6181C329.016 87.6181 330.769 82.9953 333.759 73.7632C334.915 70.1953 335.493 67.4875 335.493 65.6531C335.493 65.2164 335.238 64.5512 334.72 63.6576C334.203 62.7639 333.948 62.2062 333.948 61.9778C333.948 61.3999 334.263 61.0035 334.908 60.7818C335.547 60.56 336.83 60.4525 338.752 60.4525H340.586C342.562 60.4525 343.838 60.6071 344.403 60.9094C344.974 61.2185 345.256 61.6418 345.256 62.1793C345.256 62.7169 344.685 63.4425 343.549 64.3295C342.414 65.2231 341.574 66.231 341.03 67.3464C340.922 67.5547 339.303 71.9154 336.158 80.4286C333.02 88.9417 331.025 93.887 330.171 95.2712C329.325 96.6553 327.954 97.3474 326.066 97.3474C324.977 97.3474 323.929 96.1917 322.915 93.8803C322.337 92.5835 320.57 88.0884 317.613 80.3883L315.013 73.5885C314.576 72.4529 314.086 71.1494 313.542 69.6914C312.997 68.2333 312.614 67.2456 312.386 66.7417C311.949 65.7942 311.102 64.9544 309.839 64.2085C308.576 63.4627 307.951 62.7572 307.951 62.0853C307.951 61.4134 308.092 61.0035 308.368 60.8624C308.912 60.5802 311.573 60.4458 316.35 60.4458H317.19L317.197 60.4525Z" fill="#563118"/>
<path d="M376.097 65.0476C376.097 66.2234 375.93 66.9827 375.6 67.3455C375.264 67.7016 374.76 67.8831 374.075 67.8831L373.605 67.6479L373.054 67.2783L372.422 66.9088C371.811 66.5594 370.635 66.0756 368.895 65.4642C367.154 64.8527 365.528 64.5437 364.023 64.5437C362.518 64.5437 361.423 65.0879 360.731 66.1697C360.039 67.2582 359.696 69.489 359.696 72.862C359.696 73.8228 359.992 74.5955 360.59 75.1733C361.181 75.7512 362.007 76.0401 363.056 76.0401C364.104 76.0401 365.266 75.6706 366.536 74.9382C367.806 74.2058 368.706 73.8362 369.237 73.8362C369.768 73.8362 370.238 74.1924 370.642 74.8979C371.045 75.6034 371.246 76.45 371.246 77.431C371.246 80.0716 370.957 81.6977 370.379 82.3158L369.674 82.7122C368.639 82.7122 367.82 82.4771 367.208 82.0067C365.858 80.972 364.87 80.4613 364.245 80.4613C362.249 80.4613 360.912 80.8779 360.227 81.7245C359.891 82.1411 359.73 83.5858 359.73 86.045C359.73 88.5042 360.227 90.3721 361.228 91.6487C361.752 92.3341 362.908 92.67 364.695 92.67C366.482 92.67 368.76 92.0653 371.535 90.8492C374.31 89.633 375.896 89.0283 376.299 89.0283C377.052 89.0283 377.428 89.7338 377.428 91.1515V92.0989C377.428 92.5894 377.253 93.2748 376.904 94.1483C376.554 95.0218 376.01 95.7071 375.278 96.1976C374.545 96.6881 373.336 96.93 371.656 96.93H352.627C349.725 96.93 348.273 96.5537 348.273 95.8012V94.9613C348.273 94.37 348.811 93.772 349.886 93.174C350.961 92.5827 351.593 91.9377 351.774 91.2456C351.956 90.5535 352.05 86.5354 352.05 79.1847C352.05 71.8339 351.929 67.6748 351.68 66.6938C351.431 65.7128 350.82 64.8124 349.846 63.9927C348.865 63.1729 348.374 62.3599 348.374 61.5536C348.374 60.9758 349.006 60.6465 350.262 60.5726C351.519 60.4987 355.658 60.4517 362.679 60.4517L369.506 60.4248H370.608C372.375 60.4248 373.618 60.6801 374.337 61.1841C375.526 62.024 376.124 63.3208 376.124 65.0677L376.097 65.0476Z" fill="#563118"/>
<path d="M60.8086 106.875V163H114.945V106.875H60.8086ZM109.57 149.562C109.57 154.017 105.961 157.625 101.507 157.625H74.2469C69.7921 157.625 66.1839 154.017 66.1839 149.562V120.313C66.1839 115.859 69.7921 112.25 74.2469 112.25H101.507C105.961 112.25 109.57 115.859 109.57 120.313V149.562Z" fill="#D38734"/>
<path d="M71.7398 139.402C71.7398 139.402 71.7266 139.375 71.7133 139.368C71.7133 139.362 71.7 139.355 71.6934 139.342L71.7398 139.402Z" fill="#D38734"/>
<path d="M105.404 142.494L103.677 141.526C103.395 141.351 103.066 141.237 102.898 140.988C102.615 140.612 102.683 140.034 103.039 139.732C103.422 139.436 103.946 139.208 104.08 138.677C104.181 137.985 103.731 137.4 103.375 136.863C102.636 135.573 101.917 135.915 100.875 136.581C100.062 137.031 99.1886 137.656 98.342 138.005C97.7037 138.247 97.1325 137.79 96.5883 137.501L94.9018 136.534L94.0552 136.05C93.7797 135.875 93.4639 135.754 93.2892 135.519C92.8793 135.055 92.9398 134.323 93.4303 133.94C94.492 133.234 95.7215 132.731 96.8504 132.119C97.0721 132.012 97.4551 131.77 97.6902 131.729C98.295 131.608 98.8393 132.025 99.3566 132.327C99.7799 132.583 100.606 133.093 101.03 133.342C101.648 133.752 102.427 134.168 103.066 133.523C103.529 133.013 103.905 132.442 104.188 131.81C104.786 130.513 103.361 129.962 102.609 129.324C102.535 129.25 102.488 129.223 102.521 129.163C102.582 129.062 102.797 128.948 102.904 128.874C103.979 128.242 105.115 127.678 106.21 127.026C106.647 126.804 107.191 126.314 107.084 125.716C106.936 124.977 106.56 124.479 106.203 123.861C105.901 123.283 105.216 122.665 104.477 122.974C103.039 123.545 101.661 124.594 100.317 125.151C100.284 125.037 100.27 124.849 100.25 124.735C100.203 124.023 100.217 123.082 99.5179 122.638C98.5503 122.114 97.6432 122.336 96.6824 122.43C95.7954 122.578 95.5065 123.411 95.5401 124.144C95.5334 125.172 95.614 126.368 95.567 127.342C95.5401 127.557 95.4864 127.698 95.3856 127.832C95.0026 128.262 94.035 128.652 93.5042 129.001L92.0932 129.808C91.905 129.915 91.5893 130.097 91.4079 130.191C90.9577 130.426 90.3596 130.036 90.3462 129.546V126.327C90.3664 126.005 90.279 125.239 90.4537 124.977C90.7225 124.5 91.7236 124.143 92.2612 123.801L92.9734 123.411C93.4908 123.095 94.0821 122.927 94.4651 122.336C94.8615 121.684 94.4651 120.952 94.1493 120.374C93.7528 119.561 93.0608 118.58 91.9991 118.869C91.4347 118.97 90.7897 119.48 90.3126 119.548C90.2051 119.091 90.2521 116.215 90.2253 115.637C90.2723 113.756 88.9419 113.87 87.4973 113.917C86.1938 113.903 85.6764 114.542 85.7839 115.765C85.7839 116.228 85.7973 117.747 85.7973 118.21C85.7839 118.58 85.8511 119.339 85.7234 119.662C85.5622 119.742 85.2733 119.588 85.0784 119.514C83.701 118.775 82.8879 118.714 82.1085 120.226C81.9607 120.555 81.7659 120.865 81.6315 121.227C81.4568 121.61 81.5509 122.181 81.8868 122.457C82.3975 122.927 83.2172 123.243 83.7883 123.579C84.2855 123.881 85.1859 124.238 85.5756 124.634C86.0124 125.057 85.8511 125.843 85.8914 126.549C85.8914 127.268 85.9049 129.069 85.9049 129.767C85.8713 130.849 84.6618 130.654 83.9026 130.211L82.2967 129.311C81.8465 129.048 81.1208 128.665 80.7042 128.403C80.1801 128.088 79.9718 127.57 80.0323 126.972C80.0054 125.783 80.2272 124.6 80.0121 123.418C79.7971 122.632 78.7288 122.625 78.1039 122.612C77.5597 122.638 77.0154 122.544 76.5383 122.88C75.8597 123.418 76.0411 124.372 75.9067 125.104C75.8597 125.286 75.8328 125.42 75.6312 125.42C74.7376 125.077 73.2325 124.11 72.1171 123.498C71.3511 123.035 70.6725 122.84 70.0409 123.687C69.705 124.117 69.4967 124.58 69.2346 125.037C69.0331 125.366 68.8651 125.83 69.0465 126.233C69.2951 126.777 69.8864 127.026 70.3366 127.295C70.948 127.651 72.3725 128.484 72.9772 128.84C73.1385 128.941 73.3199 129.022 73.4139 129.176C73.4139 129.19 73.4139 129.19 73.4072 129.216C72.9973 129.761 72.3321 129.841 71.8551 130.446C71.2839 131.024 71.667 132.052 72.1373 132.697L72.5203 133.282C72.8025 133.792 73.508 134.128 74.0724 133.913C75.4297 133.382 76.3972 132.482 77.7142 131.951C78.5071 131.797 79.179 132.556 79.945 132.892C80.0592 132.959 81.0872 133.55 81.0872 133.55C81.403 133.732 81.9204 134.014 82.2026 134.209C82.4579 134.39 82.6528 134.578 82.646 134.874C82.5923 135.123 82.2563 135.412 82.0144 135.579C81.8061 135.694 79.0782 137.212 79.0782 137.212C78.6683 137.427 78.245 137.743 77.8217 137.669C77.6537 137.629 77.3648 137.474 77.1834 137.38C76.6795 137.105 75.5506 136.399 75.0333 136.083C73.3468 134.981 72.6614 135.721 71.7543 137.253C71.5998 137.521 71.4385 137.83 71.378 138.22C71.3041 138.596 71.4452 139.08 71.7073 139.383C72.097 139.907 72.7084 140.075 73.1116 140.478C72.3859 140.975 71.4116 141.452 70.6591 141.902C69.8528 142.386 68.4149 142.89 68.7038 144.133C68.9994 144.986 69.3556 145.678 69.9536 146.377C70.1216 146.545 70.2828 146.733 70.6524 146.868C71.378 147.083 72.1373 146.525 72.6883 146.236C73.2594 145.934 74.8585 144.986 75.5103 144.677C75.685 145.672 75.4767 146.968 76.8071 147.345C77.5193 147.546 78.0972 147.446 78.7489 147.419C79.6896 147.432 80.4287 146.834 80.4758 145.887C80.5362 144.711 80.3952 143.501 80.4556 142.366C80.4556 142.218 80.469 142.104 80.5564 141.983C80.8924 141.546 81.6785 141.237 82.1623 140.935L83.4389 140.209C83.7211 140.048 84.2318 139.752 84.5207 139.604C84.897 139.409 85.448 139.638 85.4815 140.075C85.495 140.196 85.4816 140.592 85.4883 140.753V143.696C85.4748 144.462 85.5353 144.731 84.9373 145.054C83.8958 145.705 82.6259 146.176 81.6449 146.948C80.5698 147.976 81.6382 149.381 82.2899 150.362C82.4646 150.59 82.7737 150.879 83.2037 150.973C83.6338 151.06 83.963 150.96 84.2318 150.879C84.6551 150.751 85.1994 150.476 85.495 150.355C85.495 150.422 85.495 150.503 85.5017 150.577C85.5353 151.847 85.495 153.164 85.5286 154.474C85.6294 156.18 87.3293 156.046 88.5925 155.986C89.419 155.999 90.3126 155.603 90.3395 154.628C90.4336 153.553 90.3597 152.27 90.3597 151.195C90.3597 151.027 90.3596 150.516 90.3865 150.261C90.8031 150.355 91.2197 150.651 91.6565 150.792C92.5904 151.215 93.437 150.664 93.9208 149.791C94.2232 149.233 94.5054 148.722 94.6196 148.138C94.7204 146.854 93.2623 146.525 92.4224 146.001L92.0395 145.806C91.5355 145.551 91.045 145.309 90.6351 145.02C90.4537 144.886 90.3664 144.785 90.3193 144.59C90.2656 144.395 90.2521 144.133 90.2521 143.851L90.2051 140.511C90.2051 140.31 90.2051 139.866 90.2051 139.698C90.2253 139.329 90.6217 139.026 90.9845 139.107C91.1727 139.141 91.4818 139.349 91.6699 139.436L91.643 139.423L94.9555 141.257C95.5334 141.533 95.8156 141.862 95.8223 142.5C95.8223 143.118 95.8156 143.763 95.8089 144.395C95.8694 145.174 95.5267 146.357 96.38 146.861C97.2535 147.163 98.1673 147.136 99.0543 146.955C99.2693 146.888 99.4708 146.747 99.6052 146.559C100.082 145.9 99.7799 145.006 100.062 144.328C100.129 144.2 100.23 144.173 100.398 144.22C100.714 144.321 101.057 144.55 101.393 144.718C102.071 145.087 103.731 146.061 104.403 146.364C104.786 146.565 105.283 146.505 105.572 146.169C106.109 145.49 106.6 144.758 106.801 143.905C106.842 143.132 105.948 142.863 105.417 142.52L105.404 142.494Z" fill="#D38734"/>
</svg>
