<svg width="65" height="142" viewBox="0 0 65 142" fill="none" xmlns="http://www.w3.org/2000/svg">
<path d="M0 0V142H64.0889V0H0ZM60.4485 131.886C60.4485 135.239 57.7251 137.963 54.3722 137.963H9.73034C6.37741 137.963 3.65401 135.239 3.65401 131.886V10.0998C3.65401 6.74692 6.37741 4.02352 9.73034 4.02352H54.3722C57.7251 4.02352 60.4485 6.74692 60.4485 10.0998V131.886Z" fill="#563118"/>
<path d="M30.0252 12.5493C30.0252 13.4525 29.9021 14.041 29.642 14.3284C29.382 14.6021 28.9988 14.7389 28.4651 14.7389L28.0956 14.561L27.6713 14.2736L27.1787 13.9862C26.6997 13.7125 25.7964 13.343 24.4553 12.8777C23.1141 12.3987 21.855 12.1661 20.6918 12.1661C19.5285 12.1661 18.68 12.5903 18.1463 13.4251C17.6125 14.2599 17.3388 15.9843 17.3388 18.5982C17.3388 19.3372 17.5715 19.9394 18.0231 20.3773C18.4884 20.8289 19.1179 21.0479 19.9254 21.0479C20.7328 21.0479 21.6361 20.7605 22.6077 20.1994C23.5931 19.6383 24.2773 19.3509 24.7016 19.3509C25.1258 19.3509 25.4817 19.6246 25.7827 20.172C26.0975 20.7195 26.248 21.3764 26.248 22.1291C26.248 24.1682 26.0291 25.4273 25.5775 25.9062L25.03 26.2073C24.2363 26.2073 23.5931 26.0294 23.1278 25.6599C22.0877 24.8662 21.3213 24.4693 20.8423 24.4693C19.2958 24.4693 18.2694 24.7977 17.7357 25.4409C17.4757 25.7694 17.3525 26.8779 17.3525 28.7802C17.3525 30.6825 17.7357 32.1194 18.5021 33.1048C18.9127 33.6385 19.8022 33.8985 21.1844 33.8985C22.5667 33.8985 24.3184 33.4332 26.467 32.4889C28.6156 31.5446 29.8336 31.0793 30.1484 31.0793C30.7232 31.0793 31.0243 31.6268 31.0243 32.7216V33.4469C31.0243 33.8301 30.8874 34.3502 30.6137 35.0344C30.34 35.705 29.9294 36.2387 29.3546 36.6219C28.7935 37.0051 27.8492 37.183 26.5628 37.183H11.8647C9.62025 37.183 8.49805 36.8956 8.49805 36.3072V35.664C8.49805 35.1986 8.90861 34.747 9.74342 34.2817C10.5782 33.8164 11.0572 33.3237 11.2078 32.79C11.3446 32.2563 11.4267 29.1497 11.4267 23.4702C11.4267 17.7908 11.3309 14.5747 11.1393 13.822C10.9477 13.0693 10.4824 12.3714 9.71605 11.7281C8.96335 11.0986 8.58016 10.4691 8.58016 9.83955C8.58016 9.38793 9.07284 9.14159 10.0445 9.07317C11.0162 9.00474 14.2186 8.97737 19.638 8.97737H24.9069L25.7554 8.96368C27.1239 8.96368 28.0819 9.15528 28.6293 9.55216C29.5462 10.1954 30.0115 11.2081 30.0115 12.5493H30.0252Z" fill="#563118"/>
<path d="M45.2852 10.2087C45.2852 10.3866 44.8746 10.9477 44.0398 11.8783C43.205 12.8226 42.7123 13.6164 42.5618 14.2596C42.4113 14.9028 42.3291 18.0094 42.3291 23.552C42.3291 29.0946 42.4113 32.1601 42.5618 32.7486C42.7123 33.3234 43.0408 33.7203 43.5472 33.9392C44.0535 34.1445 44.902 34.254 46.12 34.254C47.338 34.254 48.4055 34.035 49.3087 33.5834C50.212 33.1318 51.211 32.3381 52.2648 31.1885C53.3185 30.0389 54.2218 29.4641 54.9882 29.4641C55.563 29.4641 55.864 29.8336 55.864 30.5589V31.0927C55.864 32.1054 55.6998 33.2276 55.3714 34.473C55.0429 35.7184 54.7966 36.4163 54.605 36.5942C54.1807 36.9911 53.168 37.1827 51.5668 37.1827H40.6732C37.115 37.1827 35.1443 37.1553 34.7748 37.0869C34.1316 36.9637 33.8031 36.5942 33.8031 35.9921C33.8031 35.6636 34.1589 35.1436 34.8843 34.4319C35.6096 33.7203 36.0886 32.7897 36.3623 31.6401C36.4718 31.1748 36.5265 28.1503 36.5265 22.553C36.5265 16.9556 36.4444 13.8901 36.2802 13.3427C36.116 12.8089 35.5959 12.2615 34.7201 11.7004C33.8442 11.153 33.4062 10.5235 33.4062 9.83921C33.4062 9.29179 34.7201 9.00439 37.3613 9.00439H42.7397C43.7935 9.00439 44.4914 9.08651 44.8199 9.23705C45.1483 9.38759 45.3126 9.71604 45.3126 10.2224L45.2852 10.2087Z" fill="#563118"/>
<path d="M28.8212 45.5178C28.8212 46.7084 28.479 47.2969 27.7811 47.2969C27.48 47.2969 26.7547 46.8452 25.5914 45.9283C24.4418 45.0114 23.4839 44.3819 22.7175 44.0124C21.9511 43.6565 21.0752 43.4786 20.0899 43.4786H20.0351C19.0908 43.4786 18.1739 43.725 17.3117 44.2313C14.8757 45.6546 13.644 48.7065 13.644 53.3869C13.644 54.7281 13.8493 56.0282 14.2736 57.3009C15.5053 61.0507 17.8728 62.9256 21.3489 62.9256H21.39C22.9912 62.9256 24.6471 62.3235 26.3578 61.1328C27.4663 60.3664 28.0958 59.9833 28.2601 59.9833C28.8349 59.9833 29.1223 60.257 29.1223 60.7907V61.2286C29.1223 61.5023 28.8485 62.0498 28.3011 62.8709C27.7537 63.692 27.0284 64.3215 26.1115 64.7321C24.5103 65.4711 22.6354 65.8406 20.4731 65.8406H19.8709C18.1465 65.8406 16.559 65.5259 15.1221 64.8963C12.2481 63.6236 10.2501 61.5297 9.12785 58.6147C8.52569 57.0546 8.22461 55.5355 8.22461 54.0575V52.8258C8.22461 51.3614 8.512 49.856 9.08679 48.337C10.2774 45.1756 12.3029 42.9723 15.1768 41.7269C16.6959 41.07 18.1876 40.7415 19.6656 40.7415H20.2404C23.9492 40.7415 26.3989 41.0974 27.6032 41.7953C28.3832 42.2469 28.7801 43.4923 28.7801 45.5314L28.8212 45.5178Z" fill="#563118"/>
<path d="M42.9727 40.9604H43.4791C44.3413 40.9604 45.3266 41.891 46.4078 43.7385C46.7773 44.3818 47.3521 45.7229 48.1048 47.7484C48.8575 49.7738 49.5007 51.4708 50.0481 52.7983C50.5818 54.1395 51.184 55.727 51.8135 57.5745C52.4567 59.422 52.922 60.6537 53.2094 61.2559C53.4968 61.858 54.0169 62.4328 54.7559 62.9939C55.4949 63.5414 55.8644 64.0204 55.8644 64.4309C55.8644 64.8415 55.6181 65.1015 55.1117 65.2383C54.2906 65.4436 52.2514 65.5394 48.9943 65.5394C47.5163 65.5394 46.7773 65.2247 46.7773 64.5951C46.7773 64.4309 46.9004 64.034 47.1331 63.3908C47.3657 62.7476 47.4889 62.2823 47.4889 61.9675C47.4889 60.5169 47.1468 59.3126 46.4488 58.3272C46.1614 57.9303 45.2856 57.7251 43.7938 57.7251C41.0568 57.7251 39.5103 57.8072 39.1545 57.9851C38.7987 58.163 38.4292 58.6009 38.0596 59.3262C37.6901 60.0379 37.4985 60.7085 37.4985 61.3106C37.4985 61.9128 37.6628 62.5834 38.0049 63.2813C38.3334 63.9793 38.5113 64.5404 38.5113 64.9373C38.5113 65.43 37.9775 65.6763 36.9238 65.6763C34.4056 65.6763 32.736 65.5531 31.8875 65.3205C31.3538 65.1699 31.0801 64.7867 31.0801 64.1709C31.0801 64.0888 31.6138 63.5824 32.6813 62.6381C33.2697 62.1181 33.7351 61.4475 34.0909 60.6127C36.6227 54.5637 38.2376 50.1844 38.9218 47.461C39.6061 44.7376 40.1946 42.9722 40.6736 42.1647C41.1526 41.3436 41.9326 40.9467 43.0001 40.9467L42.9727 40.9604ZM39.5103 54.8101V54.988C39.5103 55.1248 40.0577 55.1933 41.1526 55.1933H43.178C44.7929 55.1933 45.5866 55.0974 45.5866 54.9059C45.5866 54.3995 45.094 52.853 44.0949 50.2528C43.0959 47.6526 42.5758 46.3661 42.5485 46.3661C42.5211 46.3661 42.0011 47.6663 41.002 50.2665C40.003 52.8667 39.5103 54.3858 39.5103 54.7964V54.8101Z" fill="#563118"/>
<path d="M29.2043 76.2686C29.2043 75.5296 30.6002 75.1601 33.3783 75.1601C36.1565 75.1601 37.8261 75.3791 38.3735 75.8033L38.743 76.337V76.9529C38.743 77.2129 38.3051 77.8561 37.4292 78.8825C36.5534 79.9089 36.0744 80.5385 36.0059 80.7711C35.9375 81.0038 35.8965 81.5922 35.8965 82.5365C35.8965 83.4808 35.828 85.8484 35.7049 89.6393C35.5817 93.4301 35.5133 96.523 35.5133 98.918C35.5133 101.313 35.4859 102.654 35.4312 102.942C35.2669 103.694 34.7332 104.064 33.8163 104.064C33.5699 104.064 32.9541 103.845 31.9961 103.42C31.0381 102.996 30.2033 102.38 29.4917 101.587C28.78 100.793 27.6989 99.3149 26.2482 97.1663C20.1172 88.1202 16.6958 83.5903 16.0115 83.5903C15.7789 83.5903 15.6557 85.3557 15.6557 88.9003C15.6557 92.4448 15.8063 95.0313 16.121 96.6873C16.1484 96.8652 16.34 97.6452 16.7095 99.0548C17.0653 100.451 17.2843 101.245 17.3664 101.436L17.6538 102.038C17.9138 102.586 18.0507 102.9 18.0507 102.983C18.0507 103.53 17.7222 103.886 17.0516 104.077C16.381 104.269 15.1357 104.351 13.2881 104.351C11.4406 104.351 10.2089 104.255 9.59307 104.077C8.97723 103.899 8.66246 103.366 8.66246 102.476C8.66246 102.202 9.11408 101.737 10.0036 101.08C10.9069 100.437 11.3722 100.068 11.4132 99.9718C11.5775 99.6159 11.6596 96.3178 11.6596 90.0635C11.6596 83.8093 11.5775 80.429 11.3995 79.9363C11.2216 79.4299 10.6605 78.8278 9.71624 78.1025C8.77194 77.3771 8.30664 76.5834 8.30664 75.6938C8.30664 74.9959 9.62044 74.6537 12.2617 74.6537H13.206C14.424 74.6537 15.382 74.7769 16.08 75.0232C16.7779 75.2696 17.6675 75.9538 18.776 77.076C19.8845 78.1983 22.1426 81.168 25.5777 85.9989C29.0127 90.8299 30.9013 93.2385 31.2571 93.2385C31.7361 93.2385 31.9824 90.4193 31.9824 84.7673C31.9824 82.8239 31.654 80.8806 30.9834 78.9236C30.8329 78.472 30.5044 77.9656 29.9844 77.4182C29.4643 76.8708 29.218 76.4876 29.218 76.2686H29.2043ZM27.4799 74.0789H27.0557L26.8504 74.0516C26.084 74.0516 25.0029 73.6957 23.6069 72.9978C22.211 72.2998 21.212 71.944 20.6098 71.944C20.0077 71.944 19.3508 72.2451 18.6391 72.8609C17.9275 73.4768 17.3801 73.7779 17.0106 73.7779C16.2579 73.7779 15.8884 73.4357 15.8884 72.7378V72.5325C15.8884 71.5882 16.4221 70.5892 17.5032 69.508C18.5707 68.4405 19.7066 67.8931 20.8835 67.8931H21.0888C22.0058 67.8931 23.1553 68.2489 24.5512 68.9469C25.9472 69.6449 26.9599 70.0007 27.5757 70.0007C28.1916 70.0007 28.8485 69.6996 29.5464 69.1111C30.2444 68.509 30.7644 68.2216 31.1202 68.2216C31.8729 68.2216 32.2425 68.5774 32.2425 69.2754C32.2425 70.3428 31.7087 71.4103 30.6549 72.4777C29.6012 73.5452 28.5337 74.0653 27.4799 74.0653V74.0789Z" fill="#563118"/>
<path d="M45.5049 103.79C43.6163 103.79 42.6857 103.489 42.6857 102.887C42.6857 102.285 43.1783 101.642 44.15 100.957C45.1217 100.273 45.7238 99.5068 45.9428 98.6446C46.1618 97.7961 46.2712 94.4158 46.2712 88.5174C46.2712 82.6189 46.2165 79.4439 46.0933 78.9923C45.8333 77.9522 45.3269 77.1721 44.5879 76.6521C43.2468 75.7078 42.5762 74.9688 42.5762 74.4487V74.134C42.5762 73.6002 44.4237 73.3402 48.1325 73.3402L49.6379 73.2718H51.1432L51.6496 73.2992H52.156C53.8393 73.2992 54.852 73.3676 55.2078 73.4908C55.5636 73.6139 55.7552 73.9971 55.7552 74.6266C55.7552 75.0098 55.2078 75.6394 54.1267 76.5289C53.5382 77.0079 53.1413 77.7059 52.936 78.6091C52.7308 79.5123 52.6213 82.9748 52.6213 89.01C52.6213 95.0453 52.7034 98.3845 52.8676 99.0551C53.0318 99.7257 53.5656 100.437 54.4551 101.19C55.3584 101.956 55.7963 102.586 55.7963 103.092C55.7963 103.681 55.2078 103.982 54.0309 103.982H52.4844L51.9781 103.955H50.938L49.4326 103.913L47.4482 103.872L46.4765 103.831C46.1481 103.818 45.8196 103.804 45.4775 103.804L45.5049 103.79Z" fill="#563118"/>
<path d="M29.6833 112.152C29.6833 113.383 29.3275 113.999 28.6022 113.999C28.2874 113.999 27.521 113.52 26.3304 112.562C25.1261 111.604 24.127 110.947 23.3333 110.564C22.5395 110.195 21.6226 110.003 20.5962 110.003H20.5415C19.5561 110.003 18.5981 110.263 17.6949 110.797C15.1494 112.275 13.8767 115.464 13.8767 120.349C13.8767 121.745 14.0956 123.1 14.5336 124.428C15.82 128.328 18.2834 130.285 21.91 130.285H21.9511C23.6207 130.285 25.345 129.655 27.1242 128.41C28.2737 127.616 28.9306 127.219 29.1085 127.219C29.7107 127.219 30.0118 127.507 30.0118 128.068V128.533C30.0118 128.821 29.7244 129.382 29.1633 130.244C28.5885 131.106 27.8358 131.749 26.8778 132.187C25.2082 132.954 23.2512 133.351 21.0068 133.351H20.3772C18.5845 133.351 16.9285 133.022 15.4231 132.365C12.426 131.038 10.3458 128.862 9.18256 125.81C8.55303 124.181 8.25195 122.594 8.25195 121.061V119.775C8.25195 118.242 8.55303 116.682 9.15519 115.094C10.3869 111.796 12.5081 109.51 15.5052 108.21C17.0791 107.526 18.6392 107.184 20.1856 107.184H20.7878C24.6608 107.184 27.22 107.553 28.4653 108.279C29.2865 108.758 29.697 110.058 29.697 112.165L29.6833 112.152Z" fill="#563118"/>
<path d="M31.1348 120.391C31.1348 118.434 31.4359 116.627 32.038 114.958C33.2013 111.7 35.2404 109.442 38.1554 108.183C39.8387 107.444 41.5768 107.089 43.3285 107.089H43.7664L44.1907 107.102C45.614 107.102 47.092 107.431 48.6111 108.074C50.1438 108.717 51.444 109.648 52.5251 110.838C53.6063 112.029 54.4274 113.425 54.9885 115.012C55.5496 116.6 55.837 118.201 55.837 119.83V120.254C55.837 122.101 55.5222 123.867 54.9064 125.55C54.2905 127.233 53.401 128.67 52.2377 129.875C49.8838 132.311 46.7772 133.529 42.8906 133.542C41.3031 133.542 39.7703 133.241 38.2923 132.639C36.8142 132.037 35.5825 131.189 34.5972 130.094C32.2844 127.521 31.1211 124.291 31.1211 120.404L31.1348 120.391ZM49.5964 121.184V119.953C49.5964 118.707 49.4322 117.394 49.1038 116.025C48.4468 113.302 47.2836 111.399 45.614 110.346C44.8613 109.88 44.0128 109.648 43.0411 109.648H42.7674C41.9736 109.648 41.1525 109.88 40.3314 110.359C38.7165 111.29 37.608 112.932 37.0058 115.286C36.6226 116.75 36.431 118.215 36.431 119.679V120.309C36.431 121.746 36.609 123.155 36.9785 124.551C37.7175 127.302 38.9765 129.218 40.7556 130.285C41.4946 130.723 42.2473 130.942 43.0274 130.942H43.5748C44.4096 130.942 45.2034 130.696 45.9835 130.217C46.7499 129.738 47.3794 129.081 47.8721 128.26C49.0079 126.358 49.5827 124.004 49.5827 121.198L49.5964 121.184Z" fill="#563118"/>
</svg>
