<svg width="374" height="156" viewBox="0 0 374 156" fill="none" xmlns="http://www.w3.org/2000/svg">
<rect x="3.01044" y="2" width="246" height="47" fill="#FBF0DA"/>
<rect x="113.01" y="52" width="256" height="48" fill="#FBF0DA"/>
<rect x="60.0104" y="104" width="50" height="51" fill="#FBF0DA"/>
<path d="M0 0V53.7147H249.256V0H0ZM244.112 40.8536C244.112 45.117 240.659 48.5703 236.395 48.5703H12.8612C8.5977 48.5703 5.14447 45.117 5.14447 40.8536V12.8612C5.14447 8.5977 8.5977 5.14447 12.8612 5.14447H236.395C240.659 5.14447 244.112 8.5977 244.112 12.8612V40.8536Z" fill="#563118"/>
<path d="M110.008 48.5703V102.285H373.74V48.5703H110.008ZM368.595 89.4239C368.595 93.6874 365.142 97.1406 360.878 97.1406H122.869C118.606 97.1406 115.153 93.6874 115.153 89.4239V61.4315C115.153 57.168 118.606 53.7148 122.869 53.7148H360.878C365.142 53.7148 368.595 57.168 368.595 61.4315V89.4239Z" fill="#563118"/>
<path d="M14.6426 42.8408C14.6426 41.6833 15.1378 40.7702 16.1217 40.0885C17.112 39.4133 17.6779 38.6545 17.8322 37.8121C18.0637 36.4874 18.1859 32.7126 18.1859 26.4814C18.1859 20.2501 18.038 16.514 17.7358 15.2664C17.4335 14.0189 17.0091 13.1636 16.4561 12.6942C15.2471 11.691 14.6491 11.0351 14.6491 10.7329V10.3342C14.6491 9.64608 15.2793 9.21523 16.5332 9.02875C16.8869 8.9773 18.6682 8.95158 21.8835 8.95158L25.2017 8.90015H25.8576L27.8447 8.97731H29.851C35.78 8.97731 39.7284 10.81 41.709 14.4755C42.4614 15.8838 42.8408 17.3757 42.8408 18.9447V19.6457C42.8408 22.4623 41.8119 24.8352 39.7541 26.7643C37.6963 28.6935 34.7897 29.8317 31.0407 30.1661C28.8285 30.3655 27.581 30.5327 27.298 30.6677C26.1727 31.1693 25.6132 33.0406 25.6132 36.2687C25.6132 37.7606 26.1341 38.9246 27.1694 39.7606C28.5584 40.8859 29.253 41.8312 29.253 42.5965C29.253 43.2009 28.6099 43.6189 27.3302 43.8504C26.0505 44.0819 24.1921 44.2041 21.7677 44.2041C17.0284 44.2041 14.6619 43.7411 14.6619 42.8215L14.6426 42.8408ZM24.9187 25.2338C24.9187 26.1856 25.0924 26.8351 25.4332 27.1823C25.774 27.5231 26.5393 27.6968 27.7289 27.6968H28.9378C30.6612 27.6968 32.0695 27.0537 33.1563 25.7612C34.2431 24.475 34.7897 22.6487 34.7897 20.2823L34.764 20.0315C34.764 17.6522 34.1466 15.7873 32.9055 14.4305C31.6644 13.0736 30.0889 12.3984 28.1855 12.3984H27.5553C26.147 12.3984 25.3174 12.7392 25.0666 13.4273C24.983 13.6459 24.938 14.9063 24.938 17.2213V21.0411L24.9123 21.9928V25.2338H24.9187Z" fill="#563118"/>
<path d="M47.0204 26.9697C47.0204 24.2881 47.432 21.8123 48.2487 19.5359C49.837 15.0795 52.6279 11.9928 56.6149 10.2694C58.9235 9.26625 61.2899 8.76465 63.7014 8.76465L64.3058 8.79038H64.8846C66.8267 8.79038 68.8458 9.23409 70.9358 10.1215C73.0257 11.0089 74.8199 12.2693 76.2989 13.9027C77.778 15.5361 78.9097 17.4395 79.675 19.6066C80.4466 21.7737 80.8325 23.973 80.8325 26.198V26.7767C80.8325 29.304 80.4081 31.7219 79.5657 34.024C78.7168 36.3262 77.5015 38.3004 75.9131 39.9402C72.6978 43.2712 68.4343 44.9496 63.1291 44.9625C60.9491 44.9625 58.8527 44.5509 56.8335 43.7214C54.8143 42.8918 53.1295 41.7343 51.7726 40.2424C48.6088 36.7249 47.0268 32.3071 47.0268 26.9825L47.0204 26.9697ZM72.2669 28.05V26.3652C72.2669 24.6547 72.0419 22.8669 71.5917 20.9892C70.685 17.253 69.0967 14.6679 66.8202 13.2275C65.7978 12.5909 64.6274 12.2758 63.3027 12.2758H62.9233C61.8365 12.2758 60.724 12.6037 59.5794 13.2532C57.3673 14.5265 55.8561 16.7707 55.0329 19.986C54.5121 21.9924 54.2549 23.9987 54.2549 25.9922V26.8475C54.2549 28.8088 54.5056 30.738 55.0072 32.6479C56.0104 36.4162 57.7338 39.027 60.1839 40.4868C61.187 41.0913 62.2288 41.3935 63.2963 41.3935H64.0486C65.1869 41.3935 66.2865 41.0655 67.3411 40.4032C68.3957 39.7408 69.2574 38.847 69.9262 37.728C71.4824 35.1301 72.2605 31.9084 72.2605 28.0564L72.2669 28.05Z" fill="#563118"/>
<path d="M94.8965 9.2085H99.7452C106.729 9.2085 110.516 9.28568 111.114 9.44644C111.706 9.60721 112.008 10.2052 112.008 11.2406C112.008 12.2759 109.037 17.1567 103.089 25.8702C97.1408 34.5836 94.1698 39.0786 94.1698 39.3487C94.1698 40.0689 95.5846 40.429 98.4141 40.429C101.244 40.429 103.346 40.1397 104.716 39.5609C106.086 38.9822 107.443 38.024 108.787 36.6864C110.131 35.3489 111.134 34.6801 111.803 34.6801C112.587 34.6801 112.986 35.3489 112.986 36.6864C112.986 39.5866 112.594 41.6766 111.803 42.9691C111.333 43.7408 110.053 44.1266 107.957 44.1266H88.5624C87.1541 44.1266 86.2409 44.043 85.8229 43.8758C85.1349 43.5929 84.7941 42.9948 84.7941 42.0817C84.7941 41.1686 85.2185 40.0368 86.0737 38.6928C86.929 37.3423 89.8742 33.0017 94.9158 25.6708C99.9574 18.3335 102.478 14.5202 102.478 14.2179C102.478 13.3112 101.475 12.8611 99.4623 12.8611C97.4495 12.8611 95.829 13.0797 94.5878 13.517C93.3467 13.9543 91.8806 14.7774 90.1893 15.9928C88.4981 17.2082 87.3598 17.8126 86.7747 17.8126C85.9708 17.8126 85.5657 17.0924 85.5657 15.652C85.5657 12.3531 85.9516 10.3853 86.7232 9.74866C87.1412 9.39498 89.8613 9.22137 94.8901 9.22137L94.8965 9.2085Z" fill="#563118"/>
<path d="M116.928 26.9697C116.928 24.2881 117.339 21.8123 118.156 19.5359C119.744 15.0795 122.535 11.9928 126.522 10.2694C128.831 9.26625 131.197 8.76465 133.609 8.76465L134.213 8.79038H134.792C136.734 8.79038 138.753 9.23409 140.843 10.1215C142.933 11.0089 144.727 12.2693 146.206 13.9027C147.685 15.5361 148.817 17.4395 149.582 19.6066C150.354 21.7737 150.74 23.973 150.74 26.198V26.7767C150.74 29.304 150.315 31.7219 149.473 34.024C148.624 36.3262 147.409 38.3004 145.82 39.9402C142.605 43.2712 138.342 44.9496 133.036 44.9625C130.856 44.9625 128.76 44.5509 126.741 43.7214C124.722 42.8918 123.037 41.7343 121.68 40.2424C118.516 36.7249 116.934 32.3071 116.934 26.9825L116.928 26.9697ZM142.174 28.05V26.3652C142.174 24.6547 141.949 22.8669 141.499 20.9892C140.592 17.253 139.004 14.6679 136.727 13.2275C135.705 12.5909 134.535 12.2758 133.21 12.2758H132.831C131.744 12.2758 130.631 12.6037 129.487 13.2532C127.275 14.5265 125.763 16.7707 124.94 19.986C124.419 21.9924 124.162 23.9987 124.162 25.9922V26.8475C124.162 28.8088 124.413 30.738 124.914 32.6479C125.918 36.4162 127.641 39.027 130.091 40.4868C131.094 41.0913 132.136 41.3935 133.204 41.3935H133.956C135.094 41.3935 136.194 41.0655 137.248 40.4032C138.303 39.7408 139.165 38.847 139.833 37.728C141.39 35.1301 142.168 31.9084 142.168 28.0564L142.174 28.05Z" fill="#563118"/>
<path d="M169.781 12.6748C168.829 12.1925 168.347 11.6073 168.347 10.9321C168.347 10.2569 168.746 9.8453 169.556 9.71669C171.819 9.33085 175.71 9.13794 181.234 9.13794H182.565C188.41 9.13794 193.008 10.6748 196.359 13.7487C199.709 16.8225 201.381 21.0474 201.381 26.4234C201.381 31.7994 199.709 36.1143 196.359 39.3617C193.008 42.6092 188.571 44.2361 183.047 44.2361H181.06L180.404 44.2104L179.047 44.1847C178.61 44.1654 178.186 44.1589 177.768 44.1589L172.141 43.9853C170.263 43.9853 169.157 43.876 168.81 43.6574C168.469 43.4387 168.295 43.0143 168.295 42.3777C168.295 42.0111 168.778 41.5031 169.755 40.86C170.726 40.217 171.337 39.4518 171.588 38.5643C171.839 37.6769 171.967 34.7317 171.967 29.7223L171.916 26.507L171.993 22.7129L172.019 22.0827C172.038 21.6454 172.044 21.221 172.044 20.803L172.096 18.9189C172.096 16.6424 171.922 15.0862 171.569 14.2438C171.331 13.6908 170.739 13.1699 169.787 12.6876L169.781 12.6748ZM193.066 27.7738V26.0633C193.066 24.2884 192.822 22.5522 192.339 20.8609C191.298 17.2598 189.368 14.829 186.539 13.575C185.246 13.0092 183.845 12.7198 182.321 12.7198L181.967 12.7455C180.057 12.7455 178.983 13.1699 178.752 14.0252C178.7 14.2117 178.674 16.7132 178.674 21.5361V31.182L178.649 31.5614V32.3138L178.571 34.9503V35.7027L178.546 36.8345V37.2332C178.546 38.6415 178.719 39.5675 179.073 40.0241C179.427 40.4806 180.321 40.6993 181.761 40.6993H183.266C184.674 40.6993 186.018 40.3392 187.298 39.6189C188.578 38.8987 189.594 38.0306 190.352 37.021C191.105 36.0049 191.748 34.6738 192.275 33.0276C192.802 31.3814 193.066 29.6258 193.066 27.7674V27.7738Z" fill="#563118"/>
<path d="M232.53 13.6264C232.53 14.7518 232.369 15.4784 232.054 15.8257C231.733 16.1665 231.251 16.3401 230.595 16.3401L230.145 16.115L229.617 15.7613L229.013 15.4077C228.428 15.0733 227.302 14.6103 225.637 14.0251C223.971 13.4399 222.415 13.1441 220.974 13.1441C219.534 13.1441 218.486 13.665 217.823 14.7003C217.161 15.7421 216.833 17.877 216.833 21.1052C216.833 22.0247 217.116 22.7643 217.688 23.3173C218.254 23.8703 219.045 24.1468 220.048 24.1468C221.052 24.1468 222.164 23.7931 223.38 23.0922C224.595 22.3913 225.457 22.0376 225.965 22.0376C226.473 22.0376 226.923 22.3784 227.309 23.0536C227.694 23.7288 227.887 24.5391 227.887 25.478C227.887 28.0052 227.611 29.5614 227.058 30.153L226.383 30.5324C225.392 30.5324 224.608 30.3074 224.023 29.8572C222.73 28.8669 221.785 28.3782 221.187 28.3782C219.277 28.3782 217.997 28.7769 217.341 29.5871C217.02 29.9858 216.865 31.3684 216.865 33.722C216.865 36.0756 217.341 37.8633 218.299 39.0851C218.801 39.741 219.907 40.0626 221.618 40.0626C223.328 40.0626 225.508 39.4838 228.164 38.3199C230.82 37.1559 232.337 36.5772 232.723 36.5772C233.443 36.5772 233.803 37.2524 233.803 38.6092V39.516C233.803 39.9854 233.636 40.6413 233.302 41.4773C232.967 42.3133 232.447 42.9692 231.746 43.4386C231.045 43.9081 229.887 44.1396 228.28 44.1396H210.068C207.29 44.1396 205.901 43.7794 205.901 43.0592V42.2554C205.901 41.6895 206.416 41.1172 207.444 40.5449C208.473 39.979 209.078 39.3616 209.252 38.6993C209.425 38.0369 209.515 34.1914 209.515 27.1564C209.515 20.1213 209.399 16.1407 209.161 15.2019C208.924 14.263 208.338 13.4013 207.406 12.6168C206.467 11.8323 205.998 11.0542 205.998 10.2825C205.998 9.72945 206.602 9.41436 207.805 9.34362C209.007 9.27289 212.968 9.22786 219.688 9.22786L226.222 9.20215H227.276C228.968 9.20215 230.157 9.44651 230.845 9.92881C231.984 10.7326 232.556 11.9737 232.556 13.6457L232.53 13.6264Z" fill="#563118"/>
<path d="M138.592 59.3414C138.592 59.5601 138.078 60.2481 137.049 61.4121C136.02 62.576 135.409 63.5599 135.216 64.3637C135.023 65.1675 134.927 69.0066 134.927 75.8809C134.927 82.7552 135.023 86.5557 135.216 87.2695C135.409 87.9897 135.814 88.4784 136.432 88.7421C137.049 88.9993 138.116 89.1344 139.621 89.1344C141.126 89.1344 142.444 88.8578 143.576 88.3048C144.708 87.7518 145.923 86.7615 147.229 85.3403C148.534 83.9191 149.659 83.2053 150.592 83.2053C151.312 83.2053 151.672 83.6555 151.672 84.5622V85.2181C151.672 86.4721 151.473 87.8675 151.068 89.398C150.663 90.9285 150.347 91.803 150.116 92.0217C149.595 92.5104 148.341 92.7483 146.348 92.7483H132.856C128.451 92.7483 126.014 92.7098 125.545 92.6197C124.741 92.4718 124.336 92.0153 124.336 91.2629C124.336 90.8642 124.779 90.2147 125.667 89.3273C126.554 88.4398 127.165 87.2823 127.5 85.8612C127.635 85.2953 127.699 81.5398 127.699 74.6076C127.699 67.6755 127.596 63.875 127.397 63.2062C127.197 62.5374 126.548 61.8558 125.461 61.1741C124.374 60.4861 123.828 59.7144 123.828 58.8655C123.828 58.1775 125.461 57.8367 128.728 57.8367H135.383C136.689 57.8367 137.551 57.9331 137.956 58.126C138.367 58.319 138.573 58.7241 138.573 59.3414H138.592Z" fill="#563118"/>
<path d="M170.469 57.8108H171.195C172.436 57.8108 173.825 59.1355 175.362 61.7785C175.896 62.698 176.7 64.6079 177.774 67.5081C178.848 70.4083 179.767 72.8069 180.539 74.7168C181.311 76.6267 182.153 78.8967 183.066 81.5397C183.979 84.1762 184.642 85.9253 185.053 86.787C185.465 87.6487 186.198 88.4719 187.252 89.2628C188.307 90.0474 188.834 90.7354 188.834 91.3077C188.834 91.8801 188.474 92.2659 187.754 92.4524C186.584 92.7353 183.677 92.8768 179.041 92.8768C176.931 92.8768 175.877 92.4267 175.877 91.5199C175.877 91.2884 176.044 90.7097 176.378 89.7966C176.713 88.8834 176.88 88.2082 176.88 87.7774C176.88 85.7196 176.385 83.9833 175.401 82.575C175.002 82.0091 173.735 81.7197 171.607 81.7197C167.703 81.7197 165.498 81.8483 164.99 82.0991C164.482 82.3499 163.961 82.9866 163.434 84.009C162.906 85.0315 162.643 85.9768 162.643 86.8449C162.643 87.713 162.88 88.6519 163.356 89.6615C163.832 90.6711 164.07 91.4556 164.07 92.0215C164.07 92.7225 163.318 93.0762 161.807 93.0762C158.225 93.0762 155.826 92.909 154.624 92.5746C153.852 92.3559 153.466 91.8158 153.466 90.9412C153.466 90.8254 154.225 90.0988 155.749 88.7548C156.585 88.0153 157.254 87.0571 157.755 85.8675C161.369 77.244 163.671 70.9935 164.649 67.1159C165.626 63.2382 166.462 60.7174 167.15 59.5535C167.838 58.3895 168.945 57.8108 170.469 57.8108ZM165.517 77.5527V77.8035C165.517 78.0029 166.295 78.1057 167.851 78.1057H170.739C173.034 78.1057 174.179 77.9707 174.179 77.707C174.179 76.9868 173.465 74.7747 172.044 71.0771C170.623 67.3795 169.89 65.5275 169.845 65.5275C169.8 65.5275 169.067 67.3795 167.646 71.09C166.224 74.8004 165.511 76.9547 165.511 77.5591L165.517 77.5527Z" fill="#563118"/>
<path d="M236.556 88.7423C236.556 90.4914 236.453 91.5203 236.241 91.829C236.028 92.1376 235.501 92.292 234.646 92.292C234.363 92.292 233.649 91.9769 232.511 91.3531C231.373 90.7229 230.344 89.8419 229.424 88.7037C229.038 88.2343 226.563 84.6588 221.99 77.9774C217.418 71.2961 214.724 67.9522 213.901 67.9522C213.566 67.9522 213.399 70.2286 213.399 74.775C213.399 79.3215 213.727 83.4113 214.377 87.0446C214.563 88.0671 214.885 88.8966 215.341 89.5332C215.804 90.1699 216.029 90.6972 216.029 91.1152L215.83 91.6939C215.341 92.2662 213.734 92.5492 211.007 92.5492H209.927C207.766 92.5492 206.486 92.3884 206.081 92.0733C205.682 91.7582 205.477 91.2759 205.477 90.6393C205.477 90.2856 205.94 89.829 206.872 89.2696C207.805 88.7101 208.358 88.1507 208.544 87.5976C208.647 87.2954 208.692 85.8035 208.692 83.1284L208.743 81.9194L208.821 78.3054C208.872 75.9132 208.898 73.1867 208.898 70.1321C208.898 67.0776 208.782 65.1613 208.557 64.3767C208.332 63.5922 207.715 62.8334 206.711 62.0939C205.708 61.3479 205.207 60.6727 205.207 60.0618C205.207 59.4509 205.445 58.9815 205.92 58.6535C206.396 58.3256 207.322 58.1648 208.698 58.1648H209.83C212.544 58.1648 214.955 59.3094 217.065 61.6052C219.174 63.9009 221.99 67.6113 225.514 72.7301C229.038 77.8553 231.07 80.4146 231.604 80.4146C232.241 80.4146 232.556 77.1157 232.556 70.518C232.556 65.6114 232.009 62.5247 230.923 61.2515C230.305 60.512 229.99 60.004 229.99 59.721C229.99 58.9686 230.749 58.5892 232.273 58.5892C235.321 58.5892 237.417 58.7178 238.569 58.9815C239.713 59.2387 240.292 59.7789 240.292 60.602C240.292 61.0907 239.79 61.8367 238.8 62.8527C237.803 63.8687 237.257 64.5761 237.154 64.9877C237.051 65.3992 237.006 67.3477 237.006 70.8266L236.678 82.4789L236.652 83.5849L236.601 84.691C236.569 85.6427 236.549 86.9996 236.549 88.7487L236.556 88.7423Z" fill="#563118"/>
<path d="M247.809 92.3946C245.668 92.3946 244.594 92.0538 244.594 91.3657C244.594 90.6777 245.153 89.9446 246.266 89.1665C247.378 88.3884 248.06 87.5138 248.311 86.5428C248.562 85.5718 248.69 81.7327 248.69 75.0256C248.69 68.3185 248.626 64.7045 248.491 64.1836C248.189 62.994 247.623 62.1065 246.78 61.5214C245.256 60.4474 244.498 59.6115 244.498 59.007V58.6533C244.498 58.0488 246.607 57.7466 250.825 57.7466L252.536 57.6694H254.246L254.825 57.6952H255.404C257.314 57.6952 258.471 57.7659 258.883 57.9074C259.294 58.0488 259.5 58.4797 259.5 59.1999C259.5 59.6372 258.883 60.3574 257.642 61.3606C256.973 61.9136 256.516 62.6982 256.285 63.7206C256.047 64.7431 255.931 68.685 255.931 75.5529C255.931 82.4208 256.021 86.2277 256.208 86.9801C256.394 87.7325 256.992 88.5491 258.015 89.4173C259.037 90.2854 259.545 91.0056 259.545 91.5779C259.545 92.2467 258.876 92.5811 257.539 92.5811H255.783L255.204 92.5554H254.021L252.311 92.5039L250.047 92.4525L248.941 92.4011C248.575 92.3818 248.195 92.3753 247.809 92.3753V92.3946Z" fill="#563118"/>
<path d="M290.914 62.2546C290.914 63.3799 290.753 64.1066 290.438 64.4538C290.116 64.7946 289.634 64.9683 288.978 64.9683L288.528 64.7432L288.001 64.3895L287.396 64.0358C286.811 63.7014 285.686 63.2385 284.02 62.6533C282.355 62.0681 280.798 61.7723 279.358 61.7723C277.918 61.7723 276.869 62.2931 276.207 63.3285C275.545 64.3702 275.217 66.5052 275.217 69.7334C275.217 70.6529 275.5 71.3924 276.072 71.9455C276.638 72.4985 277.429 72.775 278.432 72.775C279.435 72.775 280.548 72.4213 281.763 71.7204C282.978 71.0195 283.84 70.6658 284.348 70.6658C284.856 70.6658 285.306 71.0066 285.692 71.6818C286.078 72.357 286.271 73.1673 286.271 74.1062C286.271 76.6334 285.994 78.1896 285.441 78.7812L284.766 79.1606C283.776 79.1606 282.991 78.9355 282.406 78.4854C281.114 77.4951 280.168 77.0064 279.57 77.0064C277.66 77.0064 276.381 77.405 275.725 78.2153C275.403 78.614 275.249 79.9966 275.249 82.3502C275.249 84.7038 275.725 86.4915 276.683 87.7133C277.184 88.3692 278.29 88.6907 280.001 88.6907C281.712 88.6907 283.892 88.112 286.547 86.948C289.203 85.7841 290.721 85.2054 291.107 85.2054C291.827 85.2054 292.187 85.8806 292.187 87.2374V88.1441C292.187 88.6136 292.02 89.2695 291.685 90.1055C291.351 90.9414 290.83 91.5974 290.129 92.0668C289.428 92.5362 288.271 92.7677 286.663 92.7677H268.452C265.674 92.7677 264.285 92.4076 264.285 91.6874V90.8836C264.285 90.3177 264.799 89.7453 265.828 89.173C266.857 88.6071 267.461 87.9898 267.635 87.3274C267.809 86.6651 267.899 82.8196 267.899 75.7845C267.899 68.7495 267.783 64.7689 267.545 63.8301C267.307 62.8912 266.722 62.0295 265.789 61.245C264.851 60.4604 264.381 59.6823 264.381 58.9107C264.381 58.3576 264.986 58.0425 266.188 57.9718C267.391 57.9011 271.352 57.8561 278.072 57.8561L284.605 57.8303H285.66C287.351 57.8303 288.541 58.0747 289.229 58.557C290.367 59.3608 290.939 60.6019 290.939 62.2739L290.914 62.2546Z" fill="#563118"/>
<path d="M303.575 57.8558C306.591 57.8558 308.096 58.3895 308.096 59.4635C308.096 59.9329 307.935 60.4537 307.62 61.0325C307.299 61.6113 307.144 62.2736 307.144 63.0324C307.144 63.7912 307.421 65.0066 307.974 66.6979C310.283 73.7458 311.89 78.3694 312.797 80.5622C313.704 82.7551 314.237 83.8547 314.405 83.8547C314.887 83.8547 316.565 79.4304 319.427 70.5948C320.533 67.1802 321.086 64.5886 321.086 62.8331C321.086 62.4151 320.842 61.7785 320.346 60.9232C319.851 60.0679 319.607 59.5342 319.607 59.3155C319.607 58.7625 319.909 58.3831 320.526 58.1709C321.137 57.9587 322.366 57.8558 324.205 57.8558H325.96C327.851 57.8558 329.073 58.0037 329.613 58.2931C330.159 58.5889 330.43 58.994 330.43 59.5084C330.43 60.0229 329.883 60.7174 328.796 61.5662C327.709 62.4215 326.906 63.3861 326.385 64.4536C326.282 64.6529 324.732 68.8264 321.723 76.9739C318.719 85.1215 316.81 89.8544 315.993 91.1791C315.183 92.5038 313.871 93.1662 312.064 93.1662C311.022 93.1662 310.019 92.0601 309.048 89.848C308.495 88.6069 306.804 84.3048 303.974 76.9354L301.485 70.4276C301.067 69.3408 300.598 68.0933 300.077 66.6979C299.556 65.3024 299.19 64.3571 298.971 63.8748C298.553 62.9681 297.743 62.1643 296.534 61.4505C295.325 60.7367 294.727 60.0615 294.727 59.4184C294.727 58.7754 294.862 58.3831 295.126 58.2481C295.647 57.978 298.193 57.8494 302.765 57.8494H303.569L303.575 57.8558Z" fill="#563118"/>
<path d="M359.946 62.2546C359.946 63.3799 359.786 64.1066 359.47 64.4538C359.149 64.7946 358.667 64.9683 358.011 64.9683L357.561 64.7432L357.033 64.3895L356.429 64.0358C355.844 63.7014 354.718 63.2385 353.053 62.6533C351.387 62.0681 349.831 61.7723 348.391 61.7723C346.95 61.7723 345.902 62.2931 345.24 63.3285C344.577 64.3702 344.249 66.5052 344.249 69.7334C344.249 70.6529 344.532 71.3924 345.104 71.9455C345.67 72.4985 346.461 72.775 347.465 72.775C348.468 72.775 349.58 72.4213 350.796 71.7204C352.011 71.0195 352.873 70.6658 353.381 70.6658C353.889 70.6658 354.339 71.0066 354.725 71.6818C355.111 72.357 355.303 73.1673 355.303 74.1062C355.303 76.6334 355.027 78.1896 354.474 78.7812L353.799 79.1606C352.808 79.1606 352.024 78.9355 351.439 78.4854C350.146 77.4951 349.201 77.0064 348.603 77.0064C346.693 77.0064 345.413 77.405 344.757 78.2153C344.436 78.614 344.281 79.9966 344.281 82.3502C344.281 84.7038 344.757 86.4915 345.715 87.7133C346.217 88.3692 347.323 88.6907 349.034 88.6907C350.744 88.6907 352.924 88.112 355.58 86.948C358.236 85.7841 359.753 85.2054 360.139 85.2054C360.859 85.2054 361.22 85.8806 361.22 87.2374V88.1441C361.22 88.6136 361.052 89.2695 360.718 90.1055C360.384 90.9414 359.863 91.5974 359.162 92.0668C358.461 92.5362 357.303 92.7677 355.696 92.7677H337.484C334.706 92.7677 333.317 92.4076 333.317 91.6874V90.8836C333.317 90.3177 333.832 89.7453 334.861 89.173C335.889 88.6071 336.494 87.9898 336.668 87.3274C336.841 86.6651 336.931 82.8196 336.931 75.7845C336.931 68.7495 336.815 64.7689 336.578 63.8301C336.34 62.8912 335.754 62.0295 334.822 61.245C333.883 60.4604 333.414 59.6823 333.414 58.9107C333.414 58.3576 334.018 58.0425 335.221 57.9718C336.423 57.9011 340.384 57.8561 347.104 57.8561L353.638 57.8303H354.692C356.384 57.8303 357.573 58.0747 358.261 58.557C359.4 59.3608 359.972 60.6019 359.972 62.2739L359.946 62.2546Z" fill="#563118"/>
<path d="M58.1971 102.285V156H110.008V102.285H58.1971ZM104.864 143.139C104.864 147.402 101.411 150.855 97.1472 150.855H71.0583C66.7948 150.855 63.3416 147.402 63.3416 143.139V115.146C63.3416 110.883 66.7948 107.43 71.0583 107.43H97.1472C101.411 107.43 104.864 110.883 104.864 115.146V143.139Z" fill="#563118"/>
<path d="M68.6597 133.416C68.6597 133.416 68.6468 133.39 68.6339 133.384C68.6339 133.377 68.621 133.371 68.6146 133.358L68.6597 133.416Z" fill="#D38734"/>
<path d="M100.876 136.374L99.2238 135.448C98.9537 135.28 98.6386 135.171 98.4778 134.933C98.2077 134.573 98.2721 134.02 98.6129 133.731C98.9794 133.448 99.481 133.229 99.6096 132.721C99.7061 132.059 99.2752 131.499 98.9344 130.985C98.227 129.75 97.5389 130.078 96.5422 130.715C95.7641 131.145 94.9282 131.744 94.1179 132.078C93.507 132.309 92.9604 131.872 92.4395 131.596L90.8254 130.67L90.0152 130.207C89.7515 130.039 89.4493 129.924 89.2821 129.699C88.8898 129.255 88.9477 128.554 89.4171 128.187C90.4332 127.512 91.6099 127.03 92.6903 126.445C92.9025 126.342 93.269 126.11 93.4941 126.072C94.0729 125.956 94.5938 126.355 95.0889 126.644C95.4941 126.888 96.285 127.377 96.6901 127.615C97.2817 128.007 98.0277 128.406 98.6386 127.789C99.0823 127.3 99.4424 126.753 99.7125 126.149C100.285 124.908 98.9215 124.38 98.2013 123.77C98.1306 123.699 98.0856 123.673 98.1177 123.615C98.1756 123.519 98.3814 123.409 98.4843 123.339C99.5132 122.734 100.6 122.194 101.648 121.57C102.066 121.358 102.587 120.889 102.484 120.316C102.343 119.609 101.982 119.133 101.642 118.541C101.352 117.988 100.696 117.397 99.989 117.693C98.6129 118.239 97.2946 119.242 96.0085 119.776C95.9763 119.667 95.9635 119.487 95.9442 119.377C95.8991 118.696 95.912 117.796 95.2433 117.371C94.3172 116.87 93.4491 117.082 92.5295 117.172C91.6807 117.313 91.4042 118.111 91.4363 118.812C91.4299 119.795 91.5071 120.94 91.4621 121.873C91.4363 122.078 91.3849 122.213 91.2884 122.342C90.9219 122.754 89.9959 123.127 89.4879 123.461L88.1374 124.233C87.9574 124.335 87.6551 124.509 87.4815 124.599C87.0507 124.824 86.4783 124.451 86.4655 123.982V120.902C86.4848 120.593 86.4012 119.86 86.5684 119.609C86.8256 119.152 87.7837 118.812 88.2982 118.484L88.9799 118.111C89.475 117.808 90.0409 117.648 90.4074 117.082C90.7868 116.458 90.4075 115.757 90.1052 115.204C89.7258 114.426 89.0634 113.487 88.0474 113.764C87.5072 113.86 86.8899 114.349 86.4333 114.413C86.3304 113.976 86.3755 111.223 86.3497 110.67C86.3947 108.87 85.1215 108.979 83.7389 109.024C82.4914 109.011 81.9962 109.622 82.0991 110.793C82.0991 111.236 82.112 112.69 82.112 113.133C82.0991 113.487 82.1634 114.214 82.0412 114.522C81.8869 114.6 81.6104 114.452 81.4239 114.381C80.1056 113.674 79.3275 113.616 78.5816 115.063C78.4401 115.378 78.2536 115.673 78.125 116.021C77.9578 116.387 78.0478 116.934 78.3694 117.198C78.8581 117.648 79.6426 117.95 80.1892 118.271C80.6651 118.561 81.5268 118.902 81.8998 119.281C82.3178 119.686 82.1634 120.439 82.202 121.114C82.202 121.802 82.2149 123.525 82.2149 124.194C82.1827 125.229 81.0252 125.043 80.2986 124.618L78.7616 123.757C78.3308 123.506 77.6363 123.139 77.2376 122.889C76.736 122.586 76.5367 122.091 76.5945 121.519C76.5688 120.381 76.781 119.249 76.5752 118.117C76.3694 117.365 75.347 117.358 74.749 117.345C74.2281 117.371 73.7072 117.281 73.2506 117.603C72.6011 118.117 72.7747 119.03 72.6461 119.731C72.6011 119.905 72.5754 120.033 72.3825 120.033C71.5272 119.705 70.0867 118.779 69.0193 118.194C68.2862 117.751 67.6367 117.564 67.0322 118.374C66.7107 118.786 66.5114 119.23 66.2606 119.667C66.0676 119.982 65.9069 120.426 66.0805 120.812C66.3184 121.332 66.8843 121.57 67.3152 121.828C67.9004 122.168 69.2637 122.966 69.8424 123.307C69.9967 123.403 70.1703 123.48 70.2604 123.628C70.2604 123.641 70.2604 123.641 70.2539 123.667C69.8617 124.188 69.225 124.265 68.7685 124.843C68.2219 125.397 68.5884 126.38 69.0386 126.998L69.4051 127.557C69.6752 128.046 70.3504 128.367 70.8906 128.162C72.1896 127.654 73.1156 126.792 74.376 126.284C75.1348 126.136 75.7778 126.863 76.5109 127.184C76.6202 127.249 77.6041 127.814 77.6041 127.814C77.9064 127.988 78.4015 128.258 78.6716 128.445C78.916 128.618 79.1024 128.798 79.096 129.081C79.0446 129.319 78.723 129.596 78.4915 129.756C78.2922 129.866 75.6814 131.319 75.6814 131.319C75.2891 131.525 74.884 131.827 74.4788 131.756C74.3181 131.718 74.0416 131.57 73.868 131.48C73.3857 131.216 72.3053 130.541 71.8102 130.239C70.1961 129.184 69.5402 129.891 68.672 131.358C68.5241 131.615 68.3698 131.911 68.3119 132.284C68.2412 132.644 68.3762 133.107 68.627 133.396C69 133.898 69.5852 134.059 69.971 134.444C69.2765 134.92 68.3441 135.377 67.6238 135.808C66.8522 136.271 65.476 136.753 65.7525 137.943C66.0355 138.759 66.3763 139.422 66.9486 140.09C67.1094 140.251 67.2637 140.431 67.6174 140.56C68.3119 140.766 69.0386 140.232 69.5659 139.955C70.1125 139.666 71.6429 138.759 72.2667 138.463C72.4339 139.415 72.2346 140.656 73.5078 141.016C74.1895 141.209 74.7425 141.113 75.3663 141.087C76.2665 141.1 76.9739 140.528 77.0189 139.621C77.0768 138.496 76.9418 137.338 76.9997 136.251C76.9997 136.11 77.0125 136.001 77.0961 135.885C77.4176 135.467 78.17 135.171 78.633 134.882L79.8548 134.187C80.1249 134.033 80.6136 133.75 80.8902 133.608C81.2503 133.422 81.7776 133.641 81.8097 134.059C81.8226 134.174 81.8097 134.554 81.8162 134.708V137.525C81.8033 138.258 81.8612 138.515 81.2889 138.824C80.2921 139.447 79.0767 139.898 78.1378 140.637C77.109 141.621 78.1314 142.965 78.7552 143.904C78.9224 144.122 79.2182 144.399 79.6298 144.489C80.0413 144.573 80.3564 144.476 80.6137 144.399C81.0188 144.277 81.5397 144.013 81.8226 143.897C81.8226 143.962 81.8226 144.039 81.829 144.11C81.8612 145.325 81.8226 146.585 81.8547 147.839C81.9512 149.473 83.5781 149.344 84.7871 149.286C85.5781 149.299 86.4333 148.92 86.459 147.987C86.5491 146.958 86.4783 145.73 86.4783 144.701C86.4783 144.54 86.4783 144.052 86.5041 143.807C86.9028 143.897 87.3015 144.18 87.7194 144.315C88.6133 144.72 89.4236 144.193 89.8866 143.357C90.1759 142.823 90.446 142.335 90.5553 141.775C90.6518 140.547 89.2564 140.232 88.4525 139.73L88.086 139.544C87.6037 139.299 87.1343 139.068 86.742 138.791C86.5684 138.663 86.4848 138.566 86.4398 138.38C86.3883 138.193 86.3754 137.943 86.3754 137.672L86.3304 134.477C86.3304 134.284 86.3304 133.859 86.3304 133.698C86.3497 133.345 86.7291 133.055 87.0764 133.133C87.2564 133.165 87.5523 133.364 87.7323 133.448L87.7066 133.435L90.8769 135.19C91.4299 135.454 91.7 135.769 91.7064 136.38C91.7064 136.972 91.7 137.589 91.6936 138.193C91.7514 138.939 91.4234 140.071 92.2401 140.553C93.0761 140.843 93.9507 140.817 94.7995 140.643C95.0053 140.579 95.1982 140.444 95.3269 140.264C95.7834 139.634 95.494 138.779 95.7641 138.129C95.8284 138.007 95.9249 137.981 96.0857 138.026C96.3879 138.123 96.7158 138.341 97.0374 138.502C97.6869 138.856 99.2752 139.788 99.9183 140.078C100.285 140.27 100.761 140.213 101.037 139.891C101.552 139.242 102.021 138.541 102.214 137.724C102.253 136.984 101.397 136.727 100.889 136.399L100.876 136.374Z" fill="#563118"/>
</svg>
