<svg width="42" height="93" viewBox="0 0 42 93" fill="none" xmlns="http://www.w3.org/2000/svg">
<path d="M0 0V92.76H41.8654V0H0ZM39.4874 86.1534C39.4874 88.3437 37.7083 90.1227 35.5181 90.1227H6.35624C4.16598 90.1227 2.38694 88.3437 2.38694 86.1534V6.59762C2.38694 4.40735 4.16598 2.62832 6.35624 2.62832H35.5181C37.7083 2.62832 39.4874 4.40735 39.4874 6.59762V86.1534Z" fill="#FBF0DA"/>
<path d="M19.6142 8.19771C19.6142 8.78774 19.5337 9.17216 19.3638 9.35989C19.194 9.53869 18.9437 9.62809 18.595 9.62809L18.3536 9.51187L18.0765 9.32413L17.7547 9.1364C17.4418 8.9576 16.8517 8.71622 15.9756 8.41227C15.0995 8.09937 14.2771 7.9474 13.5172 7.9474C12.7573 7.9474 12.203 8.22453 11.8544 8.76986C11.5057 9.3152 11.3269 10.4416 11.3269 12.1491C11.3269 12.6319 11.4789 13.0252 11.7739 13.3113C12.0779 13.6063 12.4891 13.7494 13.0165 13.7494C13.544 13.7494 14.134 13.5616 14.7688 13.1951C15.4124 12.8286 15.8594 12.6408 16.1366 12.6408C16.4137 12.6408 16.6461 12.8196 16.8428 13.1772C17.0484 13.5348 17.1468 13.9639 17.1468 14.4556C17.1468 15.7877 17.0037 16.6101 16.7087 16.923L16.3511 17.1197C15.8326 17.1197 15.4124 17.0035 15.1085 16.7621C14.429 16.2436 13.9284 15.9843 13.6155 15.9843C12.6053 15.9843 11.9348 16.1989 11.5862 16.6191C11.4163 16.8336 11.3358 17.5577 11.3358 18.8004C11.3358 20.043 11.5862 20.9817 12.0868 21.6254C12.355 21.974 12.9361 22.1439 13.839 22.1439C14.7419 22.1439 15.8862 21.8399 17.2898 21.2231C18.6934 20.6062 19.489 20.3023 19.6946 20.3023C20.0701 20.3023 20.2668 20.6599 20.2668 21.3751V21.8489C20.2668 22.0992 20.1774 22.4389 19.9986 22.8859C19.8198 23.324 19.5516 23.6726 19.1761 23.9229C18.8096 24.1732 18.1927 24.2895 17.3524 24.2895H7.75096C6.28483 24.2895 5.55176 24.1017 5.55176 23.7173V23.2971C5.55176 22.9932 5.81995 22.6982 6.36529 22.3942C6.91062 22.0903 7.22351 21.7684 7.32185 21.4198C7.41125 21.0711 7.46489 19.0418 7.46489 15.3317C7.46489 11.6217 7.40231 9.52081 7.27715 9.02912C7.15199 8.53743 6.84804 8.08149 6.34741 7.66132C5.85571 7.25009 5.6054 6.83885 5.6054 6.42762C5.6054 6.1326 5.92723 5.97169 6.56196 5.92699C7.19669 5.88229 9.28862 5.86441 12.8288 5.86441H16.2707L16.8249 5.85547C17.7189 5.85547 18.3447 5.98063 18.7023 6.23988C19.3013 6.66006 19.6052 7.32161 19.6052 8.19771H19.6142Z" fill="#FBF0DA"/>
<path d="M29.5821 6.66854C29.5821 6.78476 29.3139 7.1513 28.7685 7.75921C28.2232 8.37606 27.9014 8.89457 27.803 9.31474C27.7047 9.73492 27.6511 11.7643 27.6511 15.3849C27.6511 19.0056 27.7047 21.0081 27.803 21.3925C27.9014 21.768 28.1159 22.0272 28.4467 22.1703C28.7775 22.3044 29.3317 22.3759 30.1274 22.3759C30.923 22.3759 31.6204 22.2328 32.2104 21.9378C32.8004 21.6428 33.453 21.1243 34.1414 20.3734C34.8298 19.6224 35.4198 19.2469 35.9204 19.2469C36.2959 19.2469 36.4926 19.4883 36.4926 19.9621V20.3108C36.4926 20.9723 36.3853 21.7054 36.1707 22.5189C35.9562 23.3324 35.7953 23.7884 35.6701 23.9046C35.393 24.1639 34.7314 24.289 33.6855 24.289H26.5693C24.245 24.289 22.9576 24.2711 22.7163 24.2264C22.2961 24.146 22.0815 23.9046 22.0815 23.5112C22.0815 23.2967 22.314 22.957 22.7878 22.4921C23.2616 22.0272 23.5745 21.4193 23.7533 20.6684C23.8248 20.3644 23.8606 18.3887 23.8606 14.7323C23.8606 11.0759 23.8069 9.07337 23.6996 8.71577C23.5924 8.36712 23.2526 8.00952 22.6805 7.64299C22.1083 7.28539 21.8223 6.87416 21.8223 6.42717C21.8223 6.06957 22.6805 5.88184 24.4059 5.88184H27.9193C28.6076 5.88184 29.0636 5.93548 29.2781 6.03381C29.4927 6.13215 29.5999 6.34671 29.5999 6.67748L29.5821 6.66854Z" fill="#FBF0DA"/>
<path d="M18.8275 29.7338C18.8275 30.5115 18.604 30.896 18.1481 30.896C17.9514 30.896 17.4776 30.6009 16.7177 30.002C15.9668 29.403 15.341 28.9918 14.8404 28.7504C14.3397 28.518 13.7676 28.4017 13.1239 28.4017H13.0881C12.4713 28.4017 11.8723 28.5627 11.3091 28.8934C9.71782 29.8232 8.91323 31.8168 8.91323 34.8742C8.91323 35.7503 9.04733 36.5996 9.32447 37.431C10.1291 39.8805 11.6756 41.1053 13.9464 41.1053H13.9732C15.0192 41.1053 16.1009 40.7119 17.2184 39.9342C17.9425 39.4335 18.3537 39.1832 18.461 39.1832C18.8365 39.1832 19.0242 39.362 19.0242 39.7107V39.9967C19.0242 40.1755 18.8454 40.5331 18.4878 41.0695C18.1302 41.6059 17.6564 42.0172 17.0574 42.2853C16.0115 42.7681 14.7867 43.0095 13.3742 43.0095H12.9809C11.8544 43.0095 10.8174 42.8039 9.87874 42.3926C8.00137 41.5612 6.69615 40.1934 5.96308 38.2892C5.56972 37.2701 5.37305 36.2778 5.37305 35.3123V34.5077C5.37305 33.5511 5.56078 32.5677 5.93626 31.5754C6.71403 29.5103 8.03713 28.071 9.9145 27.2574C10.9068 26.8283 11.8813 26.6138 12.8468 26.6138H13.2222C15.6449 26.6138 17.2452 26.8462 18.0319 27.3021C18.5415 27.5972 18.8007 28.4107 18.8007 29.7427L18.8275 29.7338Z" fill="#FBF0DA"/>
<path d="M28.0715 26.757H28.4023C28.9655 26.757 29.6091 27.3649 30.3154 28.5718C30.5568 28.992 30.9322 29.8681 31.4239 31.1912C31.9156 32.5143 32.3358 33.6228 32.6934 34.49C33.042 35.3661 33.4354 36.4031 33.8466 37.61C34.2668 38.8169 34.5708 39.6214 34.7585 40.0148C34.9462 40.4082 35.2859 40.7836 35.7687 41.1502C36.2514 41.5078 36.4928 41.8207 36.4928 42.0889C36.4928 42.357 36.3319 42.5269 36.0011 42.6163C35.4647 42.7504 34.1327 42.813 32.005 42.813C31.0395 42.813 30.5568 42.6074 30.5568 42.1961C30.5568 42.0889 30.6372 41.8296 30.7892 41.4094C30.9412 40.9892 31.0216 40.6853 31.0216 40.4797C31.0216 39.532 30.7981 38.7453 30.3422 38.1017C30.1545 37.8424 29.5823 37.7083 28.6079 37.7083C26.8199 37.7083 25.8097 37.762 25.5773 37.8782C25.3448 37.9944 25.1034 38.2805 24.8621 38.7543C24.6207 39.2192 24.4955 39.6572 24.4955 40.0506C24.4955 40.4439 24.6028 40.882 24.8263 41.3379C25.0409 41.7938 25.1571 42.1604 25.1571 42.4196C25.1571 42.7415 24.8084 42.9024 24.1201 42.9024C22.4751 42.9024 21.3845 42.8219 20.8302 42.6699C20.4815 42.5716 20.3027 42.3213 20.3027 41.919C20.3027 41.8654 20.6514 41.5346 21.3487 40.9177C21.7331 40.578 22.0371 40.14 22.2695 39.5946C23.9234 35.6432 24.9783 32.7825 25.4253 31.0034C25.8723 29.2244 26.2567 28.0711 26.5696 27.5437C26.8825 27.0073 27.392 26.748 28.0894 26.748L28.0715 26.757ZM25.8097 35.8041V35.9203C25.8097 36.0097 26.1673 36.0544 26.8825 36.0544H28.2056C29.2605 36.0544 29.779 35.9919 29.779 35.8667C29.779 35.5359 29.4572 34.5257 28.8045 32.8272C28.1519 31.1286 27.8122 30.2882 27.7943 30.2882C27.7765 30.2882 27.4367 31.1375 26.7841 32.8361C26.1315 34.5347 25.8097 35.527 25.8097 35.7952V35.8041Z" fill="#FBF0DA"/>
<path d="M19.0779 49.8218C19.0779 49.339 19.9898 49.0977 21.8046 49.0977C23.6194 49.0977 24.71 49.2407 25.0676 49.5178L25.309 49.8665V50.2688C25.309 50.4386 25.0229 50.8588 24.4508 51.5293C23.8786 52.1998 23.5657 52.611 23.521 52.763C23.4763 52.915 23.4495 53.2994 23.4495 53.9162C23.4495 54.5331 23.4048 56.0797 23.3244 58.556C23.2439 61.0324 23.1992 63.0528 23.1992 64.6173C23.1992 66.1817 23.1813 67.0578 23.1456 67.2456C23.0383 67.7373 22.6896 67.9786 22.0907 67.9786C21.9297 67.9786 21.5274 67.8356 20.9017 67.5585C20.2759 67.2813 19.7305 66.879 19.2657 66.3605C18.8008 65.842 18.0945 64.8765 17.1469 63.4729C13.1419 57.5637 10.9069 54.6046 10.4599 54.6046C10.3079 54.6046 10.2275 55.7578 10.2275 58.0733C10.2275 60.3887 10.3258 62.0783 10.5314 63.1601C10.5493 63.2763 10.6745 63.7858 10.9158 64.7066C11.1483 65.6185 11.2913 66.137 11.3449 66.2622L11.5327 66.6555C11.7025 67.0131 11.7919 67.2188 11.7919 67.2724C11.7919 67.63 11.5774 67.8624 11.1393 67.9876C10.7013 68.1127 9.88775 68.1664 8.68087 68.1664C7.47399 68.1664 6.6694 68.1038 6.2671 67.9876C5.86481 67.8714 5.65919 67.5227 5.65919 66.9416C5.65919 66.7628 5.95421 66.4589 6.5353 66.0298C7.12533 65.6096 7.42929 65.3682 7.45611 65.3056C7.56338 65.0732 7.61702 62.9187 7.61702 58.8332C7.61702 54.7476 7.56338 52.5395 7.44717 52.2177C7.33095 51.8869 6.96441 51.4935 6.34756 51.0197C5.73071 50.5459 5.42676 50.0274 5.42676 49.4463C5.42676 48.9904 6.28498 48.7669 8.01038 48.7669H8.62723C9.42288 48.7669 10.0487 48.8473 10.5046 49.0083C10.9605 49.1692 11.5416 49.6162 12.2658 50.3492C12.9899 51.0823 14.465 53.0223 16.7089 56.178C18.9528 59.3338 20.1865 60.9072 20.4189 60.9072C20.7318 60.9072 20.8927 59.0656 20.8927 55.3734C20.8927 54.104 20.6782 52.8345 20.2401 51.5561C20.1418 51.2611 19.9272 50.9303 19.5875 50.5727C19.2478 50.2151 19.0869 49.9648 19.0869 49.8218H19.0779ZM17.9515 48.3914H17.6744L17.5403 48.3735C17.0396 48.3735 16.3334 48.1411 15.4215 47.6852C14.5097 47.2292 13.857 46.9968 13.4637 46.9968C13.0703 46.9968 12.6412 47.1935 12.1764 47.5958C11.7115 47.9981 11.3539 48.1947 11.1125 48.1947C10.6208 48.1947 10.3794 47.9712 10.3794 47.5153V47.3812C10.3794 46.7643 10.7281 46.1117 11.4343 45.4055C12.1317 44.7082 12.8737 44.3506 13.6425 44.3506H13.7766C14.3756 44.3506 15.1265 44.583 16.0384 45.039C16.9502 45.4949 17.6118 45.7273 18.0141 45.7273C18.4164 45.7273 18.8455 45.5306 19.3014 45.1462C19.7574 44.7529 20.0971 44.5651 20.3295 44.5651C20.8212 44.5651 21.0626 44.7976 21.0626 45.2535C21.0626 45.9508 20.7139 46.6481 20.0256 47.3454C19.3372 48.0427 18.6399 48.3825 17.9515 48.3825V48.3914Z" fill="#FBF0DA"/>
<path d="M29.7256 67.7997C28.4919 67.7997 27.884 67.603 27.884 67.2096C27.884 66.8163 28.2059 66.3961 28.8406 65.9491C29.4753 65.5021 29.8687 65.0015 30.0117 64.4383C30.1547 63.884 30.2263 61.6759 30.2263 57.8228C30.2263 53.9697 30.1905 51.8956 30.11 51.6006C29.9402 50.9212 29.6094 50.4116 29.1267 50.0719C28.2506 49.4551 27.8125 48.9723 27.8125 48.6326V48.427C27.8125 48.0783 29.0194 47.9085 31.4421 47.9085L32.4255 47.8638H33.4089L33.7396 47.8816H34.0704C35.17 47.8816 35.8316 47.9263 36.064 48.0068C36.2964 48.0873 36.4216 48.3376 36.4216 48.7488C36.4216 48.9991 36.064 49.4104 35.3577 49.9915C34.9733 50.3043 34.7141 50.7603 34.58 51.3503C34.4459 51.9403 34.3744 54.2021 34.3744 58.1446C34.3744 62.0871 34.428 64.2684 34.5353 64.7065C34.6426 65.1445 34.9912 65.6094 35.5723 66.1011C36.1623 66.6017 36.4484 67.013 36.4484 67.3437C36.4484 67.7281 36.064 67.9248 35.2952 67.9248H34.285L33.9542 67.9069H33.2748L32.2914 67.8801L30.9951 67.8533L30.3604 67.8265C30.1458 67.8175 29.9312 67.8086 29.7077 67.8086L29.7256 67.7997Z" fill="#FBF0DA"/>
<path d="M19.3904 73.2618C19.3904 74.0664 19.158 74.4687 18.6842 74.4687C18.4786 74.4687 17.9779 74.1558 17.2002 73.53C16.4135 72.9042 15.7609 72.4751 15.2424 72.2247C14.7238 71.9834 14.1249 71.8582 13.4544 71.8582H13.4186C12.775 71.8582 12.1492 72.0281 11.5591 72.3767C9.89632 73.3422 9.06491 75.4252 9.06491 78.6168C9.06491 79.5286 9.20795 80.4137 9.49402 81.2808C10.3344 83.8287 11.9435 85.1071 14.3126 85.1071H14.3394C15.4301 85.1071 16.5565 84.6959 17.7187 83.8823C18.4696 83.3638 18.8988 83.1046 19.015 83.1046C19.4083 83.1046 19.605 83.2923 19.605 83.6588V83.9628C19.605 84.1505 19.4173 84.5171 19.0507 85.0803C18.6753 85.6435 18.1836 86.0637 17.5578 86.3497C16.4671 86.8504 15.1887 87.1096 13.7226 87.1096H13.3113C12.1402 87.1096 11.0585 86.8951 10.0751 86.4659C8.11728 85.5988 6.75842 84.1773 5.99854 82.1838C5.5873 81.1199 5.39062 80.0829 5.39062 79.0816V78.2413C5.39062 77.24 5.5873 76.2209 5.98066 75.1838C6.78524 73.0293 8.17092 71.5364 10.1288 70.6871C11.1568 70.2401 12.176 70.0166 13.1862 70.0166H13.5795C16.1095 70.0166 17.7813 70.258 18.5948 70.7318C19.1312 71.0447 19.3994 71.894 19.3994 73.2707L19.3904 73.2618Z" fill="#FBF0DA"/>
<path d="M20.338 78.6436C20.338 77.3652 20.5347 76.1852 20.9281 75.0945C21.688 72.9668 23.02 71.4918 24.9242 70.6693C26.0238 70.1865 27.1592 69.9541 28.3035 69.9541H28.5895L28.8667 69.963C29.7964 69.963 30.7619 70.1776 31.7542 70.5978C32.7555 71.0179 33.6048 71.6259 34.311 72.4036C35.0173 73.1814 35.5537 74.0933 35.9202 75.1303C36.2868 76.1673 36.4745 77.2133 36.4745 78.2771V78.5543C36.4745 79.7611 36.2689 80.9144 35.8666 82.014C35.4643 83.1136 34.8832 84.0523 34.1233 84.839C32.5857 86.4303 30.5563 87.2259 28.0174 87.2349C26.9804 87.2349 25.9791 87.0382 25.0136 86.6448C24.0481 86.2515 23.2435 85.6972 22.5998 84.982C21.089 83.3013 20.3291 81.1915 20.3291 78.6526L20.338 78.6436ZM32.3979 79.1622V78.3576C32.3979 77.544 32.2906 76.6858 32.0761 75.7918C31.647 74.0128 30.8871 72.7702 29.7964 72.0818C29.3047 71.7778 28.7505 71.6259 28.1157 71.6259H27.9369C27.4184 71.6259 26.882 71.7778 26.3456 72.0907C25.2907 72.6986 24.5666 73.7714 24.1732 75.3091C23.9229 76.2656 23.7978 77.2222 23.7978 78.1788V78.59C23.7978 79.5287 23.914 80.4495 24.1554 81.3614C24.6381 83.1583 25.4606 84.4099 26.6228 85.1072C27.1055 85.3932 27.5972 85.5363 28.1068 85.5363H28.4644C29.0097 85.5363 29.5282 85.3754 30.0378 85.0625C30.5384 84.7496 30.9497 84.3205 31.2715 83.7841C32.0135 82.5414 32.389 81.0038 32.389 79.1711L32.3979 79.1622Z" fill="#FBF0DA"/>
</svg>
