<svg width="27" height="27" viewBox="0 0 27 27" fill="none" xmlns="http://www.w3.org/2000/svg">
<path d="M9.59678 4.03474C8.98072 9.53905 1.0497 9.14799 1.55326 3.69725C2.02199 -1.3785 9.43875 -1.16154 9.59678 3.93831V4.03474Z" fill="#C25630"/>
<path d="M2.97582 15.9246C3.72044 14.0818 4.30435 13.9318 4.70881 13.7577C5.9677 13.2166 7.59355 14.7353 8.46942 15.2925C8.85512 15.5389 9.33993 15.3996 9.54349 14.9898C10.1863 13.6961 10.8586 12.4077 11.464 11.0953C12.0532 9.82029 12.605 8.46765 13.3496 7.27304C13.963 6.29004 15.2915 4.94007 17.0567 4.9374C19.4325 4.93472 20.8601 7.54089 20.9244 7.66142C23.4583 12.0006 24.9181 16.5755 26.0886 21.4289C26.8412 24.544 26.9617 25.4198 26.4368 26.0305C25.9493 26.5984 25.2421 26.5448 21.9503 26.5555C20.4021 26.5609 18.8539 26.6144 17.3031 26.6037C14.6085 26.5877 12.9398 26.6546 11.0033 26.668C8.76137 26.6841 5.89003 26.6921 2.18031 26.668C1.76247 26.668 0.749994 26.6466 0.265186 25.9877C-0.0910534 25.5056 -0.0776599 24.7609 0.241081 23.7538C1.00445 21.3512 1.82943 18.7531 2.97314 15.9219L2.97582 15.9246Z" fill="#C25630"/>
</svg>
