<svg width="32" height="32" viewBox="0 0 32 32" fill="none" xmlns="http://www.w3.org/2000/svg">
<path d="M13.0137 5.8625C13.0137 6.65483 13.3284 7.41472 13.8887 7.97498C14.449 8.53525 15.2088 8.85 16.0012 8.85C16.7935 8.85 17.5534 8.53525 18.1137 7.97498C18.6739 7.41472 18.9887 6.65483 18.9887 5.8625C18.9887 5.07017 18.6739 4.31028 18.1137 3.75002C17.5534 3.18975 16.7935 2.875 16.0012 2.875C15.2088 2.875 14.449 3.18975 13.8887 3.75002C13.3284 4.31028 13.0137 5.07017 13.0137 5.8625Z" stroke="#563118" stroke-width="1.5" stroke-miterlimit="10"/>
<path d="M23.1758 7.66265C23.1758 8.29585 23.4273 8.90312 23.8751 9.35086C24.3228 9.79861 24.9301 10.0501 25.5633 10.0501C26.1965 10.0501 26.8038 9.79861 27.2515 9.35086C27.6992 8.90312 27.9508 8.29585 27.9508 7.66265C27.9508 7.02944 27.6992 6.42217 27.2515 5.97443C26.8038 5.52669 26.1965 5.27515 25.5633 5.27515C24.9301 5.27515 24.3228 5.52669 23.8751 5.97443C23.4273 6.42217 23.1758 7.02944 23.1758 7.66265Z" stroke="#563118" stroke-width="1.5" stroke-miterlimit="10"/>
<path d="M4.05078 7.66265C4.05078 8.29585 4.30232 8.90312 4.75006 9.35086C5.19781 9.79861 5.80508 10.0501 6.43828 10.0501C7.07149 10.0501 7.67876 9.79861 8.1265 9.35086C8.57424 8.90312 8.82578 8.29585 8.82578 7.66265C8.82578 7.02944 8.57424 6.42217 8.1265 5.97443C7.67876 5.52669 7.07149 5.27515 6.43828 5.27515C5.80508 5.27515 5.19781 5.52669 4.75006 5.97443C4.30232 6.42217 4.05078 7.02944 4.05078 7.66265Z" stroke="#563118" stroke-width="1.5" stroke-miterlimit="10"/>
<path d="M18.3891 30.375V20.8125L19.5891 19.6125V11.25H12.4141V19.6125L13.6141 20.8125V30.375" stroke="#563118" stroke-width="1.5" stroke-miterlimit="10"/>
<path d="M27.9633 27.9875V20.2125V12.4375H23.1758V20.2125V27.9875" stroke="#563118" stroke-width="1.5" stroke-miterlimit="10"/>
<path d="M8.82578 27.9875V20.2125V12.4375H4.05078V20.2125V27.9875" stroke="#563118" stroke-width="1.5" stroke-miterlimit="10"/>
</svg>
