<svg width="307" height="158" viewBox="0 0 307 158" fill="none" xmlns="http://www.w3.org/2000/svg">
<rect x="88.9377" y="55.9978" width="215.207" height="47.2139" fill="#FBF0DA"/>
<rect x="3.29395" y="2.19604" width="77.9578" height="47.2139" fill="#FBF0DA"/>
<rect x="35.1359" y="108.702" width="47.2139" height="47.2139" fill="#FBF0DA"/>
<path d="M0 0V52.5305H84.3834V0H0ZM79.3523 42.5187C79.3523 45.2669 77.1198 47.4995 74.3716 47.4995H10.0118C7.26359 47.4995 5.03106 45.2669 5.03106 42.5187V10.0118C5.03106 7.26358 7.26359 5.03106 10.0118 5.03106H74.3653C77.1135 5.03106 79.346 7.26358 79.346 10.0118V42.5187H79.3523Z" fill="#563118"/>
<path d="M25.0105 10.4772C25.0105 10.691 24.5074 11.3639 23.5012 12.5022C22.495 13.6405 21.8976 14.6027 21.7089 15.3888C21.5202 16.1749 21.4259 19.9293 21.4259 26.652C21.4259 33.3748 21.5202 37.0915 21.7089 37.7896C21.8976 38.4939 22.2938 38.9718 22.8975 39.2297C23.5012 39.4812 24.5452 39.6133 26.0168 39.6133C27.4883 39.6133 28.7775 39.3429 29.8844 38.8021C30.9912 38.2612 32.1798 37.2927 33.4564 35.9029C34.7331 34.5131 35.8336 33.815 36.7455 33.815C37.4498 33.815 37.802 34.2552 37.802 35.142V35.7834C37.802 37.0097 37.6071 38.3744 37.2109 39.8712C36.8147 41.3679 36.5065 42.2232 36.2801 42.437C35.7707 42.9149 34.5444 43.1476 32.5949 43.1476H19.4009C15.0931 43.1476 12.7096 43.1099 12.2505 43.0218C11.4644 42.8772 11.0682 42.4307 11.0682 41.6949C11.0682 41.305 11.5022 40.6698 12.37 39.802C13.2379 38.9341 13.8353 37.8021 14.1623 36.4123C14.2944 35.8589 14.3573 32.1862 14.3573 25.4069C14.3573 18.6275 14.2567 14.9108 14.0617 14.2568C13.8668 13.6027 13.2316 12.9361 12.1688 12.2695C11.106 11.5966 10.5714 10.842 10.5714 10.0118C10.5714 9.33893 12.1688 9.00562 15.3635 9.00562H21.8724C23.1491 9.00562 23.9918 9.09996 24.388 9.28862C24.7904 9.47728 24.9917 9.87347 24.9917 10.4772H25.0105Z" fill="#563118"/>
<path d="M56.1842 8.98047H56.8948C58.1085 8.98047 59.4669 10.276 60.9699 12.8607C61.4919 13.76 62.278 15.6277 63.3283 18.464C64.3785 21.3003 65.2778 23.646 66.0325 25.5138C66.7871 27.3815 67.6109 29.6015 68.504 32.1862C69.397 34.7646 70.0447 36.4752 70.4472 37.3179C70.8497 38.1606 71.5666 38.9656 72.598 39.7391C73.6293 40.5063 74.145 41.1792 74.145 41.7389C74.145 42.2986 73.7929 42.676 73.0885 42.8583C71.9439 43.1351 69.1014 43.2734 64.5672 43.2734C62.5044 43.2734 61.4731 42.8332 61.4731 41.9465C61.4731 41.7201 61.6366 41.1541 61.9636 40.2611C62.2906 39.368 62.4541 38.7077 62.4541 38.2864C62.4541 36.2739 61.9699 34.576 61.0077 33.1987C60.6178 32.6453 59.3789 32.3623 57.2973 32.3623C53.48 32.3623 51.3229 32.4881 50.8261 32.7333C50.3293 32.9786 49.8199 33.6012 49.3042 34.6011C48.7885 35.601 48.5307 36.5255 48.5307 37.3745C48.5307 38.2235 48.7634 39.1417 49.2287 40.129C49.6941 41.1163 49.9268 41.8836 49.9268 42.437C49.9268 43.1225 49.191 43.4684 47.7131 43.4684C44.2102 43.4684 41.8645 43.3049 40.6885 42.9778C39.9338 42.764 39.5565 42.2357 39.5565 41.3805C39.5565 41.2673 40.2986 40.5566 41.789 39.2423C42.6066 38.5191 43.2606 37.582 43.7512 36.4186C47.2855 27.9853 49.5369 21.8726 50.4928 18.0804C51.4487 14.2882 52.2662 11.823 52.9391 10.6847C53.612 9.54646 54.6937 8.98047 56.1842 8.98047ZM51.3481 28.2871V28.5324C51.3481 28.7274 52.109 28.828 53.6309 28.828H56.4546C58.6997 28.828 59.8191 28.6959 59.8191 28.4381C59.8191 27.7337 59.121 25.5704 57.7312 21.9543C56.3414 18.3382 55.6245 16.5271 55.5804 16.5271C55.5364 16.5271 54.8195 18.3382 53.4297 21.9669C52.0398 25.5955 51.3418 27.7023 51.3418 28.2934L51.3481 28.2871Z" fill="#563118"/>
<path d="M33.7081 105.061V157.592H84.3772V105.061H33.7081ZM79.3524 145.014C79.3524 149.183 75.9753 152.56 71.8058 152.56H46.2921C42.1226 152.56 38.7455 149.183 38.7455 145.014V117.639C38.7455 113.469 42.1226 110.092 46.2921 110.092H71.8058C75.9753 110.092 79.3524 113.469 79.3524 117.639V145.014Z" fill="#563118"/>
<path d="M84.3833 52.5303V105.061H306.341V52.5303H84.3833ZM301.31 92.4832C301.31 96.6526 297.933 100.03 293.763 100.03H96.9609C92.7915 100.03 89.4144 96.6526 89.4144 92.4832V65.1079C89.4144 60.9384 92.7915 57.5613 96.9609 57.5613H293.763C297.933 57.5613 301.31 60.9384 301.31 65.1079V92.4832Z" fill="#563118"/>
<path d="M123.317 65.8187V66.6048C123.317 67.9632 122.852 68.6424 121.915 68.6424C121.833 68.6424 120.676 68.089 118.45 66.9696C116.224 65.8564 114.268 65.2967 112.576 65.2967C112.016 65.2967 111.362 65.4917 110.601 65.8879C109.84 66.2841 109.274 66.8186 108.903 67.4978C108.532 68.177 108.35 69.3908 108.35 71.1453C108.35 74.6168 109.532 76.3525 111.884 76.3525C112.601 76.3525 113.507 76.038 114.601 75.4092C115.689 74.7803 116.318 74.4658 116.481 74.4658C117.739 74.4658 118.374 75.8808 118.374 78.7171C118.374 80.2704 118.079 81.371 117.488 82.0061C117.224 82.3017 116.922 82.4463 116.576 82.4463C116.23 82.4463 115.582 82.2514 114.62 81.8678C113.664 81.4842 112.991 81.2892 112.62 81.2892C111.048 81.2892 109.878 81.6477 109.105 82.3709C108.583 82.8614 108.319 83.8865 108.319 85.4398C108.319 86.9932 108.539 88.5088 108.979 89.9741C109.419 91.4394 109.84 92.5651 110.243 93.3512C110.645 94.1373 110.847 94.5397 110.847 94.5523C110.847 95.4202 109.991 95.8541 108.293 95.8541L107.457 95.829H106.595C102.52 95.829 99.9293 95.6592 98.835 95.3133C98.1118 95.0869 97.7533 94.6655 97.7533 94.0618C97.7533 93.4581 98.2627 92.8669 99.2878 92.2946C100.313 91.7224 100.91 91.0243 101.093 90.2068C101.156 89.8986 101.193 86.5026 101.193 80.0252C101.193 73.5477 101.074 69.68 100.835 68.416C100.596 67.1582 100.005 66.0388 99.0551 65.0641C98.1055 64.0893 97.6276 63.3346 97.6276 62.7938C97.6276 62.2529 98.0426 61.9196 98.879 61.7876C100.351 61.5423 104.055 61.4165 109.985 61.4165L112.639 61.3411H115.293L116.154 61.3662C119.381 61.3662 121.28 61.5549 121.852 61.9322C122.821 62.5737 123.299 63.8629 123.299 65.8124L123.317 65.8187Z" fill="#563118"/>
<path d="M141.964 95.9611C139.624 95.9611 137.543 95.4706 135.725 94.4895C132.285 92.6217 130.323 89.5528 129.826 85.2764L129.751 84.2702C129.732 83.9243 129.726 83.2451 129.726 82.2326L129.801 77.2959V71.7931C129.801 68.7808 129.719 67.0828 129.556 66.6929C129.392 66.3093 128.795 65.8439 127.776 65.2905C126.751 64.7434 126.242 64.1334 126.242 63.4605V62.6744C126.242 62.1209 126.845 61.7814 128.059 61.6682C130.518 61.4229 133.273 61.2971 136.335 61.2971C138.297 61.2971 139.285 61.6681 139.285 62.4039C139.285 62.4354 138.995 63.0517 138.411 64.2466C137.826 65.4414 137.43 66.7307 137.209 68.1142C136.989 69.4977 136.876 72.8245 136.876 78.0883C136.876 83.352 137.285 86.8234 138.102 88.49C139.247 90.8294 141.31 92.0054 144.291 92.0054C147.272 92.0054 149.422 90.8923 150.749 88.6661C151.718 87.0435 152.196 83.2325 152.196 77.233C152.196 71.2335 151.793 67.3155 150.994 65.4792L150.649 64.8629L150.234 64.2969C149.743 63.5296 149.498 63.0014 149.498 62.7247C149.498 62.1021 149.869 61.7185 150.605 61.5675C150.913 61.5046 152.202 61.4669 154.472 61.4669C156.742 61.4669 158.422 61.6807 159.522 62.1084C159.962 62.2719 160.182 62.7184 160.182 63.4479C160.182 64.1774 159.868 64.7811 159.252 65.2528C157.956 66.2338 157.239 66.9696 157.088 67.4539C156.944 67.9381 156.868 70.1958 156.868 74.2206L156.919 77.1449L156.944 78.126C156.944 82.0565 156.749 84.9871 156.353 86.9178C155.963 88.8484 155.189 90.4961 154.045 91.8545C151.686 94.5901 148.007 95.9548 143.014 95.9548H141.957L141.964 95.9611Z" fill="#563118"/>
<path d="M189.941 65.7686C189.941 66.8691 189.784 67.5798 189.476 67.9194C189.161 68.2527 188.69 68.4225 188.048 68.4225L187.608 68.2024L187.092 67.8565L186.501 67.5106C185.929 67.1836 184.828 66.7308 183.199 66.1585C181.571 65.5862 180.049 65.2969 178.64 65.2969C177.231 65.2969 176.2 65.8063 175.559 66.8188C174.911 67.8376 174.59 69.9255 174.59 73.0825C174.59 73.9818 174.867 74.705 175.426 75.2459C175.98 75.7867 176.753 76.0571 177.734 76.0571C178.716 76.0571 179.803 75.7112 180.992 75.0258C182.181 74.3403 183.023 73.9944 183.52 73.9944C184.017 73.9944 184.457 74.3277 184.835 74.988C185.212 75.6483 185.401 76.4407 185.401 77.3589C185.401 79.8304 185.13 81.3523 184.589 81.9309L183.929 82.3019C182.96 82.3019 182.193 82.0818 181.621 81.6416C180.357 80.6731 179.432 80.1952 178.848 80.1952C176.98 80.1952 175.728 80.5851 175.087 81.3775C174.772 81.7674 174.621 83.1195 174.621 85.4212C174.621 87.7229 175.087 89.4712 176.024 90.666C176.514 91.3075 177.596 91.622 179.269 91.622C180.942 91.622 183.074 91.0559 185.671 89.9177C188.268 88.7794 189.752 88.2134 190.13 88.2134C190.834 88.2134 191.186 88.8737 191.186 90.2007V91.0874C191.186 91.5465 191.023 92.1879 190.696 93.0055C190.369 93.823 189.859 94.4645 189.174 94.9236C188.488 95.3827 187.356 95.6091 185.784 95.6091H167.974C165.257 95.6091 163.899 95.2569 163.899 94.5525V93.7664C163.899 93.213 164.402 92.6533 165.408 92.0936C166.415 91.5402 167.006 90.9365 167.176 90.2887C167.345 89.641 167.433 85.8803 167.433 79.0003C167.433 72.1203 167.32 68.2275 167.087 67.3094C166.855 66.3912 166.283 65.5485 165.371 64.7813C164.452 64.014 163.993 63.2531 163.993 62.4984C163.993 61.9576 164.585 61.6494 165.761 61.5802C166.937 61.5111 170.81 61.4671 177.382 61.4671L183.772 61.4419H184.803C186.457 61.4419 187.62 61.6809 188.293 62.1525C189.407 62.9386 189.966 64.1524 189.966 65.7875L189.941 65.7686Z" fill="#563118"/>
<path d="M225.976 91.6724C225.976 93.3829 225.876 94.3891 225.668 94.691C225.461 94.9929 224.945 95.1438 224.108 95.1438C223.832 95.1438 223.134 94.8357 222.021 94.2256C220.907 93.6093 219.901 92.7478 219.002 91.6346C218.625 91.1756 216.203 87.679 211.732 81.1449C207.261 74.6108 204.626 71.3406 203.821 71.3406C203.494 71.3406 203.33 73.5669 203.33 78.0131C203.33 82.4593 203.651 86.4589 204.286 90.0121C204.468 91.012 204.783 91.8233 205.229 92.4459C205.676 93.0685 205.902 93.5842 205.902 93.993L205.707 94.5589C205.229 95.1187 203.657 95.3954 200.991 95.3954H199.934C197.821 95.3954 196.57 95.2381 196.174 94.93C195.784 94.6218 195.582 94.1502 195.582 93.5276C195.582 93.1817 196.035 92.7352 196.947 92.1881C197.859 91.6409 198.4 91.0938 198.582 90.553C198.683 90.2574 198.727 88.7984 198.727 86.1822L198.777 84.9999L198.853 81.4656C198.903 79.1262 198.928 76.4597 198.928 73.4725C198.928 70.4853 198.815 68.6113 198.595 67.844C198.375 67.0768 197.771 66.3347 196.79 65.6115C195.809 64.882 195.318 64.2217 195.318 63.6242C195.318 63.0268 195.551 62.5677 196.016 62.247C196.482 61.9263 197.387 61.769 198.733 61.769H199.84C202.494 61.769 204.852 62.8884 206.915 65.1335C208.978 67.3787 211.732 71.0073 215.178 76.0132C218.625 81.0254 220.612 83.5283 221.134 83.5283C221.756 83.5283 222.065 80.3022 222.065 73.8499C222.065 69.0515 221.53 66.0329 220.467 64.7877C219.864 64.0645 219.555 63.5676 219.555 63.2909C219.555 62.5551 220.297 62.1841 221.788 62.1841C224.769 62.1841 226.819 62.3099 227.945 62.5677C229.064 62.8193 229.63 63.3475 229.63 64.1525C229.63 64.6304 229.14 65.3599 228.171 66.3536C227.196 67.3472 226.662 68.039 226.561 68.4415C226.46 68.844 226.416 70.7495 226.416 74.1517L226.096 85.5471L226.071 86.6288L226.02 87.7104C225.989 88.6412 225.97 89.9681 225.97 91.6787L225.976 91.6724Z" fill="#563118"/>
<path d="M241.824 65.3033C240.465 65.3033 239.032 65.9259 237.522 67.1711C235.114 69.1709 233.843 70.1708 233.718 70.1708C232.862 70.1708 232.441 69.6363 232.441 68.5735V67.8125C232.441 66.0454 232.586 64.448 232.881 63.0205C233.026 62.2847 233.359 61.8382 233.875 61.6935C234.39 61.5489 239.315 61.4734 248.654 61.4734L257.867 61.4231H259.489C261.256 61.4231 262.307 61.7124 262.646 62.2847C262.979 62.8569 263.149 64.1084 263.149 66.0454V67.6176C263.149 69.3533 262.747 70.2212 261.948 70.2212C261.244 70.2212 260.395 69.6552 259.395 68.5232C258.395 67.3912 257.477 66.5799 256.64 66.0768C255.804 65.58 254.71 65.3284 253.351 65.3284C252.27 65.3284 251.641 66.0391 251.458 67.4667C251.389 67.9572 251.358 71.6173 251.358 78.4344C251.358 85.2515 251.446 89.0373 251.628 89.7731C251.81 90.5089 252.477 91.3013 253.641 92.144C254.804 92.9867 255.383 93.6973 255.383 94.2822C255.383 94.867 255.087 95.2255 254.496 95.3764C253.905 95.5274 251.999 95.5965 248.773 95.5965H244.648C243.025 95.5965 241.918 95.54 241.321 95.4268C240.723 95.3136 240.421 94.9865 240.421 94.4457C240.421 93.9049 240.975 93.1376 242.094 92.1377C243.207 91.1378 243.861 90.2699 244.056 89.5215C244.251 88.7795 244.352 85.0628 244.352 78.384C244.352 71.7053 244.283 68.0201 244.157 67.3409C244.025 66.6617 243.799 66.1523 243.484 65.819C243.163 65.4857 242.61 65.3159 241.824 65.3159V65.3033Z" fill="#563118"/>
<path d="M292.48 65.7686C292.48 66.8691 292.323 67.5798 292.015 67.9194C291.701 68.2527 291.229 68.4225 290.587 68.4225L290.147 68.2024L289.632 67.8565L289.04 67.5106C288.468 67.1836 287.368 66.7308 285.739 66.1585C284.11 65.5862 282.588 65.2969 281.179 65.2969C279.771 65.2969 278.739 65.8063 278.098 66.8188C277.45 67.8376 277.129 69.9255 277.129 73.0825C277.129 73.9818 277.406 74.705 277.966 75.2459C278.519 75.7867 279.293 76.0571 280.274 76.0571C281.255 76.0571 282.343 75.7112 283.531 75.0258C284.72 74.3403 285.563 73.9944 286.06 73.9944C286.556 73.9944 286.997 74.3277 287.374 74.988C287.751 75.6483 287.94 76.4407 287.94 77.3589C287.94 79.8304 287.669 81.3523 287.129 81.9309L286.468 82.3019C285.5 82.3019 284.733 82.0818 284.16 81.6416C282.896 80.6731 281.972 80.1952 281.387 80.1952C279.519 80.1952 278.268 80.5851 277.626 81.3775C277.312 81.7674 277.161 83.1195 277.161 85.4212C277.161 87.7229 277.626 89.4712 278.563 90.666C279.054 91.3075 280.135 91.622 281.808 91.622C283.481 91.622 285.613 91.0559 288.21 89.9177C290.808 88.7794 292.292 88.2134 292.669 88.2134C293.373 88.2134 293.726 88.8737 293.726 90.2007V91.0874C293.726 91.5465 293.562 92.1879 293.235 93.0055C292.908 93.823 292.399 94.4645 291.713 94.9236C291.028 95.3827 289.896 95.6091 288.324 95.6091H270.514C267.797 95.6091 266.438 95.2569 266.438 94.5525V93.7664C266.438 93.213 266.942 92.6533 267.948 92.0936C268.954 91.5402 269.545 90.9365 269.715 90.2887C269.885 89.641 269.973 85.8803 269.973 79.0003C269.973 72.1203 269.86 68.2275 269.627 67.3094C269.394 66.3912 268.822 65.5485 267.91 64.7813C266.992 64.014 266.533 63.2531 266.533 62.4984C266.533 61.9576 267.124 61.6494 268.3 61.5802C269.476 61.5111 273.35 61.4671 279.922 61.4671L286.311 61.4419H287.342C288.996 61.4419 290.16 61.6809 290.833 62.1525C291.946 62.9386 292.506 64.1524 292.506 65.7875L292.48 65.7686Z" fill="#563118"/>
<path d="M66.4792 114.255C63.97 114.255 61.5047 115.324 59.8005 117.035C59.3288 117.563 58.8131 117.607 58.3037 117.035C52.845 111.444 42.9527 114.909 42.066 122.563C41.8207 124.77 42.0157 129.43 41.9654 131.028C41.9654 131.292 42.1415 131.342 42.3804 131.348C43.0471 131.361 45.1161 131.361 45.7827 131.348C45.9839 131.336 46.1789 131.323 46.1915 131.091C46.3047 129.518 46.0405 124.77 46.311 122.965C47.0342 118.312 53.3356 116.947 55.9266 120.789C56.8825 122.098 54.7883 121.23 54.1594 121.362C50.7194 121.355 47.814 123.89 47.2731 127.204C47.0153 128.99 47.204 131.33 47.1474 133.185C47.1977 133.895 46.9524 134.31 47.5687 134.342C48.2353 134.354 50.3044 134.354 50.971 134.342C51.1534 134.329 51.342 134.31 51.3735 134.097C51.4238 133.499 51.3797 130.462 51.3923 129.141C51.3923 128.456 51.3735 127.996 51.6816 127.28C52.3482 125.582 54.7694 125.097 56.0398 126.399C57.0837 127.43 56.9328 128.575 56.9391 130.015C56.9076 132.216 57.002 134.839 56.9013 137.077C56.8636 137.241 56.7818 137.266 56.6372 137.272C55.3857 137.31 49.2541 137.222 46.7638 137.304C46.4996 137.436 46.5625 137.669 46.5625 138.09C46.965 144.637 52.4929 149.894 59.1905 149.812C65.6239 149.793 71.1141 144.649 71.548 138.209C71.548 137.788 71.6549 137.474 71.353 137.31C70.0261 137.235 66.0201 137.304 63.3348 137.279C62.2217 137.216 61.5551 137.411 61.2532 137.172C61.0645 135.436 61.2406 133.455 61.184 131.763C61.3161 130.065 60.7564 128.141 61.8443 126.663C63.077 125.003 65.9447 125.512 66.5358 127.5C66.9634 129.072 66.649 130.732 66.737 132.411C66.8125 133.424 66.5484 134.103 66.9446 134.317C67.7244 134.411 69.7683 134.336 70.5606 134.348C70.7179 134.336 70.8499 134.323 70.9254 134.203C71.07 132.99 70.938 131.053 70.982 129.676C70.982 128.556 71.0072 128.141 70.8562 127.21C70.3028 123.77 67.1647 121.173 63.5863 121.381C63.1713 121.318 62.077 121.783 61.9513 121.362C64.2341 116.633 71.4411 118.23 71.8813 123.406C72.0637 125.613 71.7492 129.16 72.0071 131.279C72.812 131.506 74.8936 131.317 75.7489 131.367C75.8433 131.361 75.9879 131.355 76.0571 131.304C76.1577 131.235 76.164 131.109 76.1703 130.977C76.1074 129.26 76.2961 124.928 76.0822 122.708C75.5351 117.966 71.3908 114.281 66.6301 114.281H66.5107L66.4792 114.255Z" fill="#563118"/>
</svg>
