<svg width="35" height="27" viewBox="0 0 35 27" fill="none" xmlns="http://www.w3.org/2000/svg">
<path d="M2.1875 21.1458V0M2.1875 21.1458C2.1875 21.1458 2.1875 25.5208 0 25.5208M2.1875 21.1458H32.8125M32.8125 21.1458C32.8125 21.1458 32.8125 25.5208 35 25.5208M32.8125 21.1458V13.125C32.8125 11.7713 32.2747 10.473 31.3175 9.51581C30.3603 8.55859 29.062 8.02083 27.7083 8.02083H15.3125V13.8542M2.1875 16.7708H32.8125M12.3958 10.7917C12.3958 10.7917 10.9375 13.125 9.11458 13.125C8.43773 13.125 7.7886 12.8561 7.30999 12.3775C6.83138 11.8989 6.5625 11.2498 6.5625 10.5729C6.5625 9.16417 7.70583 8.02667 9.11458 8.02667C10.9375 8.02667 12.3958 10.3542 12.3958 10.3542V10.7917Z" stroke="#563118" stroke-width="1.5" stroke-miterlimit="10"/>
</svg>
