<svg width="27" height="26" viewBox="0 0 27 26" fill="none" xmlns="http://www.w3.org/2000/svg">
<path d="M26.3176 11.6961C26.323 10.5443 25.2328 10.8122 24.4909 10.539L24.432 10.5095C23.8132 10.097 24.1159 9.12743 24.0463 8.43102C23.9846 5.82484 24.1641 2.80618 23.9739 0.304462C23.9364 0.21875 23.8721 0.0928608 23.7677 0.0955393C20.9071 -0.0999909 7.50922 0.071434 2.89149 0.033935C2.21384 -0.0169564 2.2808 0.698201 2.2808 1.20444C2.27276 3.11152 2.29419 7.73996 2.27009 9.60152C2.37723 11.305 -0.0414571 10.089 0.0121128 11.664C-0.0146722 14.854 0.0121157 22.2976 0.00675875 24.7163C-0.0521681 25.552 0.703166 25.5654 1.34868 25.552C2.46829 25.552 4.17182 25.6002 5.33696 25.5707H5.95302C6.3414 25.5707 6.65746 25.2546 6.65746 24.8663V16.0138C6.66282 15.5853 6.74317 11.2059 9.01186 9.28278C9.31185 9.02832 11.0341 7.61408 13.2841 7.73193C15.1403 7.82835 16.9268 8.94529 18.1696 10.7211C19.1714 12.1514 19.6589 13.8818 19.6589 15.6281V24.9386C19.6589 25.2868 19.9428 25.5707 20.291 25.5707H21.0544V25.56C21.2579 25.568 21.4829 25.5493 21.732 25.5546C23.1195 25.5787 24.6061 25.6591 25.8757 25.4716C26.3337 25.3671 26.3149 24.8154 26.3149 24.4591C26.3149 21.8208 26.2962 15.4514 26.3149 11.6961H26.3176Z" fill="#7A7A56"/>
</svg>
